G04 #@! TF.FileFunction,Copper,L4,Bot,Signal*
%FSLAX46Y46*%
G04 Gerber Fmt 4.6, Leading zero omitted, Abs format (unit mm)*
G04 Created by KiCad (PCBNEW 4.0.1-3.201512221402+6198~38~ubuntu14.04.1-stable) date Mon 04 Jan 2016 12:08:05 AM EST*
%MOMM*%
G01*
G04 APERTURE LIST*
%ADD10C,0.100000*%
%ADD11R,1.250000X1.000000*%
%ADD12R,1.000000X1.250000*%
%ADD13R,1.000000X2.500000*%
%ADD14R,2.500000X1.000000*%
%ADD15R,1.399540X1.150620*%
%ADD16R,2.032000X1.727200*%
%ADD17O,2.032000X1.727200*%
%ADD18R,1.727200X2.032000*%
%ADD19O,1.727200X2.032000*%
%ADD20R,2.032000X2.032000*%
%ADD21O,2.032000X2.032000*%
%ADD22R,1.300000X0.700000*%
%ADD23R,0.700000X1.300000*%
%ADD24C,1.501140*%
%ADD25C,1.600000*%
%ADD26C,1.500000*%
%ADD27R,1.000000X1.600000*%
%ADD28C,0.685800*%
%ADD29C,1.016000*%
%ADD30C,0.152400*%
%ADD31C,0.304800*%
%ADD32C,0.609600*%
G04 APERTURE END LIST*
D10*
D11*
X119227600Y-107762800D03*
X119227600Y-109762800D03*
D12*
X115579400Y-114147600D03*
X113579400Y-114147600D03*
D11*
X115722400Y-116094000D03*
X115722400Y-118094000D03*
D12*
X106699300Y-98831400D03*
X108699300Y-98831400D03*
X128692400Y-84480400D03*
X130692400Y-84480400D03*
X119650000Y-82042000D03*
X121650000Y-82042000D03*
D13*
X116866800Y-81559400D03*
X113866800Y-81559400D03*
D12*
X119389400Y-88544400D03*
X117389400Y-88544400D03*
D14*
X123418600Y-86409400D03*
X123418600Y-89409400D03*
X126746000Y-86384000D03*
X126746000Y-89384000D03*
D15*
X115316000Y-107696000D03*
X115316000Y-104444800D03*
D16*
X150241000Y-107746800D03*
D17*
X150241000Y-105206800D03*
X150241000Y-102666800D03*
X150241000Y-100126800D03*
X150241000Y-97586800D03*
X150241000Y-95046800D03*
X150241000Y-92506800D03*
X150241000Y-89966800D03*
X150241000Y-87426800D03*
X150241000Y-84886800D03*
D18*
X109728000Y-124206000D03*
D19*
X112268000Y-124206000D03*
X114808000Y-124206000D03*
X117348000Y-124206000D03*
X119888000Y-124206000D03*
X122428000Y-124206000D03*
X124968000Y-124206000D03*
X127508000Y-124206000D03*
X130048000Y-124206000D03*
X132588000Y-124206000D03*
D18*
X119126000Y-78232000D03*
D19*
X116586000Y-78232000D03*
X114046000Y-78232000D03*
X111506000Y-78232000D03*
D20*
X143500600Y-78320900D03*
D21*
X140960600Y-78320900D03*
D18*
X136144000Y-124206000D03*
D19*
X138684000Y-124206000D03*
X141224000Y-124206000D03*
X143764000Y-124206000D03*
D20*
X104244900Y-105041700D03*
D21*
X104244900Y-107581700D03*
D16*
X104194100Y-88544400D03*
D17*
X104194100Y-91084400D03*
X104194100Y-93624400D03*
X104194100Y-96164400D03*
X104194100Y-98704400D03*
X104194100Y-101244400D03*
D16*
X104143300Y-113030000D03*
D17*
X104143300Y-115570000D03*
X104143300Y-118110000D03*
D20*
X136753600Y-78435200D03*
D21*
X134213600Y-78435200D03*
D22*
X106950000Y-91163100D03*
X106950000Y-93063100D03*
X109667800Y-93182400D03*
X109667800Y-95082400D03*
D23*
X108814400Y-88506300D03*
X106914400Y-88506300D03*
X106711200Y-101295200D03*
X108611200Y-101295200D03*
X119339400Y-86512400D03*
X117439400Y-86512400D03*
D22*
X122885200Y-105699600D03*
X122885200Y-103799600D03*
X125171200Y-105648800D03*
X125171200Y-103748800D03*
D23*
X118094800Y-90424000D03*
X116194800Y-90424000D03*
X122438200Y-91414600D03*
X120538200Y-91414600D03*
X116494600Y-84353400D03*
X114594600Y-84353400D03*
X118988800Y-84251800D03*
X120888800Y-84251800D03*
D24*
X114758395Y-112142195D03*
X118210405Y-115594205D03*
D25*
X130096800Y-77876400D03*
X123496800Y-77876400D03*
D26*
X141230000Y-111932000D03*
X141230000Y-113932000D03*
X141230000Y-115932000D03*
X141230000Y-117932000D03*
X149092000Y-117938000D03*
X149092000Y-115938000D03*
X149092000Y-113938000D03*
X149092000Y-111938000D03*
D23*
X144084000Y-112014000D03*
X145984000Y-112014000D03*
X144084000Y-114173000D03*
X145984000Y-114173000D03*
X144112700Y-116230400D03*
X146012700Y-116230400D03*
X144112700Y-118300500D03*
X146012700Y-118300500D03*
D12*
X129721100Y-102654100D03*
X131721100Y-102654100D03*
D27*
X129754500Y-107759500D03*
X132754500Y-107759500D03*
X129729100Y-105194100D03*
X132729100Y-105194100D03*
D12*
X119605300Y-105486200D03*
X117605300Y-105486200D03*
D27*
X120575200Y-103022400D03*
X117575200Y-103022400D03*
X120600600Y-100647500D03*
X117600600Y-100647500D03*
D28*
X121148600Y-104482900D03*
X127193800Y-106349800D03*
X122444000Y-88074500D03*
X110315500Y-98755200D03*
D29*
X140147800Y-97764600D03*
X128578100Y-96227900D03*
X134178800Y-107734100D03*
X116039900Y-100660200D03*
D28*
X113715800Y-116078000D03*
D29*
X120726200Y-110286800D03*
X125095000Y-90805000D03*
D28*
X117119400Y-92125800D03*
D29*
X115671600Y-81178400D03*
D28*
X113842800Y-87477600D03*
X121920000Y-80340200D03*
X131546600Y-80314800D03*
X125730000Y-82118200D03*
X124891800Y-82067400D03*
D29*
X131216400Y-86004400D03*
X124790200Y-84074000D03*
D28*
X111204500Y-93916500D03*
X109756700Y-88506300D03*
D29*
X127879600Y-105206800D03*
X120827800Y-105473500D03*
X115290600Y-102819200D03*
X127279400Y-87630000D03*
D28*
X118278400Y-95326220D03*
X126800100Y-93941900D03*
D29*
X128197100Y-94792800D03*
D28*
X122275600Y-106908600D03*
X121640600Y-111709200D03*
X123317000Y-107111800D03*
X124637800Y-107111800D03*
X128959100Y-99491800D03*
X127473200Y-100076000D03*
X124463300Y-101993700D03*
X125517400Y-98818700D03*
D29*
X126949200Y-84455000D03*
D28*
X120827800Y-86512400D03*
X113792000Y-83388200D03*
X120700800Y-83032600D03*
X119989600Y-85242400D03*
X124028200Y-99695000D03*
X124155200Y-98806000D03*
X113842800Y-90119200D03*
X119354600Y-91973400D03*
X121031000Y-87452200D03*
X127304800Y-82296000D03*
X132756400Y-81813400D03*
X114960400Y-91135200D03*
D29*
X118287800Y-81051400D03*
X123088400Y-108254800D03*
D30*
X144084000Y-112014000D02*
X144002000Y-111932000D01*
X144002000Y-111932000D02*
X141230000Y-111932000D01*
X108699300Y-98831400D02*
X108775500Y-98755200D01*
X108775500Y-98755200D02*
X110315500Y-98755200D01*
D31*
X106950000Y-93063100D02*
X104755400Y-93063100D01*
X104755400Y-93063100D02*
X104194100Y-93624400D01*
D32*
X132754500Y-107759500D02*
X134153400Y-107759500D01*
X134153400Y-107759500D02*
X134178800Y-107734100D01*
X132729100Y-105194100D02*
X132729100Y-107734100D01*
X132729100Y-107734100D02*
X132754500Y-107759500D01*
X131721100Y-102654100D02*
X131721100Y-103015800D01*
X131721100Y-103015800D02*
X132729100Y-104023800D01*
X132729100Y-104023800D02*
X132729100Y-105194100D01*
X117600600Y-100647500D02*
X116052600Y-100647500D01*
X116052600Y-100647500D02*
X116039900Y-100660200D01*
X117575200Y-103022400D02*
X117575200Y-100672900D01*
X117575200Y-100672900D02*
X117600600Y-100647500D01*
X117605300Y-105486200D02*
X117605300Y-103052500D01*
X117605300Y-103052500D02*
X117575200Y-103022400D01*
X115722400Y-116094000D02*
X113731800Y-116094000D01*
X113731800Y-116094000D02*
X113715800Y-116078000D01*
X115722400Y-116094000D02*
X115579400Y-115951000D01*
X115579400Y-115951000D02*
X115579400Y-114147600D01*
X119227600Y-109762800D02*
X120202200Y-109762800D01*
X120202200Y-109762800D02*
X120726200Y-110286800D01*
D30*
X117389400Y-88544400D02*
X117389400Y-88789000D01*
X117389400Y-88789000D02*
X118094800Y-89494400D01*
X118094800Y-89494400D02*
X118094800Y-90424000D01*
D31*
X122438200Y-91414600D02*
X123342400Y-91414600D01*
D32*
X125095000Y-90805000D02*
X125095000Y-89384000D01*
D31*
X123952000Y-90805000D02*
X125095000Y-90805000D01*
X123342400Y-91414600D02*
X123952000Y-90805000D01*
D30*
X118094800Y-90424000D02*
X117348000Y-90424000D01*
X117119400Y-90652600D02*
X117119400Y-92125800D01*
X117348000Y-90424000D02*
X117119400Y-90652600D01*
D32*
X126746000Y-89384000D02*
X125095000Y-89384000D01*
X125095000Y-89384000D02*
X123444000Y-89384000D01*
X123444000Y-89384000D02*
X123418600Y-89409400D01*
X115671600Y-81178400D02*
X114247800Y-81178400D01*
X114247800Y-81178400D02*
X113866800Y-81559400D01*
X121650000Y-82042000D02*
X121650000Y-80610200D01*
X121650000Y-80610200D02*
X121920000Y-80340200D01*
X130692400Y-84480400D02*
X130692400Y-85480400D01*
X130692400Y-85480400D02*
X131216400Y-86004400D01*
X113579400Y-114147600D02*
X113579400Y-113321190D01*
X113579400Y-113321190D02*
X114758395Y-112142195D01*
X115722400Y-118094000D02*
X115738400Y-118110000D01*
X115738400Y-118110000D02*
X117195600Y-118110000D01*
X117195600Y-118110000D02*
X118210405Y-117095195D01*
X118210405Y-117095195D02*
X118210405Y-115594205D01*
X123545600Y-85267800D02*
X123545600Y-86282400D01*
X123545600Y-86282400D02*
X123418600Y-86409400D01*
X123545600Y-85317200D02*
X123545600Y-85267800D01*
X123545600Y-85267800D02*
X123545600Y-84836000D01*
X123545600Y-84836000D02*
X124307600Y-84074000D01*
X124307600Y-84074000D02*
X124790200Y-84074000D01*
D30*
X109667800Y-93182400D02*
X110470400Y-93182400D01*
X110470400Y-93182400D02*
X111204500Y-93916500D01*
X108814400Y-88506300D02*
X109756700Y-88506300D01*
X144084000Y-114173000D02*
X143843000Y-113932000D01*
X143843000Y-113932000D02*
X141230000Y-113932000D01*
X109667800Y-93182400D02*
X109744000Y-93106200D01*
D32*
X129729100Y-105194100D02*
X127892300Y-105194100D01*
X127892300Y-105194100D02*
X127879600Y-105206800D01*
X129729100Y-105194100D02*
X129729100Y-107734100D01*
X129729100Y-107734100D02*
X129754500Y-107759500D01*
X129721100Y-102654100D02*
X129721100Y-105186100D01*
X129721100Y-105186100D02*
X129729100Y-105194100D01*
X120815100Y-105486200D02*
X120827800Y-105473500D01*
X119605300Y-105486200D02*
X120815100Y-105486200D01*
X120575200Y-103022400D02*
X120116600Y-103022400D01*
X120116600Y-103022400D02*
X119605300Y-103533700D01*
X119605300Y-103533700D02*
X119605300Y-105486200D01*
X120600600Y-100647500D02*
X120600600Y-102997000D01*
X120600600Y-102997000D02*
X120575200Y-103022400D01*
X115316000Y-104444800D02*
X115316000Y-102844600D01*
X115316000Y-102844600D02*
X115290600Y-102819200D01*
X126746000Y-86384000D02*
X126746000Y-87096600D01*
X126746000Y-87096600D02*
X127279400Y-87630000D01*
D30*
X106914400Y-88506300D02*
X106876300Y-88544400D01*
X106876300Y-88544400D02*
X104194100Y-88544400D01*
X106950000Y-91163100D02*
X110114800Y-91163100D01*
X110114800Y-91163100D02*
X114277920Y-95326220D01*
X117793467Y-95326220D02*
X118278400Y-95326220D01*
X114277920Y-95326220D02*
X117793467Y-95326220D01*
D31*
X106950000Y-91163100D02*
X104272800Y-91163100D01*
X104272800Y-91163100D02*
X104194100Y-91084400D01*
D30*
X109667800Y-95082400D02*
X109667800Y-96164400D01*
X109667800Y-96164400D02*
X109667800Y-96189800D01*
X109667800Y-96189800D02*
X109667800Y-96164400D01*
X126800100Y-93941900D02*
X124577600Y-96164400D01*
X124577600Y-96164400D02*
X109667800Y-96164400D01*
X109667800Y-96164400D02*
X104194100Y-96164400D01*
X106699300Y-98831400D02*
X106572300Y-98704400D01*
X106572300Y-98704400D02*
X104194100Y-98704400D01*
X104194100Y-98704400D02*
X104257600Y-98704400D01*
X104257600Y-98704400D02*
X106378500Y-96583500D01*
X106378500Y-96583500D02*
X125056900Y-96583500D01*
X123883800Y-97756600D02*
X125056900Y-96583500D01*
X125056900Y-96583500D02*
X126847600Y-94792800D01*
X126847600Y-94792800D02*
X128197100Y-94792800D01*
X122275600Y-106908600D02*
X121907300Y-106540300D01*
X121907300Y-106540300D02*
X121907300Y-102120700D01*
X121907300Y-102120700D02*
X122910600Y-101117400D01*
X122910600Y-101117400D02*
X122910600Y-98729800D01*
X122910600Y-98729800D02*
X123883800Y-97756600D01*
X123883800Y-97756600D02*
X123901200Y-97739200D01*
X106711200Y-101295200D02*
X106660400Y-101244400D01*
X106660400Y-101244400D02*
X104194100Y-101244400D01*
X127803400Y-117830600D02*
X123358400Y-117830600D01*
X121640600Y-113102900D02*
X121640600Y-111709200D01*
X122596400Y-114058700D02*
X121640600Y-113102900D01*
X122596400Y-117068600D02*
X122596400Y-114058700D01*
X123358400Y-117830600D02*
X122596400Y-117068600D01*
X136144000Y-124206000D02*
X136144000Y-120319800D01*
X133654800Y-117830600D02*
X127803400Y-117830600D01*
X127803400Y-117830600D02*
X127762000Y-117830600D01*
X136144000Y-120319800D02*
X133654800Y-117830600D01*
X122885200Y-105699600D02*
X122885200Y-106680000D01*
X122885200Y-106680000D02*
X123317000Y-107111800D01*
X125171200Y-105648800D02*
X125171200Y-106578400D01*
X125171200Y-106578400D02*
X124637800Y-107111800D01*
X144112700Y-116230400D02*
X143814300Y-115932000D01*
X143814300Y-115932000D02*
X141230000Y-115932000D01*
X129276600Y-99491800D02*
X128959100Y-99491800D01*
X141230000Y-115932000D02*
X138795300Y-115932000D01*
X133251700Y-99491800D02*
X129276600Y-99491800D01*
X129276600Y-99491800D02*
X129238500Y-99491800D01*
X136972800Y-103212900D02*
X133251700Y-99491800D01*
X136972800Y-114109500D02*
X136972800Y-103212900D01*
X138795300Y-115932000D02*
X136972800Y-114109500D01*
X144112700Y-118300500D02*
X143744200Y-117932000D01*
X143744200Y-117932000D02*
X141230000Y-117932000D01*
X141230000Y-117932000D02*
X139499900Y-117932000D01*
X132654800Y-100076000D02*
X127473200Y-100076000D01*
X136248900Y-103670100D02*
X132654800Y-100076000D01*
X136248900Y-114681000D02*
X136248900Y-103670100D01*
X139499900Y-117932000D02*
X136248900Y-114681000D01*
X125734034Y-100722966D02*
X124463300Y-101993700D01*
X125746000Y-100722966D02*
X125734034Y-100722966D01*
X143500600Y-78320900D02*
X143500600Y-79489300D01*
X143500600Y-79489300D02*
X140820910Y-82168990D01*
X140820910Y-82168990D02*
X140820909Y-85648057D01*
X140820909Y-85648057D02*
X125746000Y-100722966D01*
X140516100Y-82537300D02*
X140516100Y-81076800D01*
X140960600Y-80632300D02*
X140960600Y-78320900D01*
X140516100Y-81076800D02*
X140960600Y-80632300D01*
X140516100Y-85521800D02*
X140516100Y-82537300D01*
X140516100Y-82537300D02*
X140516100Y-82473800D01*
X128781300Y-97256600D02*
X140516100Y-85521800D01*
X127689100Y-97256600D02*
X128781300Y-97256600D01*
X126127000Y-98818700D02*
X127689100Y-97256600D01*
X125517400Y-98818700D02*
X126127000Y-98818700D01*
D31*
X126949200Y-84455000D02*
X126974600Y-84480400D01*
D32*
X126974600Y-84480400D02*
X128692400Y-84480400D01*
D30*
X119389400Y-87671400D02*
X119389400Y-88544400D01*
X119608600Y-87452200D02*
X119389400Y-87671400D01*
X119888000Y-87452200D02*
X119608600Y-87452200D01*
X120827800Y-86512400D02*
X119888000Y-87452200D01*
X113792000Y-83388200D02*
X113792000Y-84099400D01*
X113792000Y-84099400D02*
X114046000Y-84353400D01*
X114046000Y-84353400D02*
X114594600Y-84353400D01*
X120888800Y-83220600D02*
X120888800Y-84251800D01*
X120700800Y-83032600D02*
X120888800Y-83220600D01*
X119339400Y-86512400D02*
X119339400Y-85892600D01*
X119339400Y-85892600D02*
X119989600Y-85242400D01*
X122885200Y-102167909D02*
X122885200Y-103297200D01*
X124028200Y-101024909D02*
X122885200Y-102167909D01*
X124028200Y-99695000D02*
X124028200Y-101024909D01*
X122885200Y-103297200D02*
X122885200Y-103799600D01*
X124871200Y-103748800D02*
X125171200Y-103748800D01*
X123891798Y-102769398D02*
X124871200Y-103748800D01*
X123891798Y-101719378D02*
X123891798Y-102769398D01*
X125082300Y-100528876D02*
X123891798Y-101719378D01*
X125082300Y-99733100D02*
X125082300Y-100528876D01*
X124155200Y-98806000D02*
X125082300Y-99733100D01*
X125082300Y-99733100D02*
X125095000Y-99745800D01*
X113842800Y-90119200D02*
X115890000Y-90119200D01*
X115890000Y-90119200D02*
X116194800Y-90424000D01*
X119938800Y-91389200D02*
X120512800Y-91389200D01*
X120512800Y-91389200D02*
X120538200Y-91414600D01*
X119354600Y-91973400D02*
X119938800Y-91389200D01*
X119938800Y-91389200D02*
X119938800Y-91389200D01*
X122926600Y-83108800D02*
X122888500Y-83108800D01*
X121462800Y-87020400D02*
X121031000Y-87452200D01*
X121618500Y-86864700D02*
X121462800Y-87020400D01*
X121618500Y-84378800D02*
X121618500Y-86864700D01*
X122888500Y-83108800D02*
X121618500Y-84378800D01*
X127304800Y-82296000D02*
X127279400Y-82270600D01*
X127279400Y-82270600D02*
X126390400Y-82270600D01*
X126390400Y-82270600D02*
X125552200Y-83108800D01*
X125552200Y-83108800D02*
X122926600Y-83108800D01*
X122926600Y-83108800D02*
X122910600Y-83108800D01*
X146012700Y-118300500D02*
X146375200Y-117938000D01*
X146375200Y-117938000D02*
X149092000Y-117938000D01*
X146012700Y-116230400D02*
X146305100Y-115938000D01*
X146305100Y-115938000D02*
X149092000Y-115938000D01*
X145984000Y-114173000D02*
X146219000Y-113938000D01*
X146219000Y-113938000D02*
X149092000Y-113938000D01*
X145984000Y-112014000D02*
X146060000Y-111938000D01*
X146060000Y-111938000D02*
X149092000Y-111938000D01*
D32*
X131981700Y-79336900D02*
X131943600Y-79298800D01*
X131981700Y-79298800D02*
X131981700Y-79336900D01*
X132731000Y-80048100D02*
X131981700Y-79298800D01*
X132731000Y-81788000D02*
X132731000Y-80048100D01*
X132756400Y-81813400D02*
X132731000Y-81788000D01*
X118988800Y-84251800D02*
X118989600Y-84251000D01*
X118989600Y-84251000D02*
X118989600Y-82042000D01*
D31*
X116494600Y-85232200D02*
X116205000Y-85521800D01*
X116205000Y-85521800D02*
X114147600Y-85521800D01*
X116494600Y-85232200D02*
X116494600Y-84353400D01*
D30*
X113207800Y-86461600D02*
X114147600Y-85521800D01*
X113207800Y-90500200D02*
X113207800Y-86461600D01*
X113842800Y-91135200D02*
X113207800Y-90500200D01*
X114960400Y-91135200D02*
X113842800Y-91135200D01*
D31*
X118988800Y-84251800D02*
X116596200Y-84251800D01*
X116596200Y-84251800D02*
X116494600Y-84353400D01*
D32*
X118287800Y-81051400D02*
X117374800Y-81051400D01*
X117374800Y-81051400D02*
X116866800Y-81559400D01*
X119650000Y-82042000D02*
X118989600Y-82042000D01*
X118989600Y-82042000D02*
X118668800Y-82042000D01*
X118287800Y-81661000D02*
X118287800Y-81051400D01*
X118668800Y-82042000D02*
X118287800Y-81661000D01*
X118795800Y-80543400D02*
X118287800Y-81051400D01*
X119964200Y-80543400D02*
X118795800Y-80543400D01*
X121208800Y-79298800D02*
X119964200Y-80543400D01*
X131943600Y-79298800D02*
X121208800Y-79298800D01*
X119227600Y-107762800D02*
X122596400Y-107762800D01*
X122596400Y-107762800D02*
X123088400Y-108254800D01*
X115316000Y-107696000D02*
X119160800Y-107696000D01*
X119160800Y-107696000D02*
X119227600Y-107762800D01*
X115341400Y-107670600D02*
X115316000Y-107696000D01*
M02*
