G04 #@! TF.FileFunction,Soldermask,Top*
%FSLAX46Y46*%
G04 Gerber Fmt 4.6, Leading zero omitted, Abs format (unit mm)*
G04 Created by KiCad (PCBNEW 4.0.1-3.201512221402+6198~38~ubuntu14.04.1-stable) date Mon 04 Jan 2016 12:08:05 AM EST*
%MOMM*%
G01*
G04 APERTURE LIST*
%ADD10C,0.100000*%
%ADD11R,1.800860X2.499360*%
%ADD12R,1.198880X1.198880*%
%ADD13R,1.150620X1.399540*%
%ADD14R,2.032000X1.727200*%
%ADD15O,2.032000X1.727200*%
%ADD16R,1.727200X2.032000*%
%ADD17O,1.727200X2.032000*%
%ADD18R,2.032000X2.032000*%
%ADD19O,2.032000X2.032000*%
%ADD20R,0.800100X0.800100*%
%ADD21R,0.250000X0.700000*%
%ADD22R,0.700000X0.250000*%
%ADD23R,1.725000X1.725000*%
%ADD24C,1.501140*%
%ADD25R,0.400000X1.350000*%
%ADD26R,1.600000X1.400000*%
%ADD27R,1.900000X1.900000*%
%ADD28C,1.600000*%
%ADD29C,1.500000*%
%ADD30R,2.100000X1.400000*%
G04 APERTURE END LIST*
D10*
D11*
X138531600Y-86784180D03*
X138531600Y-82786220D03*
X134467600Y-86784180D03*
X134467600Y-82786220D03*
D12*
X114985800Y-82643980D03*
X114985800Y-84742020D03*
X116687600Y-82669380D03*
X116687600Y-84767420D03*
D13*
X131572000Y-84480400D03*
X128320800Y-84480400D03*
D14*
X150241000Y-107746800D03*
D15*
X150241000Y-105206800D03*
X150241000Y-102666800D03*
X150241000Y-100126800D03*
X150241000Y-97586800D03*
X150241000Y-95046800D03*
X150241000Y-92506800D03*
X150241000Y-89966800D03*
X150241000Y-87426800D03*
X150241000Y-84886800D03*
D16*
X109728000Y-124206000D03*
D17*
X112268000Y-124206000D03*
X114808000Y-124206000D03*
X117348000Y-124206000D03*
X119888000Y-124206000D03*
X122428000Y-124206000D03*
X124968000Y-124206000D03*
X127508000Y-124206000D03*
X130048000Y-124206000D03*
X132588000Y-124206000D03*
D16*
X119126000Y-78232000D03*
D17*
X116586000Y-78232000D03*
X114046000Y-78232000D03*
X111506000Y-78232000D03*
D18*
X143500600Y-78320900D03*
D19*
X140960600Y-78320900D03*
D16*
X136144000Y-124206000D03*
D17*
X138684000Y-124206000D03*
X141224000Y-124206000D03*
X143764000Y-124206000D03*
D18*
X104244900Y-105041700D03*
D19*
X104244900Y-107581700D03*
D14*
X104194100Y-88544400D03*
D15*
X104194100Y-91084400D03*
X104194100Y-93624400D03*
X104194100Y-96164400D03*
X104194100Y-98704400D03*
X104194100Y-101244400D03*
D14*
X104143300Y-113030000D03*
D15*
X104143300Y-115570000D03*
X104143300Y-118110000D03*
D18*
X136753600Y-78435200D03*
D19*
X134213600Y-78435200D03*
D10*
G36*
X118814311Y-107089379D02*
X118637534Y-106912602D01*
X119556773Y-105993363D01*
X119733550Y-106170140D01*
X118814311Y-107089379D01*
X118814311Y-107089379D01*
G37*
G36*
X119167864Y-107442932D02*
X118991087Y-107266155D01*
X119910326Y-106346916D01*
X120087103Y-106523693D01*
X119167864Y-107442932D01*
X119167864Y-107442932D01*
G37*
G36*
X119521418Y-107796486D02*
X119344641Y-107619709D01*
X120263880Y-106700470D01*
X120440657Y-106877247D01*
X119521418Y-107796486D01*
X119521418Y-107796486D01*
G37*
G36*
X119874971Y-108150039D02*
X119698194Y-107973262D01*
X120617433Y-107054023D01*
X120794210Y-107230800D01*
X119874971Y-108150039D01*
X119874971Y-108150039D01*
G37*
G36*
X120228524Y-108503592D02*
X120051747Y-108326815D01*
X120970986Y-107407576D01*
X121147763Y-107584353D01*
X120228524Y-108503592D01*
X120228524Y-108503592D01*
G37*
G36*
X120582078Y-108857146D02*
X120405301Y-108680369D01*
X121324540Y-107761130D01*
X121501317Y-107937907D01*
X120582078Y-108857146D01*
X120582078Y-108857146D01*
G37*
G36*
X120935631Y-109210699D02*
X120758854Y-109033922D01*
X121678093Y-108114683D01*
X121854870Y-108291460D01*
X120935631Y-109210699D01*
X120935631Y-109210699D01*
G37*
G36*
X121289185Y-109564253D02*
X121112408Y-109387476D01*
X122031647Y-108468237D01*
X122208424Y-108645014D01*
X121289185Y-109564253D01*
X121289185Y-109564253D01*
G37*
G36*
X121642738Y-109917806D02*
X121465961Y-109741029D01*
X122385200Y-108821790D01*
X122561977Y-108998567D01*
X121642738Y-109917806D01*
X121642738Y-109917806D01*
G37*
G36*
X121996291Y-110271359D02*
X121819514Y-110094582D01*
X122738753Y-109175343D01*
X122915530Y-109352120D01*
X121996291Y-110271359D01*
X121996291Y-110271359D01*
G37*
G36*
X122349845Y-110624913D02*
X122173068Y-110448136D01*
X123092307Y-109528897D01*
X123269084Y-109705674D01*
X122349845Y-110624913D01*
X122349845Y-110624913D01*
G37*
G36*
X122703398Y-110978466D02*
X122526621Y-110801689D01*
X123445860Y-109882450D01*
X123622637Y-110059227D01*
X122703398Y-110978466D01*
X122703398Y-110978466D01*
G37*
G36*
X125885379Y-110801689D02*
X125708602Y-110978466D01*
X124789363Y-110059227D01*
X124966140Y-109882450D01*
X125885379Y-110801689D01*
X125885379Y-110801689D01*
G37*
G36*
X126238932Y-110448136D02*
X126062155Y-110624913D01*
X125142916Y-109705674D01*
X125319693Y-109528897D01*
X126238932Y-110448136D01*
X126238932Y-110448136D01*
G37*
G36*
X126592486Y-110094582D02*
X126415709Y-110271359D01*
X125496470Y-109352120D01*
X125673247Y-109175343D01*
X126592486Y-110094582D01*
X126592486Y-110094582D01*
G37*
G36*
X126946039Y-109741029D02*
X126769262Y-109917806D01*
X125850023Y-108998567D01*
X126026800Y-108821790D01*
X126946039Y-109741029D01*
X126946039Y-109741029D01*
G37*
G36*
X127299592Y-109387476D02*
X127122815Y-109564253D01*
X126203576Y-108645014D01*
X126380353Y-108468237D01*
X127299592Y-109387476D01*
X127299592Y-109387476D01*
G37*
G36*
X127653146Y-109033922D02*
X127476369Y-109210699D01*
X126557130Y-108291460D01*
X126733907Y-108114683D01*
X127653146Y-109033922D01*
X127653146Y-109033922D01*
G37*
G36*
X128006699Y-108680369D02*
X127829922Y-108857146D01*
X126910683Y-107937907D01*
X127087460Y-107761130D01*
X128006699Y-108680369D01*
X128006699Y-108680369D01*
G37*
G36*
X128360253Y-108326815D02*
X128183476Y-108503592D01*
X127264237Y-107584353D01*
X127441014Y-107407576D01*
X128360253Y-108326815D01*
X128360253Y-108326815D01*
G37*
G36*
X128713806Y-107973262D02*
X128537029Y-108150039D01*
X127617790Y-107230800D01*
X127794567Y-107054023D01*
X128713806Y-107973262D01*
X128713806Y-107973262D01*
G37*
G36*
X129067359Y-107619709D02*
X128890582Y-107796486D01*
X127971343Y-106877247D01*
X128148120Y-106700470D01*
X129067359Y-107619709D01*
X129067359Y-107619709D01*
G37*
G36*
X129420913Y-107266155D02*
X129244136Y-107442932D01*
X128324897Y-106523693D01*
X128501674Y-106346916D01*
X129420913Y-107266155D01*
X129420913Y-107266155D01*
G37*
G36*
X129774466Y-106912602D02*
X129597689Y-107089379D01*
X128678450Y-106170140D01*
X128855227Y-105993363D01*
X129774466Y-106912602D01*
X129774466Y-106912602D01*
G37*
G36*
X128855227Y-104826637D02*
X128678450Y-104649860D01*
X129597689Y-103730621D01*
X129774466Y-103907398D01*
X128855227Y-104826637D01*
X128855227Y-104826637D01*
G37*
G36*
X128501674Y-104473084D02*
X128324897Y-104296307D01*
X129244136Y-103377068D01*
X129420913Y-103553845D01*
X128501674Y-104473084D01*
X128501674Y-104473084D01*
G37*
G36*
X128148120Y-104119530D02*
X127971343Y-103942753D01*
X128890582Y-103023514D01*
X129067359Y-103200291D01*
X128148120Y-104119530D01*
X128148120Y-104119530D01*
G37*
G36*
X127794567Y-103765977D02*
X127617790Y-103589200D01*
X128537029Y-102669961D01*
X128713806Y-102846738D01*
X127794567Y-103765977D01*
X127794567Y-103765977D01*
G37*
G36*
X127441014Y-103412424D02*
X127264237Y-103235647D01*
X128183476Y-102316408D01*
X128360253Y-102493185D01*
X127441014Y-103412424D01*
X127441014Y-103412424D01*
G37*
G36*
X127087460Y-103058870D02*
X126910683Y-102882093D01*
X127829922Y-101962854D01*
X128006699Y-102139631D01*
X127087460Y-103058870D01*
X127087460Y-103058870D01*
G37*
G36*
X126733907Y-102705317D02*
X126557130Y-102528540D01*
X127476369Y-101609301D01*
X127653146Y-101786078D01*
X126733907Y-102705317D01*
X126733907Y-102705317D01*
G37*
G36*
X126380353Y-102351763D02*
X126203576Y-102174986D01*
X127122815Y-101255747D01*
X127299592Y-101432524D01*
X126380353Y-102351763D01*
X126380353Y-102351763D01*
G37*
G36*
X126026800Y-101998210D02*
X125850023Y-101821433D01*
X126769262Y-100902194D01*
X126946039Y-101078971D01*
X126026800Y-101998210D01*
X126026800Y-101998210D01*
G37*
G36*
X125673247Y-101644657D02*
X125496470Y-101467880D01*
X126415709Y-100548641D01*
X126592486Y-100725418D01*
X125673247Y-101644657D01*
X125673247Y-101644657D01*
G37*
G36*
X125319693Y-101291103D02*
X125142916Y-101114326D01*
X126062155Y-100195087D01*
X126238932Y-100371864D01*
X125319693Y-101291103D01*
X125319693Y-101291103D01*
G37*
G36*
X124966140Y-100937550D02*
X124789363Y-100760773D01*
X125708602Y-99841534D01*
X125885379Y-100018311D01*
X124966140Y-100937550D01*
X124966140Y-100937550D01*
G37*
G36*
X123622637Y-100760773D02*
X123445860Y-100937550D01*
X122526621Y-100018311D01*
X122703398Y-99841534D01*
X123622637Y-100760773D01*
X123622637Y-100760773D01*
G37*
G36*
X123269084Y-101114326D02*
X123092307Y-101291103D01*
X122173068Y-100371864D01*
X122349845Y-100195087D01*
X123269084Y-101114326D01*
X123269084Y-101114326D01*
G37*
G36*
X122915530Y-101467880D02*
X122738753Y-101644657D01*
X121819514Y-100725418D01*
X121996291Y-100548641D01*
X122915530Y-101467880D01*
X122915530Y-101467880D01*
G37*
G36*
X122561977Y-101821433D02*
X122385200Y-101998210D01*
X121465961Y-101078971D01*
X121642738Y-100902194D01*
X122561977Y-101821433D01*
X122561977Y-101821433D01*
G37*
G36*
X122208424Y-102174986D02*
X122031647Y-102351763D01*
X121112408Y-101432524D01*
X121289185Y-101255747D01*
X122208424Y-102174986D01*
X122208424Y-102174986D01*
G37*
G36*
X121854870Y-102528540D02*
X121678093Y-102705317D01*
X120758854Y-101786078D01*
X120935631Y-101609301D01*
X121854870Y-102528540D01*
X121854870Y-102528540D01*
G37*
G36*
X121501317Y-102882093D02*
X121324540Y-103058870D01*
X120405301Y-102139631D01*
X120582078Y-101962854D01*
X121501317Y-102882093D01*
X121501317Y-102882093D01*
G37*
G36*
X121147763Y-103235647D02*
X120970986Y-103412424D01*
X120051747Y-102493185D01*
X120228524Y-102316408D01*
X121147763Y-103235647D01*
X121147763Y-103235647D01*
G37*
G36*
X120794210Y-103589200D02*
X120617433Y-103765977D01*
X119698194Y-102846738D01*
X119874971Y-102669961D01*
X120794210Y-103589200D01*
X120794210Y-103589200D01*
G37*
G36*
X120440657Y-103942753D02*
X120263880Y-104119530D01*
X119344641Y-103200291D01*
X119521418Y-103023514D01*
X120440657Y-103942753D01*
X120440657Y-103942753D01*
G37*
G36*
X120087103Y-104296307D02*
X119910326Y-104473084D01*
X118991087Y-103553845D01*
X119167864Y-103377068D01*
X120087103Y-104296307D01*
X120087103Y-104296307D01*
G37*
G36*
X119733550Y-104649860D02*
X119556773Y-104826637D01*
X118637534Y-103907398D01*
X118814311Y-103730621D01*
X119733550Y-104649860D01*
X119733550Y-104649860D01*
G37*
D20*
X123840200Y-87411560D03*
X125740200Y-87411560D03*
X124790200Y-85412580D03*
D21*
X115598000Y-91122200D03*
X116098000Y-91122200D03*
X116598000Y-91122200D03*
X117098000Y-91122200D03*
X117598000Y-91122200D03*
X118098000Y-91122200D03*
X118598000Y-91122200D03*
X119098000Y-91122200D03*
D22*
X119748000Y-90472200D03*
X119748000Y-89972200D03*
X119748000Y-89472200D03*
X119748000Y-88972200D03*
X119748000Y-88472200D03*
X119748000Y-87972200D03*
X119748000Y-87472200D03*
X119748000Y-86972200D03*
D21*
X119098000Y-86322200D03*
X118598000Y-86322200D03*
X118098000Y-86322200D03*
X117598000Y-86322200D03*
X117098000Y-86322200D03*
X116598000Y-86322200D03*
X116098000Y-86322200D03*
X115598000Y-86322200D03*
D22*
X114948000Y-86972200D03*
X114948000Y-87472200D03*
X114948000Y-87972200D03*
X114948000Y-88472200D03*
X114948000Y-88972200D03*
X114948000Y-89472200D03*
X114948000Y-89972200D03*
X114948000Y-90472200D03*
D23*
X118210500Y-87859700D03*
X116485500Y-87859700D03*
X118210500Y-89584700D03*
X116485500Y-89584700D03*
D24*
X114758395Y-112142195D03*
X118210405Y-115594205D03*
D25*
X126796800Y-80551400D03*
X126146800Y-80551400D03*
X125496800Y-80551400D03*
X127446800Y-80551400D03*
X128096800Y-80551400D03*
D26*
X129996800Y-80326400D03*
X123596800Y-80326400D03*
D27*
X127996800Y-77876400D03*
X125596800Y-77876400D03*
D28*
X130096800Y-77876400D03*
X123496800Y-77876400D03*
D29*
X141230000Y-111932000D03*
X141230000Y-113932000D03*
X141230000Y-115932000D03*
X141230000Y-117932000D03*
X149092000Y-117938000D03*
X149092000Y-115938000D03*
X149092000Y-113938000D03*
X149092000Y-111938000D03*
D30*
X128612800Y-92510300D03*
X137712800Y-92510300D03*
X128612800Y-97710300D03*
X137712800Y-97710300D03*
M02*
