G04 #@! TF.FileFunction,Copper,L1,Top,Signal*
%FSLAX46Y46*%
G04 Gerber Fmt 4.6, Leading zero omitted, Abs format (unit mm)*
G04 Created by KiCad (PCBNEW 0.201510170916+6271~30~ubuntu14.04.1-product) date Sat 26 Dec 2015 06:02:25 AM EST*
%MOMM*%
G01*
G04 APERTURE LIST*
%ADD10C,0.100000*%
%ADD11R,1.800860X2.499360*%
%ADD12R,1.198880X1.198880*%
%ADD13R,1.150620X1.399540*%
%ADD14R,2.032000X1.727200*%
%ADD15O,2.032000X1.727200*%
%ADD16R,1.727200X2.032000*%
%ADD17O,1.727200X2.032000*%
%ADD18R,2.032000X2.032000*%
%ADD19O,2.032000X2.032000*%
%ADD20R,0.800100X0.800100*%
%ADD21R,0.250000X0.700000*%
%ADD22R,0.700000X0.250000*%
%ADD23R,1.725000X1.725000*%
%ADD24C,1.501140*%
%ADD25R,0.400000X1.350000*%
%ADD26R,1.600000X1.400000*%
%ADD27R,1.900000X1.900000*%
%ADD28C,1.600000*%
%ADD29C,1.500000*%
%ADD30R,2.100000X1.400000*%
%ADD31C,0.685800*%
%ADD32C,1.016000*%
%ADD33C,0.152400*%
%ADD34C,0.304800*%
%ADD35C,0.609600*%
G04 APERTURE END LIST*
D10*
D11*
X138531600Y-86784180D03*
X138531600Y-82786220D03*
X134467600Y-86784180D03*
X134467600Y-82786220D03*
D12*
X114985800Y-82643980D03*
X114985800Y-84742020D03*
X116687600Y-82669380D03*
X116687600Y-84767420D03*
D13*
X131572000Y-84480400D03*
X128320800Y-84480400D03*
D14*
X150241000Y-107746800D03*
D15*
X150241000Y-105206800D03*
X150241000Y-102666800D03*
X150241000Y-100126800D03*
X150241000Y-97586800D03*
X150241000Y-95046800D03*
X150241000Y-92506800D03*
X150241000Y-89966800D03*
X150241000Y-87426800D03*
X150241000Y-84886800D03*
D16*
X109728000Y-124206000D03*
D17*
X112268000Y-124206000D03*
X114808000Y-124206000D03*
X117348000Y-124206000D03*
X119888000Y-124206000D03*
X122428000Y-124206000D03*
X124968000Y-124206000D03*
X127508000Y-124206000D03*
X130048000Y-124206000D03*
X132588000Y-124206000D03*
D16*
X119126000Y-78232000D03*
D17*
X116586000Y-78232000D03*
X114046000Y-78232000D03*
X111506000Y-78232000D03*
D18*
X143500600Y-78320900D03*
D19*
X140960600Y-78320900D03*
D16*
X136144000Y-124206000D03*
D17*
X138684000Y-124206000D03*
X141224000Y-124206000D03*
X143764000Y-124206000D03*
D18*
X104244900Y-105041700D03*
D19*
X104244900Y-107581700D03*
D14*
X104194100Y-88544400D03*
D15*
X104194100Y-91084400D03*
X104194100Y-93624400D03*
X104194100Y-96164400D03*
X104194100Y-98704400D03*
X104194100Y-101244400D03*
D14*
X104143300Y-113030000D03*
D15*
X104143300Y-115570000D03*
X104143300Y-118110000D03*
D18*
X136753600Y-78435200D03*
D19*
X134213600Y-78435200D03*
D10*
G36*
X118814311Y-107089379D02*
X118637534Y-106912602D01*
X119556773Y-105993363D01*
X119733550Y-106170140D01*
X118814311Y-107089379D01*
X118814311Y-107089379D01*
G37*
G36*
X119167864Y-107442932D02*
X118991087Y-107266155D01*
X119910326Y-106346916D01*
X120087103Y-106523693D01*
X119167864Y-107442932D01*
X119167864Y-107442932D01*
G37*
G36*
X119521418Y-107796486D02*
X119344641Y-107619709D01*
X120263880Y-106700470D01*
X120440657Y-106877247D01*
X119521418Y-107796486D01*
X119521418Y-107796486D01*
G37*
G36*
X119874971Y-108150039D02*
X119698194Y-107973262D01*
X120617433Y-107054023D01*
X120794210Y-107230800D01*
X119874971Y-108150039D01*
X119874971Y-108150039D01*
G37*
G36*
X120228524Y-108503592D02*
X120051747Y-108326815D01*
X120970986Y-107407576D01*
X121147763Y-107584353D01*
X120228524Y-108503592D01*
X120228524Y-108503592D01*
G37*
G36*
X120582078Y-108857146D02*
X120405301Y-108680369D01*
X121324540Y-107761130D01*
X121501317Y-107937907D01*
X120582078Y-108857146D01*
X120582078Y-108857146D01*
G37*
G36*
X120935631Y-109210699D02*
X120758854Y-109033922D01*
X121678093Y-108114683D01*
X121854870Y-108291460D01*
X120935631Y-109210699D01*
X120935631Y-109210699D01*
G37*
G36*
X121289185Y-109564253D02*
X121112408Y-109387476D01*
X122031647Y-108468237D01*
X122208424Y-108645014D01*
X121289185Y-109564253D01*
X121289185Y-109564253D01*
G37*
G36*
X121642738Y-109917806D02*
X121465961Y-109741029D01*
X122385200Y-108821790D01*
X122561977Y-108998567D01*
X121642738Y-109917806D01*
X121642738Y-109917806D01*
G37*
G36*
X121996291Y-110271359D02*
X121819514Y-110094582D01*
X122738753Y-109175343D01*
X122915530Y-109352120D01*
X121996291Y-110271359D01*
X121996291Y-110271359D01*
G37*
G36*
X122349845Y-110624913D02*
X122173068Y-110448136D01*
X123092307Y-109528897D01*
X123269084Y-109705674D01*
X122349845Y-110624913D01*
X122349845Y-110624913D01*
G37*
G36*
X122703398Y-110978466D02*
X122526621Y-110801689D01*
X123445860Y-109882450D01*
X123622637Y-110059227D01*
X122703398Y-110978466D01*
X122703398Y-110978466D01*
G37*
G36*
X125885379Y-110801689D02*
X125708602Y-110978466D01*
X124789363Y-110059227D01*
X124966140Y-109882450D01*
X125885379Y-110801689D01*
X125885379Y-110801689D01*
G37*
G36*
X126238932Y-110448136D02*
X126062155Y-110624913D01*
X125142916Y-109705674D01*
X125319693Y-109528897D01*
X126238932Y-110448136D01*
X126238932Y-110448136D01*
G37*
G36*
X126592486Y-110094582D02*
X126415709Y-110271359D01*
X125496470Y-109352120D01*
X125673247Y-109175343D01*
X126592486Y-110094582D01*
X126592486Y-110094582D01*
G37*
G36*
X126946039Y-109741029D02*
X126769262Y-109917806D01*
X125850023Y-108998567D01*
X126026800Y-108821790D01*
X126946039Y-109741029D01*
X126946039Y-109741029D01*
G37*
G36*
X127299592Y-109387476D02*
X127122815Y-109564253D01*
X126203576Y-108645014D01*
X126380353Y-108468237D01*
X127299592Y-109387476D01*
X127299592Y-109387476D01*
G37*
G36*
X127653146Y-109033922D02*
X127476369Y-109210699D01*
X126557130Y-108291460D01*
X126733907Y-108114683D01*
X127653146Y-109033922D01*
X127653146Y-109033922D01*
G37*
G36*
X128006699Y-108680369D02*
X127829922Y-108857146D01*
X126910683Y-107937907D01*
X127087460Y-107761130D01*
X128006699Y-108680369D01*
X128006699Y-108680369D01*
G37*
G36*
X128360253Y-108326815D02*
X128183476Y-108503592D01*
X127264237Y-107584353D01*
X127441014Y-107407576D01*
X128360253Y-108326815D01*
X128360253Y-108326815D01*
G37*
G36*
X128713806Y-107973262D02*
X128537029Y-108150039D01*
X127617790Y-107230800D01*
X127794567Y-107054023D01*
X128713806Y-107973262D01*
X128713806Y-107973262D01*
G37*
G36*
X129067359Y-107619709D02*
X128890582Y-107796486D01*
X127971343Y-106877247D01*
X128148120Y-106700470D01*
X129067359Y-107619709D01*
X129067359Y-107619709D01*
G37*
G36*
X129420913Y-107266155D02*
X129244136Y-107442932D01*
X128324897Y-106523693D01*
X128501674Y-106346916D01*
X129420913Y-107266155D01*
X129420913Y-107266155D01*
G37*
G36*
X129774466Y-106912602D02*
X129597689Y-107089379D01*
X128678450Y-106170140D01*
X128855227Y-105993363D01*
X129774466Y-106912602D01*
X129774466Y-106912602D01*
G37*
G36*
X128855227Y-104826637D02*
X128678450Y-104649860D01*
X129597689Y-103730621D01*
X129774466Y-103907398D01*
X128855227Y-104826637D01*
X128855227Y-104826637D01*
G37*
G36*
X128501674Y-104473084D02*
X128324897Y-104296307D01*
X129244136Y-103377068D01*
X129420913Y-103553845D01*
X128501674Y-104473084D01*
X128501674Y-104473084D01*
G37*
G36*
X128148120Y-104119530D02*
X127971343Y-103942753D01*
X128890582Y-103023514D01*
X129067359Y-103200291D01*
X128148120Y-104119530D01*
X128148120Y-104119530D01*
G37*
G36*
X127794567Y-103765977D02*
X127617790Y-103589200D01*
X128537029Y-102669961D01*
X128713806Y-102846738D01*
X127794567Y-103765977D01*
X127794567Y-103765977D01*
G37*
G36*
X127441014Y-103412424D02*
X127264237Y-103235647D01*
X128183476Y-102316408D01*
X128360253Y-102493185D01*
X127441014Y-103412424D01*
X127441014Y-103412424D01*
G37*
G36*
X127087460Y-103058870D02*
X126910683Y-102882093D01*
X127829922Y-101962854D01*
X128006699Y-102139631D01*
X127087460Y-103058870D01*
X127087460Y-103058870D01*
G37*
G36*
X126733907Y-102705317D02*
X126557130Y-102528540D01*
X127476369Y-101609301D01*
X127653146Y-101786078D01*
X126733907Y-102705317D01*
X126733907Y-102705317D01*
G37*
G36*
X126380353Y-102351763D02*
X126203576Y-102174986D01*
X127122815Y-101255747D01*
X127299592Y-101432524D01*
X126380353Y-102351763D01*
X126380353Y-102351763D01*
G37*
G36*
X126026800Y-101998210D02*
X125850023Y-101821433D01*
X126769262Y-100902194D01*
X126946039Y-101078971D01*
X126026800Y-101998210D01*
X126026800Y-101998210D01*
G37*
G36*
X125673247Y-101644657D02*
X125496470Y-101467880D01*
X126415709Y-100548641D01*
X126592486Y-100725418D01*
X125673247Y-101644657D01*
X125673247Y-101644657D01*
G37*
G36*
X125319693Y-101291103D02*
X125142916Y-101114326D01*
X126062155Y-100195087D01*
X126238932Y-100371864D01*
X125319693Y-101291103D01*
X125319693Y-101291103D01*
G37*
G36*
X124966140Y-100937550D02*
X124789363Y-100760773D01*
X125708602Y-99841534D01*
X125885379Y-100018311D01*
X124966140Y-100937550D01*
X124966140Y-100937550D01*
G37*
G36*
X123622637Y-100760773D02*
X123445860Y-100937550D01*
X122526621Y-100018311D01*
X122703398Y-99841534D01*
X123622637Y-100760773D01*
X123622637Y-100760773D01*
G37*
G36*
X123269084Y-101114326D02*
X123092307Y-101291103D01*
X122173068Y-100371864D01*
X122349845Y-100195087D01*
X123269084Y-101114326D01*
X123269084Y-101114326D01*
G37*
G36*
X122915530Y-101467880D02*
X122738753Y-101644657D01*
X121819514Y-100725418D01*
X121996291Y-100548641D01*
X122915530Y-101467880D01*
X122915530Y-101467880D01*
G37*
G36*
X122561977Y-101821433D02*
X122385200Y-101998210D01*
X121465961Y-101078971D01*
X121642738Y-100902194D01*
X122561977Y-101821433D01*
X122561977Y-101821433D01*
G37*
G36*
X122208424Y-102174986D02*
X122031647Y-102351763D01*
X121112408Y-101432524D01*
X121289185Y-101255747D01*
X122208424Y-102174986D01*
X122208424Y-102174986D01*
G37*
G36*
X121854870Y-102528540D02*
X121678093Y-102705317D01*
X120758854Y-101786078D01*
X120935631Y-101609301D01*
X121854870Y-102528540D01*
X121854870Y-102528540D01*
G37*
G36*
X121501317Y-102882093D02*
X121324540Y-103058870D01*
X120405301Y-102139631D01*
X120582078Y-101962854D01*
X121501317Y-102882093D01*
X121501317Y-102882093D01*
G37*
G36*
X121147763Y-103235647D02*
X120970986Y-103412424D01*
X120051747Y-102493185D01*
X120228524Y-102316408D01*
X121147763Y-103235647D01*
X121147763Y-103235647D01*
G37*
G36*
X120794210Y-103589200D02*
X120617433Y-103765977D01*
X119698194Y-102846738D01*
X119874971Y-102669961D01*
X120794210Y-103589200D01*
X120794210Y-103589200D01*
G37*
G36*
X120440657Y-103942753D02*
X120263880Y-104119530D01*
X119344641Y-103200291D01*
X119521418Y-103023514D01*
X120440657Y-103942753D01*
X120440657Y-103942753D01*
G37*
G36*
X120087103Y-104296307D02*
X119910326Y-104473084D01*
X118991087Y-103553845D01*
X119167864Y-103377068D01*
X120087103Y-104296307D01*
X120087103Y-104296307D01*
G37*
G36*
X119733550Y-104649860D02*
X119556773Y-104826637D01*
X118637534Y-103907398D01*
X118814311Y-103730621D01*
X119733550Y-104649860D01*
X119733550Y-104649860D01*
G37*
D20*
X123840200Y-87411560D03*
X125740200Y-87411560D03*
X124790200Y-85412580D03*
D21*
X115598000Y-91122200D03*
X116098000Y-91122200D03*
X116598000Y-91122200D03*
X117098000Y-91122200D03*
X117598000Y-91122200D03*
X118098000Y-91122200D03*
X118598000Y-91122200D03*
X119098000Y-91122200D03*
D22*
X119748000Y-90472200D03*
X119748000Y-89972200D03*
X119748000Y-89472200D03*
X119748000Y-88972200D03*
X119748000Y-88472200D03*
X119748000Y-87972200D03*
X119748000Y-87472200D03*
X119748000Y-86972200D03*
D21*
X119098000Y-86322200D03*
X118598000Y-86322200D03*
X118098000Y-86322200D03*
X117598000Y-86322200D03*
X117098000Y-86322200D03*
X116598000Y-86322200D03*
X116098000Y-86322200D03*
X115598000Y-86322200D03*
D22*
X114948000Y-86972200D03*
X114948000Y-87472200D03*
X114948000Y-87972200D03*
X114948000Y-88472200D03*
X114948000Y-88972200D03*
X114948000Y-89472200D03*
X114948000Y-89972200D03*
X114948000Y-90472200D03*
D23*
X118210500Y-87859700D03*
X116485500Y-87859700D03*
X118210500Y-89584700D03*
X116485500Y-89584700D03*
D24*
X114758395Y-112142195D03*
X118210405Y-115594205D03*
D25*
X126796800Y-80551400D03*
X126146800Y-80551400D03*
X125496800Y-80551400D03*
X127446800Y-80551400D03*
X128096800Y-80551400D03*
D26*
X129996800Y-80326400D03*
X123596800Y-80326400D03*
D27*
X127996800Y-77876400D03*
X125596800Y-77876400D03*
D28*
X130096800Y-77876400D03*
X123496800Y-77876400D03*
D29*
X141230000Y-111932000D03*
X141230000Y-113932000D03*
X141230000Y-115932000D03*
X141230000Y-117932000D03*
X149092000Y-117938000D03*
X149092000Y-115938000D03*
X149092000Y-113938000D03*
X149092000Y-111938000D03*
D30*
X128612800Y-92510300D03*
X137712800Y-92510300D03*
X128612800Y-97710300D03*
X137712800Y-97710300D03*
D31*
X121148600Y-104482900D03*
X127193800Y-106349800D03*
X122444000Y-88074500D03*
X110315500Y-98755200D03*
D32*
X140147800Y-97764600D03*
X128578100Y-96227900D03*
X134178800Y-107734100D03*
X116039900Y-100660200D03*
D31*
X113715800Y-116078000D03*
D32*
X120726200Y-110286800D03*
X125095000Y-90805000D03*
D31*
X117119400Y-92125800D03*
D32*
X115671600Y-81178400D03*
D31*
X113842800Y-87477600D03*
X121920000Y-80340200D03*
X131546600Y-80314800D03*
X125730000Y-82118200D03*
X124891800Y-82067400D03*
D32*
X131216400Y-86004400D03*
X124790200Y-84074000D03*
D31*
X111204500Y-93916500D03*
X109756700Y-88506300D03*
D32*
X127879600Y-105206800D03*
X120827800Y-105473500D03*
X115290600Y-102819200D03*
X127279400Y-87630000D03*
D31*
X118278400Y-95326220D03*
X126800100Y-93941900D03*
D32*
X128197100Y-94792800D03*
D31*
X122275600Y-106908600D03*
X121640600Y-111709200D03*
X123317000Y-107111800D03*
X124637800Y-107111800D03*
X128959100Y-99491800D03*
X127473200Y-100076000D03*
X124463300Y-101993700D03*
X125517400Y-98818700D03*
D32*
X126949200Y-84455000D03*
D31*
X120827800Y-86512400D03*
X113792000Y-83388200D03*
X120700800Y-83032600D03*
X119989600Y-85242400D03*
X124028200Y-99695000D03*
X124155200Y-98806000D03*
X113842800Y-90119200D03*
X119354600Y-91973400D03*
X121031000Y-87452200D03*
X127304800Y-82296000D03*
X132756400Y-81813400D03*
X114960400Y-91135200D03*
D32*
X118287800Y-81051400D03*
X123088400Y-108254800D03*
D33*
X119539095Y-103925076D02*
X120096919Y-104482900D01*
X120096919Y-104482900D02*
X121148600Y-104482900D01*
D34*
X128872905Y-106894924D02*
X128869224Y-106894924D01*
X128869224Y-106894924D02*
X128133600Y-106159300D01*
X128133600Y-106159300D02*
X127384300Y-106159300D01*
X127384300Y-106159300D02*
X127193800Y-106349800D01*
D35*
X123840200Y-87411560D02*
X123106940Y-87411560D01*
X123106940Y-87411560D02*
X122444000Y-88074500D01*
D33*
X137712800Y-97710300D02*
X140093500Y-97710300D01*
X140093500Y-97710300D02*
X140147800Y-97764600D01*
X128612800Y-97710300D02*
X128612800Y-96262600D01*
X128612800Y-96262600D02*
X128578100Y-96227900D01*
X120726200Y-109982000D02*
X120726200Y-110286800D01*
X120726200Y-109982000D02*
X121660416Y-109047784D01*
X121660416Y-109016245D02*
X121660416Y-109047784D01*
X121660416Y-109016245D02*
X121666555Y-109016245D01*
X118210500Y-89584700D02*
X116485500Y-89584700D01*
X116485500Y-89584700D02*
X116485500Y-87859700D01*
X116485500Y-87859700D02*
X118210500Y-87859700D01*
X118210500Y-87859700D02*
X118210500Y-89584700D01*
D34*
X117098000Y-92104400D02*
X117119400Y-92125800D01*
X117098000Y-92104400D02*
X117098000Y-91122200D01*
X114948000Y-87472200D02*
X113848200Y-87472200D01*
X113848200Y-87472200D02*
X113842800Y-87477600D01*
D33*
X116485500Y-87631100D02*
X116485500Y-87859700D01*
D34*
X117598000Y-87247200D02*
X118210500Y-87859700D01*
X119098000Y-86322200D02*
X119098000Y-86743600D01*
X119098000Y-86743600D02*
X118210500Y-87631100D01*
X118210500Y-87631100D02*
X118210500Y-87859700D01*
X117098000Y-91122200D02*
X117098000Y-90197200D01*
X117098000Y-90197200D02*
X116485500Y-89584700D01*
X114948000Y-87472200D02*
X116098000Y-87472200D01*
X116098000Y-87472200D02*
X116485500Y-87859700D01*
D35*
X121933800Y-80326400D02*
X121920000Y-80340200D01*
X121933800Y-80326400D02*
X123596800Y-80326400D01*
X129996800Y-80326400D02*
X131535000Y-80326400D01*
X131535000Y-80326400D02*
X131546600Y-80314800D01*
D34*
X126146800Y-80551400D02*
X126146800Y-81701400D01*
X126146800Y-81701400D02*
X125730000Y-82118200D01*
X125496800Y-80551400D02*
X125496800Y-81462400D01*
X125496800Y-81462400D02*
X124891800Y-82067400D01*
X123596800Y-80326400D02*
X123596800Y-79876400D01*
X123596800Y-79876400D02*
X125596800Y-77876400D01*
X127996800Y-77876400D02*
X127996800Y-78326400D01*
X127996800Y-78326400D02*
X129996800Y-80326400D01*
X125596800Y-77876400D02*
X127996800Y-77876400D01*
X126146800Y-80551400D02*
X126146800Y-78426400D01*
X126146800Y-78426400D02*
X125596800Y-77876400D01*
X125496800Y-80551400D02*
X125496800Y-77976400D01*
X125496800Y-77976400D02*
X125596800Y-77876400D01*
D33*
X115598000Y-86322200D02*
X115598000Y-86743600D01*
X115598000Y-86743600D02*
X116485500Y-87631100D01*
D34*
X117598000Y-86322200D02*
X117598000Y-87247200D01*
D33*
X118567200Y-109988139D02*
X116413144Y-112142195D01*
X116413144Y-112142195D02*
X114758395Y-112142195D01*
X118521344Y-110033995D02*
X118567200Y-109988139D01*
X118567200Y-109988139D02*
X120599755Y-107955584D01*
X119328005Y-109934442D02*
X116789200Y-112473247D01*
X120953309Y-108309138D02*
X119328005Y-109934442D01*
X116789200Y-114173000D02*
X118210405Y-115594205D01*
X116789200Y-112473247D02*
X116789200Y-114173000D01*
D35*
X124790200Y-85412580D02*
X126484380Y-85412580D01*
X128092200Y-87020400D02*
X134231380Y-87020400D01*
X126484380Y-85412580D02*
X128092200Y-87020400D01*
X134231380Y-87020400D02*
X134467600Y-86784180D01*
X134467600Y-86784180D02*
X138531600Y-86784180D01*
X124790200Y-84074000D02*
X124790200Y-85412580D01*
D34*
X129226458Y-106541371D02*
X129226458Y-106502858D01*
X129226458Y-106502858D02*
X127930400Y-105206800D01*
X127930400Y-105206800D02*
X127879600Y-105206800D01*
X119185542Y-106541371D02*
X119185542Y-106506158D01*
X119185542Y-106506158D02*
X120218200Y-105473500D01*
X120218200Y-105473500D02*
X120827800Y-105473500D01*
X119185542Y-104278629D02*
X119185542Y-104339242D01*
X119185542Y-104339242D02*
X120319800Y-105473500D01*
X120319800Y-105473500D02*
X120827800Y-105473500D01*
X119185542Y-104278629D02*
X119264629Y-104278629D01*
X119185542Y-106541371D02*
X119185542Y-106518858D01*
D35*
X127060960Y-87411560D02*
X125740200Y-87411560D01*
X127279400Y-87630000D02*
X127060960Y-87411560D01*
D33*
X123074629Y-100389542D02*
X118278400Y-95593313D01*
X118278400Y-95593313D02*
X118278400Y-95326220D01*
X126044478Y-101096649D02*
X126044478Y-100996722D01*
X126044478Y-100996722D02*
X126863600Y-100177600D01*
X126863600Y-100177600D02*
X126863600Y-94005400D01*
X126863600Y-94005400D02*
X126800100Y-93941900D01*
X128612800Y-92510300D02*
X137712800Y-92510300D01*
X128612800Y-94377100D02*
X128612800Y-92510300D01*
X128197100Y-94792800D02*
X128612800Y-94377100D01*
X121306862Y-108662691D02*
X121334309Y-108662691D01*
X121334309Y-108662691D02*
X122275600Y-107721400D01*
X122275600Y-107721400D02*
X122275600Y-106908600D01*
X121640600Y-111709200D02*
X121640600Y-111157381D01*
X121640600Y-111157381D02*
X122721076Y-110076905D01*
X124002800Y-109502287D02*
X123074629Y-110430458D01*
X124002800Y-107797600D02*
X124002800Y-109502287D01*
X123317000Y-107111800D02*
X124002800Y-107797600D01*
X123074629Y-110430458D02*
X123074629Y-110452971D01*
X124510800Y-109603887D02*
X125337371Y-110430458D01*
X124510800Y-107238800D02*
X124510800Y-109603887D01*
X124637800Y-107111800D02*
X124510800Y-107238800D01*
X125337371Y-110430458D02*
X125337371Y-110452971D01*
X138684000Y-124206000D02*
X138684000Y-120241553D01*
X138684000Y-120241553D02*
X127105138Y-108662691D01*
X127905000Y-100650339D02*
X126751584Y-101803755D01*
X127905000Y-100545900D02*
X127905000Y-100650339D01*
X128959100Y-99491800D02*
X127905000Y-100545900D01*
X127295400Y-100552833D02*
X126398031Y-101450202D01*
X127295400Y-100253800D02*
X127295400Y-100552833D01*
X127473200Y-100076000D02*
X127295400Y-100253800D01*
X124463300Y-101993700D02*
X125690924Y-100766076D01*
X125690924Y-100766076D02*
X125690924Y-100743095D01*
X125337371Y-100389542D02*
X125847600Y-99879313D01*
X125847600Y-99148900D02*
X125517400Y-98818700D01*
X125847600Y-99879313D02*
X125847600Y-99148900D01*
X119126000Y-78384400D02*
X119126000Y-78232000D01*
X115824000Y-79756000D02*
X117754400Y-79756000D01*
X117754400Y-79756000D02*
X119126000Y-78384400D01*
X113182400Y-89502710D02*
X113182400Y-82397600D01*
X113182400Y-82397600D02*
X115824000Y-79756000D01*
X112966487Y-89718622D02*
X113182400Y-89502710D01*
X112966487Y-90988506D02*
X112966487Y-89718622D01*
X122721076Y-100743095D02*
X112966487Y-90988506D01*
X116586000Y-78232000D02*
X116382800Y-78232000D01*
X116382800Y-78232000D02*
X112572800Y-82042000D01*
X112572800Y-82042000D02*
X112572800Y-91301927D01*
X112572800Y-91301927D02*
X122367522Y-101096649D01*
X114046000Y-78232000D02*
X114046000Y-79603600D01*
X112014000Y-91450233D02*
X122013969Y-101450202D01*
X112014000Y-81635600D02*
X112014000Y-91450233D01*
X114046000Y-79603600D02*
X112014000Y-81635600D01*
X111506000Y-78232000D02*
X111506000Y-91649339D01*
X111506000Y-91649339D02*
X121660416Y-101803755D01*
X121306862Y-102157309D02*
X121306862Y-102139262D01*
X121306862Y-102139262D02*
X118316500Y-99148900D01*
X118316500Y-99148900D02*
X112195100Y-99148900D01*
X112195100Y-99148900D02*
X106302300Y-105041700D01*
X106302300Y-105041700D02*
X104244900Y-105041700D01*
X104244900Y-107581700D02*
X104613200Y-107581700D01*
X104613200Y-107581700D02*
X112372900Y-99822000D01*
X112372900Y-99822000D02*
X118264447Y-99822000D01*
X118264447Y-99822000D02*
X120953309Y-102510862D01*
X120599755Y-102864416D02*
X120599755Y-102854555D01*
X120599755Y-102854555D02*
X119065800Y-101320600D01*
X119065800Y-101320600D02*
X117148100Y-101320600D01*
X117148100Y-101320600D02*
X116690900Y-101777800D01*
X116690900Y-101777800D02*
X113300000Y-101777800D01*
X113300000Y-101777800D02*
X106950000Y-108127800D01*
X106950000Y-108127800D02*
X106950000Y-114757200D01*
X106950000Y-114757200D02*
X106137200Y-115570000D01*
X106137200Y-115570000D02*
X104143300Y-115570000D01*
X112268000Y-124206000D02*
X112268000Y-120142000D01*
X118759327Y-102438200D02*
X119892649Y-103571522D01*
X117805200Y-102438200D02*
X118759327Y-102438200D01*
X117017800Y-103225600D02*
X117805200Y-102438200D01*
X117017800Y-105867200D02*
X117017800Y-103225600D01*
X115824000Y-107061000D02*
X117017800Y-105867200D01*
X112014000Y-107061000D02*
X115824000Y-107061000D01*
X109448600Y-109626400D02*
X112014000Y-107061000D01*
X109448600Y-117322600D02*
X109448600Y-109626400D01*
X112268000Y-120142000D02*
X109448600Y-117322600D01*
D35*
X128320800Y-84480400D02*
X126974600Y-84480400D01*
D34*
X126974600Y-84480400D02*
X126949200Y-84455000D01*
X128096800Y-80551400D02*
X128096800Y-84256400D01*
X128096800Y-84256400D02*
X128320800Y-84480400D01*
D33*
X119748000Y-86972200D02*
X120368000Y-86972200D01*
X120368000Y-86972200D02*
X120827800Y-86512400D01*
D35*
X138531600Y-82786220D02*
X137548620Y-82786220D01*
X136753600Y-81991200D02*
X136753600Y-78435200D01*
X137548620Y-82786220D02*
X136753600Y-81991200D01*
D33*
X114985800Y-82643980D02*
X114536220Y-82643980D01*
X114536220Y-82643980D02*
X113792000Y-83388200D01*
X116598000Y-86322200D02*
X116598000Y-85838600D01*
X114985800Y-85394800D02*
X114985800Y-84742020D01*
X115189000Y-85598000D02*
X114985800Y-85394800D01*
X116357400Y-85598000D02*
X115189000Y-85598000D01*
X116598000Y-85838600D02*
X116357400Y-85598000D01*
X116687600Y-82669380D02*
X116687600Y-81381600D01*
X120700800Y-81889600D02*
X120700800Y-83032600D01*
X118999000Y-80187800D02*
X120700800Y-81889600D01*
X117881400Y-80187800D02*
X118999000Y-80187800D01*
X116687600Y-81381600D02*
X117881400Y-80187800D01*
X117098000Y-85907544D02*
X116687600Y-85497144D01*
X117098000Y-86322200D02*
X117098000Y-85907544D01*
X116687600Y-85497144D02*
X116687600Y-84767420D01*
X141224000Y-124206000D02*
X141224000Y-122074447D01*
X141224000Y-122074447D02*
X127458691Y-108309138D01*
X119989600Y-85242400D02*
X119837200Y-85394800D01*
X119837200Y-85394800D02*
X118948200Y-85394800D01*
X118948200Y-85394800D02*
X118598000Y-85745000D01*
X118598000Y-85745000D02*
X118598000Y-86322200D01*
X113703102Y-90690702D02*
X116484400Y-93472000D01*
X113643976Y-89472200D02*
X113271298Y-89844878D01*
X114948000Y-89472200D02*
X113643976Y-89472200D01*
X113271298Y-90393522D02*
X113568478Y-90690702D01*
X113271298Y-89844878D02*
X113271298Y-90393522D01*
X113568478Y-90690702D02*
X113703102Y-90690702D01*
X116484400Y-93472000D02*
X117805200Y-93472000D01*
X117805200Y-93472000D02*
X123685301Y-99352101D01*
X123685301Y-99352101D02*
X124028200Y-99695000D01*
X123812301Y-98463101D02*
X124155200Y-98806000D01*
X116098000Y-92231400D02*
X117033789Y-93167189D01*
X116098000Y-91122200D02*
X116098000Y-92231400D01*
X117033789Y-93167189D02*
X118516389Y-93167189D01*
X118516389Y-93167189D02*
X123812301Y-98463101D01*
X114119600Y-90472200D02*
X113842800Y-90195400D01*
X113842800Y-90195400D02*
X113842800Y-90119200D01*
X114948000Y-90472200D02*
X114119600Y-90472200D01*
X119098000Y-91122200D02*
X119098000Y-91716800D01*
X119098000Y-91716800D02*
X119354600Y-91973400D01*
X121615200Y-84404200D02*
X122910600Y-83108800D01*
X121615200Y-87122000D02*
X121615200Y-84404200D01*
X121615200Y-87122000D02*
X121615200Y-87122000D01*
X121615200Y-87731600D02*
X121615200Y-87122000D01*
X121310400Y-88036400D02*
X121615200Y-87731600D01*
X120751600Y-88036400D02*
X121310400Y-88036400D01*
X125577600Y-83108800D02*
X122910600Y-83108800D01*
X120687400Y-87972200D02*
X120751600Y-88036400D01*
X126796800Y-81889600D02*
X125577600Y-83108800D01*
X119748000Y-87972200D02*
X120687400Y-87972200D01*
X126796800Y-81889600D02*
X126796800Y-80551400D01*
X126796800Y-80551400D02*
X126796800Y-81153000D01*
X121031000Y-87452200D02*
X121011000Y-87472200D01*
X121011000Y-87472200D02*
X119748000Y-87472200D01*
X127446800Y-82154000D02*
X127304800Y-82296000D01*
X127446800Y-80551400D02*
X127446800Y-82154000D01*
D35*
X134467600Y-82786220D02*
X133729220Y-82786220D01*
X133729220Y-82786220D02*
X132756400Y-81813400D01*
D33*
X115598000Y-91122200D02*
X114973400Y-91122200D01*
X114973400Y-91122200D02*
X114960400Y-91135200D01*
D34*
X118098000Y-83540600D02*
X118098000Y-86322200D01*
X118098000Y-81241200D02*
X118098000Y-83540600D01*
X118098000Y-83540600D02*
X118098000Y-83553600D01*
X118287800Y-81051400D02*
X118098000Y-81241200D01*
D35*
X131572000Y-84480400D02*
X132773420Y-84480400D01*
X132773420Y-84480400D02*
X134467600Y-82786220D01*
D33*
X150241000Y-87426800D02*
X149672800Y-87426800D01*
X149672800Y-87426800D02*
X146231100Y-90868500D01*
X146231100Y-90868500D02*
X146231100Y-94195900D01*
X146231100Y-94195900D02*
X145418300Y-95008700D01*
X145418300Y-95008700D02*
X134960853Y-95008700D01*
X134960853Y-95008700D02*
X127458691Y-102510862D01*
X150241000Y-84886800D02*
X149533100Y-84886800D01*
X149533100Y-84886800D02*
X145507200Y-88912700D01*
X145507200Y-88912700D02*
X145507200Y-93903800D01*
X145507200Y-93903800D02*
X145088100Y-94322900D01*
X145088100Y-94322900D02*
X134939547Y-94322900D01*
X134939547Y-94322900D02*
X127105138Y-102157309D01*
X120246202Y-103217969D02*
X120235969Y-103217969D01*
X120235969Y-103217969D02*
X118948200Y-101930200D01*
X118948200Y-101930200D02*
X117627400Y-101930200D01*
X117627400Y-101930200D02*
X116611400Y-102946200D01*
X116611400Y-102946200D02*
X116611400Y-105638600D01*
X116611400Y-105638600D02*
X115620800Y-106629200D01*
X115620800Y-106629200D02*
X111683800Y-106629200D01*
X111683800Y-106629200D02*
X108864400Y-109448600D01*
X108864400Y-109448600D02*
X108864400Y-117424200D01*
X108864400Y-117424200D02*
X109778800Y-118338600D01*
X109778800Y-118338600D02*
X109778800Y-124155200D01*
X109778800Y-124155200D02*
X109728000Y-124206000D01*
X123088400Y-108254800D02*
X122013969Y-109329231D01*
X122013969Y-109329231D02*
X122013969Y-109369798D01*
X150241000Y-89966800D02*
X149482300Y-89966800D01*
X149482300Y-89966800D02*
X146853400Y-92595700D01*
X146853400Y-92595700D02*
X146853400Y-94640400D01*
X146853400Y-94640400D02*
X145773900Y-95719900D01*
X145773900Y-95719900D02*
X134956761Y-95719900D01*
X134956761Y-95719900D02*
X127812245Y-102864416D01*
X150241000Y-107746800D02*
X139309600Y-107746800D01*
X130867361Y-111010700D02*
X127812245Y-107955584D01*
X136045700Y-111010700D02*
X130867361Y-111010700D01*
X139309600Y-107746800D02*
X136045700Y-111010700D01*
X150241000Y-105206800D02*
X140808200Y-105206800D01*
X130977567Y-110413800D02*
X128165798Y-107602031D01*
X135601200Y-110413800D02*
X130977567Y-110413800D01*
X140808200Y-105206800D02*
X135601200Y-110413800D01*
X150241000Y-102666800D02*
X142192500Y-102666800D01*
X131075073Y-109804200D02*
X128519351Y-107248478D01*
X135055100Y-109804200D02*
X131075073Y-109804200D01*
X142192500Y-102666800D02*
X135055100Y-109804200D01*
X150241000Y-100507800D02*
X132997287Y-100507800D01*
X132997287Y-100507800D02*
X129226458Y-104278629D01*
X150241000Y-97586800D02*
X147932900Y-97586800D01*
X133102981Y-99695000D02*
X128872905Y-103925076D01*
X145824700Y-99695000D02*
X133102981Y-99695000D01*
X147932900Y-97586800D02*
X145824700Y-99695000D01*
X150241000Y-95046800D02*
X149025100Y-95046800D01*
X133132473Y-98958400D02*
X128519351Y-103571522D01*
X145113500Y-98958400D02*
X133132473Y-98958400D01*
X149025100Y-95046800D02*
X145113500Y-98958400D01*
X150241000Y-92506800D02*
X150241000Y-92611700D01*
X150241000Y-92611700D02*
X146421600Y-96431100D01*
X146421600Y-96431100D02*
X134952667Y-96431100D01*
X134952667Y-96431100D02*
X128165798Y-103217969D01*
X110058200Y-113969800D02*
X110058200Y-116890800D01*
X114808000Y-121640600D02*
X114808000Y-124206000D01*
X110058200Y-116890800D02*
X114808000Y-121640600D01*
X110058200Y-111582200D02*
X110058200Y-113969800D01*
X110058200Y-113969800D02*
X110058200Y-113995200D01*
X119539095Y-106894924D02*
X119520676Y-106894924D01*
X119520676Y-106894924D02*
X117932200Y-108483400D01*
X117932200Y-108483400D02*
X116941600Y-108483400D01*
X116941600Y-108483400D02*
X116001800Y-107543600D01*
X116001800Y-107543600D02*
X112369600Y-107543600D01*
X112369600Y-107543600D02*
X110058200Y-109855000D01*
X110058200Y-109855000D02*
X110058200Y-111582200D01*
X117348000Y-124206000D02*
X117348000Y-120954800D01*
X118124327Y-109016800D02*
X119892649Y-107248478D01*
X116687600Y-109016800D02*
X118124327Y-109016800D01*
X115773200Y-108102400D02*
X116687600Y-109016800D01*
X112623600Y-108102400D02*
X115773200Y-108102400D01*
X110617000Y-110109000D02*
X112623600Y-108102400D01*
X110617000Y-116535200D02*
X110617000Y-110109000D01*
X114198400Y-120116600D02*
X110617000Y-116535200D01*
X116509800Y-120116600D02*
X114198400Y-120116600D01*
X117348000Y-120954800D02*
X116509800Y-120116600D01*
X120246202Y-107602031D02*
X118298033Y-109550200D01*
X119888000Y-120751600D02*
X119888000Y-124206000D01*
X118414800Y-119278400D02*
X119888000Y-120751600D01*
X114477800Y-119278400D02*
X118414800Y-119278400D01*
X111277400Y-116078000D02*
X114477800Y-119278400D01*
X111277400Y-110363000D02*
X111277400Y-116078000D01*
X112877600Y-108762800D02*
X111277400Y-110363000D01*
X115646200Y-108762800D02*
X112877600Y-108762800D01*
X116433600Y-109550200D02*
X115646200Y-108762800D01*
X118298033Y-109550200D02*
X116433600Y-109550200D01*
X122428000Y-124206000D02*
X122072400Y-123850400D01*
X122072400Y-123850400D02*
X122072400Y-114376200D01*
X122072400Y-114376200D02*
X120904000Y-113207800D01*
X120904000Y-113207800D02*
X120904000Y-111186873D01*
X120904000Y-111186873D02*
X122367522Y-109723351D01*
X124968000Y-124206000D02*
X124968000Y-121462800D01*
X126822200Y-111208181D02*
X125690924Y-110076905D01*
X126822200Y-119608600D02*
X126822200Y-111208181D01*
X124968000Y-121462800D02*
X126822200Y-119608600D01*
X126044478Y-109723351D02*
X126106351Y-109723351D01*
X126106351Y-109723351D02*
X127508000Y-111125000D01*
X127508000Y-111125000D02*
X127508000Y-124206000D01*
X130048000Y-124206000D02*
X130048000Y-113019767D01*
X130048000Y-113019767D02*
X126398031Y-109369798D01*
X126751584Y-109016245D02*
X126770845Y-109016245D01*
X126770845Y-109016245D02*
X132588000Y-114833400D01*
X132588000Y-114833400D02*
X132588000Y-124206000D01*
M02*
