G04 #@! TF.FileFunction,Legend,Bot*
%FSLAX46Y46*%
G04 Gerber Fmt 4.6, Leading zero omitted, Abs format (unit mm)*
G04 Created by KiCad (PCBNEW 0.201510170916+6271~30~ubuntu14.04.1-product) date Sat 26 Dec 2015 06:02:25 AM EST*
%MOMM*%
G01*
G04 APERTURE LIST*
%ADD10C,0.100000*%
%ADD11C,0.150000*%
%ADD12C,0.127000*%
%ADD13R,1.250000X1.000000*%
%ADD14R,1.000000X1.250000*%
%ADD15R,1.000000X2.500000*%
%ADD16R,2.500000X1.000000*%
%ADD17R,1.399540X1.150620*%
%ADD18R,2.032000X1.727200*%
%ADD19O,2.032000X1.727200*%
%ADD20R,1.727200X2.032000*%
%ADD21O,1.727200X2.032000*%
%ADD22R,2.032000X2.032000*%
%ADD23O,2.032000X2.032000*%
%ADD24R,1.300000X0.700000*%
%ADD25R,0.700000X1.300000*%
%ADD26C,1.501140*%
%ADD27C,1.600000*%
%ADD28C,1.500000*%
%ADD29R,1.000000X1.600000*%
G04 APERTURE END LIST*
D10*
D11*
X118377600Y-109262800D02*
X118377600Y-108262800D01*
X120077600Y-108262800D02*
X120077600Y-109262800D01*
X114079400Y-113297600D02*
X115079400Y-113297600D01*
X115079400Y-114997600D02*
X114079400Y-114997600D01*
X114872400Y-117594000D02*
X114872400Y-116594000D01*
X116572400Y-116594000D02*
X116572400Y-117594000D01*
X108199300Y-99681400D02*
X107199300Y-99681400D01*
X107199300Y-97981400D02*
X108199300Y-97981400D01*
X130192400Y-85330400D02*
X129192400Y-85330400D01*
X129192400Y-83630400D02*
X130192400Y-83630400D01*
X121150000Y-82892000D02*
X120150000Y-82892000D01*
X120150000Y-81192000D02*
X121150000Y-81192000D01*
X114366800Y-80084400D02*
X116366800Y-80084400D01*
X116366800Y-83034400D02*
X114366800Y-83034400D01*
X117889400Y-87694400D02*
X118889400Y-87694400D01*
X118889400Y-89394400D02*
X117889400Y-89394400D01*
X121943600Y-88909400D02*
X121943600Y-86909400D01*
X124893600Y-86909400D02*
X124893600Y-88909400D01*
X125271000Y-88884000D02*
X125271000Y-86884000D01*
X128221000Y-86884000D02*
X128221000Y-88884000D01*
X116514880Y-108270040D02*
X116514880Y-103870760D01*
X114117120Y-108270040D02*
X114117120Y-103969820D01*
X107825000Y-92713100D02*
X107825000Y-91513100D01*
X106075000Y-91513100D02*
X106075000Y-92713100D01*
X110542800Y-94732400D02*
X110542800Y-93532400D01*
X108792800Y-93532400D02*
X108792800Y-94732400D01*
X107264400Y-89381300D02*
X108464400Y-89381300D01*
X108464400Y-87631300D02*
X107264400Y-87631300D01*
X108261200Y-100420200D02*
X107061200Y-100420200D01*
X107061200Y-102170200D02*
X108261200Y-102170200D01*
X117789400Y-87387400D02*
X118989400Y-87387400D01*
X118989400Y-85637400D02*
X117789400Y-85637400D01*
X122010200Y-104149600D02*
X122010200Y-105349600D01*
X123760200Y-105349600D02*
X123760200Y-104149600D01*
X124296200Y-104098800D02*
X124296200Y-105298800D01*
X126046200Y-105298800D02*
X126046200Y-104098800D01*
X116544800Y-91299000D02*
X117744800Y-91299000D01*
X117744800Y-89549000D02*
X116544800Y-89549000D01*
X120888200Y-92289600D02*
X122088200Y-92289600D01*
X122088200Y-90539600D02*
X120888200Y-90539600D01*
X114944600Y-85228400D02*
X116144600Y-85228400D01*
X116144600Y-83478400D02*
X114944600Y-83478400D01*
X120538800Y-83376800D02*
X119338800Y-83376800D01*
X119338800Y-85126800D02*
X120538800Y-85126800D01*
X145634000Y-111139000D02*
X144434000Y-111139000D01*
X144434000Y-112889000D02*
X145634000Y-112889000D01*
X145634000Y-113298000D02*
X144434000Y-113298000D01*
X144434000Y-115048000D02*
X145634000Y-115048000D01*
X145662700Y-115355400D02*
X144462700Y-115355400D01*
X144462700Y-117105400D02*
X145662700Y-117105400D01*
X145662700Y-117425500D02*
X144462700Y-117425500D01*
X144462700Y-119175500D02*
X145662700Y-119175500D01*
X131221100Y-103504100D02*
X130221100Y-103504100D01*
X130221100Y-101804100D02*
X131221100Y-101804100D01*
X132254500Y-108784500D02*
X130254500Y-108784500D01*
X130254500Y-106734500D02*
X132254500Y-106734500D01*
X132229100Y-106219100D02*
X130229100Y-106219100D01*
X130229100Y-104169100D02*
X132229100Y-104169100D01*
X118105300Y-104636200D02*
X119105300Y-104636200D01*
X119105300Y-106336200D02*
X118105300Y-106336200D01*
X118075200Y-101997400D02*
X120075200Y-101997400D01*
X120075200Y-104047400D02*
X118075200Y-104047400D01*
X118100600Y-99622500D02*
X120100600Y-99622500D01*
X120100600Y-101672500D02*
X118100600Y-101672500D01*
D12*
X117890143Y-107884686D02*
X117926429Y-107848400D01*
X117962714Y-107739543D01*
X117962714Y-107666972D01*
X117926429Y-107558115D01*
X117853857Y-107485543D01*
X117781286Y-107449258D01*
X117636143Y-107412972D01*
X117527286Y-107412972D01*
X117382143Y-107449258D01*
X117309571Y-107485543D01*
X117237000Y-107558115D01*
X117200714Y-107666972D01*
X117200714Y-107739543D01*
X117237000Y-107848400D01*
X117273286Y-107884686D01*
X117962714Y-108610400D02*
X117962714Y-108174972D01*
X117962714Y-108392686D02*
X117200714Y-108392686D01*
X117309571Y-108320115D01*
X117382143Y-108247543D01*
X117418429Y-108174972D01*
X117200714Y-109082114D02*
X117200714Y-109154686D01*
X117237000Y-109227257D01*
X117273286Y-109263543D01*
X117345857Y-109299829D01*
X117491000Y-109336114D01*
X117672429Y-109336114D01*
X117817571Y-109299829D01*
X117890143Y-109263543D01*
X117926429Y-109227257D01*
X117962714Y-109154686D01*
X117962714Y-109082114D01*
X117926429Y-109009543D01*
X117890143Y-108973257D01*
X117817571Y-108936972D01*
X117672429Y-108900686D01*
X117491000Y-108900686D01*
X117345857Y-108936972D01*
X117273286Y-108973257D01*
X117237000Y-109009543D01*
X117200714Y-109082114D01*
X117962714Y-110061828D02*
X117962714Y-109626400D01*
X117962714Y-109844114D02*
X117200714Y-109844114D01*
X117309571Y-109771543D01*
X117382143Y-109698971D01*
X117418429Y-109626400D01*
X113339914Y-112641743D02*
X113376200Y-112678029D01*
X113485057Y-112714314D01*
X113557628Y-112714314D01*
X113666485Y-112678029D01*
X113739057Y-112605457D01*
X113775342Y-112532886D01*
X113811628Y-112387743D01*
X113811628Y-112278886D01*
X113775342Y-112133743D01*
X113739057Y-112061171D01*
X113666485Y-111988600D01*
X113557628Y-111952314D01*
X113485057Y-111952314D01*
X113376200Y-111988600D01*
X113339914Y-112024886D01*
X112614200Y-112714314D02*
X113049628Y-112714314D01*
X112831914Y-112714314D02*
X112831914Y-111952314D01*
X112904485Y-112061171D01*
X112977057Y-112133743D01*
X113049628Y-112170029D01*
X112142486Y-111952314D02*
X112069914Y-111952314D01*
X111997343Y-111988600D01*
X111961057Y-112024886D01*
X111924771Y-112097457D01*
X111888486Y-112242600D01*
X111888486Y-112424029D01*
X111924771Y-112569171D01*
X111961057Y-112641743D01*
X111997343Y-112678029D01*
X112069914Y-112714314D01*
X112142486Y-112714314D01*
X112215057Y-112678029D01*
X112251343Y-112641743D01*
X112287628Y-112569171D01*
X112323914Y-112424029D01*
X112323914Y-112242600D01*
X112287628Y-112097457D01*
X112251343Y-112024886D01*
X112215057Y-111988600D01*
X112142486Y-111952314D01*
X111598200Y-112024886D02*
X111561914Y-111988600D01*
X111489343Y-111952314D01*
X111307914Y-111952314D01*
X111235343Y-111988600D01*
X111199057Y-112024886D01*
X111162772Y-112097457D01*
X111162772Y-112170029D01*
X111199057Y-112278886D01*
X111634486Y-112714314D01*
X111162772Y-112714314D01*
X114194443Y-117371586D02*
X114230729Y-117335300D01*
X114267014Y-117226443D01*
X114267014Y-117153872D01*
X114230729Y-117045015D01*
X114158157Y-116972443D01*
X114085586Y-116936158D01*
X113940443Y-116899872D01*
X113831586Y-116899872D01*
X113686443Y-116936158D01*
X113613871Y-116972443D01*
X113541300Y-117045015D01*
X113505014Y-117153872D01*
X113505014Y-117226443D01*
X113541300Y-117335300D01*
X113577586Y-117371586D01*
X114267014Y-118097300D02*
X114267014Y-117661872D01*
X114267014Y-117879586D02*
X113505014Y-117879586D01*
X113613871Y-117807015D01*
X113686443Y-117734443D01*
X113722729Y-117661872D01*
X113505014Y-118569014D02*
X113505014Y-118641586D01*
X113541300Y-118714157D01*
X113577586Y-118750443D01*
X113650157Y-118786729D01*
X113795300Y-118823014D01*
X113976729Y-118823014D01*
X114121871Y-118786729D01*
X114194443Y-118750443D01*
X114230729Y-118714157D01*
X114267014Y-118641586D01*
X114267014Y-118569014D01*
X114230729Y-118496443D01*
X114194443Y-118460157D01*
X114121871Y-118423872D01*
X113976729Y-118387586D01*
X113795300Y-118387586D01*
X113650157Y-118423872D01*
X113577586Y-118460157D01*
X113541300Y-118496443D01*
X113505014Y-118569014D01*
X113505014Y-119077014D02*
X113505014Y-119548728D01*
X113795300Y-119294728D01*
X113795300Y-119403586D01*
X113831586Y-119476157D01*
X113867871Y-119512443D01*
X113940443Y-119548728D01*
X114121871Y-119548728D01*
X114194443Y-119512443D01*
X114230729Y-119476157D01*
X114267014Y-119403586D01*
X114267014Y-119185871D01*
X114230729Y-119113300D01*
X114194443Y-119077014D01*
X108666314Y-97503343D02*
X108702600Y-97539629D01*
X108811457Y-97575914D01*
X108884028Y-97575914D01*
X108992885Y-97539629D01*
X109065457Y-97467057D01*
X109101742Y-97394486D01*
X109138028Y-97249343D01*
X109138028Y-97140486D01*
X109101742Y-96995343D01*
X109065457Y-96922771D01*
X108992885Y-96850200D01*
X108884028Y-96813914D01*
X108811457Y-96813914D01*
X108702600Y-96850200D01*
X108666314Y-96886486D01*
X108376028Y-96886486D02*
X108339742Y-96850200D01*
X108267171Y-96813914D01*
X108085742Y-96813914D01*
X108013171Y-96850200D01*
X107976885Y-96886486D01*
X107940600Y-96959057D01*
X107940600Y-97031629D01*
X107976885Y-97140486D01*
X108412314Y-97575914D01*
X107940600Y-97575914D01*
X107468886Y-96813914D02*
X107396314Y-96813914D01*
X107323743Y-96850200D01*
X107287457Y-96886486D01*
X107251171Y-96959057D01*
X107214886Y-97104200D01*
X107214886Y-97285629D01*
X107251171Y-97430771D01*
X107287457Y-97503343D01*
X107323743Y-97539629D01*
X107396314Y-97575914D01*
X107468886Y-97575914D01*
X107541457Y-97539629D01*
X107577743Y-97503343D01*
X107614028Y-97430771D01*
X107650314Y-97285629D01*
X107650314Y-97104200D01*
X107614028Y-96959057D01*
X107577743Y-96886486D01*
X107541457Y-96850200D01*
X107468886Y-96813914D01*
X106489172Y-97575914D02*
X106924600Y-97575914D01*
X106706886Y-97575914D02*
X106706886Y-96813914D01*
X106779457Y-96922771D01*
X106852029Y-96995343D01*
X106924600Y-97031629D01*
X130497614Y-83088843D02*
X130533900Y-83125129D01*
X130642757Y-83161414D01*
X130715328Y-83161414D01*
X130824185Y-83125129D01*
X130896757Y-83052557D01*
X130933042Y-82979986D01*
X130969328Y-82834843D01*
X130969328Y-82725986D01*
X130933042Y-82580843D01*
X130896757Y-82508271D01*
X130824185Y-82435700D01*
X130715328Y-82399414D01*
X130642757Y-82399414D01*
X130533900Y-82435700D01*
X130497614Y-82471986D01*
X130243614Y-82399414D02*
X129771900Y-82399414D01*
X130025900Y-82689700D01*
X129917042Y-82689700D01*
X129844471Y-82725986D01*
X129808185Y-82762271D01*
X129771900Y-82834843D01*
X129771900Y-83016271D01*
X129808185Y-83088843D01*
X129844471Y-83125129D01*
X129917042Y-83161414D01*
X130134757Y-83161414D01*
X130207328Y-83125129D01*
X130243614Y-83088843D01*
X129300186Y-82399414D02*
X129227614Y-82399414D01*
X129155043Y-82435700D01*
X129118757Y-82471986D01*
X129082471Y-82544557D01*
X129046186Y-82689700D01*
X129046186Y-82871129D01*
X129082471Y-83016271D01*
X129118757Y-83088843D01*
X129155043Y-83125129D01*
X129227614Y-83161414D01*
X129300186Y-83161414D01*
X129372757Y-83125129D01*
X129409043Y-83088843D01*
X129445328Y-83016271D01*
X129481614Y-82871129D01*
X129481614Y-82689700D01*
X129445328Y-82544557D01*
X129409043Y-82471986D01*
X129372757Y-82435700D01*
X129300186Y-82399414D01*
X128320472Y-83161414D02*
X128755900Y-83161414D01*
X128538186Y-83161414D02*
X128538186Y-82399414D01*
X128610757Y-82508271D01*
X128683329Y-82580843D01*
X128755900Y-82617129D01*
X124846114Y-81298143D02*
X124882400Y-81334429D01*
X124991257Y-81370714D01*
X125063828Y-81370714D01*
X125172685Y-81334429D01*
X125245257Y-81261857D01*
X125281542Y-81189286D01*
X125317828Y-81044143D01*
X125317828Y-80935286D01*
X125281542Y-80790143D01*
X125245257Y-80717571D01*
X125172685Y-80645000D01*
X125063828Y-80608714D01*
X124991257Y-80608714D01*
X124882400Y-80645000D01*
X124846114Y-80681286D01*
X124592114Y-80608714D02*
X124120400Y-80608714D01*
X124374400Y-80899000D01*
X124265542Y-80899000D01*
X124192971Y-80935286D01*
X124156685Y-80971571D01*
X124120400Y-81044143D01*
X124120400Y-81225571D01*
X124156685Y-81298143D01*
X124192971Y-81334429D01*
X124265542Y-81370714D01*
X124483257Y-81370714D01*
X124555828Y-81334429D01*
X124592114Y-81298143D01*
X123648686Y-80608714D02*
X123576114Y-80608714D01*
X123503543Y-80645000D01*
X123467257Y-80681286D01*
X123430971Y-80753857D01*
X123394686Y-80899000D01*
X123394686Y-81080429D01*
X123430971Y-81225571D01*
X123467257Y-81298143D01*
X123503543Y-81334429D01*
X123576114Y-81370714D01*
X123648686Y-81370714D01*
X123721257Y-81334429D01*
X123757543Y-81298143D01*
X123793828Y-81225571D01*
X123830114Y-81080429D01*
X123830114Y-80899000D01*
X123793828Y-80753857D01*
X123757543Y-80681286D01*
X123721257Y-80645000D01*
X123648686Y-80608714D01*
X123104400Y-80681286D02*
X123068114Y-80645000D01*
X122995543Y-80608714D01*
X122814114Y-80608714D01*
X122741543Y-80645000D01*
X122705257Y-80681286D01*
X122668972Y-80753857D01*
X122668972Y-80826429D01*
X122705257Y-80935286D01*
X123140686Y-81370714D01*
X122668972Y-81370714D01*
X112222314Y-81996643D02*
X112258600Y-82032929D01*
X112367457Y-82069214D01*
X112440028Y-82069214D01*
X112548885Y-82032929D01*
X112621457Y-81960357D01*
X112657742Y-81887786D01*
X112694028Y-81742643D01*
X112694028Y-81633786D01*
X112657742Y-81488643D01*
X112621457Y-81416071D01*
X112548885Y-81343500D01*
X112440028Y-81307214D01*
X112367457Y-81307214D01*
X112258600Y-81343500D01*
X112222314Y-81379786D01*
X111968314Y-81307214D02*
X111496600Y-81307214D01*
X111750600Y-81597500D01*
X111641742Y-81597500D01*
X111569171Y-81633786D01*
X111532885Y-81670071D01*
X111496600Y-81742643D01*
X111496600Y-81924071D01*
X111532885Y-81996643D01*
X111569171Y-82032929D01*
X111641742Y-82069214D01*
X111859457Y-82069214D01*
X111932028Y-82032929D01*
X111968314Y-81996643D01*
X111024886Y-81307214D02*
X110952314Y-81307214D01*
X110879743Y-81343500D01*
X110843457Y-81379786D01*
X110807171Y-81452357D01*
X110770886Y-81597500D01*
X110770886Y-81778929D01*
X110807171Y-81924071D01*
X110843457Y-81996643D01*
X110879743Y-82032929D01*
X110952314Y-82069214D01*
X111024886Y-82069214D01*
X111097457Y-82032929D01*
X111133743Y-81996643D01*
X111170028Y-81924071D01*
X111206314Y-81778929D01*
X111206314Y-81597500D01*
X111170028Y-81452357D01*
X111133743Y-81379786D01*
X111097457Y-81343500D01*
X111024886Y-81307214D01*
X110516886Y-81307214D02*
X110045172Y-81307214D01*
X110299172Y-81597500D01*
X110190314Y-81597500D01*
X110117743Y-81633786D01*
X110081457Y-81670071D01*
X110045172Y-81742643D01*
X110045172Y-81924071D01*
X110081457Y-81996643D01*
X110117743Y-82032929D01*
X110190314Y-82069214D01*
X110408029Y-82069214D01*
X110480600Y-82032929D01*
X110516886Y-81996643D01*
X115854514Y-88803843D02*
X115890800Y-88840129D01*
X115999657Y-88876414D01*
X116072228Y-88876414D01*
X116181085Y-88840129D01*
X116253657Y-88767557D01*
X116289942Y-88694986D01*
X116326228Y-88549843D01*
X116326228Y-88440986D01*
X116289942Y-88295843D01*
X116253657Y-88223271D01*
X116181085Y-88150700D01*
X116072228Y-88114414D01*
X115999657Y-88114414D01*
X115890800Y-88150700D01*
X115854514Y-88186986D01*
X115600514Y-88114414D02*
X115128800Y-88114414D01*
X115382800Y-88404700D01*
X115273942Y-88404700D01*
X115201371Y-88440986D01*
X115165085Y-88477271D01*
X115128800Y-88549843D01*
X115128800Y-88731271D01*
X115165085Y-88803843D01*
X115201371Y-88840129D01*
X115273942Y-88876414D01*
X115491657Y-88876414D01*
X115564228Y-88840129D01*
X115600514Y-88803843D01*
X114657086Y-88114414D02*
X114584514Y-88114414D01*
X114511943Y-88150700D01*
X114475657Y-88186986D01*
X114439371Y-88259557D01*
X114403086Y-88404700D01*
X114403086Y-88586129D01*
X114439371Y-88731271D01*
X114475657Y-88803843D01*
X114511943Y-88840129D01*
X114584514Y-88876414D01*
X114657086Y-88876414D01*
X114729657Y-88840129D01*
X114765943Y-88803843D01*
X114802228Y-88731271D01*
X114838514Y-88586129D01*
X114838514Y-88404700D01*
X114802228Y-88259557D01*
X114765943Y-88186986D01*
X114729657Y-88150700D01*
X114657086Y-88114414D01*
X113749943Y-88368414D02*
X113749943Y-88876414D01*
X113931372Y-88078129D02*
X114112800Y-88622414D01*
X113641086Y-88622414D01*
X124300014Y-85489143D02*
X124336300Y-85525429D01*
X124445157Y-85561714D01*
X124517728Y-85561714D01*
X124626585Y-85525429D01*
X124699157Y-85452857D01*
X124735442Y-85380286D01*
X124771728Y-85235143D01*
X124771728Y-85126286D01*
X124735442Y-84981143D01*
X124699157Y-84908571D01*
X124626585Y-84836000D01*
X124517728Y-84799714D01*
X124445157Y-84799714D01*
X124336300Y-84836000D01*
X124300014Y-84872286D01*
X124046014Y-84799714D02*
X123574300Y-84799714D01*
X123828300Y-85090000D01*
X123719442Y-85090000D01*
X123646871Y-85126286D01*
X123610585Y-85162571D01*
X123574300Y-85235143D01*
X123574300Y-85416571D01*
X123610585Y-85489143D01*
X123646871Y-85525429D01*
X123719442Y-85561714D01*
X123937157Y-85561714D01*
X124009728Y-85525429D01*
X124046014Y-85489143D01*
X123102586Y-84799714D02*
X123030014Y-84799714D01*
X122957443Y-84836000D01*
X122921157Y-84872286D01*
X122884871Y-84944857D01*
X122848586Y-85090000D01*
X122848586Y-85271429D01*
X122884871Y-85416571D01*
X122921157Y-85489143D01*
X122957443Y-85525429D01*
X123030014Y-85561714D01*
X123102586Y-85561714D01*
X123175157Y-85525429D01*
X123211443Y-85489143D01*
X123247728Y-85416571D01*
X123284014Y-85271429D01*
X123284014Y-85090000D01*
X123247728Y-84944857D01*
X123211443Y-84872286D01*
X123175157Y-84836000D01*
X123102586Y-84799714D01*
X122159157Y-84799714D02*
X122522014Y-84799714D01*
X122558300Y-85162571D01*
X122522014Y-85126286D01*
X122449443Y-85090000D01*
X122268014Y-85090000D01*
X122195443Y-85126286D01*
X122159157Y-85162571D01*
X122122872Y-85235143D01*
X122122872Y-85416571D01*
X122159157Y-85489143D01*
X122195443Y-85525429D01*
X122268014Y-85561714D01*
X122449443Y-85561714D01*
X122522014Y-85525429D01*
X122558300Y-85489143D01*
X127868714Y-91077143D02*
X127905000Y-91113429D01*
X128013857Y-91149714D01*
X128086428Y-91149714D01*
X128195285Y-91113429D01*
X128267857Y-91040857D01*
X128304142Y-90968286D01*
X128340428Y-90823143D01*
X128340428Y-90714286D01*
X128304142Y-90569143D01*
X128267857Y-90496571D01*
X128195285Y-90424000D01*
X128086428Y-90387714D01*
X128013857Y-90387714D01*
X127905000Y-90424000D01*
X127868714Y-90460286D01*
X127614714Y-90387714D02*
X127143000Y-90387714D01*
X127397000Y-90678000D01*
X127288142Y-90678000D01*
X127215571Y-90714286D01*
X127179285Y-90750571D01*
X127143000Y-90823143D01*
X127143000Y-91004571D01*
X127179285Y-91077143D01*
X127215571Y-91113429D01*
X127288142Y-91149714D01*
X127505857Y-91149714D01*
X127578428Y-91113429D01*
X127614714Y-91077143D01*
X126671286Y-90387714D02*
X126598714Y-90387714D01*
X126526143Y-90424000D01*
X126489857Y-90460286D01*
X126453571Y-90532857D01*
X126417286Y-90678000D01*
X126417286Y-90859429D01*
X126453571Y-91004571D01*
X126489857Y-91077143D01*
X126526143Y-91113429D01*
X126598714Y-91149714D01*
X126671286Y-91149714D01*
X126743857Y-91113429D01*
X126780143Y-91077143D01*
X126816428Y-91004571D01*
X126852714Y-90859429D01*
X126852714Y-90678000D01*
X126816428Y-90532857D01*
X126780143Y-90460286D01*
X126743857Y-90424000D01*
X126671286Y-90387714D01*
X125764143Y-90387714D02*
X125909286Y-90387714D01*
X125981857Y-90424000D01*
X126018143Y-90460286D01*
X126090714Y-90569143D01*
X126127000Y-90714286D01*
X126127000Y-91004571D01*
X126090714Y-91077143D01*
X126054429Y-91113429D01*
X125981857Y-91149714D01*
X125836714Y-91149714D01*
X125764143Y-91113429D01*
X125727857Y-91077143D01*
X125691572Y-91004571D01*
X125691572Y-90823143D01*
X125727857Y-90750571D01*
X125764143Y-90714286D01*
X125836714Y-90678000D01*
X125981857Y-90678000D01*
X126054429Y-90714286D01*
X126090714Y-90750571D01*
X126127000Y-90823143D01*
X113835214Y-105357387D02*
X113835214Y-104994530D01*
X113073214Y-104994530D01*
X113835214Y-106010529D02*
X113835214Y-105575101D01*
X113835214Y-105792815D02*
X113073214Y-105792815D01*
X113182071Y-105720244D01*
X113254643Y-105647672D01*
X113290929Y-105575101D01*
X113073214Y-106482243D02*
X113073214Y-106554815D01*
X113109500Y-106627386D01*
X113145786Y-106663672D01*
X113218357Y-106699958D01*
X113363500Y-106736243D01*
X113544929Y-106736243D01*
X113690071Y-106699958D01*
X113762643Y-106663672D01*
X113798929Y-106627386D01*
X113835214Y-106554815D01*
X113835214Y-106482243D01*
X113798929Y-106409672D01*
X113762643Y-106373386D01*
X113690071Y-106337101D01*
X113544929Y-106300815D01*
X113363500Y-106300815D01*
X113218357Y-106337101D01*
X113145786Y-106373386D01*
X113109500Y-106409672D01*
X113073214Y-106482243D01*
X113835214Y-107461957D02*
X113835214Y-107026529D01*
X113835214Y-107244243D02*
X113073214Y-107244243D01*
X113182071Y-107171672D01*
X113254643Y-107099100D01*
X113290929Y-107026529D01*
X110444314Y-91048114D02*
X110698314Y-90685257D01*
X110879742Y-91048114D02*
X110879742Y-90286114D01*
X110589457Y-90286114D01*
X110516885Y-90322400D01*
X110480600Y-90358686D01*
X110444314Y-90431257D01*
X110444314Y-90540114D01*
X110480600Y-90612686D01*
X110516885Y-90648971D01*
X110589457Y-90685257D01*
X110879742Y-90685257D01*
X110154028Y-90358686D02*
X110117742Y-90322400D01*
X110045171Y-90286114D01*
X109863742Y-90286114D01*
X109791171Y-90322400D01*
X109754885Y-90358686D01*
X109718600Y-90431257D01*
X109718600Y-90503829D01*
X109754885Y-90612686D01*
X110190314Y-91048114D01*
X109718600Y-91048114D01*
X109246886Y-90286114D02*
X109174314Y-90286114D01*
X109101743Y-90322400D01*
X109065457Y-90358686D01*
X109029171Y-90431257D01*
X108992886Y-90576400D01*
X108992886Y-90757829D01*
X109029171Y-90902971D01*
X109065457Y-90975543D01*
X109101743Y-91011829D01*
X109174314Y-91048114D01*
X109246886Y-91048114D01*
X109319457Y-91011829D01*
X109355743Y-90975543D01*
X109392028Y-90902971D01*
X109428314Y-90757829D01*
X109428314Y-90576400D01*
X109392028Y-90431257D01*
X109355743Y-90358686D01*
X109319457Y-90322400D01*
X109246886Y-90286114D01*
X108267172Y-91048114D02*
X108702600Y-91048114D01*
X108484886Y-91048114D02*
X108484886Y-90286114D01*
X108557457Y-90394971D01*
X108630029Y-90467543D01*
X108702600Y-90503829D01*
X113124014Y-95543914D02*
X113378014Y-95181057D01*
X113559442Y-95543914D02*
X113559442Y-94781914D01*
X113269157Y-94781914D01*
X113196585Y-94818200D01*
X113160300Y-94854486D01*
X113124014Y-94927057D01*
X113124014Y-95035914D01*
X113160300Y-95108486D01*
X113196585Y-95144771D01*
X113269157Y-95181057D01*
X113559442Y-95181057D01*
X112833728Y-94854486D02*
X112797442Y-94818200D01*
X112724871Y-94781914D01*
X112543442Y-94781914D01*
X112470871Y-94818200D01*
X112434585Y-94854486D01*
X112398300Y-94927057D01*
X112398300Y-94999629D01*
X112434585Y-95108486D01*
X112870014Y-95543914D01*
X112398300Y-95543914D01*
X111926586Y-94781914D02*
X111854014Y-94781914D01*
X111781443Y-94818200D01*
X111745157Y-94854486D01*
X111708871Y-94927057D01*
X111672586Y-95072200D01*
X111672586Y-95253629D01*
X111708871Y-95398771D01*
X111745157Y-95471343D01*
X111781443Y-95507629D01*
X111854014Y-95543914D01*
X111926586Y-95543914D01*
X111999157Y-95507629D01*
X112035443Y-95471343D01*
X112071728Y-95398771D01*
X112108014Y-95253629D01*
X112108014Y-95072200D01*
X112071728Y-94927057D01*
X112035443Y-94854486D01*
X111999157Y-94818200D01*
X111926586Y-94781914D01*
X111382300Y-94854486D02*
X111346014Y-94818200D01*
X111273443Y-94781914D01*
X111092014Y-94781914D01*
X111019443Y-94818200D01*
X110983157Y-94854486D01*
X110946872Y-94927057D01*
X110946872Y-94999629D01*
X110983157Y-95108486D01*
X111418586Y-95543914D01*
X110946872Y-95543914D01*
X108717114Y-87212714D02*
X108971114Y-86849857D01*
X109152542Y-87212714D02*
X109152542Y-86450714D01*
X108862257Y-86450714D01*
X108789685Y-86487000D01*
X108753400Y-86523286D01*
X108717114Y-86595857D01*
X108717114Y-86704714D01*
X108753400Y-86777286D01*
X108789685Y-86813571D01*
X108862257Y-86849857D01*
X109152542Y-86849857D01*
X108426828Y-86523286D02*
X108390542Y-86487000D01*
X108317971Y-86450714D01*
X108136542Y-86450714D01*
X108063971Y-86487000D01*
X108027685Y-86523286D01*
X107991400Y-86595857D01*
X107991400Y-86668429D01*
X108027685Y-86777286D01*
X108463114Y-87212714D01*
X107991400Y-87212714D01*
X107519686Y-86450714D02*
X107447114Y-86450714D01*
X107374543Y-86487000D01*
X107338257Y-86523286D01*
X107301971Y-86595857D01*
X107265686Y-86741000D01*
X107265686Y-86922429D01*
X107301971Y-87067571D01*
X107338257Y-87140143D01*
X107374543Y-87176429D01*
X107447114Y-87212714D01*
X107519686Y-87212714D01*
X107592257Y-87176429D01*
X107628543Y-87140143D01*
X107664828Y-87067571D01*
X107701114Y-86922429D01*
X107701114Y-86741000D01*
X107664828Y-86595857D01*
X107628543Y-86523286D01*
X107592257Y-86487000D01*
X107519686Y-86450714D01*
X107011686Y-86450714D02*
X106539972Y-86450714D01*
X106793972Y-86741000D01*
X106685114Y-86741000D01*
X106612543Y-86777286D01*
X106576257Y-86813571D01*
X106539972Y-86886143D01*
X106539972Y-87067571D01*
X106576257Y-87140143D01*
X106612543Y-87176429D01*
X106685114Y-87212714D01*
X106902829Y-87212714D01*
X106975400Y-87176429D01*
X107011686Y-87140143D01*
X108590114Y-103303614D02*
X108844114Y-102940757D01*
X109025542Y-103303614D02*
X109025542Y-102541614D01*
X108735257Y-102541614D01*
X108662685Y-102577900D01*
X108626400Y-102614186D01*
X108590114Y-102686757D01*
X108590114Y-102795614D01*
X108626400Y-102868186D01*
X108662685Y-102904471D01*
X108735257Y-102940757D01*
X109025542Y-102940757D01*
X108299828Y-102614186D02*
X108263542Y-102577900D01*
X108190971Y-102541614D01*
X108009542Y-102541614D01*
X107936971Y-102577900D01*
X107900685Y-102614186D01*
X107864400Y-102686757D01*
X107864400Y-102759329D01*
X107900685Y-102868186D01*
X108336114Y-103303614D01*
X107864400Y-103303614D01*
X107392686Y-102541614D02*
X107320114Y-102541614D01*
X107247543Y-102577900D01*
X107211257Y-102614186D01*
X107174971Y-102686757D01*
X107138686Y-102831900D01*
X107138686Y-103013329D01*
X107174971Y-103158471D01*
X107211257Y-103231043D01*
X107247543Y-103267329D01*
X107320114Y-103303614D01*
X107392686Y-103303614D01*
X107465257Y-103267329D01*
X107501543Y-103231043D01*
X107537828Y-103158471D01*
X107574114Y-103013329D01*
X107574114Y-102831900D01*
X107537828Y-102686757D01*
X107501543Y-102614186D01*
X107465257Y-102577900D01*
X107392686Y-102541614D01*
X106485543Y-102795614D02*
X106485543Y-103303614D01*
X106666972Y-102505329D02*
X106848400Y-103049614D01*
X106376686Y-103049614D01*
X115943414Y-86933314D02*
X116197414Y-86570457D01*
X116378842Y-86933314D02*
X116378842Y-86171314D01*
X116088557Y-86171314D01*
X116015985Y-86207600D01*
X115979700Y-86243886D01*
X115943414Y-86316457D01*
X115943414Y-86425314D01*
X115979700Y-86497886D01*
X116015985Y-86534171D01*
X116088557Y-86570457D01*
X116378842Y-86570457D01*
X115689414Y-86171314D02*
X115217700Y-86171314D01*
X115471700Y-86461600D01*
X115362842Y-86461600D01*
X115290271Y-86497886D01*
X115253985Y-86534171D01*
X115217700Y-86606743D01*
X115217700Y-86788171D01*
X115253985Y-86860743D01*
X115290271Y-86897029D01*
X115362842Y-86933314D01*
X115580557Y-86933314D01*
X115653128Y-86897029D01*
X115689414Y-86860743D01*
X114745986Y-86171314D02*
X114673414Y-86171314D01*
X114600843Y-86207600D01*
X114564557Y-86243886D01*
X114528271Y-86316457D01*
X114491986Y-86461600D01*
X114491986Y-86643029D01*
X114528271Y-86788171D01*
X114564557Y-86860743D01*
X114600843Y-86897029D01*
X114673414Y-86933314D01*
X114745986Y-86933314D01*
X114818557Y-86897029D01*
X114854843Y-86860743D01*
X114891128Y-86788171D01*
X114927414Y-86643029D01*
X114927414Y-86461600D01*
X114891128Y-86316457D01*
X114854843Y-86243886D01*
X114818557Y-86207600D01*
X114745986Y-86171314D01*
X113766272Y-86933314D02*
X114201700Y-86933314D01*
X113983986Y-86933314D02*
X113983986Y-86171314D01*
X114056557Y-86280171D01*
X114129129Y-86352743D01*
X114201700Y-86389029D01*
X123284014Y-100480586D02*
X122921157Y-100226586D01*
X123284014Y-100045158D02*
X122522014Y-100045158D01*
X122522014Y-100335443D01*
X122558300Y-100408015D01*
X122594586Y-100444300D01*
X122667157Y-100480586D01*
X122776014Y-100480586D01*
X122848586Y-100444300D01*
X122884871Y-100408015D01*
X122921157Y-100335443D01*
X122921157Y-100045158D01*
X122522014Y-100734586D02*
X122522014Y-101206300D01*
X122812300Y-100952300D01*
X122812300Y-101061158D01*
X122848586Y-101133729D01*
X122884871Y-101170015D01*
X122957443Y-101206300D01*
X123138871Y-101206300D01*
X123211443Y-101170015D01*
X123247729Y-101133729D01*
X123284014Y-101061158D01*
X123284014Y-100843443D01*
X123247729Y-100770872D01*
X123211443Y-100734586D01*
X122522014Y-101678014D02*
X122522014Y-101750586D01*
X122558300Y-101823157D01*
X122594586Y-101859443D01*
X122667157Y-101895729D01*
X122812300Y-101932014D01*
X122993729Y-101932014D01*
X123138871Y-101895729D01*
X123211443Y-101859443D01*
X123247729Y-101823157D01*
X123284014Y-101750586D01*
X123284014Y-101678014D01*
X123247729Y-101605443D01*
X123211443Y-101569157D01*
X123138871Y-101532872D01*
X122993729Y-101496586D01*
X122812300Y-101496586D01*
X122667157Y-101532872D01*
X122594586Y-101569157D01*
X122558300Y-101605443D01*
X122522014Y-101678014D01*
X122594586Y-102222300D02*
X122558300Y-102258586D01*
X122522014Y-102331157D01*
X122522014Y-102512586D01*
X122558300Y-102585157D01*
X122594586Y-102621443D01*
X122667157Y-102657728D01*
X122739729Y-102657728D01*
X122848586Y-102621443D01*
X123284014Y-102186014D01*
X123284014Y-102657728D01*
X125989114Y-106982986D02*
X125626257Y-106728986D01*
X125989114Y-106547558D02*
X125227114Y-106547558D01*
X125227114Y-106837843D01*
X125263400Y-106910415D01*
X125299686Y-106946700D01*
X125372257Y-106982986D01*
X125481114Y-106982986D01*
X125553686Y-106946700D01*
X125589971Y-106910415D01*
X125626257Y-106837843D01*
X125626257Y-106547558D01*
X125227114Y-107236986D02*
X125227114Y-107708700D01*
X125517400Y-107454700D01*
X125517400Y-107563558D01*
X125553686Y-107636129D01*
X125589971Y-107672415D01*
X125662543Y-107708700D01*
X125843971Y-107708700D01*
X125916543Y-107672415D01*
X125952829Y-107636129D01*
X125989114Y-107563558D01*
X125989114Y-107345843D01*
X125952829Y-107273272D01*
X125916543Y-107236986D01*
X125227114Y-108180414D02*
X125227114Y-108252986D01*
X125263400Y-108325557D01*
X125299686Y-108361843D01*
X125372257Y-108398129D01*
X125517400Y-108434414D01*
X125698829Y-108434414D01*
X125843971Y-108398129D01*
X125916543Y-108361843D01*
X125952829Y-108325557D01*
X125989114Y-108252986D01*
X125989114Y-108180414D01*
X125952829Y-108107843D01*
X125916543Y-108071557D01*
X125843971Y-108035272D01*
X125698829Y-107998986D01*
X125517400Y-107998986D01*
X125372257Y-108035272D01*
X125299686Y-108071557D01*
X125263400Y-108107843D01*
X125227114Y-108180414D01*
X125227114Y-108688414D02*
X125227114Y-109160128D01*
X125517400Y-108906128D01*
X125517400Y-109014986D01*
X125553686Y-109087557D01*
X125589971Y-109123843D01*
X125662543Y-109160128D01*
X125843971Y-109160128D01*
X125916543Y-109123843D01*
X125952829Y-109087557D01*
X125989114Y-109014986D01*
X125989114Y-108797271D01*
X125952829Y-108724700D01*
X125916543Y-108688414D01*
X115778314Y-92546714D02*
X116032314Y-92183857D01*
X116213742Y-92546714D02*
X116213742Y-91784714D01*
X115923457Y-91784714D01*
X115850885Y-91821000D01*
X115814600Y-91857286D01*
X115778314Y-91929857D01*
X115778314Y-92038714D01*
X115814600Y-92111286D01*
X115850885Y-92147571D01*
X115923457Y-92183857D01*
X116213742Y-92183857D01*
X115524314Y-91784714D02*
X115052600Y-91784714D01*
X115306600Y-92075000D01*
X115197742Y-92075000D01*
X115125171Y-92111286D01*
X115088885Y-92147571D01*
X115052600Y-92220143D01*
X115052600Y-92401571D01*
X115088885Y-92474143D01*
X115125171Y-92510429D01*
X115197742Y-92546714D01*
X115415457Y-92546714D01*
X115488028Y-92510429D01*
X115524314Y-92474143D01*
X114580886Y-91784714D02*
X114508314Y-91784714D01*
X114435743Y-91821000D01*
X114399457Y-91857286D01*
X114363171Y-91929857D01*
X114326886Y-92075000D01*
X114326886Y-92256429D01*
X114363171Y-92401571D01*
X114399457Y-92474143D01*
X114435743Y-92510429D01*
X114508314Y-92546714D01*
X114580886Y-92546714D01*
X114653457Y-92510429D01*
X114689743Y-92474143D01*
X114726028Y-92401571D01*
X114762314Y-92256429D01*
X114762314Y-92075000D01*
X114726028Y-91929857D01*
X114689743Y-91857286D01*
X114653457Y-91821000D01*
X114580886Y-91784714D01*
X113673743Y-92038714D02*
X113673743Y-92546714D01*
X113855172Y-91748429D02*
X114036600Y-92292714D01*
X113564886Y-92292714D01*
X122433114Y-93410314D02*
X122687114Y-93047457D01*
X122868542Y-93410314D02*
X122868542Y-92648314D01*
X122578257Y-92648314D01*
X122505685Y-92684600D01*
X122469400Y-92720886D01*
X122433114Y-92793457D01*
X122433114Y-92902314D01*
X122469400Y-92974886D01*
X122505685Y-93011171D01*
X122578257Y-93047457D01*
X122868542Y-93047457D01*
X122179114Y-92648314D02*
X121707400Y-92648314D01*
X121961400Y-92938600D01*
X121852542Y-92938600D01*
X121779971Y-92974886D01*
X121743685Y-93011171D01*
X121707400Y-93083743D01*
X121707400Y-93265171D01*
X121743685Y-93337743D01*
X121779971Y-93374029D01*
X121852542Y-93410314D01*
X122070257Y-93410314D01*
X122142828Y-93374029D01*
X122179114Y-93337743D01*
X121235686Y-92648314D02*
X121163114Y-92648314D01*
X121090543Y-92684600D01*
X121054257Y-92720886D01*
X121017971Y-92793457D01*
X120981686Y-92938600D01*
X120981686Y-93120029D01*
X121017971Y-93265171D01*
X121054257Y-93337743D01*
X121090543Y-93374029D01*
X121163114Y-93410314D01*
X121235686Y-93410314D01*
X121308257Y-93374029D01*
X121344543Y-93337743D01*
X121380828Y-93265171D01*
X121417114Y-93120029D01*
X121417114Y-92938600D01*
X121380828Y-92793457D01*
X121344543Y-92720886D01*
X121308257Y-92684600D01*
X121235686Y-92648314D01*
X120292257Y-92648314D02*
X120655114Y-92648314D01*
X120691400Y-93011171D01*
X120655114Y-92974886D01*
X120582543Y-92938600D01*
X120401114Y-92938600D01*
X120328543Y-92974886D01*
X120292257Y-93011171D01*
X120255972Y-93083743D01*
X120255972Y-93265171D01*
X120292257Y-93337743D01*
X120328543Y-93374029D01*
X120401114Y-93410314D01*
X120582543Y-93410314D01*
X120655114Y-93374029D01*
X120691400Y-93337743D01*
X112984314Y-85079114D02*
X113238314Y-84716257D01*
X113419742Y-85079114D02*
X113419742Y-84317114D01*
X113129457Y-84317114D01*
X113056885Y-84353400D01*
X113020600Y-84389686D01*
X112984314Y-84462257D01*
X112984314Y-84571114D01*
X113020600Y-84643686D01*
X113056885Y-84679971D01*
X113129457Y-84716257D01*
X113419742Y-84716257D01*
X112730314Y-84317114D02*
X112258600Y-84317114D01*
X112512600Y-84607400D01*
X112403742Y-84607400D01*
X112331171Y-84643686D01*
X112294885Y-84679971D01*
X112258600Y-84752543D01*
X112258600Y-84933971D01*
X112294885Y-85006543D01*
X112331171Y-85042829D01*
X112403742Y-85079114D01*
X112621457Y-85079114D01*
X112694028Y-85042829D01*
X112730314Y-85006543D01*
X111786886Y-84317114D02*
X111714314Y-84317114D01*
X111641743Y-84353400D01*
X111605457Y-84389686D01*
X111569171Y-84462257D01*
X111532886Y-84607400D01*
X111532886Y-84788829D01*
X111569171Y-84933971D01*
X111605457Y-85006543D01*
X111641743Y-85042829D01*
X111714314Y-85079114D01*
X111786886Y-85079114D01*
X111859457Y-85042829D01*
X111895743Y-85006543D01*
X111932028Y-84933971D01*
X111968314Y-84788829D01*
X111968314Y-84607400D01*
X111932028Y-84462257D01*
X111895743Y-84389686D01*
X111859457Y-84353400D01*
X111786886Y-84317114D01*
X110879743Y-84317114D02*
X111024886Y-84317114D01*
X111097457Y-84353400D01*
X111133743Y-84389686D01*
X111206314Y-84498543D01*
X111242600Y-84643686D01*
X111242600Y-84933971D01*
X111206314Y-85006543D01*
X111170029Y-85042829D01*
X111097457Y-85079114D01*
X110952314Y-85079114D01*
X110879743Y-85042829D01*
X110843457Y-85006543D01*
X110807172Y-84933971D01*
X110807172Y-84752543D01*
X110843457Y-84679971D01*
X110879743Y-84643686D01*
X110952314Y-84607400D01*
X111097457Y-84607400D01*
X111170029Y-84643686D01*
X111206314Y-84679971D01*
X111242600Y-84752543D01*
X123906314Y-83999614D02*
X124160314Y-83636757D01*
X124341742Y-83999614D02*
X124341742Y-83237614D01*
X124051457Y-83237614D01*
X123978885Y-83273900D01*
X123942600Y-83310186D01*
X123906314Y-83382757D01*
X123906314Y-83491614D01*
X123942600Y-83564186D01*
X123978885Y-83600471D01*
X124051457Y-83636757D01*
X124341742Y-83636757D01*
X123652314Y-83237614D02*
X123180600Y-83237614D01*
X123434600Y-83527900D01*
X123325742Y-83527900D01*
X123253171Y-83564186D01*
X123216885Y-83600471D01*
X123180600Y-83673043D01*
X123180600Y-83854471D01*
X123216885Y-83927043D01*
X123253171Y-83963329D01*
X123325742Y-83999614D01*
X123543457Y-83999614D01*
X123616028Y-83963329D01*
X123652314Y-83927043D01*
X122708886Y-83237614D02*
X122636314Y-83237614D01*
X122563743Y-83273900D01*
X122527457Y-83310186D01*
X122491171Y-83382757D01*
X122454886Y-83527900D01*
X122454886Y-83709329D01*
X122491171Y-83854471D01*
X122527457Y-83927043D01*
X122563743Y-83963329D01*
X122636314Y-83999614D01*
X122708886Y-83999614D01*
X122781457Y-83963329D01*
X122817743Y-83927043D01*
X122854028Y-83854471D01*
X122890314Y-83709329D01*
X122890314Y-83527900D01*
X122854028Y-83382757D01*
X122817743Y-83310186D01*
X122781457Y-83273900D01*
X122708886Y-83237614D01*
X122200886Y-83237614D02*
X121692886Y-83237614D01*
X122019457Y-83999614D01*
X146029714Y-106846914D02*
X146283714Y-106484057D01*
X146465142Y-106846914D02*
X146465142Y-106084914D01*
X146174857Y-106084914D01*
X146102285Y-106121200D01*
X146066000Y-106157486D01*
X146029714Y-106230057D01*
X146029714Y-106338914D01*
X146066000Y-106411486D01*
X146102285Y-106447771D01*
X146174857Y-106484057D01*
X146465142Y-106484057D01*
X145739428Y-106157486D02*
X145703142Y-106121200D01*
X145630571Y-106084914D01*
X145449142Y-106084914D01*
X145376571Y-106121200D01*
X145340285Y-106157486D01*
X145304000Y-106230057D01*
X145304000Y-106302629D01*
X145340285Y-106411486D01*
X145775714Y-106846914D01*
X145304000Y-106846914D01*
X144832286Y-106084914D02*
X144759714Y-106084914D01*
X144687143Y-106121200D01*
X144650857Y-106157486D01*
X144614571Y-106230057D01*
X144578286Y-106375200D01*
X144578286Y-106556629D01*
X144614571Y-106701771D01*
X144650857Y-106774343D01*
X144687143Y-106810629D01*
X144759714Y-106846914D01*
X144832286Y-106846914D01*
X144904857Y-106810629D01*
X144941143Y-106774343D01*
X144977428Y-106701771D01*
X145013714Y-106556629D01*
X145013714Y-106375200D01*
X144977428Y-106230057D01*
X144941143Y-106157486D01*
X144904857Y-106121200D01*
X144832286Y-106084914D01*
X143925143Y-106084914D02*
X144070286Y-106084914D01*
X144142857Y-106121200D01*
X144179143Y-106157486D01*
X144251714Y-106266343D01*
X144288000Y-106411486D01*
X144288000Y-106701771D01*
X144251714Y-106774343D01*
X144215429Y-106810629D01*
X144142857Y-106846914D01*
X143997714Y-106846914D01*
X143925143Y-106810629D01*
X143888857Y-106774343D01*
X143852572Y-106701771D01*
X143852572Y-106520343D01*
X143888857Y-106447771D01*
X143925143Y-106411486D01*
X143997714Y-106375200D01*
X144142857Y-106375200D01*
X144215429Y-106411486D01*
X144251714Y-106447771D01*
X144288000Y-106520343D01*
X146055114Y-108015314D02*
X146309114Y-107652457D01*
X146490542Y-108015314D02*
X146490542Y-107253314D01*
X146200257Y-107253314D01*
X146127685Y-107289600D01*
X146091400Y-107325886D01*
X146055114Y-107398457D01*
X146055114Y-107507314D01*
X146091400Y-107579886D01*
X146127685Y-107616171D01*
X146200257Y-107652457D01*
X146490542Y-107652457D01*
X145764828Y-107325886D02*
X145728542Y-107289600D01*
X145655971Y-107253314D01*
X145474542Y-107253314D01*
X145401971Y-107289600D01*
X145365685Y-107325886D01*
X145329400Y-107398457D01*
X145329400Y-107471029D01*
X145365685Y-107579886D01*
X145801114Y-108015314D01*
X145329400Y-108015314D01*
X144857686Y-107253314D02*
X144785114Y-107253314D01*
X144712543Y-107289600D01*
X144676257Y-107325886D01*
X144639971Y-107398457D01*
X144603686Y-107543600D01*
X144603686Y-107725029D01*
X144639971Y-107870171D01*
X144676257Y-107942743D01*
X144712543Y-107979029D01*
X144785114Y-108015314D01*
X144857686Y-108015314D01*
X144930257Y-107979029D01*
X144966543Y-107942743D01*
X145002828Y-107870171D01*
X145039114Y-107725029D01*
X145039114Y-107543600D01*
X145002828Y-107398457D01*
X144966543Y-107325886D01*
X144930257Y-107289600D01*
X144857686Y-107253314D01*
X144349686Y-107253314D02*
X143841686Y-107253314D01*
X144168257Y-108015314D01*
X146055114Y-109196414D02*
X146309114Y-108833557D01*
X146490542Y-109196414D02*
X146490542Y-108434414D01*
X146200257Y-108434414D01*
X146127685Y-108470700D01*
X146091400Y-108506986D01*
X146055114Y-108579557D01*
X146055114Y-108688414D01*
X146091400Y-108760986D01*
X146127685Y-108797271D01*
X146200257Y-108833557D01*
X146490542Y-108833557D01*
X145764828Y-108506986D02*
X145728542Y-108470700D01*
X145655971Y-108434414D01*
X145474542Y-108434414D01*
X145401971Y-108470700D01*
X145365685Y-108506986D01*
X145329400Y-108579557D01*
X145329400Y-108652129D01*
X145365685Y-108760986D01*
X145801114Y-109196414D01*
X145329400Y-109196414D01*
X144857686Y-108434414D02*
X144785114Y-108434414D01*
X144712543Y-108470700D01*
X144676257Y-108506986D01*
X144639971Y-108579557D01*
X144603686Y-108724700D01*
X144603686Y-108906129D01*
X144639971Y-109051271D01*
X144676257Y-109123843D01*
X144712543Y-109160129D01*
X144785114Y-109196414D01*
X144857686Y-109196414D01*
X144930257Y-109160129D01*
X144966543Y-109123843D01*
X145002828Y-109051271D01*
X145039114Y-108906129D01*
X145039114Y-108724700D01*
X145002828Y-108579557D01*
X144966543Y-108506986D01*
X144930257Y-108470700D01*
X144857686Y-108434414D01*
X144168257Y-108760986D02*
X144240829Y-108724700D01*
X144277114Y-108688414D01*
X144313400Y-108615843D01*
X144313400Y-108579557D01*
X144277114Y-108506986D01*
X144240829Y-108470700D01*
X144168257Y-108434414D01*
X144023114Y-108434414D01*
X143950543Y-108470700D01*
X143914257Y-108506986D01*
X143877972Y-108579557D01*
X143877972Y-108615843D01*
X143914257Y-108688414D01*
X143950543Y-108724700D01*
X144023114Y-108760986D01*
X144168257Y-108760986D01*
X144240829Y-108797271D01*
X144277114Y-108833557D01*
X144313400Y-108906129D01*
X144313400Y-109051271D01*
X144277114Y-109123843D01*
X144240829Y-109160129D01*
X144168257Y-109196414D01*
X144023114Y-109196414D01*
X143950543Y-109160129D01*
X143914257Y-109123843D01*
X143877972Y-109051271D01*
X143877972Y-108906129D01*
X143914257Y-108833557D01*
X143950543Y-108797271D01*
X144023114Y-108760986D01*
X146055114Y-110377514D02*
X146309114Y-110014657D01*
X146490542Y-110377514D02*
X146490542Y-109615514D01*
X146200257Y-109615514D01*
X146127685Y-109651800D01*
X146091400Y-109688086D01*
X146055114Y-109760657D01*
X146055114Y-109869514D01*
X146091400Y-109942086D01*
X146127685Y-109978371D01*
X146200257Y-110014657D01*
X146490542Y-110014657D01*
X145764828Y-109688086D02*
X145728542Y-109651800D01*
X145655971Y-109615514D01*
X145474542Y-109615514D01*
X145401971Y-109651800D01*
X145365685Y-109688086D01*
X145329400Y-109760657D01*
X145329400Y-109833229D01*
X145365685Y-109942086D01*
X145801114Y-110377514D01*
X145329400Y-110377514D01*
X144857686Y-109615514D02*
X144785114Y-109615514D01*
X144712543Y-109651800D01*
X144676257Y-109688086D01*
X144639971Y-109760657D01*
X144603686Y-109905800D01*
X144603686Y-110087229D01*
X144639971Y-110232371D01*
X144676257Y-110304943D01*
X144712543Y-110341229D01*
X144785114Y-110377514D01*
X144857686Y-110377514D01*
X144930257Y-110341229D01*
X144966543Y-110304943D01*
X145002828Y-110232371D01*
X145039114Y-110087229D01*
X145039114Y-109905800D01*
X145002828Y-109760657D01*
X144966543Y-109688086D01*
X144930257Y-109651800D01*
X144857686Y-109615514D01*
X144240829Y-110377514D02*
X144095686Y-110377514D01*
X144023114Y-110341229D01*
X143986829Y-110304943D01*
X143914257Y-110196086D01*
X143877972Y-110050943D01*
X143877972Y-109760657D01*
X143914257Y-109688086D01*
X143950543Y-109651800D01*
X144023114Y-109615514D01*
X144168257Y-109615514D01*
X144240829Y-109651800D01*
X144277114Y-109688086D01*
X144313400Y-109760657D01*
X144313400Y-109942086D01*
X144277114Y-110014657D01*
X144240829Y-110050943D01*
X144168257Y-110087229D01*
X144023114Y-110087229D01*
X143950543Y-110050943D01*
X143914257Y-110014657D01*
X143877972Y-109942086D01*
X131729514Y-110038243D02*
X131765800Y-110074529D01*
X131874657Y-110110814D01*
X131947228Y-110110814D01*
X132056085Y-110074529D01*
X132128657Y-110001957D01*
X132164942Y-109929386D01*
X132201228Y-109784243D01*
X132201228Y-109675386D01*
X132164942Y-109530243D01*
X132128657Y-109457671D01*
X132056085Y-109385100D01*
X131947228Y-109348814D01*
X131874657Y-109348814D01*
X131765800Y-109385100D01*
X131729514Y-109421386D01*
X131003800Y-110110814D02*
X131439228Y-110110814D01*
X131221514Y-110110814D02*
X131221514Y-109348814D01*
X131294085Y-109457671D01*
X131366657Y-109530243D01*
X131439228Y-109566529D01*
X130532086Y-109348814D02*
X130459514Y-109348814D01*
X130386943Y-109385100D01*
X130350657Y-109421386D01*
X130314371Y-109493957D01*
X130278086Y-109639100D01*
X130278086Y-109820529D01*
X130314371Y-109965671D01*
X130350657Y-110038243D01*
X130386943Y-110074529D01*
X130459514Y-110110814D01*
X130532086Y-110110814D01*
X130604657Y-110074529D01*
X130640943Y-110038243D01*
X130677228Y-109965671D01*
X130713514Y-109820529D01*
X130713514Y-109639100D01*
X130677228Y-109493957D01*
X130640943Y-109421386D01*
X130604657Y-109385100D01*
X130532086Y-109348814D01*
X129624943Y-109602814D02*
X129624943Y-110110814D01*
X129806372Y-109312529D02*
X129987800Y-109856814D01*
X129516086Y-109856814D01*
X131729514Y-112209943D02*
X131765800Y-112246229D01*
X131874657Y-112282514D01*
X131947228Y-112282514D01*
X132056085Y-112246229D01*
X132128657Y-112173657D01*
X132164942Y-112101086D01*
X132201228Y-111955943D01*
X132201228Y-111847086D01*
X132164942Y-111701943D01*
X132128657Y-111629371D01*
X132056085Y-111556800D01*
X131947228Y-111520514D01*
X131874657Y-111520514D01*
X131765800Y-111556800D01*
X131729514Y-111593086D01*
X131003800Y-112282514D02*
X131439228Y-112282514D01*
X131221514Y-112282514D02*
X131221514Y-111520514D01*
X131294085Y-111629371D01*
X131366657Y-111701943D01*
X131439228Y-111738229D01*
X130532086Y-111520514D02*
X130459514Y-111520514D01*
X130386943Y-111556800D01*
X130350657Y-111593086D01*
X130314371Y-111665657D01*
X130278086Y-111810800D01*
X130278086Y-111992229D01*
X130314371Y-112137371D01*
X130350657Y-112209943D01*
X130386943Y-112246229D01*
X130459514Y-112282514D01*
X130532086Y-112282514D01*
X130604657Y-112246229D01*
X130640943Y-112209943D01*
X130677228Y-112137371D01*
X130713514Y-111992229D01*
X130713514Y-111810800D01*
X130677228Y-111665657D01*
X130640943Y-111593086D01*
X130604657Y-111556800D01*
X130532086Y-111520514D01*
X129588657Y-111520514D02*
X129951514Y-111520514D01*
X129987800Y-111883371D01*
X129951514Y-111847086D01*
X129878943Y-111810800D01*
X129697514Y-111810800D01*
X129624943Y-111847086D01*
X129588657Y-111883371D01*
X129552372Y-111955943D01*
X129552372Y-112137371D01*
X129588657Y-112209943D01*
X129624943Y-112246229D01*
X129697514Y-112282514D01*
X129878943Y-112282514D01*
X129951514Y-112246229D01*
X129987800Y-112209943D01*
X131729514Y-111066943D02*
X131765800Y-111103229D01*
X131874657Y-111139514D01*
X131947228Y-111139514D01*
X132056085Y-111103229D01*
X132128657Y-111030657D01*
X132164942Y-110958086D01*
X132201228Y-110812943D01*
X132201228Y-110704086D01*
X132164942Y-110558943D01*
X132128657Y-110486371D01*
X132056085Y-110413800D01*
X131947228Y-110377514D01*
X131874657Y-110377514D01*
X131765800Y-110413800D01*
X131729514Y-110450086D01*
X131003800Y-111139514D02*
X131439228Y-111139514D01*
X131221514Y-111139514D02*
X131221514Y-110377514D01*
X131294085Y-110486371D01*
X131366657Y-110558943D01*
X131439228Y-110595229D01*
X130532086Y-110377514D02*
X130459514Y-110377514D01*
X130386943Y-110413800D01*
X130350657Y-110450086D01*
X130314371Y-110522657D01*
X130278086Y-110667800D01*
X130278086Y-110849229D01*
X130314371Y-110994371D01*
X130350657Y-111066943D01*
X130386943Y-111103229D01*
X130459514Y-111139514D01*
X130532086Y-111139514D01*
X130604657Y-111103229D01*
X130640943Y-111066943D01*
X130677228Y-110994371D01*
X130713514Y-110849229D01*
X130713514Y-110667800D01*
X130677228Y-110522657D01*
X130640943Y-110450086D01*
X130604657Y-110413800D01*
X130532086Y-110377514D01*
X129624943Y-110377514D02*
X129770086Y-110377514D01*
X129842657Y-110413800D01*
X129878943Y-110450086D01*
X129951514Y-110558943D01*
X129987800Y-110704086D01*
X129987800Y-110994371D01*
X129951514Y-111066943D01*
X129915229Y-111103229D01*
X129842657Y-111139514D01*
X129697514Y-111139514D01*
X129624943Y-111103229D01*
X129588657Y-111066943D01*
X129552372Y-110994371D01*
X129552372Y-110812943D01*
X129588657Y-110740371D01*
X129624943Y-110704086D01*
X129697514Y-110667800D01*
X129842657Y-110667800D01*
X129915229Y-110704086D01*
X129951514Y-110740371D01*
X129987800Y-110812943D01*
X120998014Y-99205143D02*
X121034300Y-99241429D01*
X121143157Y-99277714D01*
X121215728Y-99277714D01*
X121324585Y-99241429D01*
X121397157Y-99168857D01*
X121433442Y-99096286D01*
X121469728Y-98951143D01*
X121469728Y-98842286D01*
X121433442Y-98697143D01*
X121397157Y-98624571D01*
X121324585Y-98552000D01*
X121215728Y-98515714D01*
X121143157Y-98515714D01*
X121034300Y-98552000D01*
X120998014Y-98588286D01*
X120272300Y-99277714D02*
X120707728Y-99277714D01*
X120490014Y-99277714D02*
X120490014Y-98515714D01*
X120562585Y-98624571D01*
X120635157Y-98697143D01*
X120707728Y-98733429D01*
X119800586Y-98515714D02*
X119728014Y-98515714D01*
X119655443Y-98552000D01*
X119619157Y-98588286D01*
X119582871Y-98660857D01*
X119546586Y-98806000D01*
X119546586Y-98987429D01*
X119582871Y-99132571D01*
X119619157Y-99205143D01*
X119655443Y-99241429D01*
X119728014Y-99277714D01*
X119800586Y-99277714D01*
X119873157Y-99241429D01*
X119909443Y-99205143D01*
X119945728Y-99132571D01*
X119982014Y-98987429D01*
X119982014Y-98806000D01*
X119945728Y-98660857D01*
X119909443Y-98588286D01*
X119873157Y-98552000D01*
X119800586Y-98515714D01*
X119292586Y-98515714D02*
X118784586Y-98515714D01*
X119111157Y-99277714D01*
X120972614Y-98151043D02*
X121008900Y-98187329D01*
X121117757Y-98223614D01*
X121190328Y-98223614D01*
X121299185Y-98187329D01*
X121371757Y-98114757D01*
X121408042Y-98042186D01*
X121444328Y-97897043D01*
X121444328Y-97788186D01*
X121408042Y-97643043D01*
X121371757Y-97570471D01*
X121299185Y-97497900D01*
X121190328Y-97461614D01*
X121117757Y-97461614D01*
X121008900Y-97497900D01*
X120972614Y-97534186D01*
X120246900Y-98223614D02*
X120682328Y-98223614D01*
X120464614Y-98223614D02*
X120464614Y-97461614D01*
X120537185Y-97570471D01*
X120609757Y-97643043D01*
X120682328Y-97679329D01*
X119775186Y-97461614D02*
X119702614Y-97461614D01*
X119630043Y-97497900D01*
X119593757Y-97534186D01*
X119557471Y-97606757D01*
X119521186Y-97751900D01*
X119521186Y-97933329D01*
X119557471Y-98078471D01*
X119593757Y-98151043D01*
X119630043Y-98187329D01*
X119702614Y-98223614D01*
X119775186Y-98223614D01*
X119847757Y-98187329D01*
X119884043Y-98151043D01*
X119920328Y-98078471D01*
X119956614Y-97933329D01*
X119956614Y-97751900D01*
X119920328Y-97606757D01*
X119884043Y-97534186D01*
X119847757Y-97497900D01*
X119775186Y-97461614D01*
X119085757Y-97788186D02*
X119158329Y-97751900D01*
X119194614Y-97715614D01*
X119230900Y-97643043D01*
X119230900Y-97606757D01*
X119194614Y-97534186D01*
X119158329Y-97497900D01*
X119085757Y-97461614D01*
X118940614Y-97461614D01*
X118868043Y-97497900D01*
X118831757Y-97534186D01*
X118795472Y-97606757D01*
X118795472Y-97643043D01*
X118831757Y-97715614D01*
X118868043Y-97751900D01*
X118940614Y-97788186D01*
X119085757Y-97788186D01*
X119158329Y-97824471D01*
X119194614Y-97860757D01*
X119230900Y-97933329D01*
X119230900Y-98078471D01*
X119194614Y-98151043D01*
X119158329Y-98187329D01*
X119085757Y-98223614D01*
X118940614Y-98223614D01*
X118868043Y-98187329D01*
X118831757Y-98151043D01*
X118795472Y-98078471D01*
X118795472Y-97933329D01*
X118831757Y-97860757D01*
X118868043Y-97824471D01*
X118940614Y-97788186D01*
X120972614Y-97058843D02*
X121008900Y-97095129D01*
X121117757Y-97131414D01*
X121190328Y-97131414D01*
X121299185Y-97095129D01*
X121371757Y-97022557D01*
X121408042Y-96949986D01*
X121444328Y-96804843D01*
X121444328Y-96695986D01*
X121408042Y-96550843D01*
X121371757Y-96478271D01*
X121299185Y-96405700D01*
X121190328Y-96369414D01*
X121117757Y-96369414D01*
X121008900Y-96405700D01*
X120972614Y-96441986D01*
X120246900Y-97131414D02*
X120682328Y-97131414D01*
X120464614Y-97131414D02*
X120464614Y-96369414D01*
X120537185Y-96478271D01*
X120609757Y-96550843D01*
X120682328Y-96587129D01*
X119775186Y-96369414D02*
X119702614Y-96369414D01*
X119630043Y-96405700D01*
X119593757Y-96441986D01*
X119557471Y-96514557D01*
X119521186Y-96659700D01*
X119521186Y-96841129D01*
X119557471Y-96986271D01*
X119593757Y-97058843D01*
X119630043Y-97095129D01*
X119702614Y-97131414D01*
X119775186Y-97131414D01*
X119847757Y-97095129D01*
X119884043Y-97058843D01*
X119920328Y-96986271D01*
X119956614Y-96841129D01*
X119956614Y-96659700D01*
X119920328Y-96514557D01*
X119884043Y-96441986D01*
X119847757Y-96405700D01*
X119775186Y-96369414D01*
X119158329Y-97131414D02*
X119013186Y-97131414D01*
X118940614Y-97095129D01*
X118904329Y-97058843D01*
X118831757Y-96949986D01*
X118795472Y-96804843D01*
X118795472Y-96514557D01*
X118831757Y-96441986D01*
X118868043Y-96405700D01*
X118940614Y-96369414D01*
X119085757Y-96369414D01*
X119158329Y-96405700D01*
X119194614Y-96441986D01*
X119230900Y-96514557D01*
X119230900Y-96695986D01*
X119194614Y-96768557D01*
X119158329Y-96804843D01*
X119085757Y-96841129D01*
X118940614Y-96841129D01*
X118868043Y-96804843D01*
X118831757Y-96768557D01*
X118795472Y-96695986D01*
%LPC*%
D13*
X119227600Y-107762800D03*
X119227600Y-109762800D03*
D14*
X115579400Y-114147600D03*
X113579400Y-114147600D03*
D13*
X115722400Y-116094000D03*
X115722400Y-118094000D03*
D14*
X106699300Y-98831400D03*
X108699300Y-98831400D03*
X128692400Y-84480400D03*
X130692400Y-84480400D03*
X119650000Y-82042000D03*
X121650000Y-82042000D03*
D15*
X116866800Y-81559400D03*
X113866800Y-81559400D03*
D14*
X119389400Y-88544400D03*
X117389400Y-88544400D03*
D16*
X123418600Y-86409400D03*
X123418600Y-89409400D03*
X126746000Y-86384000D03*
X126746000Y-89384000D03*
D17*
X115316000Y-107696000D03*
X115316000Y-104444800D03*
D18*
X150241000Y-107746800D03*
D19*
X150241000Y-105206800D03*
X150241000Y-102666800D03*
X150241000Y-100126800D03*
X150241000Y-97586800D03*
X150241000Y-95046800D03*
X150241000Y-92506800D03*
X150241000Y-89966800D03*
X150241000Y-87426800D03*
X150241000Y-84886800D03*
D20*
X109728000Y-124206000D03*
D21*
X112268000Y-124206000D03*
X114808000Y-124206000D03*
X117348000Y-124206000D03*
X119888000Y-124206000D03*
X122428000Y-124206000D03*
X124968000Y-124206000D03*
X127508000Y-124206000D03*
X130048000Y-124206000D03*
X132588000Y-124206000D03*
D20*
X119126000Y-78232000D03*
D21*
X116586000Y-78232000D03*
X114046000Y-78232000D03*
X111506000Y-78232000D03*
D22*
X143500600Y-78320900D03*
D23*
X140960600Y-78320900D03*
D20*
X136144000Y-124206000D03*
D21*
X138684000Y-124206000D03*
X141224000Y-124206000D03*
X143764000Y-124206000D03*
D22*
X104244900Y-105041700D03*
D23*
X104244900Y-107581700D03*
D18*
X104194100Y-88544400D03*
D19*
X104194100Y-91084400D03*
X104194100Y-93624400D03*
X104194100Y-96164400D03*
X104194100Y-98704400D03*
X104194100Y-101244400D03*
D18*
X104143300Y-113030000D03*
D19*
X104143300Y-115570000D03*
X104143300Y-118110000D03*
D22*
X136753600Y-78435200D03*
D23*
X134213600Y-78435200D03*
D24*
X106950000Y-91163100D03*
X106950000Y-93063100D03*
X109667800Y-93182400D03*
X109667800Y-95082400D03*
D25*
X108814400Y-88506300D03*
X106914400Y-88506300D03*
X106711200Y-101295200D03*
X108611200Y-101295200D03*
X119339400Y-86512400D03*
X117439400Y-86512400D03*
D24*
X122885200Y-105699600D03*
X122885200Y-103799600D03*
X125171200Y-105648800D03*
X125171200Y-103748800D03*
D25*
X118094800Y-90424000D03*
X116194800Y-90424000D03*
X122438200Y-91414600D03*
X120538200Y-91414600D03*
X116494600Y-84353400D03*
X114594600Y-84353400D03*
X118988800Y-84251800D03*
X120888800Y-84251800D03*
D26*
X114758395Y-112142195D03*
X118210405Y-115594205D03*
D27*
X130096800Y-77876400D03*
X123496800Y-77876400D03*
D28*
X141230000Y-111932000D03*
X141230000Y-113932000D03*
X141230000Y-115932000D03*
X141230000Y-117932000D03*
X149092000Y-117938000D03*
X149092000Y-115938000D03*
X149092000Y-113938000D03*
X149092000Y-111938000D03*
D25*
X144084000Y-112014000D03*
X145984000Y-112014000D03*
X144084000Y-114173000D03*
X145984000Y-114173000D03*
X144112700Y-116230400D03*
X146012700Y-116230400D03*
X144112700Y-118300500D03*
X146012700Y-118300500D03*
D14*
X129721100Y-102654100D03*
X131721100Y-102654100D03*
D29*
X129754500Y-107759500D03*
X132754500Y-107759500D03*
X129729100Y-105194100D03*
X132729100Y-105194100D03*
D14*
X119605300Y-105486200D03*
X117605300Y-105486200D03*
D29*
X120575200Y-103022400D03*
X117575200Y-103022400D03*
X120600600Y-100647500D03*
X117600600Y-100647500D03*
M02*
