G04 #@! TF.FileFunction,Copper,L2,Inr,Signal*
%FSLAX46Y46*%
G04 Gerber Fmt 4.6, Leading zero omitted, Abs format (unit mm)*
G04 Created by KiCad (PCBNEW 0.201510170916+6271~30~ubuntu14.04.1-product) date Sat 26 Dec 2015 06:02:25 AM EST*
%MOMM*%
G01*
G04 APERTURE LIST*
%ADD10C,0.100000*%
%ADD11R,2.032000X1.727200*%
%ADD12O,2.032000X1.727200*%
%ADD13R,1.727200X2.032000*%
%ADD14O,1.727200X2.032000*%
%ADD15R,2.032000X2.032000*%
%ADD16O,2.032000X2.032000*%
%ADD17C,1.501140*%
%ADD18C,1.600000*%
%ADD19C,1.500000*%
%ADD20C,0.685800*%
%ADD21C,1.016000*%
%ADD22C,0.152400*%
G04 APERTURE END LIST*
D10*
D11*
X150241000Y-107746800D03*
D12*
X150241000Y-105206800D03*
X150241000Y-102666800D03*
X150241000Y-100126800D03*
X150241000Y-97586800D03*
X150241000Y-95046800D03*
X150241000Y-92506800D03*
X150241000Y-89966800D03*
X150241000Y-87426800D03*
X150241000Y-84886800D03*
D13*
X109728000Y-124206000D03*
D14*
X112268000Y-124206000D03*
X114808000Y-124206000D03*
X117348000Y-124206000D03*
X119888000Y-124206000D03*
X122428000Y-124206000D03*
X124968000Y-124206000D03*
X127508000Y-124206000D03*
X130048000Y-124206000D03*
X132588000Y-124206000D03*
D13*
X119126000Y-78232000D03*
D14*
X116586000Y-78232000D03*
X114046000Y-78232000D03*
X111506000Y-78232000D03*
D15*
X143500600Y-78320900D03*
D16*
X140960600Y-78320900D03*
D13*
X136144000Y-124206000D03*
D14*
X138684000Y-124206000D03*
X141224000Y-124206000D03*
X143764000Y-124206000D03*
D15*
X104244900Y-105041700D03*
D16*
X104244900Y-107581700D03*
D11*
X104194100Y-88544400D03*
D12*
X104194100Y-91084400D03*
X104194100Y-93624400D03*
X104194100Y-96164400D03*
X104194100Y-98704400D03*
X104194100Y-101244400D03*
D11*
X104143300Y-113030000D03*
D12*
X104143300Y-115570000D03*
X104143300Y-118110000D03*
D15*
X136753600Y-78435200D03*
D16*
X134213600Y-78435200D03*
D17*
X114758395Y-112142195D03*
X118210405Y-115594205D03*
D18*
X130096800Y-77876400D03*
X123496800Y-77876400D03*
D19*
X141230000Y-111932000D03*
X141230000Y-113932000D03*
X141230000Y-115932000D03*
X141230000Y-117932000D03*
X149092000Y-117938000D03*
X149092000Y-115938000D03*
X149092000Y-113938000D03*
X149092000Y-111938000D03*
D20*
X121148600Y-104482900D03*
X127193800Y-106349800D03*
X122444000Y-88074500D03*
X110315500Y-98755200D03*
D21*
X140147800Y-97764600D03*
X128578100Y-96227900D03*
X134178800Y-107734100D03*
X116039900Y-100660200D03*
D20*
X113715800Y-116078000D03*
D21*
X120726200Y-110286800D03*
X125095000Y-90805000D03*
D20*
X117119400Y-92125800D03*
D21*
X115671600Y-81178400D03*
D20*
X113842800Y-87477600D03*
X121920000Y-80340200D03*
X131546600Y-80314800D03*
X125730000Y-82118200D03*
X124891800Y-82067400D03*
D21*
X131216400Y-86004400D03*
X124790200Y-84074000D03*
D20*
X111204500Y-93916500D03*
X109756700Y-88506300D03*
D21*
X127879600Y-105206800D03*
X120827800Y-105473500D03*
X115290600Y-102819200D03*
X127279400Y-87630000D03*
D20*
X118278400Y-95326220D03*
X126800100Y-93941900D03*
D21*
X128197100Y-94792800D03*
D20*
X122275600Y-106908600D03*
X121640600Y-111709200D03*
X123317000Y-107111800D03*
X124637800Y-107111800D03*
X128959100Y-99491800D03*
X127473200Y-100076000D03*
X124463300Y-101993700D03*
X125517400Y-98818700D03*
D21*
X126949200Y-84455000D03*
D20*
X120827800Y-86512400D03*
X113792000Y-83388200D03*
X120700800Y-83032600D03*
X119989600Y-85242400D03*
X124028200Y-99695000D03*
X124155200Y-98806000D03*
X113842800Y-90119200D03*
X119354600Y-91973400D03*
X121031000Y-87452200D03*
X127304800Y-82296000D03*
X132756400Y-81813400D03*
X114960400Y-91135200D03*
D21*
X118287800Y-81051400D03*
X123088400Y-108254800D03*
D22*
G36*
X152019800Y-126619800D02*
X101980200Y-126619800D01*
X101980200Y-123996952D01*
X102998583Y-123996952D01*
X103276627Y-124669871D01*
X103791021Y-125185164D01*
X104463454Y-125464382D01*
X105191552Y-125465017D01*
X105864471Y-125186973D01*
X106379764Y-124672579D01*
X106658982Y-124000146D01*
X106659617Y-123272048D01*
X106625716Y-123190000D01*
X108527731Y-123190000D01*
X108527731Y-125222000D01*
X108550756Y-125344365D01*
X108623073Y-125456749D01*
X108733417Y-125532144D01*
X108864400Y-125558669D01*
X110591600Y-125558669D01*
X110713965Y-125535644D01*
X110826349Y-125463327D01*
X110901744Y-125352983D01*
X110928269Y-125222000D01*
X110928269Y-124027226D01*
X111074200Y-124027226D01*
X111074200Y-124384774D01*
X111165073Y-124841621D01*
X111423856Y-125228918D01*
X111811153Y-125487701D01*
X112268000Y-125578574D01*
X112724847Y-125487701D01*
X113112144Y-125228918D01*
X113370927Y-124841621D01*
X113461800Y-124384774D01*
X113461800Y-124027226D01*
X113614200Y-124027226D01*
X113614200Y-124384774D01*
X113705073Y-124841621D01*
X113963856Y-125228918D01*
X114351153Y-125487701D01*
X114808000Y-125578574D01*
X115264847Y-125487701D01*
X115652144Y-125228918D01*
X115910927Y-124841621D01*
X116001800Y-124384774D01*
X116001800Y-124027226D01*
X116154200Y-124027226D01*
X116154200Y-124384774D01*
X116245073Y-124841621D01*
X116503856Y-125228918D01*
X116891153Y-125487701D01*
X117348000Y-125578574D01*
X117804847Y-125487701D01*
X118192144Y-125228918D01*
X118450927Y-124841621D01*
X118541800Y-124384774D01*
X118541800Y-124027226D01*
X118694200Y-124027226D01*
X118694200Y-124384774D01*
X118785073Y-124841621D01*
X119043856Y-125228918D01*
X119431153Y-125487701D01*
X119888000Y-125578574D01*
X120344847Y-125487701D01*
X120732144Y-125228918D01*
X120990927Y-124841621D01*
X121081800Y-124384774D01*
X121081800Y-124027226D01*
X121234200Y-124027226D01*
X121234200Y-124384774D01*
X121325073Y-124841621D01*
X121583856Y-125228918D01*
X121971153Y-125487701D01*
X122428000Y-125578574D01*
X122884847Y-125487701D01*
X123272144Y-125228918D01*
X123530927Y-124841621D01*
X123621800Y-124384774D01*
X123621800Y-124027226D01*
X123774200Y-124027226D01*
X123774200Y-124384774D01*
X123865073Y-124841621D01*
X124123856Y-125228918D01*
X124511153Y-125487701D01*
X124968000Y-125578574D01*
X125424847Y-125487701D01*
X125812144Y-125228918D01*
X126070927Y-124841621D01*
X126161800Y-124384774D01*
X126161800Y-124027226D01*
X126314200Y-124027226D01*
X126314200Y-124384774D01*
X126405073Y-124841621D01*
X126663856Y-125228918D01*
X127051153Y-125487701D01*
X127508000Y-125578574D01*
X127964847Y-125487701D01*
X128352144Y-125228918D01*
X128610927Y-124841621D01*
X128701800Y-124384774D01*
X128701800Y-124027226D01*
X128854200Y-124027226D01*
X128854200Y-124384774D01*
X128945073Y-124841621D01*
X129203856Y-125228918D01*
X129591153Y-125487701D01*
X130048000Y-125578574D01*
X130504847Y-125487701D01*
X130892144Y-125228918D01*
X131150927Y-124841621D01*
X131241800Y-124384774D01*
X131241800Y-124027226D01*
X131394200Y-124027226D01*
X131394200Y-124384774D01*
X131485073Y-124841621D01*
X131743856Y-125228918D01*
X132131153Y-125487701D01*
X132588000Y-125578574D01*
X133044847Y-125487701D01*
X133432144Y-125228918D01*
X133690927Y-124841621D01*
X133781800Y-124384774D01*
X133781800Y-124027226D01*
X133690927Y-123570379D01*
X133436767Y-123190000D01*
X134943731Y-123190000D01*
X134943731Y-125222000D01*
X134966756Y-125344365D01*
X135039073Y-125456749D01*
X135149417Y-125532144D01*
X135280400Y-125558669D01*
X137007600Y-125558669D01*
X137129965Y-125535644D01*
X137242349Y-125463327D01*
X137317744Y-125352983D01*
X137344269Y-125222000D01*
X137344269Y-124027226D01*
X137490200Y-124027226D01*
X137490200Y-124384774D01*
X137581073Y-124841621D01*
X137839856Y-125228918D01*
X138227153Y-125487701D01*
X138684000Y-125578574D01*
X139140847Y-125487701D01*
X139528144Y-125228918D01*
X139786927Y-124841621D01*
X139877800Y-124384774D01*
X139877800Y-124027226D01*
X140030200Y-124027226D01*
X140030200Y-124384774D01*
X140121073Y-124841621D01*
X140379856Y-125228918D01*
X140767153Y-125487701D01*
X141224000Y-125578574D01*
X141680847Y-125487701D01*
X142068144Y-125228918D01*
X142326927Y-124841621D01*
X142417800Y-124384774D01*
X142417800Y-124256800D01*
X142570200Y-124256800D01*
X142570200Y-124409200D01*
X142680513Y-124862181D01*
X142955777Y-125238465D01*
X143354086Y-125480768D01*
X143527243Y-125528488D01*
X143713200Y-125468488D01*
X143713200Y-124256800D01*
X143814800Y-124256800D01*
X143814800Y-125468488D01*
X144000757Y-125528488D01*
X144173914Y-125480768D01*
X144572223Y-125238465D01*
X144847487Y-124862181D01*
X144957800Y-124409200D01*
X144957800Y-124256800D01*
X143814800Y-124256800D01*
X143713200Y-124256800D01*
X142570200Y-124256800D01*
X142417800Y-124256800D01*
X142417800Y-124027226D01*
X142412942Y-124002800D01*
X142570200Y-124002800D01*
X142570200Y-124155200D01*
X143713200Y-124155200D01*
X143713200Y-122943512D01*
X143814800Y-122943512D01*
X143814800Y-124155200D01*
X144957800Y-124155200D01*
X144957800Y-124002800D01*
X144956376Y-123996952D01*
X147232683Y-123996952D01*
X147510727Y-124669871D01*
X148025121Y-125185164D01*
X148697554Y-125464382D01*
X149425652Y-125465017D01*
X150098571Y-125186973D01*
X150613864Y-124672579D01*
X150893082Y-124000146D01*
X150893717Y-123272048D01*
X150615673Y-122599129D01*
X150101279Y-122083836D01*
X149428846Y-121804618D01*
X148700748Y-121803983D01*
X148027829Y-122082027D01*
X147512536Y-122596421D01*
X147233318Y-123268854D01*
X147232683Y-123996952D01*
X144956376Y-123996952D01*
X144847487Y-123549819D01*
X144572223Y-123173535D01*
X144173914Y-122931232D01*
X144000757Y-122883512D01*
X143814800Y-122943512D01*
X143713200Y-122943512D01*
X143527243Y-122883512D01*
X143354086Y-122931232D01*
X142955777Y-123173535D01*
X142680513Y-123549819D01*
X142570200Y-124002800D01*
X142412942Y-124002800D01*
X142326927Y-123570379D01*
X142068144Y-123183082D01*
X141680847Y-122924299D01*
X141224000Y-122833426D01*
X140767153Y-122924299D01*
X140379856Y-123183082D01*
X140121073Y-123570379D01*
X140030200Y-124027226D01*
X139877800Y-124027226D01*
X139786927Y-123570379D01*
X139528144Y-123183082D01*
X139140847Y-122924299D01*
X138684000Y-122833426D01*
X138227153Y-122924299D01*
X137839856Y-123183082D01*
X137581073Y-123570379D01*
X137490200Y-124027226D01*
X137344269Y-124027226D01*
X137344269Y-123190000D01*
X137321244Y-123067635D01*
X137248927Y-122955251D01*
X137138583Y-122879856D01*
X137007600Y-122853331D01*
X135280400Y-122853331D01*
X135158035Y-122876356D01*
X135045651Y-122948673D01*
X134970256Y-123059017D01*
X134943731Y-123190000D01*
X133436767Y-123190000D01*
X133432144Y-123183082D01*
X133044847Y-122924299D01*
X132588000Y-122833426D01*
X132131153Y-122924299D01*
X131743856Y-123183082D01*
X131485073Y-123570379D01*
X131394200Y-124027226D01*
X131241800Y-124027226D01*
X131150927Y-123570379D01*
X130892144Y-123183082D01*
X130504847Y-122924299D01*
X130048000Y-122833426D01*
X129591153Y-122924299D01*
X129203856Y-123183082D01*
X128945073Y-123570379D01*
X128854200Y-124027226D01*
X128701800Y-124027226D01*
X128610927Y-123570379D01*
X128352144Y-123183082D01*
X127964847Y-122924299D01*
X127508000Y-122833426D01*
X127051153Y-122924299D01*
X126663856Y-123183082D01*
X126405073Y-123570379D01*
X126314200Y-124027226D01*
X126161800Y-124027226D01*
X126070927Y-123570379D01*
X125812144Y-123183082D01*
X125424847Y-122924299D01*
X124968000Y-122833426D01*
X124511153Y-122924299D01*
X124123856Y-123183082D01*
X123865073Y-123570379D01*
X123774200Y-124027226D01*
X123621800Y-124027226D01*
X123530927Y-123570379D01*
X123272144Y-123183082D01*
X122884847Y-122924299D01*
X122428000Y-122833426D01*
X121971153Y-122924299D01*
X121583856Y-123183082D01*
X121325073Y-123570379D01*
X121234200Y-124027226D01*
X121081800Y-124027226D01*
X120990927Y-123570379D01*
X120732144Y-123183082D01*
X120344847Y-122924299D01*
X119888000Y-122833426D01*
X119431153Y-122924299D01*
X119043856Y-123183082D01*
X118785073Y-123570379D01*
X118694200Y-124027226D01*
X118541800Y-124027226D01*
X118450927Y-123570379D01*
X118192144Y-123183082D01*
X117804847Y-122924299D01*
X117348000Y-122833426D01*
X116891153Y-122924299D01*
X116503856Y-123183082D01*
X116245073Y-123570379D01*
X116154200Y-124027226D01*
X116001800Y-124027226D01*
X115910927Y-123570379D01*
X115652144Y-123183082D01*
X115264847Y-122924299D01*
X114808000Y-122833426D01*
X114351153Y-122924299D01*
X113963856Y-123183082D01*
X113705073Y-123570379D01*
X113614200Y-124027226D01*
X113461800Y-124027226D01*
X113370927Y-123570379D01*
X113112144Y-123183082D01*
X112724847Y-122924299D01*
X112268000Y-122833426D01*
X111811153Y-122924299D01*
X111423856Y-123183082D01*
X111165073Y-123570379D01*
X111074200Y-124027226D01*
X110928269Y-124027226D01*
X110928269Y-123190000D01*
X110905244Y-123067635D01*
X110832927Y-122955251D01*
X110722583Y-122879856D01*
X110591600Y-122853331D01*
X108864400Y-122853331D01*
X108742035Y-122876356D01*
X108629651Y-122948673D01*
X108554256Y-123059017D01*
X108527731Y-123190000D01*
X106625716Y-123190000D01*
X106381573Y-122599129D01*
X105867179Y-122083836D01*
X105194746Y-121804618D01*
X104466648Y-121803983D01*
X103793729Y-122082027D01*
X103278436Y-122596421D01*
X102999218Y-123268854D01*
X102998583Y-123996952D01*
X101980200Y-123996952D01*
X101980200Y-118346757D01*
X102820812Y-118346757D01*
X102868532Y-118519914D01*
X103110835Y-118918223D01*
X103487119Y-119193487D01*
X103940100Y-119303800D01*
X104092500Y-119303800D01*
X104092500Y-118160800D01*
X104194100Y-118160800D01*
X104194100Y-119303800D01*
X104346500Y-119303800D01*
X104799481Y-119193487D01*
X105175765Y-118918223D01*
X105418068Y-118519914D01*
X105465788Y-118346757D01*
X105405788Y-118160800D01*
X104194100Y-118160800D01*
X104092500Y-118160800D01*
X102880812Y-118160800D01*
X102820812Y-118346757D01*
X101980200Y-118346757D01*
X101980200Y-117873243D01*
X102820812Y-117873243D01*
X102880812Y-118059200D01*
X104092500Y-118059200D01*
X104092500Y-116916200D01*
X104194100Y-116916200D01*
X104194100Y-118059200D01*
X105405788Y-118059200D01*
X105465788Y-117873243D01*
X105418068Y-117700086D01*
X105175765Y-117301777D01*
X104799481Y-117026513D01*
X104346500Y-116916200D01*
X104194100Y-116916200D01*
X104092500Y-116916200D01*
X103940100Y-116916200D01*
X103487119Y-117026513D01*
X103110835Y-117301777D01*
X102868532Y-117700086D01*
X102820812Y-117873243D01*
X101980200Y-117873243D01*
X101980200Y-115570000D01*
X102770726Y-115570000D01*
X102861599Y-116026847D01*
X103120382Y-116414144D01*
X103507679Y-116672927D01*
X103964526Y-116763800D01*
X104322074Y-116763800D01*
X104778921Y-116672927D01*
X105166218Y-116414144D01*
X105425001Y-116026847D01*
X105468484Y-115808240D01*
X117129447Y-115808240D01*
X117293638Y-116205612D01*
X117597398Y-116509903D01*
X117994483Y-116674787D01*
X118424440Y-116675163D01*
X118821812Y-116510972D01*
X119126103Y-116207212D01*
X119290987Y-115810127D01*
X119291363Y-115380170D01*
X119127172Y-114982798D01*
X118823412Y-114678507D01*
X118426327Y-114513623D01*
X117996370Y-114513247D01*
X117598998Y-114677438D01*
X117294707Y-114981198D01*
X117129823Y-115378283D01*
X117129447Y-115808240D01*
X105468484Y-115808240D01*
X105515874Y-115570000D01*
X105425001Y-115113153D01*
X105166218Y-114725856D01*
X104778921Y-114467073D01*
X104322074Y-114376200D01*
X103964526Y-114376200D01*
X103507679Y-114467073D01*
X103120382Y-114725856D01*
X102861599Y-115113153D01*
X102770726Y-115570000D01*
X101980200Y-115570000D01*
X101980200Y-112166400D01*
X102790631Y-112166400D01*
X102790631Y-113893600D01*
X102813656Y-114015965D01*
X102885973Y-114128349D01*
X102996317Y-114203744D01*
X103127300Y-114230269D01*
X105159300Y-114230269D01*
X105281665Y-114207244D01*
X105376962Y-114145922D01*
X140149613Y-114145922D01*
X140313717Y-114543085D01*
X140617317Y-114847215D01*
X140821514Y-114932005D01*
X140618915Y-115015717D01*
X140314785Y-115319317D01*
X140149988Y-115716192D01*
X140149613Y-116145922D01*
X140313717Y-116543085D01*
X140617317Y-116847215D01*
X140821514Y-116932005D01*
X140618915Y-117015717D01*
X140314785Y-117319317D01*
X140149988Y-117716192D01*
X140149613Y-118145922D01*
X140313717Y-118543085D01*
X140617317Y-118847215D01*
X141014192Y-119012012D01*
X141443922Y-119012387D01*
X141841085Y-118848283D01*
X142145215Y-118544683D01*
X142310012Y-118147808D01*
X142310387Y-117718078D01*
X142146283Y-117320915D01*
X141842683Y-117016785D01*
X141638486Y-116931995D01*
X141841085Y-116848283D01*
X142145215Y-116544683D01*
X142310012Y-116147808D01*
X142310387Y-115718078D01*
X142146283Y-115320915D01*
X141842683Y-115016785D01*
X141638486Y-114931995D01*
X141841085Y-114848283D01*
X142145215Y-114544683D01*
X142310012Y-114147808D01*
X142310387Y-113718078D01*
X142146283Y-113320915D01*
X141842683Y-113016785D01*
X141640385Y-112932784D01*
X141835578Y-112851932D01*
X141913592Y-112687434D01*
X141230000Y-112003842D01*
X140546408Y-112687434D01*
X140624422Y-112851932D01*
X140821535Y-112931996D01*
X140618915Y-113015717D01*
X140314785Y-113319317D01*
X140149988Y-113716192D01*
X140149613Y-114145922D01*
X105376962Y-114145922D01*
X105394049Y-114134927D01*
X105469444Y-114024583D01*
X105495969Y-113893600D01*
X105495969Y-112356230D01*
X113677437Y-112356230D01*
X113841628Y-112753602D01*
X114145388Y-113057893D01*
X114542473Y-113222777D01*
X114972430Y-113223153D01*
X115369802Y-113058962D01*
X115674093Y-112755202D01*
X115838977Y-112358117D01*
X115839353Y-111928160D01*
X115803960Y-111842501D01*
X120967383Y-111842501D01*
X121069641Y-112089983D01*
X121258822Y-112279494D01*
X121506125Y-112382183D01*
X121773901Y-112382417D01*
X122021383Y-112280159D01*
X122210894Y-112090978D01*
X122313583Y-111843675D01*
X122313687Y-111724562D01*
X140148349Y-111724562D01*
X140151302Y-112154283D01*
X140310068Y-112537578D01*
X140474566Y-112615592D01*
X141158158Y-111932000D01*
X141301842Y-111932000D01*
X141985434Y-112615592D01*
X142149932Y-112537578D01*
X142306580Y-112151922D01*
X148011613Y-112151922D01*
X148175717Y-112549085D01*
X148479317Y-112853215D01*
X148683514Y-112938005D01*
X148480915Y-113021717D01*
X148176785Y-113325317D01*
X148011988Y-113722192D01*
X148011613Y-114151922D01*
X148175717Y-114549085D01*
X148479317Y-114853215D01*
X148683514Y-114938005D01*
X148480915Y-115021717D01*
X148176785Y-115325317D01*
X148011988Y-115722192D01*
X148011613Y-116151922D01*
X148175717Y-116549085D01*
X148479317Y-116853215D01*
X148683514Y-116938005D01*
X148480915Y-117021717D01*
X148176785Y-117325317D01*
X148011988Y-117722192D01*
X148011613Y-118151922D01*
X148175717Y-118549085D01*
X148479317Y-118853215D01*
X148876192Y-119018012D01*
X149305922Y-119018387D01*
X149703085Y-118854283D01*
X150007215Y-118550683D01*
X150172012Y-118153808D01*
X150172387Y-117724078D01*
X150008283Y-117326915D01*
X149704683Y-117022785D01*
X149500486Y-116937995D01*
X149703085Y-116854283D01*
X150007215Y-116550683D01*
X150172012Y-116153808D01*
X150172387Y-115724078D01*
X150008283Y-115326915D01*
X149704683Y-115022785D01*
X149500486Y-114937995D01*
X149703085Y-114854283D01*
X150007215Y-114550683D01*
X150172012Y-114153808D01*
X150172387Y-113724078D01*
X150008283Y-113326915D01*
X149704683Y-113022785D01*
X149500486Y-112937995D01*
X149703085Y-112854283D01*
X150007215Y-112550683D01*
X150172012Y-112153808D01*
X150172387Y-111724078D01*
X150008283Y-111326915D01*
X149704683Y-111022785D01*
X149307808Y-110857988D01*
X148878078Y-110857613D01*
X148480915Y-111021717D01*
X148176785Y-111325317D01*
X148011988Y-111722192D01*
X148011613Y-112151922D01*
X142306580Y-112151922D01*
X142311651Y-112139438D01*
X142308698Y-111709717D01*
X142149932Y-111326422D01*
X141985434Y-111248408D01*
X141301842Y-111932000D01*
X141158158Y-111932000D01*
X140474566Y-111248408D01*
X140310068Y-111326422D01*
X140148349Y-111724562D01*
X122313687Y-111724562D01*
X122313817Y-111575899D01*
X122211559Y-111328417D01*
X122059973Y-111176566D01*
X140546408Y-111176566D01*
X141230000Y-111860158D01*
X141913592Y-111176566D01*
X141835578Y-111012068D01*
X141437438Y-110850349D01*
X141007717Y-110853302D01*
X140624422Y-111012068D01*
X140546408Y-111176566D01*
X122059973Y-111176566D01*
X122022378Y-111138906D01*
X121775075Y-111036217D01*
X121507299Y-111035983D01*
X121259817Y-111138241D01*
X121070306Y-111327422D01*
X120967617Y-111574725D01*
X120967383Y-111842501D01*
X115803960Y-111842501D01*
X115675162Y-111530788D01*
X115371402Y-111226497D01*
X114974317Y-111061613D01*
X114544360Y-111061237D01*
X114146988Y-111225428D01*
X113842697Y-111529188D01*
X113677813Y-111926273D01*
X113677437Y-112356230D01*
X105495969Y-112356230D01*
X105495969Y-112166400D01*
X105472944Y-112044035D01*
X105400627Y-111931651D01*
X105290283Y-111856256D01*
X105159300Y-111829731D01*
X103127300Y-111829731D01*
X103004935Y-111852756D01*
X102892551Y-111925073D01*
X102817156Y-112035417D01*
X102790631Y-112166400D01*
X101980200Y-112166400D01*
X101980200Y-107581700D01*
X102872326Y-107581700D01*
X102974799Y-108096868D01*
X103266619Y-108533607D01*
X103703358Y-108825427D01*
X104218526Y-108927900D01*
X104271274Y-108927900D01*
X104786442Y-108825427D01*
X105223181Y-108533607D01*
X105515001Y-108096868D01*
X105617474Y-107581700D01*
X105515001Y-107066532D01*
X105498544Y-107041901D01*
X121602383Y-107041901D01*
X121704641Y-107289383D01*
X121893822Y-107478894D01*
X122141125Y-107581583D01*
X122408901Y-107581817D01*
X122656383Y-107479559D01*
X122716049Y-107419997D01*
X122744892Y-107489801D01*
X122614218Y-107543795D01*
X122378223Y-107779378D01*
X122250346Y-108087340D01*
X122250055Y-108420797D01*
X122377395Y-108728982D01*
X122612978Y-108964977D01*
X122920940Y-109092854D01*
X123254397Y-109093145D01*
X123562582Y-108965805D01*
X123798577Y-108730222D01*
X123926454Y-108422260D01*
X123926745Y-108088803D01*
X123799405Y-107780618D01*
X123699753Y-107680792D01*
X123887294Y-107493578D01*
X123977495Y-107276350D01*
X124066841Y-107492583D01*
X124256022Y-107682094D01*
X124503325Y-107784783D01*
X124771101Y-107785017D01*
X125018583Y-107682759D01*
X125208094Y-107493578D01*
X125310783Y-107246275D01*
X125311017Y-106978499D01*
X125271641Y-106883200D01*
X148888331Y-106883200D01*
X148888331Y-108610400D01*
X148911356Y-108732765D01*
X148983673Y-108845149D01*
X149094017Y-108920544D01*
X149225000Y-108947069D01*
X151257000Y-108947069D01*
X151379365Y-108924044D01*
X151491749Y-108851727D01*
X151567144Y-108741383D01*
X151593669Y-108610400D01*
X151593669Y-106883200D01*
X151570644Y-106760835D01*
X151498327Y-106648451D01*
X151387983Y-106573056D01*
X151257000Y-106546531D01*
X149225000Y-106546531D01*
X149102635Y-106569556D01*
X148990251Y-106641873D01*
X148914856Y-106752217D01*
X148888331Y-106883200D01*
X125271641Y-106883200D01*
X125208759Y-106731017D01*
X125019578Y-106541506D01*
X124772275Y-106438817D01*
X124504499Y-106438583D01*
X124257017Y-106540841D01*
X124067506Y-106730022D01*
X123977305Y-106947250D01*
X123887959Y-106731017D01*
X123698778Y-106541506D01*
X123451475Y-106438817D01*
X123183699Y-106438583D01*
X122936217Y-106540841D01*
X122876551Y-106600403D01*
X122846559Y-106527817D01*
X122657378Y-106338306D01*
X122410075Y-106235617D01*
X122142299Y-106235383D01*
X121894817Y-106337641D01*
X121705306Y-106526822D01*
X121602617Y-106774125D01*
X121602383Y-107041901D01*
X105498544Y-107041901D01*
X105223181Y-106629793D01*
X104870844Y-106394369D01*
X105260900Y-106394369D01*
X105383265Y-106371344D01*
X105495649Y-106299027D01*
X105571044Y-106188683D01*
X105597569Y-106057700D01*
X105597569Y-105639497D01*
X119989455Y-105639497D01*
X120116795Y-105947682D01*
X120352378Y-106183677D01*
X120660340Y-106311554D01*
X120993797Y-106311845D01*
X121301982Y-106184505D01*
X121537977Y-105948922D01*
X121665854Y-105640960D01*
X121666088Y-105372797D01*
X127041255Y-105372797D01*
X127168595Y-105680982D01*
X127404178Y-105916977D01*
X127712140Y-106044854D01*
X128045597Y-106045145D01*
X128353782Y-105917805D01*
X128589777Y-105682222D01*
X128717654Y-105374260D01*
X128717800Y-105206800D01*
X148868426Y-105206800D01*
X148959299Y-105663647D01*
X149218082Y-106050944D01*
X149605379Y-106309727D01*
X150062226Y-106400600D01*
X150419774Y-106400600D01*
X150876621Y-106309727D01*
X151263918Y-106050944D01*
X151522701Y-105663647D01*
X151613574Y-105206800D01*
X151522701Y-104749953D01*
X151263918Y-104362656D01*
X150876621Y-104103873D01*
X150419774Y-104013000D01*
X150062226Y-104013000D01*
X149605379Y-104103873D01*
X149218082Y-104362656D01*
X148959299Y-104749953D01*
X148868426Y-105206800D01*
X128717800Y-105206800D01*
X128717945Y-105040803D01*
X128590605Y-104732618D01*
X128355022Y-104496623D01*
X128047060Y-104368746D01*
X127713603Y-104368455D01*
X127405418Y-104495795D01*
X127169423Y-104731378D01*
X127041546Y-105039340D01*
X127041255Y-105372797D01*
X121666088Y-105372797D01*
X121666145Y-105307503D01*
X121538805Y-104999318D01*
X121303222Y-104763323D01*
X120995260Y-104635446D01*
X120661803Y-104635155D01*
X120353618Y-104762495D01*
X120117623Y-104998078D01*
X119989746Y-105306040D01*
X119989455Y-105639497D01*
X105597569Y-105639497D01*
X105597569Y-104025700D01*
X105574544Y-103903335D01*
X105502227Y-103790951D01*
X105391883Y-103715556D01*
X105260900Y-103689031D01*
X103228900Y-103689031D01*
X103106535Y-103712056D01*
X102994151Y-103784373D01*
X102918756Y-103894717D01*
X102892231Y-104025700D01*
X102892231Y-106057700D01*
X102915256Y-106180065D01*
X102987573Y-106292449D01*
X103097917Y-106367844D01*
X103228900Y-106394369D01*
X103618956Y-106394369D01*
X103266619Y-106629793D01*
X102974799Y-107066532D01*
X102872326Y-107581700D01*
X101980200Y-107581700D01*
X101980200Y-102985197D01*
X114452255Y-102985197D01*
X114579595Y-103293382D01*
X114815178Y-103529377D01*
X115123140Y-103657254D01*
X115456597Y-103657545D01*
X115764782Y-103530205D01*
X116000777Y-103294622D01*
X116128654Y-102986660D01*
X116128945Y-102653203D01*
X116001605Y-102345018D01*
X115783969Y-102127001D01*
X123790083Y-102127001D01*
X123892341Y-102374483D01*
X124081522Y-102563994D01*
X124328825Y-102666683D01*
X124596601Y-102666917D01*
X124596884Y-102666800D01*
X148868426Y-102666800D01*
X148959299Y-103123647D01*
X149218082Y-103510944D01*
X149605379Y-103769727D01*
X150062226Y-103860600D01*
X150419774Y-103860600D01*
X150876621Y-103769727D01*
X151263918Y-103510944D01*
X151522701Y-103123647D01*
X151613574Y-102666800D01*
X151522701Y-102209953D01*
X151263918Y-101822656D01*
X150876621Y-101563873D01*
X150419774Y-101473000D01*
X150062226Y-101473000D01*
X149605379Y-101563873D01*
X149218082Y-101822656D01*
X148959299Y-102209953D01*
X148868426Y-102666800D01*
X124596884Y-102666800D01*
X124844083Y-102564659D01*
X125033594Y-102375478D01*
X125136283Y-102128175D01*
X125136517Y-101860399D01*
X125034259Y-101612917D01*
X124845078Y-101423406D01*
X124597775Y-101320717D01*
X124329999Y-101320483D01*
X124082517Y-101422741D01*
X123893006Y-101611922D01*
X123790317Y-101859225D01*
X123790083Y-102127001D01*
X115783969Y-102127001D01*
X115766022Y-102109023D01*
X115458060Y-101981146D01*
X115124603Y-101980855D01*
X114816418Y-102108195D01*
X114580423Y-102343778D01*
X114452546Y-102651740D01*
X114452255Y-102985197D01*
X101980200Y-102985197D01*
X101980200Y-101244400D01*
X102821526Y-101244400D01*
X102912399Y-101701247D01*
X103171182Y-102088544D01*
X103558479Y-102347327D01*
X104015326Y-102438200D01*
X104372874Y-102438200D01*
X104829721Y-102347327D01*
X105217018Y-102088544D01*
X105475801Y-101701247D01*
X105566674Y-101244400D01*
X105475801Y-100787553D01*
X105217018Y-100400256D01*
X104829721Y-100141473D01*
X104372874Y-100050600D01*
X104015326Y-100050600D01*
X103558479Y-100141473D01*
X103171182Y-100400256D01*
X102912399Y-100787553D01*
X102821526Y-101244400D01*
X101980200Y-101244400D01*
X101980200Y-98704400D01*
X102821526Y-98704400D01*
X102912399Y-99161247D01*
X103171182Y-99548544D01*
X103558479Y-99807327D01*
X104015326Y-99898200D01*
X104372874Y-99898200D01*
X104724278Y-99828301D01*
X123354983Y-99828301D01*
X123457241Y-100075783D01*
X123646422Y-100265294D01*
X123893725Y-100367983D01*
X124161501Y-100368217D01*
X124408983Y-100265959D01*
X124465739Y-100209301D01*
X126799983Y-100209301D01*
X126902241Y-100456783D01*
X127091422Y-100646294D01*
X127338725Y-100748983D01*
X127606501Y-100749217D01*
X127853983Y-100646959D01*
X128043494Y-100457778D01*
X128146183Y-100210475D01*
X128146417Y-99942699D01*
X128044159Y-99695217D01*
X127974166Y-99625101D01*
X128285883Y-99625101D01*
X128388141Y-99872583D01*
X128577322Y-100062094D01*
X128824625Y-100164783D01*
X129092401Y-100165017D01*
X129184892Y-100126800D01*
X148868426Y-100126800D01*
X148959299Y-100583647D01*
X149218082Y-100970944D01*
X149605379Y-101229727D01*
X150062226Y-101320600D01*
X150419774Y-101320600D01*
X150876621Y-101229727D01*
X151263918Y-100970944D01*
X151522701Y-100583647D01*
X151613574Y-100126800D01*
X151522701Y-99669953D01*
X151263918Y-99282656D01*
X150876621Y-99023873D01*
X150419774Y-98933000D01*
X150062226Y-98933000D01*
X149605379Y-99023873D01*
X149218082Y-99282656D01*
X148959299Y-99669953D01*
X148868426Y-100126800D01*
X129184892Y-100126800D01*
X129339883Y-100062759D01*
X129529394Y-99873578D01*
X129632083Y-99626275D01*
X129632317Y-99358499D01*
X129530059Y-99111017D01*
X129340878Y-98921506D01*
X129093575Y-98818817D01*
X128825799Y-98818583D01*
X128578317Y-98920841D01*
X128388806Y-99110022D01*
X128286117Y-99357325D01*
X128285883Y-99625101D01*
X127974166Y-99625101D01*
X127854978Y-99505706D01*
X127607675Y-99403017D01*
X127339899Y-99402783D01*
X127092417Y-99505041D01*
X126902906Y-99694222D01*
X126800217Y-99941525D01*
X126799983Y-100209301D01*
X124465739Y-100209301D01*
X124598494Y-100076778D01*
X124701183Y-99829475D01*
X124701417Y-99561699D01*
X124599159Y-99314217D01*
X124598997Y-99314055D01*
X124725494Y-99187778D01*
X124823396Y-98952001D01*
X124844183Y-98952001D01*
X124946441Y-99199483D01*
X125135622Y-99388994D01*
X125382925Y-99491683D01*
X125650701Y-99491917D01*
X125898183Y-99389659D01*
X126087694Y-99200478D01*
X126190383Y-98953175D01*
X126190617Y-98685399D01*
X126088359Y-98437917D01*
X125899178Y-98248406D01*
X125651875Y-98145717D01*
X125384099Y-98145483D01*
X125136617Y-98247741D01*
X124947106Y-98436922D01*
X124844417Y-98684225D01*
X124844183Y-98952001D01*
X124823396Y-98952001D01*
X124828183Y-98940475D01*
X124828417Y-98672699D01*
X124726159Y-98425217D01*
X124536978Y-98235706D01*
X124289675Y-98133017D01*
X124021899Y-98132783D01*
X123774417Y-98235041D01*
X123584906Y-98424222D01*
X123482217Y-98671525D01*
X123481983Y-98939301D01*
X123584241Y-99186783D01*
X123584403Y-99186945D01*
X123457906Y-99313222D01*
X123355217Y-99560525D01*
X123354983Y-99828301D01*
X104724278Y-99828301D01*
X104829721Y-99807327D01*
X105217018Y-99548544D01*
X105475801Y-99161247D01*
X105566674Y-98704400D01*
X105475801Y-98247553D01*
X105217018Y-97860256D01*
X104829721Y-97601473D01*
X104755956Y-97586800D01*
X148868426Y-97586800D01*
X148959299Y-98043647D01*
X149218082Y-98430944D01*
X149605379Y-98689727D01*
X150062226Y-98780600D01*
X150419774Y-98780600D01*
X150876621Y-98689727D01*
X151263918Y-98430944D01*
X151522701Y-98043647D01*
X151613574Y-97586800D01*
X151522701Y-97129953D01*
X151263918Y-96742656D01*
X150876621Y-96483873D01*
X150419774Y-96393000D01*
X150062226Y-96393000D01*
X149605379Y-96483873D01*
X149218082Y-96742656D01*
X148959299Y-97129953D01*
X148868426Y-97586800D01*
X104755956Y-97586800D01*
X104372874Y-97510600D01*
X104015326Y-97510600D01*
X103558479Y-97601473D01*
X103171182Y-97860256D01*
X102912399Y-98247553D01*
X102821526Y-98704400D01*
X101980200Y-98704400D01*
X101980200Y-96164400D01*
X102821526Y-96164400D01*
X102912399Y-96621247D01*
X103171182Y-97008544D01*
X103558479Y-97267327D01*
X104015326Y-97358200D01*
X104372874Y-97358200D01*
X104829721Y-97267327D01*
X105217018Y-97008544D01*
X105475801Y-96621247D01*
X105566674Y-96164400D01*
X105475801Y-95707553D01*
X105310072Y-95459521D01*
X117605183Y-95459521D01*
X117707441Y-95707003D01*
X117896622Y-95896514D01*
X118143925Y-95999203D01*
X118411701Y-95999437D01*
X118659183Y-95897179D01*
X118848694Y-95707998D01*
X118951383Y-95460695D01*
X118951617Y-95192919D01*
X118854880Y-94958797D01*
X127358755Y-94958797D01*
X127486095Y-95266982D01*
X127721678Y-95502977D01*
X128029640Y-95630854D01*
X128363097Y-95631145D01*
X128671282Y-95503805D01*
X128907277Y-95268222D01*
X128999219Y-95046800D01*
X148868426Y-95046800D01*
X148959299Y-95503647D01*
X149218082Y-95890944D01*
X149605379Y-96149727D01*
X150062226Y-96240600D01*
X150419774Y-96240600D01*
X150876621Y-96149727D01*
X151263918Y-95890944D01*
X151522701Y-95503647D01*
X151613574Y-95046800D01*
X151522701Y-94589953D01*
X151263918Y-94202656D01*
X150876621Y-93943873D01*
X150419774Y-93853000D01*
X150062226Y-93853000D01*
X149605379Y-93943873D01*
X149218082Y-94202656D01*
X148959299Y-94589953D01*
X148868426Y-95046800D01*
X128999219Y-95046800D01*
X129035154Y-94960260D01*
X129035445Y-94626803D01*
X128908105Y-94318618D01*
X128672522Y-94082623D01*
X128364560Y-93954746D01*
X128031103Y-93954455D01*
X127722918Y-94081795D01*
X127486923Y-94317378D01*
X127359046Y-94625340D01*
X127358755Y-94958797D01*
X118854880Y-94958797D01*
X118849359Y-94945437D01*
X118660178Y-94755926D01*
X118412875Y-94653237D01*
X118145099Y-94653003D01*
X117897617Y-94755261D01*
X117708106Y-94944442D01*
X117605417Y-95191745D01*
X117605183Y-95459521D01*
X105310072Y-95459521D01*
X105217018Y-95320256D01*
X104829721Y-95061473D01*
X104372874Y-94970600D01*
X104015326Y-94970600D01*
X103558479Y-95061473D01*
X103171182Y-95320256D01*
X102912399Y-95707553D01*
X102821526Y-96164400D01*
X101980200Y-96164400D01*
X101980200Y-93861157D01*
X102871612Y-93861157D01*
X102919332Y-94034314D01*
X103161635Y-94432623D01*
X103537919Y-94707887D01*
X103990900Y-94818200D01*
X104143300Y-94818200D01*
X104143300Y-93675200D01*
X104244900Y-93675200D01*
X104244900Y-94818200D01*
X104397300Y-94818200D01*
X104850281Y-94707887D01*
X105226565Y-94432623D01*
X105459446Y-94049801D01*
X110531283Y-94049801D01*
X110633541Y-94297283D01*
X110822722Y-94486794D01*
X111070025Y-94589483D01*
X111337801Y-94589717D01*
X111585283Y-94487459D01*
X111774794Y-94298278D01*
X111867423Y-94075201D01*
X126126883Y-94075201D01*
X126229141Y-94322683D01*
X126418322Y-94512194D01*
X126665625Y-94614883D01*
X126933401Y-94615117D01*
X127180883Y-94512859D01*
X127370394Y-94323678D01*
X127473083Y-94076375D01*
X127473317Y-93808599D01*
X127371059Y-93561117D01*
X127181878Y-93371606D01*
X126934575Y-93268917D01*
X126666799Y-93268683D01*
X126419317Y-93370941D01*
X126229806Y-93560122D01*
X126127117Y-93807425D01*
X126126883Y-94075201D01*
X111867423Y-94075201D01*
X111877483Y-94050975D01*
X111877717Y-93783199D01*
X111775459Y-93535717D01*
X111586278Y-93346206D01*
X111338975Y-93243517D01*
X111071199Y-93243283D01*
X110823717Y-93345541D01*
X110634206Y-93534722D01*
X110531517Y-93782025D01*
X110531283Y-94049801D01*
X105459446Y-94049801D01*
X105468868Y-94034314D01*
X105516588Y-93861157D01*
X105456588Y-93675200D01*
X104244900Y-93675200D01*
X104143300Y-93675200D01*
X102931612Y-93675200D01*
X102871612Y-93861157D01*
X101980200Y-93861157D01*
X101980200Y-93387643D01*
X102871612Y-93387643D01*
X102931612Y-93573600D01*
X104143300Y-93573600D01*
X104143300Y-92430600D01*
X104244900Y-92430600D01*
X104244900Y-93573600D01*
X105456588Y-93573600D01*
X105516588Y-93387643D01*
X105468868Y-93214486D01*
X105226565Y-92816177D01*
X104850281Y-92540913D01*
X104397300Y-92430600D01*
X104244900Y-92430600D01*
X104143300Y-92430600D01*
X103990900Y-92430600D01*
X103537919Y-92540913D01*
X103161635Y-92816177D01*
X102919332Y-93214486D01*
X102871612Y-93387643D01*
X101980200Y-93387643D01*
X101980200Y-91084400D01*
X102821526Y-91084400D01*
X102912399Y-91541247D01*
X103171182Y-91928544D01*
X103558479Y-92187327D01*
X104015326Y-92278200D01*
X104372874Y-92278200D01*
X104829721Y-92187327D01*
X104950386Y-92106701D01*
X118681383Y-92106701D01*
X118783641Y-92354183D01*
X118972822Y-92543694D01*
X119220125Y-92646383D01*
X119487901Y-92646617D01*
X119735383Y-92544359D01*
X119773007Y-92506800D01*
X148868426Y-92506800D01*
X148959299Y-92963647D01*
X149218082Y-93350944D01*
X149605379Y-93609727D01*
X150062226Y-93700600D01*
X150419774Y-93700600D01*
X150876621Y-93609727D01*
X151263918Y-93350944D01*
X151522701Y-92963647D01*
X151613574Y-92506800D01*
X151522701Y-92049953D01*
X151263918Y-91662656D01*
X150876621Y-91403873D01*
X150419774Y-91313000D01*
X150062226Y-91313000D01*
X149605379Y-91403873D01*
X149218082Y-91662656D01*
X148959299Y-92049953D01*
X148868426Y-92506800D01*
X119773007Y-92506800D01*
X119924894Y-92355178D01*
X120027583Y-92107875D01*
X120027817Y-91840099D01*
X119925559Y-91592617D01*
X119736378Y-91403106D01*
X119489075Y-91300417D01*
X119221299Y-91300183D01*
X118973817Y-91402441D01*
X118784306Y-91591622D01*
X118681617Y-91838925D01*
X118681383Y-92106701D01*
X104950386Y-92106701D01*
X105217018Y-91928544D01*
X105475801Y-91541247D01*
X105530053Y-91268501D01*
X114287183Y-91268501D01*
X114389441Y-91515983D01*
X114578622Y-91705494D01*
X114825925Y-91808183D01*
X115093701Y-91808417D01*
X115341183Y-91706159D01*
X115530694Y-91516978D01*
X115633383Y-91269675D01*
X115633617Y-91001899D01*
X115531359Y-90754417D01*
X115342178Y-90564906D01*
X115094875Y-90462217D01*
X114827099Y-90461983D01*
X114579617Y-90564241D01*
X114390106Y-90753422D01*
X114287417Y-91000725D01*
X114287183Y-91268501D01*
X105530053Y-91268501D01*
X105566674Y-91084400D01*
X105475801Y-90627553D01*
X105225200Y-90252501D01*
X113169583Y-90252501D01*
X113271841Y-90499983D01*
X113461022Y-90689494D01*
X113708325Y-90792183D01*
X113976101Y-90792417D01*
X114223583Y-90690159D01*
X114413094Y-90500978D01*
X114515783Y-90253675D01*
X114516017Y-89985899D01*
X114508126Y-89966800D01*
X148868426Y-89966800D01*
X148959299Y-90423647D01*
X149218082Y-90810944D01*
X149605379Y-91069727D01*
X150062226Y-91160600D01*
X150419774Y-91160600D01*
X150876621Y-91069727D01*
X151263918Y-90810944D01*
X151522701Y-90423647D01*
X151613574Y-89966800D01*
X151522701Y-89509953D01*
X151263918Y-89122656D01*
X150876621Y-88863873D01*
X150419774Y-88773000D01*
X150062226Y-88773000D01*
X149605379Y-88863873D01*
X149218082Y-89122656D01*
X148959299Y-89509953D01*
X148868426Y-89966800D01*
X114508126Y-89966800D01*
X114413759Y-89738417D01*
X114224578Y-89548906D01*
X113977275Y-89446217D01*
X113709499Y-89445983D01*
X113462017Y-89548241D01*
X113272506Y-89737422D01*
X113169817Y-89984725D01*
X113169583Y-90252501D01*
X105225200Y-90252501D01*
X105217018Y-90240256D01*
X104829721Y-89981473D01*
X104372874Y-89890600D01*
X104015326Y-89890600D01*
X103558479Y-89981473D01*
X103171182Y-90240256D01*
X102912399Y-90627553D01*
X102821526Y-91084400D01*
X101980200Y-91084400D01*
X101980200Y-87680800D01*
X102841431Y-87680800D01*
X102841431Y-89408000D01*
X102864456Y-89530365D01*
X102936773Y-89642749D01*
X103047117Y-89718144D01*
X103178100Y-89744669D01*
X105210100Y-89744669D01*
X105332465Y-89721644D01*
X105444849Y-89649327D01*
X105520244Y-89538983D01*
X105546769Y-89408000D01*
X105546769Y-88639601D01*
X109083483Y-88639601D01*
X109185741Y-88887083D01*
X109374922Y-89076594D01*
X109622225Y-89179283D01*
X109890001Y-89179517D01*
X110137483Y-89077259D01*
X110326994Y-88888078D01*
X110429683Y-88640775D01*
X110429917Y-88372999D01*
X110327659Y-88125517D01*
X110138478Y-87936006D01*
X109891175Y-87833317D01*
X109623399Y-87833083D01*
X109375917Y-87935341D01*
X109186406Y-88124522D01*
X109083717Y-88371825D01*
X109083483Y-88639601D01*
X105546769Y-88639601D01*
X105546769Y-87680800D01*
X105523744Y-87558435D01*
X105451427Y-87446051D01*
X105341083Y-87370656D01*
X105210100Y-87344131D01*
X103178100Y-87344131D01*
X103055735Y-87367156D01*
X102943351Y-87439473D01*
X102867956Y-87549817D01*
X102841431Y-87680800D01*
X101980200Y-87680800D01*
X101980200Y-86645701D01*
X120154583Y-86645701D01*
X120256841Y-86893183D01*
X120446022Y-87082694D01*
X120454200Y-87086090D01*
X120358017Y-87317725D01*
X120357783Y-87585501D01*
X120460041Y-87832983D01*
X120649222Y-88022494D01*
X120896525Y-88125183D01*
X121164301Y-88125417D01*
X121411783Y-88023159D01*
X121601294Y-87833978D01*
X121617065Y-87795997D01*
X126441055Y-87795997D01*
X126568395Y-88104182D01*
X126803978Y-88340177D01*
X127111940Y-88468054D01*
X127445397Y-88468345D01*
X127753582Y-88341005D01*
X127989577Y-88105422D01*
X128117454Y-87797460D01*
X128117745Y-87464003D01*
X128102373Y-87426800D01*
X148868426Y-87426800D01*
X148959299Y-87883647D01*
X149218082Y-88270944D01*
X149605379Y-88529727D01*
X150062226Y-88620600D01*
X150419774Y-88620600D01*
X150876621Y-88529727D01*
X151263918Y-88270944D01*
X151522701Y-87883647D01*
X151613574Y-87426800D01*
X151522701Y-86969953D01*
X151263918Y-86582656D01*
X150876621Y-86323873D01*
X150419774Y-86233000D01*
X150062226Y-86233000D01*
X149605379Y-86323873D01*
X149218082Y-86582656D01*
X148959299Y-86969953D01*
X148868426Y-87426800D01*
X128102373Y-87426800D01*
X127990405Y-87155818D01*
X127754822Y-86919823D01*
X127446860Y-86791946D01*
X127113403Y-86791655D01*
X126805218Y-86918995D01*
X126569223Y-87154578D01*
X126441346Y-87462540D01*
X126441055Y-87795997D01*
X121617065Y-87795997D01*
X121703983Y-87586675D01*
X121704217Y-87318899D01*
X121601959Y-87071417D01*
X121412778Y-86881906D01*
X121404600Y-86878510D01*
X121500783Y-86646875D01*
X121501017Y-86379099D01*
X121398759Y-86131617D01*
X121209578Y-85942106D01*
X120962275Y-85839417D01*
X120694499Y-85839183D01*
X120447017Y-85941441D01*
X120257506Y-86130622D01*
X120154817Y-86377925D01*
X120154583Y-86645701D01*
X101980200Y-86645701D01*
X101980200Y-85375701D01*
X119316383Y-85375701D01*
X119418641Y-85623183D01*
X119607822Y-85812694D01*
X119855125Y-85915383D01*
X120122901Y-85915617D01*
X120370383Y-85813359D01*
X120559894Y-85624178D01*
X120662583Y-85376875D01*
X120662817Y-85109099D01*
X120560559Y-84861617D01*
X120371378Y-84672106D01*
X120124075Y-84569417D01*
X119856299Y-84569183D01*
X119608817Y-84671441D01*
X119419306Y-84860622D01*
X119316617Y-85107925D01*
X119316383Y-85375701D01*
X101980200Y-85375701D01*
X101980200Y-84239997D01*
X123951855Y-84239997D01*
X124079195Y-84548182D01*
X124314778Y-84784177D01*
X124622740Y-84912054D01*
X124956197Y-84912345D01*
X125264382Y-84785005D01*
X125428676Y-84620997D01*
X126110855Y-84620997D01*
X126238195Y-84929182D01*
X126473778Y-85165177D01*
X126781740Y-85293054D01*
X127115197Y-85293345D01*
X127423382Y-85166005D01*
X127659377Y-84930422D01*
X127677490Y-84886800D01*
X148868426Y-84886800D01*
X148959299Y-85343647D01*
X149218082Y-85730944D01*
X149605379Y-85989727D01*
X150062226Y-86080600D01*
X150419774Y-86080600D01*
X150876621Y-85989727D01*
X151263918Y-85730944D01*
X151522701Y-85343647D01*
X151613574Y-84886800D01*
X151522701Y-84429953D01*
X151263918Y-84042656D01*
X150876621Y-83783873D01*
X150419774Y-83693000D01*
X150062226Y-83693000D01*
X149605379Y-83783873D01*
X149218082Y-84042656D01*
X148959299Y-84429953D01*
X148868426Y-84886800D01*
X127677490Y-84886800D01*
X127787254Y-84622460D01*
X127787545Y-84289003D01*
X127660205Y-83980818D01*
X127424622Y-83744823D01*
X127116660Y-83616946D01*
X126783203Y-83616655D01*
X126475018Y-83743995D01*
X126239023Y-83979578D01*
X126111146Y-84287540D01*
X126110855Y-84620997D01*
X125428676Y-84620997D01*
X125500377Y-84549422D01*
X125628254Y-84241460D01*
X125628545Y-83908003D01*
X125501205Y-83599818D01*
X125265622Y-83363823D01*
X124957660Y-83235946D01*
X124624203Y-83235655D01*
X124316018Y-83362995D01*
X124080023Y-83598578D01*
X123952146Y-83906540D01*
X123951855Y-84239997D01*
X101980200Y-84239997D01*
X101980200Y-83521501D01*
X113118783Y-83521501D01*
X113221041Y-83768983D01*
X113410222Y-83958494D01*
X113657525Y-84061183D01*
X113925301Y-84061417D01*
X114172783Y-83959159D01*
X114362294Y-83769978D01*
X114464983Y-83522675D01*
X114465217Y-83254899D01*
X114428444Y-83165901D01*
X120027583Y-83165901D01*
X120129841Y-83413383D01*
X120319022Y-83602894D01*
X120566325Y-83705583D01*
X120834101Y-83705817D01*
X121081583Y-83603559D01*
X121271094Y-83414378D01*
X121373783Y-83167075D01*
X121374017Y-82899299D01*
X121271759Y-82651817D01*
X121082578Y-82462306D01*
X121003093Y-82429301D01*
X126631583Y-82429301D01*
X126733841Y-82676783D01*
X126923022Y-82866294D01*
X127170325Y-82968983D01*
X127438101Y-82969217D01*
X127685583Y-82866959D01*
X127875094Y-82677778D01*
X127977783Y-82430475D01*
X127978017Y-82162699D01*
X127888768Y-81946701D01*
X132083183Y-81946701D01*
X132185441Y-82194183D01*
X132374622Y-82383694D01*
X132621925Y-82486383D01*
X132889701Y-82486617D01*
X133137183Y-82384359D01*
X133326694Y-82195178D01*
X133429383Y-81947875D01*
X133429617Y-81680099D01*
X133327359Y-81432617D01*
X133138178Y-81243106D01*
X132890875Y-81140417D01*
X132623099Y-81140183D01*
X132375617Y-81242441D01*
X132186106Y-81431622D01*
X132083417Y-81678925D01*
X132083183Y-81946701D01*
X127888768Y-81946701D01*
X127875759Y-81915217D01*
X127686578Y-81725706D01*
X127439275Y-81623017D01*
X127171499Y-81622783D01*
X126924017Y-81725041D01*
X126734506Y-81914222D01*
X126631817Y-82161525D01*
X126631583Y-82429301D01*
X121003093Y-82429301D01*
X120835275Y-82359617D01*
X120567499Y-82359383D01*
X120320017Y-82461641D01*
X120130506Y-82650822D01*
X120027817Y-82898125D01*
X120027583Y-83165901D01*
X114428444Y-83165901D01*
X114362959Y-83007417D01*
X114173778Y-82817906D01*
X113926475Y-82715217D01*
X113658699Y-82714983D01*
X113411217Y-82817241D01*
X113221706Y-83006422D01*
X113119017Y-83253725D01*
X113118783Y-83521501D01*
X101980200Y-83521501D01*
X101980200Y-79826352D01*
X103062083Y-79826352D01*
X103340127Y-80499271D01*
X103854521Y-81014564D01*
X104526954Y-81293782D01*
X105255052Y-81294417D01*
X105441454Y-81217397D01*
X117449455Y-81217397D01*
X117576795Y-81525582D01*
X117812378Y-81761577D01*
X118120340Y-81889454D01*
X118453797Y-81889745D01*
X118761982Y-81762405D01*
X118997977Y-81526822D01*
X119125854Y-81218860D01*
X119126145Y-80885403D01*
X118998805Y-80577218D01*
X118763222Y-80341223D01*
X118455260Y-80213346D01*
X118121803Y-80213055D01*
X117813618Y-80340395D01*
X117577623Y-80575978D01*
X117449746Y-80883940D01*
X117449455Y-81217397D01*
X105441454Y-81217397D01*
X105927971Y-81016373D01*
X106443264Y-80501979D01*
X106713261Y-79851752D01*
X147181883Y-79851752D01*
X147459927Y-80524671D01*
X147974321Y-81039964D01*
X148646754Y-81319182D01*
X149374852Y-81319817D01*
X150047771Y-81041773D01*
X150563064Y-80527379D01*
X150842282Y-79854946D01*
X150842917Y-79126848D01*
X150564873Y-78453929D01*
X150050479Y-77938636D01*
X149378046Y-77659418D01*
X148649948Y-77658783D01*
X147977029Y-77936827D01*
X147461736Y-78451221D01*
X147182518Y-79123654D01*
X147181883Y-79851752D01*
X106713261Y-79851752D01*
X106722482Y-79829546D01*
X106723117Y-79101448D01*
X106445073Y-78428529D01*
X106070425Y-78053226D01*
X110312200Y-78053226D01*
X110312200Y-78410774D01*
X110403073Y-78867621D01*
X110661856Y-79254918D01*
X111049153Y-79513701D01*
X111506000Y-79604574D01*
X111962847Y-79513701D01*
X112350144Y-79254918D01*
X112608927Y-78867621D01*
X112699800Y-78410774D01*
X112699800Y-78053226D01*
X112852200Y-78053226D01*
X112852200Y-78410774D01*
X112943073Y-78867621D01*
X113201856Y-79254918D01*
X113589153Y-79513701D01*
X114046000Y-79604574D01*
X114502847Y-79513701D01*
X114890144Y-79254918D01*
X115148927Y-78867621D01*
X115239800Y-78410774D01*
X115239800Y-78053226D01*
X115392200Y-78053226D01*
X115392200Y-78410774D01*
X115483073Y-78867621D01*
X115741856Y-79254918D01*
X116129153Y-79513701D01*
X116586000Y-79604574D01*
X117042847Y-79513701D01*
X117430144Y-79254918D01*
X117688927Y-78867621D01*
X117779800Y-78410774D01*
X117779800Y-78053226D01*
X117688927Y-77596379D01*
X117434767Y-77216000D01*
X117925731Y-77216000D01*
X117925731Y-79248000D01*
X117948756Y-79370365D01*
X118021073Y-79482749D01*
X118131417Y-79558144D01*
X118262400Y-79584669D01*
X119989600Y-79584669D01*
X120111965Y-79561644D01*
X120224349Y-79489327D01*
X120299744Y-79378983D01*
X120326269Y-79248000D01*
X120326269Y-78100224D01*
X122366404Y-78100224D01*
X122538104Y-78515771D01*
X122855757Y-78833978D01*
X123271003Y-79006403D01*
X123720624Y-79006796D01*
X124136171Y-78835096D01*
X124454378Y-78517443D01*
X124626803Y-78102197D01*
X124626804Y-78100224D01*
X128966404Y-78100224D01*
X129138104Y-78515771D01*
X129455757Y-78833978D01*
X129871003Y-79006403D01*
X130320624Y-79006796D01*
X130736171Y-78835096D01*
X130875692Y-78695817D01*
X132892864Y-78695817D01*
X133093133Y-79181402D01*
X133463983Y-79553385D01*
X133948955Y-79755134D01*
X133952983Y-79755932D01*
X134162800Y-79697828D01*
X134162800Y-78486000D01*
X132950905Y-78486000D01*
X132892864Y-78695817D01*
X130875692Y-78695817D01*
X131054378Y-78517443D01*
X131196745Y-78174583D01*
X132892864Y-78174583D01*
X132950905Y-78384400D01*
X134162800Y-78384400D01*
X134162800Y-77172572D01*
X134264400Y-77172572D01*
X134264400Y-78384400D01*
X134284400Y-78384400D01*
X134284400Y-78486000D01*
X134264400Y-78486000D01*
X134264400Y-79697828D01*
X134474217Y-79755932D01*
X134478245Y-79755134D01*
X134963217Y-79553385D01*
X135334067Y-79181402D01*
X135400931Y-79019279D01*
X135400931Y-79451200D01*
X135423956Y-79573565D01*
X135496273Y-79685949D01*
X135606617Y-79761344D01*
X135737600Y-79787869D01*
X137769600Y-79787869D01*
X137891965Y-79764844D01*
X138004349Y-79692527D01*
X138079744Y-79582183D01*
X138106269Y-79451200D01*
X138106269Y-78294526D01*
X139614400Y-78294526D01*
X139614400Y-78347274D01*
X139716873Y-78862442D01*
X140008693Y-79299181D01*
X140445432Y-79591001D01*
X140960600Y-79693474D01*
X141475768Y-79591001D01*
X141912507Y-79299181D01*
X142147931Y-78946844D01*
X142147931Y-79336900D01*
X142170956Y-79459265D01*
X142243273Y-79571649D01*
X142353617Y-79647044D01*
X142484600Y-79673569D01*
X144516600Y-79673569D01*
X144638965Y-79650544D01*
X144751349Y-79578227D01*
X144826744Y-79467883D01*
X144853269Y-79336900D01*
X144853269Y-77304900D01*
X144830244Y-77182535D01*
X144757927Y-77070151D01*
X144647583Y-76994756D01*
X144516600Y-76968231D01*
X142484600Y-76968231D01*
X142362235Y-76991256D01*
X142249851Y-77063573D01*
X142174456Y-77173917D01*
X142147931Y-77304900D01*
X142147931Y-77694956D01*
X141912507Y-77342619D01*
X141475768Y-77050799D01*
X140960600Y-76948326D01*
X140445432Y-77050799D01*
X140008693Y-77342619D01*
X139716873Y-77779358D01*
X139614400Y-78294526D01*
X138106269Y-78294526D01*
X138106269Y-77419200D01*
X138083244Y-77296835D01*
X138010927Y-77184451D01*
X137900583Y-77109056D01*
X137769600Y-77082531D01*
X135737600Y-77082531D01*
X135615235Y-77105556D01*
X135502851Y-77177873D01*
X135427456Y-77288217D01*
X135400931Y-77419200D01*
X135400931Y-77851121D01*
X135334067Y-77688998D01*
X134963217Y-77317015D01*
X134478245Y-77115266D01*
X134474217Y-77114468D01*
X134264400Y-77172572D01*
X134162800Y-77172572D01*
X133952983Y-77114468D01*
X133948955Y-77115266D01*
X133463983Y-77317015D01*
X133093133Y-77688998D01*
X132892864Y-78174583D01*
X131196745Y-78174583D01*
X131226803Y-78102197D01*
X131227196Y-77652576D01*
X131055496Y-77237029D01*
X130737843Y-76918822D01*
X130322597Y-76746397D01*
X129872976Y-76746004D01*
X129457429Y-76917704D01*
X129139222Y-77235357D01*
X128966797Y-77650603D01*
X128966404Y-78100224D01*
X124626804Y-78100224D01*
X124627196Y-77652576D01*
X124455496Y-77237029D01*
X124137843Y-76918822D01*
X123722597Y-76746397D01*
X123272976Y-76746004D01*
X122857429Y-76917704D01*
X122539222Y-77235357D01*
X122366797Y-77650603D01*
X122366404Y-78100224D01*
X120326269Y-78100224D01*
X120326269Y-77216000D01*
X120303244Y-77093635D01*
X120230927Y-76981251D01*
X120120583Y-76905856D01*
X119989600Y-76879331D01*
X118262400Y-76879331D01*
X118140035Y-76902356D01*
X118027651Y-76974673D01*
X117952256Y-77085017D01*
X117925731Y-77216000D01*
X117434767Y-77216000D01*
X117430144Y-77209082D01*
X117042847Y-76950299D01*
X116586000Y-76859426D01*
X116129153Y-76950299D01*
X115741856Y-77209082D01*
X115483073Y-77596379D01*
X115392200Y-78053226D01*
X115239800Y-78053226D01*
X115148927Y-77596379D01*
X114890144Y-77209082D01*
X114502847Y-76950299D01*
X114046000Y-76859426D01*
X113589153Y-76950299D01*
X113201856Y-77209082D01*
X112943073Y-77596379D01*
X112852200Y-78053226D01*
X112699800Y-78053226D01*
X112608927Y-77596379D01*
X112350144Y-77209082D01*
X111962847Y-76950299D01*
X111506000Y-76859426D01*
X111049153Y-76950299D01*
X110661856Y-77209082D01*
X110403073Y-77596379D01*
X110312200Y-78053226D01*
X106070425Y-78053226D01*
X105930679Y-77913236D01*
X105258246Y-77634018D01*
X104530148Y-77633383D01*
X103857229Y-77911427D01*
X103341936Y-78425821D01*
X103062718Y-79098254D01*
X103062083Y-79826352D01*
X101980200Y-79826352D01*
X101980200Y-76580200D01*
X152019800Y-76580200D01*
X152019800Y-126619800D01*
X152019800Y-126619800D01*
G37*
X152019800Y-126619800D02*
X101980200Y-126619800D01*
X101980200Y-123996952D01*
X102998583Y-123996952D01*
X103276627Y-124669871D01*
X103791021Y-125185164D01*
X104463454Y-125464382D01*
X105191552Y-125465017D01*
X105864471Y-125186973D01*
X106379764Y-124672579D01*
X106658982Y-124000146D01*
X106659617Y-123272048D01*
X106625716Y-123190000D01*
X108527731Y-123190000D01*
X108527731Y-125222000D01*
X108550756Y-125344365D01*
X108623073Y-125456749D01*
X108733417Y-125532144D01*
X108864400Y-125558669D01*
X110591600Y-125558669D01*
X110713965Y-125535644D01*
X110826349Y-125463327D01*
X110901744Y-125352983D01*
X110928269Y-125222000D01*
X110928269Y-124027226D01*
X111074200Y-124027226D01*
X111074200Y-124384774D01*
X111165073Y-124841621D01*
X111423856Y-125228918D01*
X111811153Y-125487701D01*
X112268000Y-125578574D01*
X112724847Y-125487701D01*
X113112144Y-125228918D01*
X113370927Y-124841621D01*
X113461800Y-124384774D01*
X113461800Y-124027226D01*
X113614200Y-124027226D01*
X113614200Y-124384774D01*
X113705073Y-124841621D01*
X113963856Y-125228918D01*
X114351153Y-125487701D01*
X114808000Y-125578574D01*
X115264847Y-125487701D01*
X115652144Y-125228918D01*
X115910927Y-124841621D01*
X116001800Y-124384774D01*
X116001800Y-124027226D01*
X116154200Y-124027226D01*
X116154200Y-124384774D01*
X116245073Y-124841621D01*
X116503856Y-125228918D01*
X116891153Y-125487701D01*
X117348000Y-125578574D01*
X117804847Y-125487701D01*
X118192144Y-125228918D01*
X118450927Y-124841621D01*
X118541800Y-124384774D01*
X118541800Y-124027226D01*
X118694200Y-124027226D01*
X118694200Y-124384774D01*
X118785073Y-124841621D01*
X119043856Y-125228918D01*
X119431153Y-125487701D01*
X119888000Y-125578574D01*
X120344847Y-125487701D01*
X120732144Y-125228918D01*
X120990927Y-124841621D01*
X121081800Y-124384774D01*
X121081800Y-124027226D01*
X121234200Y-124027226D01*
X121234200Y-124384774D01*
X121325073Y-124841621D01*
X121583856Y-125228918D01*
X121971153Y-125487701D01*
X122428000Y-125578574D01*
X122884847Y-125487701D01*
X123272144Y-125228918D01*
X123530927Y-124841621D01*
X123621800Y-124384774D01*
X123621800Y-124027226D01*
X123774200Y-124027226D01*
X123774200Y-124384774D01*
X123865073Y-124841621D01*
X124123856Y-125228918D01*
X124511153Y-125487701D01*
X124968000Y-125578574D01*
X125424847Y-125487701D01*
X125812144Y-125228918D01*
X126070927Y-124841621D01*
X126161800Y-124384774D01*
X126161800Y-124027226D01*
X126314200Y-124027226D01*
X126314200Y-124384774D01*
X126405073Y-124841621D01*
X126663856Y-125228918D01*
X127051153Y-125487701D01*
X127508000Y-125578574D01*
X127964847Y-125487701D01*
X128352144Y-125228918D01*
X128610927Y-124841621D01*
X128701800Y-124384774D01*
X128701800Y-124027226D01*
X128854200Y-124027226D01*
X128854200Y-124384774D01*
X128945073Y-124841621D01*
X129203856Y-125228918D01*
X129591153Y-125487701D01*
X130048000Y-125578574D01*
X130504847Y-125487701D01*
X130892144Y-125228918D01*
X131150927Y-124841621D01*
X131241800Y-124384774D01*
X131241800Y-124027226D01*
X131394200Y-124027226D01*
X131394200Y-124384774D01*
X131485073Y-124841621D01*
X131743856Y-125228918D01*
X132131153Y-125487701D01*
X132588000Y-125578574D01*
X133044847Y-125487701D01*
X133432144Y-125228918D01*
X133690927Y-124841621D01*
X133781800Y-124384774D01*
X133781800Y-124027226D01*
X133690927Y-123570379D01*
X133436767Y-123190000D01*
X134943731Y-123190000D01*
X134943731Y-125222000D01*
X134966756Y-125344365D01*
X135039073Y-125456749D01*
X135149417Y-125532144D01*
X135280400Y-125558669D01*
X137007600Y-125558669D01*
X137129965Y-125535644D01*
X137242349Y-125463327D01*
X137317744Y-125352983D01*
X137344269Y-125222000D01*
X137344269Y-124027226D01*
X137490200Y-124027226D01*
X137490200Y-124384774D01*
X137581073Y-124841621D01*
X137839856Y-125228918D01*
X138227153Y-125487701D01*
X138684000Y-125578574D01*
X139140847Y-125487701D01*
X139528144Y-125228918D01*
X139786927Y-124841621D01*
X139877800Y-124384774D01*
X139877800Y-124027226D01*
X140030200Y-124027226D01*
X140030200Y-124384774D01*
X140121073Y-124841621D01*
X140379856Y-125228918D01*
X140767153Y-125487701D01*
X141224000Y-125578574D01*
X141680847Y-125487701D01*
X142068144Y-125228918D01*
X142326927Y-124841621D01*
X142417800Y-124384774D01*
X142417800Y-124256800D01*
X142570200Y-124256800D01*
X142570200Y-124409200D01*
X142680513Y-124862181D01*
X142955777Y-125238465D01*
X143354086Y-125480768D01*
X143527243Y-125528488D01*
X143713200Y-125468488D01*
X143713200Y-124256800D01*
X143814800Y-124256800D01*
X143814800Y-125468488D01*
X144000757Y-125528488D01*
X144173914Y-125480768D01*
X144572223Y-125238465D01*
X144847487Y-124862181D01*
X144957800Y-124409200D01*
X144957800Y-124256800D01*
X143814800Y-124256800D01*
X143713200Y-124256800D01*
X142570200Y-124256800D01*
X142417800Y-124256800D01*
X142417800Y-124027226D01*
X142412942Y-124002800D01*
X142570200Y-124002800D01*
X142570200Y-124155200D01*
X143713200Y-124155200D01*
X143713200Y-122943512D01*
X143814800Y-122943512D01*
X143814800Y-124155200D01*
X144957800Y-124155200D01*
X144957800Y-124002800D01*
X144956376Y-123996952D01*
X147232683Y-123996952D01*
X147510727Y-124669871D01*
X148025121Y-125185164D01*
X148697554Y-125464382D01*
X149425652Y-125465017D01*
X150098571Y-125186973D01*
X150613864Y-124672579D01*
X150893082Y-124000146D01*
X150893717Y-123272048D01*
X150615673Y-122599129D01*
X150101279Y-122083836D01*
X149428846Y-121804618D01*
X148700748Y-121803983D01*
X148027829Y-122082027D01*
X147512536Y-122596421D01*
X147233318Y-123268854D01*
X147232683Y-123996952D01*
X144956376Y-123996952D01*
X144847487Y-123549819D01*
X144572223Y-123173535D01*
X144173914Y-122931232D01*
X144000757Y-122883512D01*
X143814800Y-122943512D01*
X143713200Y-122943512D01*
X143527243Y-122883512D01*
X143354086Y-122931232D01*
X142955777Y-123173535D01*
X142680513Y-123549819D01*
X142570200Y-124002800D01*
X142412942Y-124002800D01*
X142326927Y-123570379D01*
X142068144Y-123183082D01*
X141680847Y-122924299D01*
X141224000Y-122833426D01*
X140767153Y-122924299D01*
X140379856Y-123183082D01*
X140121073Y-123570379D01*
X140030200Y-124027226D01*
X139877800Y-124027226D01*
X139786927Y-123570379D01*
X139528144Y-123183082D01*
X139140847Y-122924299D01*
X138684000Y-122833426D01*
X138227153Y-122924299D01*
X137839856Y-123183082D01*
X137581073Y-123570379D01*
X137490200Y-124027226D01*
X137344269Y-124027226D01*
X137344269Y-123190000D01*
X137321244Y-123067635D01*
X137248927Y-122955251D01*
X137138583Y-122879856D01*
X137007600Y-122853331D01*
X135280400Y-122853331D01*
X135158035Y-122876356D01*
X135045651Y-122948673D01*
X134970256Y-123059017D01*
X134943731Y-123190000D01*
X133436767Y-123190000D01*
X133432144Y-123183082D01*
X133044847Y-122924299D01*
X132588000Y-122833426D01*
X132131153Y-122924299D01*
X131743856Y-123183082D01*
X131485073Y-123570379D01*
X131394200Y-124027226D01*
X131241800Y-124027226D01*
X131150927Y-123570379D01*
X130892144Y-123183082D01*
X130504847Y-122924299D01*
X130048000Y-122833426D01*
X129591153Y-122924299D01*
X129203856Y-123183082D01*
X128945073Y-123570379D01*
X128854200Y-124027226D01*
X128701800Y-124027226D01*
X128610927Y-123570379D01*
X128352144Y-123183082D01*
X127964847Y-122924299D01*
X127508000Y-122833426D01*
X127051153Y-122924299D01*
X126663856Y-123183082D01*
X126405073Y-123570379D01*
X126314200Y-124027226D01*
X126161800Y-124027226D01*
X126070927Y-123570379D01*
X125812144Y-123183082D01*
X125424847Y-122924299D01*
X124968000Y-122833426D01*
X124511153Y-122924299D01*
X124123856Y-123183082D01*
X123865073Y-123570379D01*
X123774200Y-124027226D01*
X123621800Y-124027226D01*
X123530927Y-123570379D01*
X123272144Y-123183082D01*
X122884847Y-122924299D01*
X122428000Y-122833426D01*
X121971153Y-122924299D01*
X121583856Y-123183082D01*
X121325073Y-123570379D01*
X121234200Y-124027226D01*
X121081800Y-124027226D01*
X120990927Y-123570379D01*
X120732144Y-123183082D01*
X120344847Y-122924299D01*
X119888000Y-122833426D01*
X119431153Y-122924299D01*
X119043856Y-123183082D01*
X118785073Y-123570379D01*
X118694200Y-124027226D01*
X118541800Y-124027226D01*
X118450927Y-123570379D01*
X118192144Y-123183082D01*
X117804847Y-122924299D01*
X117348000Y-122833426D01*
X116891153Y-122924299D01*
X116503856Y-123183082D01*
X116245073Y-123570379D01*
X116154200Y-124027226D01*
X116001800Y-124027226D01*
X115910927Y-123570379D01*
X115652144Y-123183082D01*
X115264847Y-122924299D01*
X114808000Y-122833426D01*
X114351153Y-122924299D01*
X113963856Y-123183082D01*
X113705073Y-123570379D01*
X113614200Y-124027226D01*
X113461800Y-124027226D01*
X113370927Y-123570379D01*
X113112144Y-123183082D01*
X112724847Y-122924299D01*
X112268000Y-122833426D01*
X111811153Y-122924299D01*
X111423856Y-123183082D01*
X111165073Y-123570379D01*
X111074200Y-124027226D01*
X110928269Y-124027226D01*
X110928269Y-123190000D01*
X110905244Y-123067635D01*
X110832927Y-122955251D01*
X110722583Y-122879856D01*
X110591600Y-122853331D01*
X108864400Y-122853331D01*
X108742035Y-122876356D01*
X108629651Y-122948673D01*
X108554256Y-123059017D01*
X108527731Y-123190000D01*
X106625716Y-123190000D01*
X106381573Y-122599129D01*
X105867179Y-122083836D01*
X105194746Y-121804618D01*
X104466648Y-121803983D01*
X103793729Y-122082027D01*
X103278436Y-122596421D01*
X102999218Y-123268854D01*
X102998583Y-123996952D01*
X101980200Y-123996952D01*
X101980200Y-118346757D01*
X102820812Y-118346757D01*
X102868532Y-118519914D01*
X103110835Y-118918223D01*
X103487119Y-119193487D01*
X103940100Y-119303800D01*
X104092500Y-119303800D01*
X104092500Y-118160800D01*
X104194100Y-118160800D01*
X104194100Y-119303800D01*
X104346500Y-119303800D01*
X104799481Y-119193487D01*
X105175765Y-118918223D01*
X105418068Y-118519914D01*
X105465788Y-118346757D01*
X105405788Y-118160800D01*
X104194100Y-118160800D01*
X104092500Y-118160800D01*
X102880812Y-118160800D01*
X102820812Y-118346757D01*
X101980200Y-118346757D01*
X101980200Y-117873243D01*
X102820812Y-117873243D01*
X102880812Y-118059200D01*
X104092500Y-118059200D01*
X104092500Y-116916200D01*
X104194100Y-116916200D01*
X104194100Y-118059200D01*
X105405788Y-118059200D01*
X105465788Y-117873243D01*
X105418068Y-117700086D01*
X105175765Y-117301777D01*
X104799481Y-117026513D01*
X104346500Y-116916200D01*
X104194100Y-116916200D01*
X104092500Y-116916200D01*
X103940100Y-116916200D01*
X103487119Y-117026513D01*
X103110835Y-117301777D01*
X102868532Y-117700086D01*
X102820812Y-117873243D01*
X101980200Y-117873243D01*
X101980200Y-115570000D01*
X102770726Y-115570000D01*
X102861599Y-116026847D01*
X103120382Y-116414144D01*
X103507679Y-116672927D01*
X103964526Y-116763800D01*
X104322074Y-116763800D01*
X104778921Y-116672927D01*
X105166218Y-116414144D01*
X105425001Y-116026847D01*
X105468484Y-115808240D01*
X117129447Y-115808240D01*
X117293638Y-116205612D01*
X117597398Y-116509903D01*
X117994483Y-116674787D01*
X118424440Y-116675163D01*
X118821812Y-116510972D01*
X119126103Y-116207212D01*
X119290987Y-115810127D01*
X119291363Y-115380170D01*
X119127172Y-114982798D01*
X118823412Y-114678507D01*
X118426327Y-114513623D01*
X117996370Y-114513247D01*
X117598998Y-114677438D01*
X117294707Y-114981198D01*
X117129823Y-115378283D01*
X117129447Y-115808240D01*
X105468484Y-115808240D01*
X105515874Y-115570000D01*
X105425001Y-115113153D01*
X105166218Y-114725856D01*
X104778921Y-114467073D01*
X104322074Y-114376200D01*
X103964526Y-114376200D01*
X103507679Y-114467073D01*
X103120382Y-114725856D01*
X102861599Y-115113153D01*
X102770726Y-115570000D01*
X101980200Y-115570000D01*
X101980200Y-112166400D01*
X102790631Y-112166400D01*
X102790631Y-113893600D01*
X102813656Y-114015965D01*
X102885973Y-114128349D01*
X102996317Y-114203744D01*
X103127300Y-114230269D01*
X105159300Y-114230269D01*
X105281665Y-114207244D01*
X105376962Y-114145922D01*
X140149613Y-114145922D01*
X140313717Y-114543085D01*
X140617317Y-114847215D01*
X140821514Y-114932005D01*
X140618915Y-115015717D01*
X140314785Y-115319317D01*
X140149988Y-115716192D01*
X140149613Y-116145922D01*
X140313717Y-116543085D01*
X140617317Y-116847215D01*
X140821514Y-116932005D01*
X140618915Y-117015717D01*
X140314785Y-117319317D01*
X140149988Y-117716192D01*
X140149613Y-118145922D01*
X140313717Y-118543085D01*
X140617317Y-118847215D01*
X141014192Y-119012012D01*
X141443922Y-119012387D01*
X141841085Y-118848283D01*
X142145215Y-118544683D01*
X142310012Y-118147808D01*
X142310387Y-117718078D01*
X142146283Y-117320915D01*
X141842683Y-117016785D01*
X141638486Y-116931995D01*
X141841085Y-116848283D01*
X142145215Y-116544683D01*
X142310012Y-116147808D01*
X142310387Y-115718078D01*
X142146283Y-115320915D01*
X141842683Y-115016785D01*
X141638486Y-114931995D01*
X141841085Y-114848283D01*
X142145215Y-114544683D01*
X142310012Y-114147808D01*
X142310387Y-113718078D01*
X142146283Y-113320915D01*
X141842683Y-113016785D01*
X141640385Y-112932784D01*
X141835578Y-112851932D01*
X141913592Y-112687434D01*
X141230000Y-112003842D01*
X140546408Y-112687434D01*
X140624422Y-112851932D01*
X140821535Y-112931996D01*
X140618915Y-113015717D01*
X140314785Y-113319317D01*
X140149988Y-113716192D01*
X140149613Y-114145922D01*
X105376962Y-114145922D01*
X105394049Y-114134927D01*
X105469444Y-114024583D01*
X105495969Y-113893600D01*
X105495969Y-112356230D01*
X113677437Y-112356230D01*
X113841628Y-112753602D01*
X114145388Y-113057893D01*
X114542473Y-113222777D01*
X114972430Y-113223153D01*
X115369802Y-113058962D01*
X115674093Y-112755202D01*
X115838977Y-112358117D01*
X115839353Y-111928160D01*
X115803960Y-111842501D01*
X120967383Y-111842501D01*
X121069641Y-112089983D01*
X121258822Y-112279494D01*
X121506125Y-112382183D01*
X121773901Y-112382417D01*
X122021383Y-112280159D01*
X122210894Y-112090978D01*
X122313583Y-111843675D01*
X122313687Y-111724562D01*
X140148349Y-111724562D01*
X140151302Y-112154283D01*
X140310068Y-112537578D01*
X140474566Y-112615592D01*
X141158158Y-111932000D01*
X141301842Y-111932000D01*
X141985434Y-112615592D01*
X142149932Y-112537578D01*
X142306580Y-112151922D01*
X148011613Y-112151922D01*
X148175717Y-112549085D01*
X148479317Y-112853215D01*
X148683514Y-112938005D01*
X148480915Y-113021717D01*
X148176785Y-113325317D01*
X148011988Y-113722192D01*
X148011613Y-114151922D01*
X148175717Y-114549085D01*
X148479317Y-114853215D01*
X148683514Y-114938005D01*
X148480915Y-115021717D01*
X148176785Y-115325317D01*
X148011988Y-115722192D01*
X148011613Y-116151922D01*
X148175717Y-116549085D01*
X148479317Y-116853215D01*
X148683514Y-116938005D01*
X148480915Y-117021717D01*
X148176785Y-117325317D01*
X148011988Y-117722192D01*
X148011613Y-118151922D01*
X148175717Y-118549085D01*
X148479317Y-118853215D01*
X148876192Y-119018012D01*
X149305922Y-119018387D01*
X149703085Y-118854283D01*
X150007215Y-118550683D01*
X150172012Y-118153808D01*
X150172387Y-117724078D01*
X150008283Y-117326915D01*
X149704683Y-117022785D01*
X149500486Y-116937995D01*
X149703085Y-116854283D01*
X150007215Y-116550683D01*
X150172012Y-116153808D01*
X150172387Y-115724078D01*
X150008283Y-115326915D01*
X149704683Y-115022785D01*
X149500486Y-114937995D01*
X149703085Y-114854283D01*
X150007215Y-114550683D01*
X150172012Y-114153808D01*
X150172387Y-113724078D01*
X150008283Y-113326915D01*
X149704683Y-113022785D01*
X149500486Y-112937995D01*
X149703085Y-112854283D01*
X150007215Y-112550683D01*
X150172012Y-112153808D01*
X150172387Y-111724078D01*
X150008283Y-111326915D01*
X149704683Y-111022785D01*
X149307808Y-110857988D01*
X148878078Y-110857613D01*
X148480915Y-111021717D01*
X148176785Y-111325317D01*
X148011988Y-111722192D01*
X148011613Y-112151922D01*
X142306580Y-112151922D01*
X142311651Y-112139438D01*
X142308698Y-111709717D01*
X142149932Y-111326422D01*
X141985434Y-111248408D01*
X141301842Y-111932000D01*
X141158158Y-111932000D01*
X140474566Y-111248408D01*
X140310068Y-111326422D01*
X140148349Y-111724562D01*
X122313687Y-111724562D01*
X122313817Y-111575899D01*
X122211559Y-111328417D01*
X122059973Y-111176566D01*
X140546408Y-111176566D01*
X141230000Y-111860158D01*
X141913592Y-111176566D01*
X141835578Y-111012068D01*
X141437438Y-110850349D01*
X141007717Y-110853302D01*
X140624422Y-111012068D01*
X140546408Y-111176566D01*
X122059973Y-111176566D01*
X122022378Y-111138906D01*
X121775075Y-111036217D01*
X121507299Y-111035983D01*
X121259817Y-111138241D01*
X121070306Y-111327422D01*
X120967617Y-111574725D01*
X120967383Y-111842501D01*
X115803960Y-111842501D01*
X115675162Y-111530788D01*
X115371402Y-111226497D01*
X114974317Y-111061613D01*
X114544360Y-111061237D01*
X114146988Y-111225428D01*
X113842697Y-111529188D01*
X113677813Y-111926273D01*
X113677437Y-112356230D01*
X105495969Y-112356230D01*
X105495969Y-112166400D01*
X105472944Y-112044035D01*
X105400627Y-111931651D01*
X105290283Y-111856256D01*
X105159300Y-111829731D01*
X103127300Y-111829731D01*
X103004935Y-111852756D01*
X102892551Y-111925073D01*
X102817156Y-112035417D01*
X102790631Y-112166400D01*
X101980200Y-112166400D01*
X101980200Y-107581700D01*
X102872326Y-107581700D01*
X102974799Y-108096868D01*
X103266619Y-108533607D01*
X103703358Y-108825427D01*
X104218526Y-108927900D01*
X104271274Y-108927900D01*
X104786442Y-108825427D01*
X105223181Y-108533607D01*
X105515001Y-108096868D01*
X105617474Y-107581700D01*
X105515001Y-107066532D01*
X105498544Y-107041901D01*
X121602383Y-107041901D01*
X121704641Y-107289383D01*
X121893822Y-107478894D01*
X122141125Y-107581583D01*
X122408901Y-107581817D01*
X122656383Y-107479559D01*
X122716049Y-107419997D01*
X122744892Y-107489801D01*
X122614218Y-107543795D01*
X122378223Y-107779378D01*
X122250346Y-108087340D01*
X122250055Y-108420797D01*
X122377395Y-108728982D01*
X122612978Y-108964977D01*
X122920940Y-109092854D01*
X123254397Y-109093145D01*
X123562582Y-108965805D01*
X123798577Y-108730222D01*
X123926454Y-108422260D01*
X123926745Y-108088803D01*
X123799405Y-107780618D01*
X123699753Y-107680792D01*
X123887294Y-107493578D01*
X123977495Y-107276350D01*
X124066841Y-107492583D01*
X124256022Y-107682094D01*
X124503325Y-107784783D01*
X124771101Y-107785017D01*
X125018583Y-107682759D01*
X125208094Y-107493578D01*
X125310783Y-107246275D01*
X125311017Y-106978499D01*
X125271641Y-106883200D01*
X148888331Y-106883200D01*
X148888331Y-108610400D01*
X148911356Y-108732765D01*
X148983673Y-108845149D01*
X149094017Y-108920544D01*
X149225000Y-108947069D01*
X151257000Y-108947069D01*
X151379365Y-108924044D01*
X151491749Y-108851727D01*
X151567144Y-108741383D01*
X151593669Y-108610400D01*
X151593669Y-106883200D01*
X151570644Y-106760835D01*
X151498327Y-106648451D01*
X151387983Y-106573056D01*
X151257000Y-106546531D01*
X149225000Y-106546531D01*
X149102635Y-106569556D01*
X148990251Y-106641873D01*
X148914856Y-106752217D01*
X148888331Y-106883200D01*
X125271641Y-106883200D01*
X125208759Y-106731017D01*
X125019578Y-106541506D01*
X124772275Y-106438817D01*
X124504499Y-106438583D01*
X124257017Y-106540841D01*
X124067506Y-106730022D01*
X123977305Y-106947250D01*
X123887959Y-106731017D01*
X123698778Y-106541506D01*
X123451475Y-106438817D01*
X123183699Y-106438583D01*
X122936217Y-106540841D01*
X122876551Y-106600403D01*
X122846559Y-106527817D01*
X122657378Y-106338306D01*
X122410075Y-106235617D01*
X122142299Y-106235383D01*
X121894817Y-106337641D01*
X121705306Y-106526822D01*
X121602617Y-106774125D01*
X121602383Y-107041901D01*
X105498544Y-107041901D01*
X105223181Y-106629793D01*
X104870844Y-106394369D01*
X105260900Y-106394369D01*
X105383265Y-106371344D01*
X105495649Y-106299027D01*
X105571044Y-106188683D01*
X105597569Y-106057700D01*
X105597569Y-105639497D01*
X119989455Y-105639497D01*
X120116795Y-105947682D01*
X120352378Y-106183677D01*
X120660340Y-106311554D01*
X120993797Y-106311845D01*
X121301982Y-106184505D01*
X121537977Y-105948922D01*
X121665854Y-105640960D01*
X121666088Y-105372797D01*
X127041255Y-105372797D01*
X127168595Y-105680982D01*
X127404178Y-105916977D01*
X127712140Y-106044854D01*
X128045597Y-106045145D01*
X128353782Y-105917805D01*
X128589777Y-105682222D01*
X128717654Y-105374260D01*
X128717800Y-105206800D01*
X148868426Y-105206800D01*
X148959299Y-105663647D01*
X149218082Y-106050944D01*
X149605379Y-106309727D01*
X150062226Y-106400600D01*
X150419774Y-106400600D01*
X150876621Y-106309727D01*
X151263918Y-106050944D01*
X151522701Y-105663647D01*
X151613574Y-105206800D01*
X151522701Y-104749953D01*
X151263918Y-104362656D01*
X150876621Y-104103873D01*
X150419774Y-104013000D01*
X150062226Y-104013000D01*
X149605379Y-104103873D01*
X149218082Y-104362656D01*
X148959299Y-104749953D01*
X148868426Y-105206800D01*
X128717800Y-105206800D01*
X128717945Y-105040803D01*
X128590605Y-104732618D01*
X128355022Y-104496623D01*
X128047060Y-104368746D01*
X127713603Y-104368455D01*
X127405418Y-104495795D01*
X127169423Y-104731378D01*
X127041546Y-105039340D01*
X127041255Y-105372797D01*
X121666088Y-105372797D01*
X121666145Y-105307503D01*
X121538805Y-104999318D01*
X121303222Y-104763323D01*
X120995260Y-104635446D01*
X120661803Y-104635155D01*
X120353618Y-104762495D01*
X120117623Y-104998078D01*
X119989746Y-105306040D01*
X119989455Y-105639497D01*
X105597569Y-105639497D01*
X105597569Y-104025700D01*
X105574544Y-103903335D01*
X105502227Y-103790951D01*
X105391883Y-103715556D01*
X105260900Y-103689031D01*
X103228900Y-103689031D01*
X103106535Y-103712056D01*
X102994151Y-103784373D01*
X102918756Y-103894717D01*
X102892231Y-104025700D01*
X102892231Y-106057700D01*
X102915256Y-106180065D01*
X102987573Y-106292449D01*
X103097917Y-106367844D01*
X103228900Y-106394369D01*
X103618956Y-106394369D01*
X103266619Y-106629793D01*
X102974799Y-107066532D01*
X102872326Y-107581700D01*
X101980200Y-107581700D01*
X101980200Y-102985197D01*
X114452255Y-102985197D01*
X114579595Y-103293382D01*
X114815178Y-103529377D01*
X115123140Y-103657254D01*
X115456597Y-103657545D01*
X115764782Y-103530205D01*
X116000777Y-103294622D01*
X116128654Y-102986660D01*
X116128945Y-102653203D01*
X116001605Y-102345018D01*
X115783969Y-102127001D01*
X123790083Y-102127001D01*
X123892341Y-102374483D01*
X124081522Y-102563994D01*
X124328825Y-102666683D01*
X124596601Y-102666917D01*
X124596884Y-102666800D01*
X148868426Y-102666800D01*
X148959299Y-103123647D01*
X149218082Y-103510944D01*
X149605379Y-103769727D01*
X150062226Y-103860600D01*
X150419774Y-103860600D01*
X150876621Y-103769727D01*
X151263918Y-103510944D01*
X151522701Y-103123647D01*
X151613574Y-102666800D01*
X151522701Y-102209953D01*
X151263918Y-101822656D01*
X150876621Y-101563873D01*
X150419774Y-101473000D01*
X150062226Y-101473000D01*
X149605379Y-101563873D01*
X149218082Y-101822656D01*
X148959299Y-102209953D01*
X148868426Y-102666800D01*
X124596884Y-102666800D01*
X124844083Y-102564659D01*
X125033594Y-102375478D01*
X125136283Y-102128175D01*
X125136517Y-101860399D01*
X125034259Y-101612917D01*
X124845078Y-101423406D01*
X124597775Y-101320717D01*
X124329999Y-101320483D01*
X124082517Y-101422741D01*
X123893006Y-101611922D01*
X123790317Y-101859225D01*
X123790083Y-102127001D01*
X115783969Y-102127001D01*
X115766022Y-102109023D01*
X115458060Y-101981146D01*
X115124603Y-101980855D01*
X114816418Y-102108195D01*
X114580423Y-102343778D01*
X114452546Y-102651740D01*
X114452255Y-102985197D01*
X101980200Y-102985197D01*
X101980200Y-101244400D01*
X102821526Y-101244400D01*
X102912399Y-101701247D01*
X103171182Y-102088544D01*
X103558479Y-102347327D01*
X104015326Y-102438200D01*
X104372874Y-102438200D01*
X104829721Y-102347327D01*
X105217018Y-102088544D01*
X105475801Y-101701247D01*
X105566674Y-101244400D01*
X105475801Y-100787553D01*
X105217018Y-100400256D01*
X104829721Y-100141473D01*
X104372874Y-100050600D01*
X104015326Y-100050600D01*
X103558479Y-100141473D01*
X103171182Y-100400256D01*
X102912399Y-100787553D01*
X102821526Y-101244400D01*
X101980200Y-101244400D01*
X101980200Y-98704400D01*
X102821526Y-98704400D01*
X102912399Y-99161247D01*
X103171182Y-99548544D01*
X103558479Y-99807327D01*
X104015326Y-99898200D01*
X104372874Y-99898200D01*
X104724278Y-99828301D01*
X123354983Y-99828301D01*
X123457241Y-100075783D01*
X123646422Y-100265294D01*
X123893725Y-100367983D01*
X124161501Y-100368217D01*
X124408983Y-100265959D01*
X124465739Y-100209301D01*
X126799983Y-100209301D01*
X126902241Y-100456783D01*
X127091422Y-100646294D01*
X127338725Y-100748983D01*
X127606501Y-100749217D01*
X127853983Y-100646959D01*
X128043494Y-100457778D01*
X128146183Y-100210475D01*
X128146417Y-99942699D01*
X128044159Y-99695217D01*
X127974166Y-99625101D01*
X128285883Y-99625101D01*
X128388141Y-99872583D01*
X128577322Y-100062094D01*
X128824625Y-100164783D01*
X129092401Y-100165017D01*
X129184892Y-100126800D01*
X148868426Y-100126800D01*
X148959299Y-100583647D01*
X149218082Y-100970944D01*
X149605379Y-101229727D01*
X150062226Y-101320600D01*
X150419774Y-101320600D01*
X150876621Y-101229727D01*
X151263918Y-100970944D01*
X151522701Y-100583647D01*
X151613574Y-100126800D01*
X151522701Y-99669953D01*
X151263918Y-99282656D01*
X150876621Y-99023873D01*
X150419774Y-98933000D01*
X150062226Y-98933000D01*
X149605379Y-99023873D01*
X149218082Y-99282656D01*
X148959299Y-99669953D01*
X148868426Y-100126800D01*
X129184892Y-100126800D01*
X129339883Y-100062759D01*
X129529394Y-99873578D01*
X129632083Y-99626275D01*
X129632317Y-99358499D01*
X129530059Y-99111017D01*
X129340878Y-98921506D01*
X129093575Y-98818817D01*
X128825799Y-98818583D01*
X128578317Y-98920841D01*
X128388806Y-99110022D01*
X128286117Y-99357325D01*
X128285883Y-99625101D01*
X127974166Y-99625101D01*
X127854978Y-99505706D01*
X127607675Y-99403017D01*
X127339899Y-99402783D01*
X127092417Y-99505041D01*
X126902906Y-99694222D01*
X126800217Y-99941525D01*
X126799983Y-100209301D01*
X124465739Y-100209301D01*
X124598494Y-100076778D01*
X124701183Y-99829475D01*
X124701417Y-99561699D01*
X124599159Y-99314217D01*
X124598997Y-99314055D01*
X124725494Y-99187778D01*
X124823396Y-98952001D01*
X124844183Y-98952001D01*
X124946441Y-99199483D01*
X125135622Y-99388994D01*
X125382925Y-99491683D01*
X125650701Y-99491917D01*
X125898183Y-99389659D01*
X126087694Y-99200478D01*
X126190383Y-98953175D01*
X126190617Y-98685399D01*
X126088359Y-98437917D01*
X125899178Y-98248406D01*
X125651875Y-98145717D01*
X125384099Y-98145483D01*
X125136617Y-98247741D01*
X124947106Y-98436922D01*
X124844417Y-98684225D01*
X124844183Y-98952001D01*
X124823396Y-98952001D01*
X124828183Y-98940475D01*
X124828417Y-98672699D01*
X124726159Y-98425217D01*
X124536978Y-98235706D01*
X124289675Y-98133017D01*
X124021899Y-98132783D01*
X123774417Y-98235041D01*
X123584906Y-98424222D01*
X123482217Y-98671525D01*
X123481983Y-98939301D01*
X123584241Y-99186783D01*
X123584403Y-99186945D01*
X123457906Y-99313222D01*
X123355217Y-99560525D01*
X123354983Y-99828301D01*
X104724278Y-99828301D01*
X104829721Y-99807327D01*
X105217018Y-99548544D01*
X105475801Y-99161247D01*
X105566674Y-98704400D01*
X105475801Y-98247553D01*
X105217018Y-97860256D01*
X104829721Y-97601473D01*
X104755956Y-97586800D01*
X148868426Y-97586800D01*
X148959299Y-98043647D01*
X149218082Y-98430944D01*
X149605379Y-98689727D01*
X150062226Y-98780600D01*
X150419774Y-98780600D01*
X150876621Y-98689727D01*
X151263918Y-98430944D01*
X151522701Y-98043647D01*
X151613574Y-97586800D01*
X151522701Y-97129953D01*
X151263918Y-96742656D01*
X150876621Y-96483873D01*
X150419774Y-96393000D01*
X150062226Y-96393000D01*
X149605379Y-96483873D01*
X149218082Y-96742656D01*
X148959299Y-97129953D01*
X148868426Y-97586800D01*
X104755956Y-97586800D01*
X104372874Y-97510600D01*
X104015326Y-97510600D01*
X103558479Y-97601473D01*
X103171182Y-97860256D01*
X102912399Y-98247553D01*
X102821526Y-98704400D01*
X101980200Y-98704400D01*
X101980200Y-96164400D01*
X102821526Y-96164400D01*
X102912399Y-96621247D01*
X103171182Y-97008544D01*
X103558479Y-97267327D01*
X104015326Y-97358200D01*
X104372874Y-97358200D01*
X104829721Y-97267327D01*
X105217018Y-97008544D01*
X105475801Y-96621247D01*
X105566674Y-96164400D01*
X105475801Y-95707553D01*
X105310072Y-95459521D01*
X117605183Y-95459521D01*
X117707441Y-95707003D01*
X117896622Y-95896514D01*
X118143925Y-95999203D01*
X118411701Y-95999437D01*
X118659183Y-95897179D01*
X118848694Y-95707998D01*
X118951383Y-95460695D01*
X118951617Y-95192919D01*
X118854880Y-94958797D01*
X127358755Y-94958797D01*
X127486095Y-95266982D01*
X127721678Y-95502977D01*
X128029640Y-95630854D01*
X128363097Y-95631145D01*
X128671282Y-95503805D01*
X128907277Y-95268222D01*
X128999219Y-95046800D01*
X148868426Y-95046800D01*
X148959299Y-95503647D01*
X149218082Y-95890944D01*
X149605379Y-96149727D01*
X150062226Y-96240600D01*
X150419774Y-96240600D01*
X150876621Y-96149727D01*
X151263918Y-95890944D01*
X151522701Y-95503647D01*
X151613574Y-95046800D01*
X151522701Y-94589953D01*
X151263918Y-94202656D01*
X150876621Y-93943873D01*
X150419774Y-93853000D01*
X150062226Y-93853000D01*
X149605379Y-93943873D01*
X149218082Y-94202656D01*
X148959299Y-94589953D01*
X148868426Y-95046800D01*
X128999219Y-95046800D01*
X129035154Y-94960260D01*
X129035445Y-94626803D01*
X128908105Y-94318618D01*
X128672522Y-94082623D01*
X128364560Y-93954746D01*
X128031103Y-93954455D01*
X127722918Y-94081795D01*
X127486923Y-94317378D01*
X127359046Y-94625340D01*
X127358755Y-94958797D01*
X118854880Y-94958797D01*
X118849359Y-94945437D01*
X118660178Y-94755926D01*
X118412875Y-94653237D01*
X118145099Y-94653003D01*
X117897617Y-94755261D01*
X117708106Y-94944442D01*
X117605417Y-95191745D01*
X117605183Y-95459521D01*
X105310072Y-95459521D01*
X105217018Y-95320256D01*
X104829721Y-95061473D01*
X104372874Y-94970600D01*
X104015326Y-94970600D01*
X103558479Y-95061473D01*
X103171182Y-95320256D01*
X102912399Y-95707553D01*
X102821526Y-96164400D01*
X101980200Y-96164400D01*
X101980200Y-93861157D01*
X102871612Y-93861157D01*
X102919332Y-94034314D01*
X103161635Y-94432623D01*
X103537919Y-94707887D01*
X103990900Y-94818200D01*
X104143300Y-94818200D01*
X104143300Y-93675200D01*
X104244900Y-93675200D01*
X104244900Y-94818200D01*
X104397300Y-94818200D01*
X104850281Y-94707887D01*
X105226565Y-94432623D01*
X105459446Y-94049801D01*
X110531283Y-94049801D01*
X110633541Y-94297283D01*
X110822722Y-94486794D01*
X111070025Y-94589483D01*
X111337801Y-94589717D01*
X111585283Y-94487459D01*
X111774794Y-94298278D01*
X111867423Y-94075201D01*
X126126883Y-94075201D01*
X126229141Y-94322683D01*
X126418322Y-94512194D01*
X126665625Y-94614883D01*
X126933401Y-94615117D01*
X127180883Y-94512859D01*
X127370394Y-94323678D01*
X127473083Y-94076375D01*
X127473317Y-93808599D01*
X127371059Y-93561117D01*
X127181878Y-93371606D01*
X126934575Y-93268917D01*
X126666799Y-93268683D01*
X126419317Y-93370941D01*
X126229806Y-93560122D01*
X126127117Y-93807425D01*
X126126883Y-94075201D01*
X111867423Y-94075201D01*
X111877483Y-94050975D01*
X111877717Y-93783199D01*
X111775459Y-93535717D01*
X111586278Y-93346206D01*
X111338975Y-93243517D01*
X111071199Y-93243283D01*
X110823717Y-93345541D01*
X110634206Y-93534722D01*
X110531517Y-93782025D01*
X110531283Y-94049801D01*
X105459446Y-94049801D01*
X105468868Y-94034314D01*
X105516588Y-93861157D01*
X105456588Y-93675200D01*
X104244900Y-93675200D01*
X104143300Y-93675200D01*
X102931612Y-93675200D01*
X102871612Y-93861157D01*
X101980200Y-93861157D01*
X101980200Y-93387643D01*
X102871612Y-93387643D01*
X102931612Y-93573600D01*
X104143300Y-93573600D01*
X104143300Y-92430600D01*
X104244900Y-92430600D01*
X104244900Y-93573600D01*
X105456588Y-93573600D01*
X105516588Y-93387643D01*
X105468868Y-93214486D01*
X105226565Y-92816177D01*
X104850281Y-92540913D01*
X104397300Y-92430600D01*
X104244900Y-92430600D01*
X104143300Y-92430600D01*
X103990900Y-92430600D01*
X103537919Y-92540913D01*
X103161635Y-92816177D01*
X102919332Y-93214486D01*
X102871612Y-93387643D01*
X101980200Y-93387643D01*
X101980200Y-91084400D01*
X102821526Y-91084400D01*
X102912399Y-91541247D01*
X103171182Y-91928544D01*
X103558479Y-92187327D01*
X104015326Y-92278200D01*
X104372874Y-92278200D01*
X104829721Y-92187327D01*
X104950386Y-92106701D01*
X118681383Y-92106701D01*
X118783641Y-92354183D01*
X118972822Y-92543694D01*
X119220125Y-92646383D01*
X119487901Y-92646617D01*
X119735383Y-92544359D01*
X119773007Y-92506800D01*
X148868426Y-92506800D01*
X148959299Y-92963647D01*
X149218082Y-93350944D01*
X149605379Y-93609727D01*
X150062226Y-93700600D01*
X150419774Y-93700600D01*
X150876621Y-93609727D01*
X151263918Y-93350944D01*
X151522701Y-92963647D01*
X151613574Y-92506800D01*
X151522701Y-92049953D01*
X151263918Y-91662656D01*
X150876621Y-91403873D01*
X150419774Y-91313000D01*
X150062226Y-91313000D01*
X149605379Y-91403873D01*
X149218082Y-91662656D01*
X148959299Y-92049953D01*
X148868426Y-92506800D01*
X119773007Y-92506800D01*
X119924894Y-92355178D01*
X120027583Y-92107875D01*
X120027817Y-91840099D01*
X119925559Y-91592617D01*
X119736378Y-91403106D01*
X119489075Y-91300417D01*
X119221299Y-91300183D01*
X118973817Y-91402441D01*
X118784306Y-91591622D01*
X118681617Y-91838925D01*
X118681383Y-92106701D01*
X104950386Y-92106701D01*
X105217018Y-91928544D01*
X105475801Y-91541247D01*
X105530053Y-91268501D01*
X114287183Y-91268501D01*
X114389441Y-91515983D01*
X114578622Y-91705494D01*
X114825925Y-91808183D01*
X115093701Y-91808417D01*
X115341183Y-91706159D01*
X115530694Y-91516978D01*
X115633383Y-91269675D01*
X115633617Y-91001899D01*
X115531359Y-90754417D01*
X115342178Y-90564906D01*
X115094875Y-90462217D01*
X114827099Y-90461983D01*
X114579617Y-90564241D01*
X114390106Y-90753422D01*
X114287417Y-91000725D01*
X114287183Y-91268501D01*
X105530053Y-91268501D01*
X105566674Y-91084400D01*
X105475801Y-90627553D01*
X105225200Y-90252501D01*
X113169583Y-90252501D01*
X113271841Y-90499983D01*
X113461022Y-90689494D01*
X113708325Y-90792183D01*
X113976101Y-90792417D01*
X114223583Y-90690159D01*
X114413094Y-90500978D01*
X114515783Y-90253675D01*
X114516017Y-89985899D01*
X114508126Y-89966800D01*
X148868426Y-89966800D01*
X148959299Y-90423647D01*
X149218082Y-90810944D01*
X149605379Y-91069727D01*
X150062226Y-91160600D01*
X150419774Y-91160600D01*
X150876621Y-91069727D01*
X151263918Y-90810944D01*
X151522701Y-90423647D01*
X151613574Y-89966800D01*
X151522701Y-89509953D01*
X151263918Y-89122656D01*
X150876621Y-88863873D01*
X150419774Y-88773000D01*
X150062226Y-88773000D01*
X149605379Y-88863873D01*
X149218082Y-89122656D01*
X148959299Y-89509953D01*
X148868426Y-89966800D01*
X114508126Y-89966800D01*
X114413759Y-89738417D01*
X114224578Y-89548906D01*
X113977275Y-89446217D01*
X113709499Y-89445983D01*
X113462017Y-89548241D01*
X113272506Y-89737422D01*
X113169817Y-89984725D01*
X113169583Y-90252501D01*
X105225200Y-90252501D01*
X105217018Y-90240256D01*
X104829721Y-89981473D01*
X104372874Y-89890600D01*
X104015326Y-89890600D01*
X103558479Y-89981473D01*
X103171182Y-90240256D01*
X102912399Y-90627553D01*
X102821526Y-91084400D01*
X101980200Y-91084400D01*
X101980200Y-87680800D01*
X102841431Y-87680800D01*
X102841431Y-89408000D01*
X102864456Y-89530365D01*
X102936773Y-89642749D01*
X103047117Y-89718144D01*
X103178100Y-89744669D01*
X105210100Y-89744669D01*
X105332465Y-89721644D01*
X105444849Y-89649327D01*
X105520244Y-89538983D01*
X105546769Y-89408000D01*
X105546769Y-88639601D01*
X109083483Y-88639601D01*
X109185741Y-88887083D01*
X109374922Y-89076594D01*
X109622225Y-89179283D01*
X109890001Y-89179517D01*
X110137483Y-89077259D01*
X110326994Y-88888078D01*
X110429683Y-88640775D01*
X110429917Y-88372999D01*
X110327659Y-88125517D01*
X110138478Y-87936006D01*
X109891175Y-87833317D01*
X109623399Y-87833083D01*
X109375917Y-87935341D01*
X109186406Y-88124522D01*
X109083717Y-88371825D01*
X109083483Y-88639601D01*
X105546769Y-88639601D01*
X105546769Y-87680800D01*
X105523744Y-87558435D01*
X105451427Y-87446051D01*
X105341083Y-87370656D01*
X105210100Y-87344131D01*
X103178100Y-87344131D01*
X103055735Y-87367156D01*
X102943351Y-87439473D01*
X102867956Y-87549817D01*
X102841431Y-87680800D01*
X101980200Y-87680800D01*
X101980200Y-86645701D01*
X120154583Y-86645701D01*
X120256841Y-86893183D01*
X120446022Y-87082694D01*
X120454200Y-87086090D01*
X120358017Y-87317725D01*
X120357783Y-87585501D01*
X120460041Y-87832983D01*
X120649222Y-88022494D01*
X120896525Y-88125183D01*
X121164301Y-88125417D01*
X121411783Y-88023159D01*
X121601294Y-87833978D01*
X121617065Y-87795997D01*
X126441055Y-87795997D01*
X126568395Y-88104182D01*
X126803978Y-88340177D01*
X127111940Y-88468054D01*
X127445397Y-88468345D01*
X127753582Y-88341005D01*
X127989577Y-88105422D01*
X128117454Y-87797460D01*
X128117745Y-87464003D01*
X128102373Y-87426800D01*
X148868426Y-87426800D01*
X148959299Y-87883647D01*
X149218082Y-88270944D01*
X149605379Y-88529727D01*
X150062226Y-88620600D01*
X150419774Y-88620600D01*
X150876621Y-88529727D01*
X151263918Y-88270944D01*
X151522701Y-87883647D01*
X151613574Y-87426800D01*
X151522701Y-86969953D01*
X151263918Y-86582656D01*
X150876621Y-86323873D01*
X150419774Y-86233000D01*
X150062226Y-86233000D01*
X149605379Y-86323873D01*
X149218082Y-86582656D01*
X148959299Y-86969953D01*
X148868426Y-87426800D01*
X128102373Y-87426800D01*
X127990405Y-87155818D01*
X127754822Y-86919823D01*
X127446860Y-86791946D01*
X127113403Y-86791655D01*
X126805218Y-86918995D01*
X126569223Y-87154578D01*
X126441346Y-87462540D01*
X126441055Y-87795997D01*
X121617065Y-87795997D01*
X121703983Y-87586675D01*
X121704217Y-87318899D01*
X121601959Y-87071417D01*
X121412778Y-86881906D01*
X121404600Y-86878510D01*
X121500783Y-86646875D01*
X121501017Y-86379099D01*
X121398759Y-86131617D01*
X121209578Y-85942106D01*
X120962275Y-85839417D01*
X120694499Y-85839183D01*
X120447017Y-85941441D01*
X120257506Y-86130622D01*
X120154817Y-86377925D01*
X120154583Y-86645701D01*
X101980200Y-86645701D01*
X101980200Y-85375701D01*
X119316383Y-85375701D01*
X119418641Y-85623183D01*
X119607822Y-85812694D01*
X119855125Y-85915383D01*
X120122901Y-85915617D01*
X120370383Y-85813359D01*
X120559894Y-85624178D01*
X120662583Y-85376875D01*
X120662817Y-85109099D01*
X120560559Y-84861617D01*
X120371378Y-84672106D01*
X120124075Y-84569417D01*
X119856299Y-84569183D01*
X119608817Y-84671441D01*
X119419306Y-84860622D01*
X119316617Y-85107925D01*
X119316383Y-85375701D01*
X101980200Y-85375701D01*
X101980200Y-84239997D01*
X123951855Y-84239997D01*
X124079195Y-84548182D01*
X124314778Y-84784177D01*
X124622740Y-84912054D01*
X124956197Y-84912345D01*
X125264382Y-84785005D01*
X125428676Y-84620997D01*
X126110855Y-84620997D01*
X126238195Y-84929182D01*
X126473778Y-85165177D01*
X126781740Y-85293054D01*
X127115197Y-85293345D01*
X127423382Y-85166005D01*
X127659377Y-84930422D01*
X127677490Y-84886800D01*
X148868426Y-84886800D01*
X148959299Y-85343647D01*
X149218082Y-85730944D01*
X149605379Y-85989727D01*
X150062226Y-86080600D01*
X150419774Y-86080600D01*
X150876621Y-85989727D01*
X151263918Y-85730944D01*
X151522701Y-85343647D01*
X151613574Y-84886800D01*
X151522701Y-84429953D01*
X151263918Y-84042656D01*
X150876621Y-83783873D01*
X150419774Y-83693000D01*
X150062226Y-83693000D01*
X149605379Y-83783873D01*
X149218082Y-84042656D01*
X148959299Y-84429953D01*
X148868426Y-84886800D01*
X127677490Y-84886800D01*
X127787254Y-84622460D01*
X127787545Y-84289003D01*
X127660205Y-83980818D01*
X127424622Y-83744823D01*
X127116660Y-83616946D01*
X126783203Y-83616655D01*
X126475018Y-83743995D01*
X126239023Y-83979578D01*
X126111146Y-84287540D01*
X126110855Y-84620997D01*
X125428676Y-84620997D01*
X125500377Y-84549422D01*
X125628254Y-84241460D01*
X125628545Y-83908003D01*
X125501205Y-83599818D01*
X125265622Y-83363823D01*
X124957660Y-83235946D01*
X124624203Y-83235655D01*
X124316018Y-83362995D01*
X124080023Y-83598578D01*
X123952146Y-83906540D01*
X123951855Y-84239997D01*
X101980200Y-84239997D01*
X101980200Y-83521501D01*
X113118783Y-83521501D01*
X113221041Y-83768983D01*
X113410222Y-83958494D01*
X113657525Y-84061183D01*
X113925301Y-84061417D01*
X114172783Y-83959159D01*
X114362294Y-83769978D01*
X114464983Y-83522675D01*
X114465217Y-83254899D01*
X114428444Y-83165901D01*
X120027583Y-83165901D01*
X120129841Y-83413383D01*
X120319022Y-83602894D01*
X120566325Y-83705583D01*
X120834101Y-83705817D01*
X121081583Y-83603559D01*
X121271094Y-83414378D01*
X121373783Y-83167075D01*
X121374017Y-82899299D01*
X121271759Y-82651817D01*
X121082578Y-82462306D01*
X121003093Y-82429301D01*
X126631583Y-82429301D01*
X126733841Y-82676783D01*
X126923022Y-82866294D01*
X127170325Y-82968983D01*
X127438101Y-82969217D01*
X127685583Y-82866959D01*
X127875094Y-82677778D01*
X127977783Y-82430475D01*
X127978017Y-82162699D01*
X127888768Y-81946701D01*
X132083183Y-81946701D01*
X132185441Y-82194183D01*
X132374622Y-82383694D01*
X132621925Y-82486383D01*
X132889701Y-82486617D01*
X133137183Y-82384359D01*
X133326694Y-82195178D01*
X133429383Y-81947875D01*
X133429617Y-81680099D01*
X133327359Y-81432617D01*
X133138178Y-81243106D01*
X132890875Y-81140417D01*
X132623099Y-81140183D01*
X132375617Y-81242441D01*
X132186106Y-81431622D01*
X132083417Y-81678925D01*
X132083183Y-81946701D01*
X127888768Y-81946701D01*
X127875759Y-81915217D01*
X127686578Y-81725706D01*
X127439275Y-81623017D01*
X127171499Y-81622783D01*
X126924017Y-81725041D01*
X126734506Y-81914222D01*
X126631817Y-82161525D01*
X126631583Y-82429301D01*
X121003093Y-82429301D01*
X120835275Y-82359617D01*
X120567499Y-82359383D01*
X120320017Y-82461641D01*
X120130506Y-82650822D01*
X120027817Y-82898125D01*
X120027583Y-83165901D01*
X114428444Y-83165901D01*
X114362959Y-83007417D01*
X114173778Y-82817906D01*
X113926475Y-82715217D01*
X113658699Y-82714983D01*
X113411217Y-82817241D01*
X113221706Y-83006422D01*
X113119017Y-83253725D01*
X113118783Y-83521501D01*
X101980200Y-83521501D01*
X101980200Y-79826352D01*
X103062083Y-79826352D01*
X103340127Y-80499271D01*
X103854521Y-81014564D01*
X104526954Y-81293782D01*
X105255052Y-81294417D01*
X105441454Y-81217397D01*
X117449455Y-81217397D01*
X117576795Y-81525582D01*
X117812378Y-81761577D01*
X118120340Y-81889454D01*
X118453797Y-81889745D01*
X118761982Y-81762405D01*
X118997977Y-81526822D01*
X119125854Y-81218860D01*
X119126145Y-80885403D01*
X118998805Y-80577218D01*
X118763222Y-80341223D01*
X118455260Y-80213346D01*
X118121803Y-80213055D01*
X117813618Y-80340395D01*
X117577623Y-80575978D01*
X117449746Y-80883940D01*
X117449455Y-81217397D01*
X105441454Y-81217397D01*
X105927971Y-81016373D01*
X106443264Y-80501979D01*
X106713261Y-79851752D01*
X147181883Y-79851752D01*
X147459927Y-80524671D01*
X147974321Y-81039964D01*
X148646754Y-81319182D01*
X149374852Y-81319817D01*
X150047771Y-81041773D01*
X150563064Y-80527379D01*
X150842282Y-79854946D01*
X150842917Y-79126848D01*
X150564873Y-78453929D01*
X150050479Y-77938636D01*
X149378046Y-77659418D01*
X148649948Y-77658783D01*
X147977029Y-77936827D01*
X147461736Y-78451221D01*
X147182518Y-79123654D01*
X147181883Y-79851752D01*
X106713261Y-79851752D01*
X106722482Y-79829546D01*
X106723117Y-79101448D01*
X106445073Y-78428529D01*
X106070425Y-78053226D01*
X110312200Y-78053226D01*
X110312200Y-78410774D01*
X110403073Y-78867621D01*
X110661856Y-79254918D01*
X111049153Y-79513701D01*
X111506000Y-79604574D01*
X111962847Y-79513701D01*
X112350144Y-79254918D01*
X112608927Y-78867621D01*
X112699800Y-78410774D01*
X112699800Y-78053226D01*
X112852200Y-78053226D01*
X112852200Y-78410774D01*
X112943073Y-78867621D01*
X113201856Y-79254918D01*
X113589153Y-79513701D01*
X114046000Y-79604574D01*
X114502847Y-79513701D01*
X114890144Y-79254918D01*
X115148927Y-78867621D01*
X115239800Y-78410774D01*
X115239800Y-78053226D01*
X115392200Y-78053226D01*
X115392200Y-78410774D01*
X115483073Y-78867621D01*
X115741856Y-79254918D01*
X116129153Y-79513701D01*
X116586000Y-79604574D01*
X117042847Y-79513701D01*
X117430144Y-79254918D01*
X117688927Y-78867621D01*
X117779800Y-78410774D01*
X117779800Y-78053226D01*
X117688927Y-77596379D01*
X117434767Y-77216000D01*
X117925731Y-77216000D01*
X117925731Y-79248000D01*
X117948756Y-79370365D01*
X118021073Y-79482749D01*
X118131417Y-79558144D01*
X118262400Y-79584669D01*
X119989600Y-79584669D01*
X120111965Y-79561644D01*
X120224349Y-79489327D01*
X120299744Y-79378983D01*
X120326269Y-79248000D01*
X120326269Y-78100224D01*
X122366404Y-78100224D01*
X122538104Y-78515771D01*
X122855757Y-78833978D01*
X123271003Y-79006403D01*
X123720624Y-79006796D01*
X124136171Y-78835096D01*
X124454378Y-78517443D01*
X124626803Y-78102197D01*
X124626804Y-78100224D01*
X128966404Y-78100224D01*
X129138104Y-78515771D01*
X129455757Y-78833978D01*
X129871003Y-79006403D01*
X130320624Y-79006796D01*
X130736171Y-78835096D01*
X130875692Y-78695817D01*
X132892864Y-78695817D01*
X133093133Y-79181402D01*
X133463983Y-79553385D01*
X133948955Y-79755134D01*
X133952983Y-79755932D01*
X134162800Y-79697828D01*
X134162800Y-78486000D01*
X132950905Y-78486000D01*
X132892864Y-78695817D01*
X130875692Y-78695817D01*
X131054378Y-78517443D01*
X131196745Y-78174583D01*
X132892864Y-78174583D01*
X132950905Y-78384400D01*
X134162800Y-78384400D01*
X134162800Y-77172572D01*
X134264400Y-77172572D01*
X134264400Y-78384400D01*
X134284400Y-78384400D01*
X134284400Y-78486000D01*
X134264400Y-78486000D01*
X134264400Y-79697828D01*
X134474217Y-79755932D01*
X134478245Y-79755134D01*
X134963217Y-79553385D01*
X135334067Y-79181402D01*
X135400931Y-79019279D01*
X135400931Y-79451200D01*
X135423956Y-79573565D01*
X135496273Y-79685949D01*
X135606617Y-79761344D01*
X135737600Y-79787869D01*
X137769600Y-79787869D01*
X137891965Y-79764844D01*
X138004349Y-79692527D01*
X138079744Y-79582183D01*
X138106269Y-79451200D01*
X138106269Y-78294526D01*
X139614400Y-78294526D01*
X139614400Y-78347274D01*
X139716873Y-78862442D01*
X140008693Y-79299181D01*
X140445432Y-79591001D01*
X140960600Y-79693474D01*
X141475768Y-79591001D01*
X141912507Y-79299181D01*
X142147931Y-78946844D01*
X142147931Y-79336900D01*
X142170956Y-79459265D01*
X142243273Y-79571649D01*
X142353617Y-79647044D01*
X142484600Y-79673569D01*
X144516600Y-79673569D01*
X144638965Y-79650544D01*
X144751349Y-79578227D01*
X144826744Y-79467883D01*
X144853269Y-79336900D01*
X144853269Y-77304900D01*
X144830244Y-77182535D01*
X144757927Y-77070151D01*
X144647583Y-76994756D01*
X144516600Y-76968231D01*
X142484600Y-76968231D01*
X142362235Y-76991256D01*
X142249851Y-77063573D01*
X142174456Y-77173917D01*
X142147931Y-77304900D01*
X142147931Y-77694956D01*
X141912507Y-77342619D01*
X141475768Y-77050799D01*
X140960600Y-76948326D01*
X140445432Y-77050799D01*
X140008693Y-77342619D01*
X139716873Y-77779358D01*
X139614400Y-78294526D01*
X138106269Y-78294526D01*
X138106269Y-77419200D01*
X138083244Y-77296835D01*
X138010927Y-77184451D01*
X137900583Y-77109056D01*
X137769600Y-77082531D01*
X135737600Y-77082531D01*
X135615235Y-77105556D01*
X135502851Y-77177873D01*
X135427456Y-77288217D01*
X135400931Y-77419200D01*
X135400931Y-77851121D01*
X135334067Y-77688998D01*
X134963217Y-77317015D01*
X134478245Y-77115266D01*
X134474217Y-77114468D01*
X134264400Y-77172572D01*
X134162800Y-77172572D01*
X133952983Y-77114468D01*
X133948955Y-77115266D01*
X133463983Y-77317015D01*
X133093133Y-77688998D01*
X132892864Y-78174583D01*
X131196745Y-78174583D01*
X131226803Y-78102197D01*
X131227196Y-77652576D01*
X131055496Y-77237029D01*
X130737843Y-76918822D01*
X130322597Y-76746397D01*
X129872976Y-76746004D01*
X129457429Y-76917704D01*
X129139222Y-77235357D01*
X128966797Y-77650603D01*
X128966404Y-78100224D01*
X124626804Y-78100224D01*
X124627196Y-77652576D01*
X124455496Y-77237029D01*
X124137843Y-76918822D01*
X123722597Y-76746397D01*
X123272976Y-76746004D01*
X122857429Y-76917704D01*
X122539222Y-77235357D01*
X122366797Y-77650603D01*
X122366404Y-78100224D01*
X120326269Y-78100224D01*
X120326269Y-77216000D01*
X120303244Y-77093635D01*
X120230927Y-76981251D01*
X120120583Y-76905856D01*
X119989600Y-76879331D01*
X118262400Y-76879331D01*
X118140035Y-76902356D01*
X118027651Y-76974673D01*
X117952256Y-77085017D01*
X117925731Y-77216000D01*
X117434767Y-77216000D01*
X117430144Y-77209082D01*
X117042847Y-76950299D01*
X116586000Y-76859426D01*
X116129153Y-76950299D01*
X115741856Y-77209082D01*
X115483073Y-77596379D01*
X115392200Y-78053226D01*
X115239800Y-78053226D01*
X115148927Y-77596379D01*
X114890144Y-77209082D01*
X114502847Y-76950299D01*
X114046000Y-76859426D01*
X113589153Y-76950299D01*
X113201856Y-77209082D01*
X112943073Y-77596379D01*
X112852200Y-78053226D01*
X112699800Y-78053226D01*
X112608927Y-77596379D01*
X112350144Y-77209082D01*
X111962847Y-76950299D01*
X111506000Y-76859426D01*
X111049153Y-76950299D01*
X110661856Y-77209082D01*
X110403073Y-77596379D01*
X110312200Y-78053226D01*
X106070425Y-78053226D01*
X105930679Y-77913236D01*
X105258246Y-77634018D01*
X104530148Y-77633383D01*
X103857229Y-77911427D01*
X103341936Y-78425821D01*
X103062718Y-79098254D01*
X103062083Y-79826352D01*
X101980200Y-79826352D01*
X101980200Y-76580200D01*
X152019800Y-76580200D01*
X152019800Y-126619800D01*
M02*
