M48
;DRILL file {KiCad 4.0.1-3.201512221402+6198~38~ubuntu14.04.1-stable} date Mon 04 Jan 2016 12:08:07 AM EST
;FORMAT={2:4/ absolute / inch / suppress leading zeros}
FMAT,2
INCH,TZ
T1C0.013
T2C0.020
T3C0.030
T4C0.032
T5C0.040
T6C0.118
T7C0.047
%
G90
G05
M72
T1
X43211Y-34845
X43431Y-38880
X43781Y-36975
X44770Y-45700
X44800Y-32830
X44820Y-34440
X44820Y-35480
X45260Y-35880
X46110Y-36270
X46566Y-37530
X46990Y-36210
X47240Y-33560
X47520Y-32690
X47570Y-34060
X47650Y-34430
X47696Y-41135
X47890Y-43980
X48000Y-31630
X48140Y-42090
X48206Y-34675
X48550Y-42170
X48830Y-39250
X48880Y-38900
X49001Y-40155
X49070Y-42170
X49170Y-32310
X49416Y-38905
X49500Y-32330
X49921Y-36985
X50076Y-41870
X50120Y-32400
X50186Y-39400
X50771Y-39170
X51790Y-31620
X52266Y-32210
T2
X45390Y-40480
X45540Y-31960
X45685Y-39630
X46570Y-31910
X47530Y-43420
X47570Y-41525
X48460Y-42620
X49130Y-33100
X49250Y-35750
X49980Y-33250
X50110Y-34500
X50346Y-41420
X50471Y-37320
X50621Y-37885
X51660Y-33860
X52826Y-42415
X55176Y-38490
T3
X55602Y-44068
X55602Y-44855
X55602Y-45643
X55602Y-46430
X58698Y-44070
X58698Y-44857
X58698Y-45645
X58698Y-46432
T4
X45180Y-44150
X46540Y-45510
T5
X41001Y-44500
X41001Y-45500
X41001Y-46500
X41021Y-34860
X41021Y-35860
X41021Y-36860
X41021Y-37860
X41021Y-38860
X41021Y-39860
X41041Y-41355
X41041Y-42355
X43200Y-48900
X43900Y-30800
X44200Y-48900
X44900Y-30800
X45200Y-48900
X45900Y-30800
X46200Y-48900
X46900Y-30800
X47200Y-48900
X48200Y-48900
X49200Y-48900
X50200Y-48900
X51200Y-48900
X52200Y-48900
X52840Y-30880
X53600Y-48900
X53840Y-30880
X54600Y-48900
X55496Y-30835
X55600Y-48900
X56496Y-30835
X56600Y-48900
X59150Y-33420
X59150Y-34420
X59150Y-35420
X59150Y-36420
X59150Y-37420
X59150Y-38420
X59150Y-39420
X59150Y-40420
X59150Y-41420
X59150Y-42420
T6
X41271Y-48675
X41296Y-31285
X58666Y-31295
X58686Y-48675
T7
X48621Y-30660
X51219Y-30660
T0
M30
