G04 #@! TF.FileFunction,Legend,Top*
%FSLAX46Y46*%
G04 Gerber Fmt 4.6, Leading zero omitted, Abs format (unit mm)*
G04 Created by KiCad (PCBNEW 4.0.1-3.201512221402+6198~38~ubuntu14.04.1-stable) date Mon 04 Jan 2016 12:08:05 AM EST*
%MOMM*%
G01*
G04 APERTURE LIST*
%ADD10C,0.100000*%
%ADD11C,0.152400*%
%ADD12C,0.101600*%
%ADD13C,0.150000*%
%ADD14C,0.500000*%
%ADD15C,0.300000*%
%ADD16C,0.127000*%
%ADD17R,1.800860X2.499360*%
%ADD18R,1.198880X1.198880*%
%ADD19R,1.150620X1.399540*%
%ADD20R,2.032000X1.727200*%
%ADD21O,2.032000X1.727200*%
%ADD22R,1.727200X2.032000*%
%ADD23O,1.727200X2.032000*%
%ADD24R,2.032000X2.032000*%
%ADD25O,2.032000X2.032000*%
%ADD26R,0.800100X0.800100*%
%ADD27R,0.250000X0.700000*%
%ADD28R,0.700000X0.250000*%
%ADD29R,1.725000X1.725000*%
%ADD30C,1.501140*%
%ADD31R,0.400000X1.350000*%
%ADD32R,1.600000X1.400000*%
%ADD33R,1.900000X1.900000*%
%ADD34C,1.600000*%
%ADD35C,1.500000*%
%ADD36R,2.100000X1.400000*%
G04 APERTURE END LIST*
D10*
D11*
X113949514Y-82718728D02*
X113187514Y-82718728D01*
X113731800Y-82464728D01*
X113187514Y-82210728D01*
X113949514Y-82210728D01*
X113949514Y-81847871D02*
X113187514Y-81847871D01*
X113913229Y-81521300D02*
X113949514Y-81412443D01*
X113949514Y-81231014D01*
X113913229Y-81158443D01*
X113876943Y-81122157D01*
X113804371Y-81085872D01*
X113731800Y-81085872D01*
X113659229Y-81122157D01*
X113622943Y-81158443D01*
X113586657Y-81231014D01*
X113550371Y-81376157D01*
X113514086Y-81448729D01*
X113477800Y-81485014D01*
X113405229Y-81521300D01*
X113332657Y-81521300D01*
X113260086Y-81485014D01*
X113223800Y-81448729D01*
X113187514Y-81376157D01*
X113187514Y-81194729D01*
X113223800Y-81085872D01*
X113187514Y-80614158D02*
X113187514Y-80469015D01*
X113223800Y-80396443D01*
X113296371Y-80323872D01*
X113441514Y-80287586D01*
X113695514Y-80287586D01*
X113840657Y-80323872D01*
X113913229Y-80396443D01*
X113949514Y-80469015D01*
X113949514Y-80614158D01*
X113913229Y-80686729D01*
X113840657Y-80759300D01*
X113695514Y-80795586D01*
X113441514Y-80795586D01*
X113296371Y-80759300D01*
X113223800Y-80686729D01*
X113187514Y-80614158D01*
X111790514Y-82782228D02*
X111028514Y-82782228D01*
X111572800Y-82528228D01*
X111028514Y-82274228D01*
X111790514Y-82274228D01*
X111028514Y-81766229D02*
X111028514Y-81621086D01*
X111064800Y-81548514D01*
X111137371Y-81475943D01*
X111282514Y-81439657D01*
X111536514Y-81439657D01*
X111681657Y-81475943D01*
X111754229Y-81548514D01*
X111790514Y-81621086D01*
X111790514Y-81766229D01*
X111754229Y-81838800D01*
X111681657Y-81911371D01*
X111536514Y-81947657D01*
X111282514Y-81947657D01*
X111137371Y-81911371D01*
X111064800Y-81838800D01*
X111028514Y-81766229D01*
X111754229Y-81149371D02*
X111790514Y-81040514D01*
X111790514Y-80859085D01*
X111754229Y-80786514D01*
X111717943Y-80750228D01*
X111645371Y-80713943D01*
X111572800Y-80713943D01*
X111500229Y-80750228D01*
X111463943Y-80786514D01*
X111427657Y-80859085D01*
X111391371Y-81004228D01*
X111355086Y-81076800D01*
X111318800Y-81113085D01*
X111246229Y-81149371D01*
X111173657Y-81149371D01*
X111101086Y-81113085D01*
X111064800Y-81076800D01*
X111028514Y-81004228D01*
X111028514Y-80822800D01*
X111064800Y-80713943D01*
X111790514Y-80387371D02*
X111028514Y-80387371D01*
X113114942Y-84324371D02*
X113006085Y-84288086D01*
X112824656Y-84288086D01*
X112752085Y-84324371D01*
X112715799Y-84360657D01*
X112679514Y-84433229D01*
X112679514Y-84505800D01*
X112715799Y-84578371D01*
X112752085Y-84614657D01*
X112824656Y-84650943D01*
X112969799Y-84687229D01*
X113042371Y-84723514D01*
X113078656Y-84759800D01*
X113114942Y-84832371D01*
X113114942Y-84904943D01*
X113078656Y-84977514D01*
X113042371Y-85013800D01*
X112969799Y-85050086D01*
X112788371Y-85050086D01*
X112679514Y-85013800D01*
X112352942Y-84288086D02*
X112352942Y-85050086D01*
X112062657Y-85050086D01*
X111990085Y-85013800D01*
X111953800Y-84977514D01*
X111917514Y-84904943D01*
X111917514Y-84796086D01*
X111953800Y-84723514D01*
X111990085Y-84687229D01*
X112062657Y-84650943D01*
X112352942Y-84650943D01*
X111590942Y-84288086D02*
X111590942Y-85050086D01*
X110683800Y-84324371D02*
X110574943Y-84288086D01*
X110393514Y-84288086D01*
X110320943Y-84324371D01*
X110284657Y-84360657D01*
X110248372Y-84433229D01*
X110248372Y-84505800D01*
X110284657Y-84578371D01*
X110320943Y-84614657D01*
X110393514Y-84650943D01*
X110538657Y-84687229D01*
X110611229Y-84723514D01*
X110647514Y-84759800D01*
X110683800Y-84832371D01*
X110683800Y-84904943D01*
X110647514Y-84977514D01*
X110611229Y-85013800D01*
X110538657Y-85050086D01*
X110357229Y-85050086D01*
X110248372Y-85013800D01*
X109921800Y-84687229D02*
X109667800Y-84687229D01*
X109558943Y-84288086D02*
X109921800Y-84288086D01*
X109921800Y-85050086D01*
X109558943Y-85050086D01*
X109232371Y-84288086D02*
X109232371Y-85050086D01*
X108796943Y-84288086D01*
X108796943Y-85050086D01*
X108470371Y-84324371D02*
X108361514Y-84288086D01*
X108180085Y-84288086D01*
X108107514Y-84324371D01*
X108071228Y-84360657D01*
X108034943Y-84433229D01*
X108034943Y-84505800D01*
X108071228Y-84578371D01*
X108107514Y-84614657D01*
X108180085Y-84650943D01*
X108325228Y-84687229D01*
X108397800Y-84723514D01*
X108434085Y-84759800D01*
X108470371Y-84832371D01*
X108470371Y-84904943D01*
X108434085Y-84977514D01*
X108397800Y-85013800D01*
X108325228Y-85050086D01*
X108143800Y-85050086D01*
X108034943Y-85013800D01*
X107563229Y-85050086D02*
X107418086Y-85050086D01*
X107345514Y-85013800D01*
X107272943Y-84941229D01*
X107236657Y-84796086D01*
X107236657Y-84542086D01*
X107272943Y-84396943D01*
X107345514Y-84324371D01*
X107418086Y-84288086D01*
X107563229Y-84288086D01*
X107635800Y-84324371D01*
X107708371Y-84396943D01*
X107744657Y-84542086D01*
X107744657Y-84796086D01*
X107708371Y-84941229D01*
X107635800Y-85013800D01*
X107563229Y-85050086D01*
X106474657Y-84288086D02*
X106728657Y-84650943D01*
X106910085Y-84288086D02*
X106910085Y-85050086D01*
X106619800Y-85050086D01*
X106547228Y-85013800D01*
X106510943Y-84977514D01*
X106474657Y-84904943D01*
X106474657Y-84796086D01*
X106510943Y-84723514D01*
X106547228Y-84687229D01*
X106619800Y-84650943D01*
X106910085Y-84650943D01*
X106554486Y-88838314D02*
X106554486Y-88402886D01*
X106554486Y-88620600D02*
X107316486Y-88620600D01*
X107207629Y-88548029D01*
X107135057Y-88475457D01*
X107098771Y-88402886D01*
X106275086Y-109537500D02*
X106637943Y-109283500D01*
X106275086Y-109102072D02*
X107037086Y-109102072D01*
X107037086Y-109392357D01*
X107000800Y-109464929D01*
X106964514Y-109501214D01*
X106891943Y-109537500D01*
X106783086Y-109537500D01*
X106710514Y-109501214D01*
X106674229Y-109464929D01*
X106637943Y-109392357D01*
X106637943Y-109102072D01*
X107037086Y-109791500D02*
X106275086Y-110299500D01*
X107037086Y-110299500D02*
X106275086Y-109791500D01*
X107062486Y-102632329D02*
X107062486Y-103067758D01*
X106300486Y-102850044D02*
X107062486Y-102850044D01*
X107062486Y-103249186D02*
X106300486Y-103757186D01*
X107062486Y-103757186D02*
X106300486Y-103249186D01*
X107265686Y-104459315D02*
X106648829Y-104459315D01*
X106576257Y-104495600D01*
X106539971Y-104531886D01*
X106503686Y-104604457D01*
X106503686Y-104749600D01*
X106539971Y-104822172D01*
X106576257Y-104858457D01*
X106648829Y-104894743D01*
X107265686Y-104894743D01*
X106539971Y-105221315D02*
X106503686Y-105330172D01*
X106503686Y-105511601D01*
X106539971Y-105584172D01*
X106576257Y-105620458D01*
X106648829Y-105656743D01*
X106721400Y-105656743D01*
X106793971Y-105620458D01*
X106830257Y-105584172D01*
X106866543Y-105511601D01*
X106902829Y-105366458D01*
X106939114Y-105293886D01*
X106975400Y-105257601D01*
X107047971Y-105221315D01*
X107120543Y-105221315D01*
X107193114Y-105257601D01*
X107229400Y-105293886D01*
X107265686Y-105366458D01*
X107265686Y-105547886D01*
X107229400Y-105656743D01*
X106721400Y-105947029D02*
X106721400Y-106309886D01*
X106503686Y-105874457D02*
X107265686Y-106128457D01*
X106503686Y-106382457D01*
X106503686Y-107071886D02*
X106866543Y-106817886D01*
X106503686Y-106636458D02*
X107265686Y-106636458D01*
X107265686Y-106926743D01*
X107229400Y-106999315D01*
X107193114Y-107035600D01*
X107120543Y-107071886D01*
X107011686Y-107071886D01*
X106939114Y-107035600D01*
X106902829Y-106999315D01*
X106866543Y-106926743D01*
X106866543Y-106636458D01*
X107265686Y-107289600D02*
X107265686Y-107725029D01*
X106503686Y-107507315D02*
X107265686Y-107507315D01*
X106503686Y-108378171D02*
X106503686Y-107942743D01*
X106503686Y-108160457D02*
X107265686Y-108160457D01*
X107156829Y-108087886D01*
X107084257Y-108015314D01*
X107047971Y-107942743D01*
X145766643Y-119474343D02*
X145802929Y-119510629D01*
X145839214Y-119619486D01*
X145839214Y-119692057D01*
X145802929Y-119800914D01*
X145730357Y-119873486D01*
X145657786Y-119909771D01*
X145512643Y-119946057D01*
X145403786Y-119946057D01*
X145258643Y-119909771D01*
X145186071Y-119873486D01*
X145113500Y-119800914D01*
X145077214Y-119692057D01*
X145077214Y-119619486D01*
X145113500Y-119510629D01*
X145149786Y-119474343D01*
X145077214Y-119002629D02*
X145077214Y-118857486D01*
X145113500Y-118784914D01*
X145186071Y-118712343D01*
X145331214Y-118676057D01*
X145585214Y-118676057D01*
X145730357Y-118712343D01*
X145802929Y-118784914D01*
X145839214Y-118857486D01*
X145839214Y-119002629D01*
X145802929Y-119075200D01*
X145730357Y-119147771D01*
X145585214Y-119184057D01*
X145331214Y-119184057D01*
X145186071Y-119147771D01*
X145113500Y-119075200D01*
X145077214Y-119002629D01*
X145839214Y-118349485D02*
X145077214Y-118349485D01*
X145621500Y-118095485D01*
X145077214Y-117841485D01*
X145839214Y-117841485D01*
X145839214Y-117478628D02*
X145077214Y-117478628D01*
X145621500Y-117224628D01*
X145077214Y-116970628D01*
X145839214Y-116970628D01*
X147058414Y-119909771D02*
X146296414Y-119909771D01*
X147058414Y-119546914D02*
X146296414Y-119546914D01*
X147058414Y-119111486D01*
X146296414Y-119111486D01*
X147058414Y-118748628D02*
X146296414Y-118748628D01*
X146296414Y-118458343D01*
X146332700Y-118385771D01*
X146368986Y-118349486D01*
X146441557Y-118313200D01*
X146550414Y-118313200D01*
X146622986Y-118349486D01*
X146659271Y-118385771D01*
X146695557Y-118458343D01*
X146695557Y-118748628D01*
X146296414Y-117986628D02*
X146913271Y-117986628D01*
X146985843Y-117950343D01*
X147022129Y-117914057D01*
X147058414Y-117841486D01*
X147058414Y-117696343D01*
X147022129Y-117623771D01*
X146985843Y-117587486D01*
X146913271Y-117551200D01*
X146296414Y-117551200D01*
X146296414Y-117297200D02*
X146296414Y-116861771D01*
X147058414Y-117079485D02*
X146296414Y-117079485D01*
X136559143Y-119360043D02*
X136595429Y-119396329D01*
X136631714Y-119505186D01*
X136631714Y-119577757D01*
X136595429Y-119686614D01*
X136522857Y-119759186D01*
X136450286Y-119795471D01*
X136305143Y-119831757D01*
X136196286Y-119831757D01*
X136051143Y-119795471D01*
X135978571Y-119759186D01*
X135906000Y-119686614D01*
X135869714Y-119577757D01*
X135869714Y-119505186D01*
X135906000Y-119396329D01*
X135942286Y-119360043D01*
X135869714Y-118888329D02*
X135869714Y-118743186D01*
X135906000Y-118670614D01*
X135978571Y-118598043D01*
X136123714Y-118561757D01*
X136377714Y-118561757D01*
X136522857Y-118598043D01*
X136595429Y-118670614D01*
X136631714Y-118743186D01*
X136631714Y-118888329D01*
X136595429Y-118960900D01*
X136522857Y-119033471D01*
X136377714Y-119069757D01*
X136123714Y-119069757D01*
X135978571Y-119033471D01*
X135906000Y-118960900D01*
X135869714Y-118888329D01*
X136631714Y-118235185D02*
X135869714Y-118235185D01*
X136414000Y-117981185D01*
X135869714Y-117727185D01*
X136631714Y-117727185D01*
X136631714Y-117364328D02*
X135869714Y-117364328D01*
X136414000Y-117110328D01*
X135869714Y-116856328D01*
X136631714Y-116856328D01*
X137088914Y-119650329D02*
X137088914Y-119505186D01*
X137125200Y-119432614D01*
X137197771Y-119360043D01*
X137342914Y-119323757D01*
X137596914Y-119323757D01*
X137742057Y-119360043D01*
X137814629Y-119432614D01*
X137850914Y-119505186D01*
X137850914Y-119650329D01*
X137814629Y-119722900D01*
X137742057Y-119795471D01*
X137596914Y-119831757D01*
X137342914Y-119831757D01*
X137197771Y-119795471D01*
X137125200Y-119722900D01*
X137088914Y-119650329D01*
X137088914Y-118997185D02*
X137705771Y-118997185D01*
X137778343Y-118960900D01*
X137814629Y-118924614D01*
X137850914Y-118852043D01*
X137850914Y-118706900D01*
X137814629Y-118634328D01*
X137778343Y-118598043D01*
X137705771Y-118561757D01*
X137088914Y-118561757D01*
X137088914Y-118307757D02*
X137088914Y-117872328D01*
X137850914Y-118090042D02*
X137088914Y-118090042D01*
X137850914Y-117618328D02*
X137088914Y-117618328D01*
X137088914Y-117328043D01*
X137125200Y-117255471D01*
X137161486Y-117219186D01*
X137234057Y-117182900D01*
X137342914Y-117182900D01*
X137415486Y-117219186D01*
X137451771Y-117255471D01*
X137488057Y-117328043D01*
X137488057Y-117618328D01*
X137088914Y-116856328D02*
X137705771Y-116856328D01*
X137778343Y-116820043D01*
X137814629Y-116783757D01*
X137850914Y-116711186D01*
X137850914Y-116566043D01*
X137814629Y-116493471D01*
X137778343Y-116457186D01*
X137705771Y-116420900D01*
X137088914Y-116420900D01*
X137088914Y-116166900D02*
X137088914Y-115731471D01*
X137850914Y-115949185D02*
X137088914Y-115949185D01*
X131725886Y-100801714D02*
X131471886Y-100438857D01*
X131290458Y-100801714D02*
X131290458Y-100039714D01*
X131580743Y-100039714D01*
X131653315Y-100076000D01*
X131689600Y-100112286D01*
X131725886Y-100184857D01*
X131725886Y-100293714D01*
X131689600Y-100366286D01*
X131653315Y-100402571D01*
X131580743Y-100438857D01*
X131290458Y-100438857D01*
X132052458Y-100402571D02*
X132306458Y-100402571D01*
X132415315Y-100801714D02*
X132052458Y-100801714D01*
X132052458Y-100039714D01*
X132415315Y-100039714D01*
X132705601Y-100765429D02*
X132814458Y-100801714D01*
X132995887Y-100801714D01*
X133068458Y-100765429D01*
X133104744Y-100729143D01*
X133141029Y-100656571D01*
X133141029Y-100584000D01*
X133104744Y-100511429D01*
X133068458Y-100475143D01*
X132995887Y-100438857D01*
X132850744Y-100402571D01*
X132778172Y-100366286D01*
X132741887Y-100330000D01*
X132705601Y-100257429D01*
X132705601Y-100184857D01*
X132741887Y-100112286D01*
X132778172Y-100076000D01*
X132850744Y-100039714D01*
X133032172Y-100039714D01*
X133141029Y-100076000D01*
X133467601Y-100402571D02*
X133721601Y-100402571D01*
X133830458Y-100801714D02*
X133467601Y-100801714D01*
X133467601Y-100039714D01*
X133830458Y-100039714D01*
X134048172Y-100039714D02*
X134483601Y-100039714D01*
X134265887Y-100801714D02*
X134265887Y-100039714D01*
X138240985Y-80211386D02*
X138240985Y-80973386D01*
X137950700Y-80973386D01*
X137878128Y-80937100D01*
X137841843Y-80900814D01*
X137805557Y-80828243D01*
X137805557Y-80719386D01*
X137841843Y-80646814D01*
X137878128Y-80610529D01*
X137950700Y-80574243D01*
X138240985Y-80574243D01*
X137551557Y-80973386D02*
X137370128Y-80211386D01*
X137224985Y-80755671D01*
X137079843Y-80211386D01*
X136898414Y-80973386D01*
X136172700Y-80211386D02*
X136426700Y-80574243D01*
X136608128Y-80211386D02*
X136608128Y-80973386D01*
X136317843Y-80973386D01*
X136245271Y-80937100D01*
X136208986Y-80900814D01*
X136172700Y-80828243D01*
X136172700Y-80719386D01*
X136208986Y-80646814D01*
X136245271Y-80610529D01*
X136317843Y-80574243D01*
X136608128Y-80574243D01*
X135265557Y-80211386D02*
X135265557Y-80973386D01*
X134902700Y-80211386D02*
X134902700Y-80973386D01*
X134467272Y-80211386D01*
X134467272Y-80973386D01*
X134104414Y-80211386D02*
X134104414Y-80973386D01*
X133814129Y-80973386D01*
X133741557Y-80937100D01*
X133705272Y-80900814D01*
X133668986Y-80828243D01*
X133668986Y-80719386D01*
X133705272Y-80646814D01*
X133741557Y-80610529D01*
X133814129Y-80574243D01*
X134104414Y-80574243D01*
X133342414Y-80973386D02*
X133342414Y-80356529D01*
X133306129Y-80283957D01*
X133269843Y-80247671D01*
X133197272Y-80211386D01*
X133052129Y-80211386D01*
X132979557Y-80247671D01*
X132943272Y-80283957D01*
X132906986Y-80356529D01*
X132906986Y-80973386D01*
X132652986Y-80973386D02*
X132217557Y-80973386D01*
X132435271Y-80211386D02*
X132435271Y-80973386D01*
D12*
X147450300Y-86162242D02*
X147450300Y-85799385D01*
X147668014Y-86234814D02*
X146906014Y-85980814D01*
X147668014Y-85726814D01*
X147668014Y-85073671D02*
X147668014Y-85509099D01*
X147668014Y-85291385D02*
X146906014Y-85291385D01*
X147014871Y-85363956D01*
X147087443Y-85436528D01*
X147123729Y-85509099D01*
X146906014Y-84601957D02*
X146906014Y-84529385D01*
X146942300Y-84456814D01*
X146978586Y-84420528D01*
X147051157Y-84384242D01*
X147196300Y-84347957D01*
X147377729Y-84347957D01*
X147522871Y-84384242D01*
X147595443Y-84420528D01*
X147631729Y-84456814D01*
X147668014Y-84529385D01*
X147668014Y-84601957D01*
X147631729Y-84674528D01*
X147595443Y-84710814D01*
X147522871Y-84747099D01*
X147377729Y-84783385D01*
X147196300Y-84783385D01*
X147051157Y-84747099D01*
X146978586Y-84710814D01*
X146942300Y-84674528D01*
X146906014Y-84601957D01*
X147463000Y-88326685D02*
X147463000Y-87963828D01*
X147680714Y-88399257D02*
X146918714Y-88145257D01*
X147680714Y-87891257D01*
X147680714Y-87600971D02*
X147680714Y-87455828D01*
X147644429Y-87383256D01*
X147608143Y-87346971D01*
X147499286Y-87274399D01*
X147354143Y-87238114D01*
X147063857Y-87238114D01*
X146991286Y-87274399D01*
X146955000Y-87310685D01*
X146918714Y-87383256D01*
X146918714Y-87528399D01*
X146955000Y-87600971D01*
X146991286Y-87637256D01*
X147063857Y-87673542D01*
X147245286Y-87673542D01*
X147317857Y-87637256D01*
X147354143Y-87600971D01*
X147390429Y-87528399D01*
X147390429Y-87383256D01*
X147354143Y-87310685D01*
X147317857Y-87274399D01*
X147245286Y-87238114D01*
X147871214Y-91254942D02*
X147109214Y-91254942D01*
X147653500Y-91000942D01*
X147109214Y-90746942D01*
X147871214Y-90746942D01*
X147798643Y-89948657D02*
X147834929Y-89984943D01*
X147871214Y-90093800D01*
X147871214Y-90166371D01*
X147834929Y-90275228D01*
X147762357Y-90347800D01*
X147689786Y-90384085D01*
X147544643Y-90420371D01*
X147435786Y-90420371D01*
X147290643Y-90384085D01*
X147218071Y-90347800D01*
X147145500Y-90275228D01*
X147109214Y-90166371D01*
X147109214Y-90093800D01*
X147145500Y-89984943D01*
X147181786Y-89948657D01*
X147109214Y-89476943D02*
X147109214Y-89331800D01*
X147145500Y-89259228D01*
X147218071Y-89186657D01*
X147363214Y-89150371D01*
X147617214Y-89150371D01*
X147762357Y-89186657D01*
X147834929Y-89259228D01*
X147871214Y-89331800D01*
X147871214Y-89476943D01*
X147834929Y-89549514D01*
X147762357Y-89622085D01*
X147617214Y-89658371D01*
X147363214Y-89658371D01*
X147218071Y-89622085D01*
X147145500Y-89549514D01*
X147109214Y-89476943D01*
X147433971Y-93609885D02*
X147470257Y-93501028D01*
X147506543Y-93464743D01*
X147579114Y-93428457D01*
X147687971Y-93428457D01*
X147760543Y-93464743D01*
X147796829Y-93501028D01*
X147833114Y-93573600D01*
X147833114Y-93863885D01*
X147071114Y-93863885D01*
X147071114Y-93609885D01*
X147107400Y-93537314D01*
X147143686Y-93501028D01*
X147216257Y-93464743D01*
X147288829Y-93464743D01*
X147361400Y-93501028D01*
X147397686Y-93537314D01*
X147433971Y-93609885D01*
X147433971Y-93863885D01*
X147833114Y-92702743D02*
X147833114Y-93138171D01*
X147833114Y-92920457D02*
X147071114Y-92920457D01*
X147179971Y-92993028D01*
X147252543Y-93065600D01*
X147288829Y-93138171D01*
X147071114Y-92013314D02*
X147071114Y-92376171D01*
X147433971Y-92412457D01*
X147397686Y-92376171D01*
X147361400Y-92303600D01*
X147361400Y-92122171D01*
X147397686Y-92049600D01*
X147433971Y-92013314D01*
X147506543Y-91977029D01*
X147687971Y-91977029D01*
X147760543Y-92013314D01*
X147796829Y-92049600D01*
X147833114Y-92122171D01*
X147833114Y-92303600D01*
X147796829Y-92376171D01*
X147760543Y-92412457D01*
X147459371Y-96010185D02*
X147495657Y-95901328D01*
X147531943Y-95865043D01*
X147604514Y-95828757D01*
X147713371Y-95828757D01*
X147785943Y-95865043D01*
X147822229Y-95901328D01*
X147858514Y-95973900D01*
X147858514Y-96264185D01*
X147096514Y-96264185D01*
X147096514Y-96010185D01*
X147132800Y-95937614D01*
X147169086Y-95901328D01*
X147241657Y-95865043D01*
X147314229Y-95865043D01*
X147386800Y-95901328D01*
X147423086Y-95937614D01*
X147459371Y-96010185D01*
X147459371Y-96264185D01*
X147858514Y-95103043D02*
X147858514Y-95538471D01*
X147858514Y-95320757D02*
X147096514Y-95320757D01*
X147205371Y-95393328D01*
X147277943Y-95465900D01*
X147314229Y-95538471D01*
X147350514Y-94449900D02*
X147858514Y-94449900D01*
X147060229Y-94631329D02*
X147604514Y-94812757D01*
X147604514Y-94341043D01*
X147484771Y-98512085D02*
X147521057Y-98403228D01*
X147557343Y-98366943D01*
X147629914Y-98330657D01*
X147738771Y-98330657D01*
X147811343Y-98366943D01*
X147847629Y-98403228D01*
X147883914Y-98475800D01*
X147883914Y-98766085D01*
X147121914Y-98766085D01*
X147121914Y-98512085D01*
X147158200Y-98439514D01*
X147194486Y-98403228D01*
X147267057Y-98366943D01*
X147339629Y-98366943D01*
X147412200Y-98403228D01*
X147448486Y-98439514D01*
X147484771Y-98512085D01*
X147484771Y-98766085D01*
X147883914Y-97604943D02*
X147883914Y-98040371D01*
X147883914Y-97822657D02*
X147121914Y-97822657D01*
X147230771Y-97895228D01*
X147303343Y-97967800D01*
X147339629Y-98040371D01*
X147121914Y-97350943D02*
X147121914Y-96879229D01*
X147412200Y-97133229D01*
X147412200Y-97024371D01*
X147448486Y-96951800D01*
X147484771Y-96915514D01*
X147557343Y-96879229D01*
X147738771Y-96879229D01*
X147811343Y-96915514D01*
X147847629Y-96951800D01*
X147883914Y-97024371D01*
X147883914Y-97242086D01*
X147847629Y-97314657D01*
X147811343Y-97350943D01*
X147395871Y-101039385D02*
X147432157Y-100930528D01*
X147468443Y-100894243D01*
X147541014Y-100857957D01*
X147649871Y-100857957D01*
X147722443Y-100894243D01*
X147758729Y-100930528D01*
X147795014Y-101003100D01*
X147795014Y-101293385D01*
X147033014Y-101293385D01*
X147033014Y-101039385D01*
X147069300Y-100966814D01*
X147105586Y-100930528D01*
X147178157Y-100894243D01*
X147250729Y-100894243D01*
X147323300Y-100930528D01*
X147359586Y-100966814D01*
X147395871Y-101039385D01*
X147395871Y-101293385D01*
X147795014Y-100132243D02*
X147795014Y-100567671D01*
X147795014Y-100349957D02*
X147033014Y-100349957D01*
X147141871Y-100422528D01*
X147214443Y-100495100D01*
X147250729Y-100567671D01*
X147105586Y-99841957D02*
X147069300Y-99805671D01*
X147033014Y-99733100D01*
X147033014Y-99551671D01*
X147069300Y-99479100D01*
X147105586Y-99442814D01*
X147178157Y-99406529D01*
X147250729Y-99406529D01*
X147359586Y-99442814D01*
X147795014Y-99878243D01*
X147795014Y-99406529D01*
X147357771Y-103604785D02*
X147394057Y-103495928D01*
X147430343Y-103459643D01*
X147502914Y-103423357D01*
X147611771Y-103423357D01*
X147684343Y-103459643D01*
X147720629Y-103495928D01*
X147756914Y-103568500D01*
X147756914Y-103858785D01*
X146994914Y-103858785D01*
X146994914Y-103604785D01*
X147031200Y-103532214D01*
X147067486Y-103495928D01*
X147140057Y-103459643D01*
X147212629Y-103459643D01*
X147285200Y-103495928D01*
X147321486Y-103532214D01*
X147357771Y-103604785D01*
X147357771Y-103858785D01*
X147756914Y-102697643D02*
X147756914Y-103133071D01*
X147756914Y-102915357D02*
X146994914Y-102915357D01*
X147103771Y-102987928D01*
X147176343Y-103060500D01*
X147212629Y-103133071D01*
X147756914Y-101971929D02*
X147756914Y-102407357D01*
X147756914Y-102189643D02*
X146994914Y-102189643D01*
X147103771Y-102262214D01*
X147176343Y-102334786D01*
X147212629Y-102407357D01*
X147433971Y-106093985D02*
X147470257Y-105985128D01*
X147506543Y-105948843D01*
X147579114Y-105912557D01*
X147687971Y-105912557D01*
X147760543Y-105948843D01*
X147796829Y-105985128D01*
X147833114Y-106057700D01*
X147833114Y-106347985D01*
X147071114Y-106347985D01*
X147071114Y-106093985D01*
X147107400Y-106021414D01*
X147143686Y-105985128D01*
X147216257Y-105948843D01*
X147288829Y-105948843D01*
X147361400Y-105985128D01*
X147397686Y-106021414D01*
X147433971Y-106093985D01*
X147433971Y-106347985D01*
X147833114Y-105186843D02*
X147833114Y-105622271D01*
X147833114Y-105404557D02*
X147071114Y-105404557D01*
X147179971Y-105477128D01*
X147252543Y-105549700D01*
X147288829Y-105622271D01*
X147071114Y-104715129D02*
X147071114Y-104642557D01*
X147107400Y-104569986D01*
X147143686Y-104533700D01*
X147216257Y-104497414D01*
X147361400Y-104461129D01*
X147542829Y-104461129D01*
X147687971Y-104497414D01*
X147760543Y-104533700D01*
X147796829Y-104569986D01*
X147833114Y-104642557D01*
X147833114Y-104715129D01*
X147796829Y-104787700D01*
X147760543Y-104823986D01*
X147687971Y-104860271D01*
X147542829Y-104896557D01*
X147361400Y-104896557D01*
X147216257Y-104860271D01*
X147143686Y-104823986D01*
X147107400Y-104787700D01*
X147071114Y-104715129D01*
X147586371Y-108207628D02*
X147622657Y-108098771D01*
X147658943Y-108062486D01*
X147731514Y-108026200D01*
X147840371Y-108026200D01*
X147912943Y-108062486D01*
X147949229Y-108098771D01*
X147985514Y-108171343D01*
X147985514Y-108461628D01*
X147223514Y-108461628D01*
X147223514Y-108207628D01*
X147259800Y-108135057D01*
X147296086Y-108098771D01*
X147368657Y-108062486D01*
X147441229Y-108062486D01*
X147513800Y-108098771D01*
X147550086Y-108135057D01*
X147586371Y-108207628D01*
X147586371Y-108461628D01*
X147296086Y-107735914D02*
X147259800Y-107699628D01*
X147223514Y-107627057D01*
X147223514Y-107445628D01*
X147259800Y-107373057D01*
X147296086Y-107336771D01*
X147368657Y-107300486D01*
X147441229Y-107300486D01*
X147550086Y-107336771D01*
X147985514Y-107772200D01*
X147985514Y-107300486D01*
X132047015Y-121881900D02*
X132409872Y-121881900D01*
X131974443Y-122099614D02*
X132228443Y-121337614D01*
X132482443Y-122099614D01*
X132663872Y-121337614D02*
X133171872Y-121337614D01*
X132845301Y-122099614D01*
X129545115Y-121945400D02*
X129907972Y-121945400D01*
X129472543Y-122163114D02*
X129726543Y-121401114D01*
X129980543Y-122163114D01*
X130561115Y-121401114D02*
X130415972Y-121401114D01*
X130343401Y-121437400D01*
X130307115Y-121473686D01*
X130234544Y-121582543D01*
X130198258Y-121727686D01*
X130198258Y-122017971D01*
X130234544Y-122090543D01*
X130270829Y-122126829D01*
X130343401Y-122163114D01*
X130488544Y-122163114D01*
X130561115Y-122126829D01*
X130597401Y-122090543D01*
X130633686Y-122017971D01*
X130633686Y-121836543D01*
X130597401Y-121763971D01*
X130561115Y-121727686D01*
X130488544Y-121691400D01*
X130343401Y-121691400D01*
X130270829Y-121727686D01*
X130234544Y-121763971D01*
X130198258Y-121836543D01*
X126954315Y-122034300D02*
X127317172Y-122034300D01*
X126881743Y-122252014D02*
X127135743Y-121490014D01*
X127389743Y-122252014D01*
X128006601Y-121490014D02*
X127643744Y-121490014D01*
X127607458Y-121852871D01*
X127643744Y-121816586D01*
X127716315Y-121780300D01*
X127897744Y-121780300D01*
X127970315Y-121816586D01*
X128006601Y-121852871D01*
X128042886Y-121925443D01*
X128042886Y-122106871D01*
X128006601Y-122179443D01*
X127970315Y-122215729D01*
X127897744Y-122252014D01*
X127716315Y-122252014D01*
X127643744Y-122215729D01*
X127607458Y-122179443D01*
X124350815Y-122034300D02*
X124713672Y-122034300D01*
X124278243Y-122252014D02*
X124532243Y-121490014D01*
X124786243Y-122252014D01*
X125366815Y-121744014D02*
X125366815Y-122252014D01*
X125185386Y-121453729D02*
X125003958Y-121998014D01*
X125475672Y-121998014D01*
X121988615Y-122021600D02*
X122351472Y-122021600D01*
X121916043Y-122239314D02*
X122170043Y-121477314D01*
X122424043Y-122239314D01*
X122823186Y-121477314D02*
X122895758Y-121477314D01*
X122968329Y-121513600D01*
X123004615Y-121549886D01*
X123040901Y-121622457D01*
X123077186Y-121767600D01*
X123077186Y-121949029D01*
X123040901Y-122094171D01*
X123004615Y-122166743D01*
X122968329Y-122203029D01*
X122895758Y-122239314D01*
X122823186Y-122239314D01*
X122750615Y-122203029D01*
X122714329Y-122166743D01*
X122678044Y-122094171D01*
X122641758Y-121949029D01*
X122641758Y-121767600D01*
X122678044Y-121622457D01*
X122714329Y-121549886D01*
X122750615Y-121513600D01*
X122823186Y-121477314D01*
X119439543Y-122230243D02*
X119403257Y-122266529D01*
X119294400Y-122302814D01*
X119221829Y-122302814D01*
X119112972Y-122266529D01*
X119040400Y-122193957D01*
X119004115Y-122121386D01*
X118967829Y-121976243D01*
X118967829Y-121867386D01*
X119004115Y-121722243D01*
X119040400Y-121649671D01*
X119112972Y-121577100D01*
X119221829Y-121540814D01*
X119294400Y-121540814D01*
X119403257Y-121577100D01*
X119439543Y-121613386D01*
X120165257Y-122302814D02*
X119729829Y-122302814D01*
X119947543Y-122302814D02*
X119947543Y-121540814D01*
X119874972Y-121649671D01*
X119802400Y-121722243D01*
X119729829Y-121758529D01*
X120854686Y-121540814D02*
X120491829Y-121540814D01*
X120455543Y-121903671D01*
X120491829Y-121867386D01*
X120564400Y-121831100D01*
X120745829Y-121831100D01*
X120818400Y-121867386D01*
X120854686Y-121903671D01*
X120890971Y-121976243D01*
X120890971Y-122157671D01*
X120854686Y-122230243D01*
X120818400Y-122266529D01*
X120745829Y-122302814D01*
X120564400Y-122302814D01*
X120491829Y-122266529D01*
X120455543Y-122230243D01*
X116963043Y-122293743D02*
X116926757Y-122330029D01*
X116817900Y-122366314D01*
X116745329Y-122366314D01*
X116636472Y-122330029D01*
X116563900Y-122257457D01*
X116527615Y-122184886D01*
X116491329Y-122039743D01*
X116491329Y-121930886D01*
X116527615Y-121785743D01*
X116563900Y-121713171D01*
X116636472Y-121640600D01*
X116745329Y-121604314D01*
X116817900Y-121604314D01*
X116926757Y-121640600D01*
X116963043Y-121676886D01*
X117688757Y-122366314D02*
X117253329Y-122366314D01*
X117471043Y-122366314D02*
X117471043Y-121604314D01*
X117398472Y-121713171D01*
X117325900Y-121785743D01*
X117253329Y-121822029D01*
X118341900Y-121858314D02*
X118341900Y-122366314D01*
X118160471Y-121568029D02*
X117979043Y-122112314D01*
X118450757Y-122112314D01*
X114283343Y-122293743D02*
X114247057Y-122330029D01*
X114138200Y-122366314D01*
X114065629Y-122366314D01*
X113956772Y-122330029D01*
X113884200Y-122257457D01*
X113847915Y-122184886D01*
X113811629Y-122039743D01*
X113811629Y-121930886D01*
X113847915Y-121785743D01*
X113884200Y-121713171D01*
X113956772Y-121640600D01*
X114065629Y-121604314D01*
X114138200Y-121604314D01*
X114247057Y-121640600D01*
X114283343Y-121676886D01*
X115009057Y-122366314D02*
X114573629Y-122366314D01*
X114791343Y-122366314D02*
X114791343Y-121604314D01*
X114718772Y-121713171D01*
X114646200Y-121785743D01*
X114573629Y-121822029D01*
X115263057Y-121604314D02*
X115734771Y-121604314D01*
X115480771Y-121894600D01*
X115589629Y-121894600D01*
X115662200Y-121930886D01*
X115698486Y-121967171D01*
X115734771Y-122039743D01*
X115734771Y-122221171D01*
X115698486Y-122293743D01*
X115662200Y-122330029D01*
X115589629Y-122366314D01*
X115371914Y-122366314D01*
X115299343Y-122330029D01*
X115263057Y-122293743D01*
X111797772Y-121865571D02*
X111906629Y-121901857D01*
X111942914Y-121938143D01*
X111979200Y-122010714D01*
X111979200Y-122119571D01*
X111942914Y-122192143D01*
X111906629Y-122228429D01*
X111834057Y-122264714D01*
X111543772Y-122264714D01*
X111543772Y-121502714D01*
X111797772Y-121502714D01*
X111870343Y-121539000D01*
X111906629Y-121575286D01*
X111942914Y-121647857D01*
X111942914Y-121720429D01*
X111906629Y-121793000D01*
X111870343Y-121829286D01*
X111797772Y-121865571D01*
X111543772Y-121865571D01*
X112342057Y-122264714D02*
X112487200Y-122264714D01*
X112559772Y-122228429D01*
X112596057Y-122192143D01*
X112668629Y-122083286D01*
X112704914Y-121938143D01*
X112704914Y-121647857D01*
X112668629Y-121575286D01*
X112632343Y-121539000D01*
X112559772Y-121502714D01*
X112414629Y-121502714D01*
X112342057Y-121539000D01*
X112305772Y-121575286D01*
X112269486Y-121647857D01*
X112269486Y-121829286D01*
X112305772Y-121901857D01*
X112342057Y-121938143D01*
X112414629Y-121974429D01*
X112559772Y-121974429D01*
X112632343Y-121938143D01*
X112668629Y-121901857D01*
X112704914Y-121829286D01*
X109194272Y-121903671D02*
X109303129Y-121939957D01*
X109339414Y-121976243D01*
X109375700Y-122048814D01*
X109375700Y-122157671D01*
X109339414Y-122230243D01*
X109303129Y-122266529D01*
X109230557Y-122302814D01*
X108940272Y-122302814D01*
X108940272Y-121540814D01*
X109194272Y-121540814D01*
X109266843Y-121577100D01*
X109303129Y-121613386D01*
X109339414Y-121685957D01*
X109339414Y-121758529D01*
X109303129Y-121831100D01*
X109266843Y-121867386D01*
X109194272Y-121903671D01*
X108940272Y-121903671D01*
X109811129Y-121867386D02*
X109738557Y-121831100D01*
X109702272Y-121794814D01*
X109665986Y-121722243D01*
X109665986Y-121685957D01*
X109702272Y-121613386D01*
X109738557Y-121577100D01*
X109811129Y-121540814D01*
X109956272Y-121540814D01*
X110028843Y-121577100D01*
X110065129Y-121613386D01*
X110101414Y-121685957D01*
X110101414Y-121722243D01*
X110065129Y-121794814D01*
X110028843Y-121831100D01*
X109956272Y-121867386D01*
X109811129Y-121867386D01*
X109738557Y-121903671D01*
X109702272Y-121939957D01*
X109665986Y-122012529D01*
X109665986Y-122157671D01*
X109702272Y-122230243D01*
X109738557Y-122266529D01*
X109811129Y-122302814D01*
X109956272Y-122302814D01*
X110028843Y-122266529D01*
X110065129Y-122230243D01*
X110101414Y-122157671D01*
X110101414Y-122012529D01*
X110065129Y-121939957D01*
X110028843Y-121903671D01*
X109956272Y-121867386D01*
D11*
X144973800Y-99716772D02*
X144937514Y-99789343D01*
X144937514Y-99898200D01*
X144973800Y-100007057D01*
X145046371Y-100079629D01*
X145118943Y-100115914D01*
X145264086Y-100152200D01*
X145372943Y-100152200D01*
X145518086Y-100115914D01*
X145590657Y-100079629D01*
X145663229Y-100007057D01*
X145699514Y-99898200D01*
X145699514Y-99825629D01*
X145663229Y-99716772D01*
X145626943Y-99680486D01*
X145372943Y-99680486D01*
X145372943Y-99825629D01*
X145699514Y-99353914D02*
X144937514Y-99353914D01*
X144937514Y-99063629D01*
X144973800Y-98991057D01*
X145010086Y-98954772D01*
X145082657Y-98918486D01*
X145191514Y-98918486D01*
X145264086Y-98954772D01*
X145300371Y-98991057D01*
X145336657Y-99063629D01*
X145336657Y-99353914D01*
X145699514Y-98591914D02*
X144937514Y-98591914D01*
X144937514Y-98083915D02*
X144937514Y-97938772D01*
X144973800Y-97866200D01*
X145046371Y-97793629D01*
X145191514Y-97757343D01*
X145445514Y-97757343D01*
X145590657Y-97793629D01*
X145663229Y-97866200D01*
X145699514Y-97938772D01*
X145699514Y-98083915D01*
X145663229Y-98156486D01*
X145590657Y-98229057D01*
X145445514Y-98265343D01*
X145191514Y-98265343D01*
X145046371Y-98229057D01*
X144973800Y-98156486D01*
X144937514Y-98083915D01*
X145699514Y-96850200D02*
X144937514Y-96850200D01*
X145300371Y-96850200D02*
X145300371Y-96414772D01*
X145699514Y-96414772D02*
X144937514Y-96414772D01*
X145300371Y-96051914D02*
X145300371Y-95797914D01*
X145699514Y-95689057D02*
X145699514Y-96051914D01*
X144937514Y-96051914D01*
X144937514Y-95689057D01*
X145481800Y-95398771D02*
X145481800Y-95035914D01*
X145699514Y-95471343D02*
X144937514Y-95217343D01*
X145699514Y-94963343D01*
X145699514Y-94709342D02*
X144937514Y-94709342D01*
X144937514Y-94527914D01*
X144973800Y-94419057D01*
X145046371Y-94346485D01*
X145118943Y-94310200D01*
X145264086Y-94273914D01*
X145372943Y-94273914D01*
X145518086Y-94310200D01*
X145590657Y-94346485D01*
X145663229Y-94419057D01*
X145699514Y-94527914D01*
X145699514Y-94709342D01*
X145300371Y-93947342D02*
X145300371Y-93693342D01*
X145699514Y-93584485D02*
X145699514Y-93947342D01*
X144937514Y-93947342D01*
X144937514Y-93584485D01*
X145699514Y-92822485D02*
X145336657Y-93076485D01*
X145699514Y-93257913D02*
X144937514Y-93257913D01*
X144937514Y-92967628D01*
X144973800Y-92895056D01*
X145010086Y-92858771D01*
X145082657Y-92822485D01*
X145191514Y-92822485D01*
X145264086Y-92858771D01*
X145300371Y-92895056D01*
X145336657Y-92967628D01*
X145336657Y-93257913D01*
X145010086Y-91951628D02*
X144973800Y-91915342D01*
X144937514Y-91842771D01*
X144937514Y-91661342D01*
X144973800Y-91588771D01*
X145010086Y-91552485D01*
X145082657Y-91516200D01*
X145155229Y-91516200D01*
X145264086Y-91552485D01*
X145699514Y-91987914D01*
X145699514Y-91516200D01*
X118713828Y-119989600D02*
X118641257Y-119953314D01*
X118532400Y-119953314D01*
X118423543Y-119989600D01*
X118350971Y-120062171D01*
X118314686Y-120134743D01*
X118278400Y-120279886D01*
X118278400Y-120388743D01*
X118314686Y-120533886D01*
X118350971Y-120606457D01*
X118423543Y-120679029D01*
X118532400Y-120715314D01*
X118604971Y-120715314D01*
X118713828Y-120679029D01*
X118750114Y-120642743D01*
X118750114Y-120388743D01*
X118604971Y-120388743D01*
X119076686Y-120715314D02*
X119076686Y-119953314D01*
X119366971Y-119953314D01*
X119439543Y-119989600D01*
X119475828Y-120025886D01*
X119512114Y-120098457D01*
X119512114Y-120207314D01*
X119475828Y-120279886D01*
X119439543Y-120316171D01*
X119366971Y-120352457D01*
X119076686Y-120352457D01*
X119838686Y-120715314D02*
X119838686Y-119953314D01*
X120346685Y-119953314D02*
X120491828Y-119953314D01*
X120564400Y-119989600D01*
X120636971Y-120062171D01*
X120673257Y-120207314D01*
X120673257Y-120461314D01*
X120636971Y-120606457D01*
X120564400Y-120679029D01*
X120491828Y-120715314D01*
X120346685Y-120715314D01*
X120274114Y-120679029D01*
X120201543Y-120606457D01*
X120165257Y-120461314D01*
X120165257Y-120207314D01*
X120201543Y-120062171D01*
X120274114Y-119989600D01*
X120346685Y-119953314D01*
X121580400Y-120715314D02*
X121580400Y-119953314D01*
X121580400Y-120316171D02*
X122015828Y-120316171D01*
X122015828Y-120715314D02*
X122015828Y-119953314D01*
X122378686Y-120316171D02*
X122632686Y-120316171D01*
X122741543Y-120715314D02*
X122378686Y-120715314D01*
X122378686Y-119953314D01*
X122741543Y-119953314D01*
X123031829Y-120497600D02*
X123394686Y-120497600D01*
X122959257Y-120715314D02*
X123213257Y-119953314D01*
X123467257Y-120715314D01*
X123721258Y-120715314D02*
X123721258Y-119953314D01*
X123902686Y-119953314D01*
X124011543Y-119989600D01*
X124084115Y-120062171D01*
X124120400Y-120134743D01*
X124156686Y-120279886D01*
X124156686Y-120388743D01*
X124120400Y-120533886D01*
X124084115Y-120606457D01*
X124011543Y-120679029D01*
X123902686Y-120715314D01*
X123721258Y-120715314D01*
X124483258Y-120316171D02*
X124737258Y-120316171D01*
X124846115Y-120715314D02*
X124483258Y-120715314D01*
X124483258Y-119953314D01*
X124846115Y-119953314D01*
X125608115Y-120715314D02*
X125354115Y-120352457D01*
X125172687Y-120715314D02*
X125172687Y-119953314D01*
X125462972Y-119953314D01*
X125535544Y-119989600D01*
X125571829Y-120025886D01*
X125608115Y-120098457D01*
X125608115Y-120207314D01*
X125571829Y-120279886D01*
X125535544Y-120316171D01*
X125462972Y-120352457D01*
X125172687Y-120352457D01*
X126914400Y-120715314D02*
X126478972Y-120715314D01*
X126696686Y-120715314D02*
X126696686Y-119953314D01*
X126624115Y-120062171D01*
X126551543Y-120134743D01*
X126478972Y-120171029D01*
X106813929Y-113931701D02*
X106777643Y-114040558D01*
X106741357Y-114076843D01*
X106668786Y-114113129D01*
X106559929Y-114113129D01*
X106487357Y-114076843D01*
X106451071Y-114040558D01*
X106414786Y-113967986D01*
X106414786Y-113677701D01*
X107176786Y-113677701D01*
X107176786Y-113931701D01*
X107140500Y-114004272D01*
X107104214Y-114040558D01*
X107031643Y-114076843D01*
X106959071Y-114076843D01*
X106886500Y-114040558D01*
X106850214Y-114004272D01*
X106813929Y-113931701D01*
X106813929Y-113677701D01*
X107176786Y-114584843D02*
X107176786Y-114729986D01*
X107140500Y-114802558D01*
X107067929Y-114875129D01*
X106922786Y-114911415D01*
X106668786Y-114911415D01*
X106523643Y-114875129D01*
X106451071Y-114802558D01*
X106414786Y-114729986D01*
X106414786Y-114584843D01*
X106451071Y-114512272D01*
X106523643Y-114439701D01*
X106668786Y-114403415D01*
X106922786Y-114403415D01*
X107067929Y-114439701D01*
X107140500Y-114512272D01*
X107176786Y-114584843D01*
X107176786Y-115383129D02*
X107176786Y-115528272D01*
X107140500Y-115600844D01*
X107067929Y-115673415D01*
X106922786Y-115709701D01*
X106668786Y-115709701D01*
X106523643Y-115673415D01*
X106451071Y-115600844D01*
X106414786Y-115528272D01*
X106414786Y-115383129D01*
X106451071Y-115310558D01*
X106523643Y-115237987D01*
X106668786Y-115201701D01*
X106922786Y-115201701D01*
X107067929Y-115237987D01*
X107140500Y-115310558D01*
X107176786Y-115383129D01*
X107176786Y-115927415D02*
X107176786Y-116362844D01*
X106414786Y-116145130D02*
X107176786Y-116145130D01*
X107176786Y-116761986D02*
X107176786Y-116834558D01*
X107140500Y-116907129D01*
X107104214Y-116943415D01*
X107031643Y-116979701D01*
X106886500Y-117015986D01*
X106705071Y-117015986D01*
X106559929Y-116979701D01*
X106487357Y-116943415D01*
X106451071Y-116907129D01*
X106414786Y-116834558D01*
X106414786Y-116761986D01*
X106451071Y-116689415D01*
X106487357Y-116653129D01*
X106559929Y-116616844D01*
X106705071Y-116580558D01*
X106886500Y-116580558D01*
X107031643Y-116616844D01*
X107104214Y-116653129D01*
X107140500Y-116689415D01*
X107176786Y-116761986D01*
X145946256Y-80312986D02*
X145946256Y-81074986D01*
X145619685Y-81002414D02*
X145583399Y-81038700D01*
X145510828Y-81074986D01*
X145329399Y-81074986D01*
X145256828Y-81038700D01*
X145220542Y-81002414D01*
X145184257Y-80929843D01*
X145184257Y-80857271D01*
X145220542Y-80748414D01*
X145655971Y-80312986D01*
X145184257Y-80312986D01*
X144422257Y-80385557D02*
X144458543Y-80349271D01*
X144567400Y-80312986D01*
X144639971Y-80312986D01*
X144748828Y-80349271D01*
X144821400Y-80421843D01*
X144857685Y-80494414D01*
X144893971Y-80639557D01*
X144893971Y-80748414D01*
X144857685Y-80893557D01*
X144821400Y-80966129D01*
X144748828Y-81038700D01*
X144639971Y-81074986D01*
X144567400Y-81074986D01*
X144458543Y-81038700D01*
X144422257Y-81002414D01*
X143551400Y-80349271D02*
X143442543Y-80312986D01*
X143261114Y-80312986D01*
X143188543Y-80349271D01*
X143152257Y-80385557D01*
X143115972Y-80458129D01*
X143115972Y-80530700D01*
X143152257Y-80603271D01*
X143188543Y-80639557D01*
X143261114Y-80675843D01*
X143406257Y-80712129D01*
X143478829Y-80748414D01*
X143515114Y-80784700D01*
X143551400Y-80857271D01*
X143551400Y-80929843D01*
X143515114Y-81002414D01*
X143478829Y-81038700D01*
X143406257Y-81074986D01*
X143224829Y-81074986D01*
X143115972Y-81038700D01*
X142789400Y-80712129D02*
X142535400Y-80712129D01*
X142426543Y-80312986D02*
X142789400Y-80312986D01*
X142789400Y-81074986D01*
X142426543Y-81074986D01*
X142099971Y-80312986D02*
X142099971Y-81074986D01*
X141664543Y-80312986D01*
X141664543Y-81074986D01*
X141337971Y-80349271D02*
X141229114Y-80312986D01*
X141047685Y-80312986D01*
X140975114Y-80349271D01*
X140938828Y-80385557D01*
X140902543Y-80458129D01*
X140902543Y-80530700D01*
X140938828Y-80603271D01*
X140975114Y-80639557D01*
X141047685Y-80675843D01*
X141192828Y-80712129D01*
X141265400Y-80748414D01*
X141301685Y-80784700D01*
X141337971Y-80857271D01*
X141337971Y-80929843D01*
X141301685Y-81002414D01*
X141265400Y-81038700D01*
X141192828Y-81074986D01*
X141011400Y-81074986D01*
X140902543Y-81038700D01*
X140430829Y-81074986D02*
X140285686Y-81074986D01*
X140213114Y-81038700D01*
X140140543Y-80966129D01*
X140104257Y-80820986D01*
X140104257Y-80566986D01*
X140140543Y-80421843D01*
X140213114Y-80349271D01*
X140285686Y-80312986D01*
X140430829Y-80312986D01*
X140503400Y-80349271D01*
X140575971Y-80421843D01*
X140612257Y-80566986D01*
X140612257Y-80820986D01*
X140575971Y-80966129D01*
X140503400Y-81038700D01*
X140430829Y-81074986D01*
X139342257Y-80312986D02*
X139596257Y-80675843D01*
X139777685Y-80312986D02*
X139777685Y-81074986D01*
X139487400Y-81074986D01*
X139414828Y-81038700D01*
X139378543Y-81002414D01*
X139342257Y-80929843D01*
X139342257Y-80820986D01*
X139378543Y-80748414D01*
X139414828Y-80712129D01*
X139487400Y-80675843D01*
X139777685Y-80675843D01*
X106275086Y-90650786D02*
X107037086Y-90650786D01*
X107037086Y-90941071D01*
X107000800Y-91013643D01*
X106964514Y-91049928D01*
X106891943Y-91086214D01*
X106783086Y-91086214D01*
X106710514Y-91049928D01*
X106674229Y-91013643D01*
X106637943Y-90941071D01*
X106637943Y-90650786D01*
X106275086Y-91848214D02*
X106637943Y-91594214D01*
X106275086Y-91412786D02*
X107037086Y-91412786D01*
X107037086Y-91703071D01*
X107000800Y-91775643D01*
X106964514Y-91811928D01*
X106891943Y-91848214D01*
X106783086Y-91848214D01*
X106710514Y-91811928D01*
X106674229Y-91775643D01*
X106637943Y-91703071D01*
X106637943Y-91412786D01*
X107037086Y-92319928D02*
X107037086Y-92465071D01*
X107000800Y-92537643D01*
X106928229Y-92610214D01*
X106783086Y-92646500D01*
X106529086Y-92646500D01*
X106383943Y-92610214D01*
X106311371Y-92537643D01*
X106275086Y-92465071D01*
X106275086Y-92319928D01*
X106311371Y-92247357D01*
X106383943Y-92174786D01*
X106529086Y-92138500D01*
X106783086Y-92138500D01*
X106928229Y-92174786D01*
X107000800Y-92247357D01*
X107037086Y-92319928D01*
X107000800Y-93372214D02*
X107037086Y-93299643D01*
X107037086Y-93190786D01*
X107000800Y-93081929D01*
X106928229Y-93009357D01*
X106855657Y-92973072D01*
X106710514Y-92936786D01*
X106601657Y-92936786D01*
X106456514Y-92973072D01*
X106383943Y-93009357D01*
X106311371Y-93081929D01*
X106275086Y-93190786D01*
X106275086Y-93263357D01*
X106311371Y-93372214D01*
X106347657Y-93408500D01*
X106601657Y-93408500D01*
X106601657Y-93263357D01*
X106275086Y-94170500D02*
X106637943Y-93916500D01*
X106275086Y-93735072D02*
X107037086Y-93735072D01*
X107037086Y-94025357D01*
X107000800Y-94097929D01*
X106964514Y-94134214D01*
X106891943Y-94170500D01*
X106783086Y-94170500D01*
X106710514Y-94134214D01*
X106674229Y-94097929D01*
X106637943Y-94025357D01*
X106637943Y-93735072D01*
X106492800Y-94460786D02*
X106492800Y-94823643D01*
X106275086Y-94388214D02*
X107037086Y-94642214D01*
X106275086Y-94896214D01*
X106275086Y-95150215D02*
X107037086Y-95150215D01*
X106492800Y-95404215D01*
X107037086Y-95658215D01*
X106275086Y-95658215D01*
X106275086Y-96021072D02*
X107037086Y-96021072D01*
X106492800Y-96275072D01*
X107037086Y-96529072D01*
X106275086Y-96529072D01*
X106275086Y-96891929D02*
X107037086Y-96891929D01*
X106275086Y-97254786D02*
X107037086Y-97254786D01*
X106275086Y-97690214D01*
X107037086Y-97690214D01*
X107000800Y-98452214D02*
X107037086Y-98379643D01*
X107037086Y-98270786D01*
X107000800Y-98161929D01*
X106928229Y-98089357D01*
X106855657Y-98053072D01*
X106710514Y-98016786D01*
X106601657Y-98016786D01*
X106456514Y-98053072D01*
X106383943Y-98089357D01*
X106311371Y-98161929D01*
X106275086Y-98270786D01*
X106275086Y-98343357D01*
X106311371Y-98452214D01*
X106347657Y-98488500D01*
X106601657Y-98488500D01*
X106601657Y-98343357D01*
D13*
X140281660Y-86584340D02*
X139931140Y-86584340D01*
X136781540Y-86584340D02*
X137132060Y-86584340D01*
X140281660Y-82534760D02*
X139931140Y-82534760D01*
X140281660Y-87035640D02*
X139931140Y-87035640D01*
X136781540Y-87035640D02*
X137132060Y-87035640D01*
X136781540Y-82534760D02*
X137132060Y-82534760D01*
X140281660Y-87035640D02*
X140281660Y-82534760D01*
X136781540Y-87035640D02*
X136781540Y-82534760D01*
X136217660Y-86584340D02*
X135867140Y-86584340D01*
X132717540Y-86584340D02*
X133068060Y-86584340D01*
X136217660Y-82534760D02*
X135867140Y-82534760D01*
X136217660Y-87035640D02*
X135867140Y-87035640D01*
X132717540Y-87035640D02*
X133068060Y-87035640D01*
X132717540Y-82534760D02*
X133068060Y-82534760D01*
X136217660Y-87035640D02*
X136217660Y-82534760D01*
X132717540Y-87035640D02*
X132717540Y-82534760D01*
X115285520Y-84190840D02*
X115610640Y-84190840D01*
X115610640Y-84190840D02*
X115610640Y-84691220D01*
X115285520Y-84691220D02*
X115610640Y-84691220D01*
X115285520Y-84190840D02*
X115285520Y-84691220D01*
X114663220Y-84190840D02*
X114813080Y-84190840D01*
X114813080Y-84190840D02*
X114813080Y-84442300D01*
X114663220Y-84442300D02*
X114813080Y-84442300D01*
X114663220Y-84190840D02*
X114663220Y-84442300D01*
X115158520Y-84190840D02*
X115308380Y-84190840D01*
X115308380Y-84190840D02*
X115308380Y-84442300D01*
X115158520Y-84442300D02*
X115308380Y-84442300D01*
X115158520Y-84190840D02*
X115158520Y-84442300D01*
X114787680Y-84190840D02*
X115183920Y-84190840D01*
X115183920Y-84190840D02*
X115183920Y-84366100D01*
X114787680Y-84366100D02*
X115183920Y-84366100D01*
X114787680Y-84190840D02*
X114787680Y-84366100D01*
X115285520Y-82694780D02*
X115610640Y-82694780D01*
X115610640Y-82694780D02*
X115610640Y-83195160D01*
X115285520Y-83195160D02*
X115610640Y-83195160D01*
X115285520Y-82694780D02*
X115285520Y-83195160D01*
X114360960Y-82694780D02*
X114686080Y-82694780D01*
X114686080Y-82694780D02*
X114686080Y-83195160D01*
X114360960Y-83195160D02*
X114686080Y-83195160D01*
X114360960Y-82694780D02*
X114360960Y-83195160D01*
X115158520Y-82943700D02*
X115308380Y-82943700D01*
X115308380Y-82943700D02*
X115308380Y-83195160D01*
X115158520Y-83195160D02*
X115308380Y-83195160D01*
X115158520Y-82943700D02*
X115158520Y-83195160D01*
X114663220Y-82943700D02*
X114813080Y-82943700D01*
X114813080Y-82943700D02*
X114813080Y-83195160D01*
X114663220Y-83195160D02*
X114813080Y-83195160D01*
X114663220Y-82943700D02*
X114663220Y-83195160D01*
X114787680Y-83019900D02*
X115183920Y-83019900D01*
X115183920Y-83019900D02*
X115183920Y-83195160D01*
X114787680Y-83195160D02*
X115183920Y-83195160D01*
X114787680Y-83019900D02*
X114787680Y-83195160D01*
X114886740Y-83693000D02*
X115084860Y-83693000D01*
X115084860Y-83693000D02*
X115084860Y-83891120D01*
X114886740Y-83891120D02*
X115084860Y-83891120D01*
X114886740Y-83693000D02*
X114886740Y-83891120D01*
X114386360Y-84190840D02*
X114686080Y-84190840D01*
X114686080Y-84190840D02*
X114686080Y-84490560D01*
X114386360Y-84490560D02*
X114686080Y-84490560D01*
X114386360Y-84190840D02*
X114386360Y-84490560D01*
X114360960Y-84617560D02*
X114587020Y-84617560D01*
X114587020Y-84617560D02*
X114587020Y-84691220D01*
X114360960Y-84691220D02*
X114587020Y-84691220D01*
X114360960Y-84617560D02*
X114360960Y-84691220D01*
X115559840Y-84216240D02*
X115559840Y-83169760D01*
X114411760Y-83195160D02*
X114411760Y-84617560D01*
X114608062Y-84541360D02*
G75*
G03X114608062Y-84541360I-71842J0D01*
G01*
X114637820Y-84691220D02*
G75*
G02X115333780Y-84691220I347980J0D01*
G01*
X115333780Y-82694780D02*
G75*
G02X114637820Y-82694780I-347980J0D01*
G01*
X116987320Y-84216240D02*
X117312440Y-84216240D01*
X117312440Y-84216240D02*
X117312440Y-84716620D01*
X116987320Y-84716620D02*
X117312440Y-84716620D01*
X116987320Y-84216240D02*
X116987320Y-84716620D01*
X116365020Y-84216240D02*
X116514880Y-84216240D01*
X116514880Y-84216240D02*
X116514880Y-84467700D01*
X116365020Y-84467700D02*
X116514880Y-84467700D01*
X116365020Y-84216240D02*
X116365020Y-84467700D01*
X116860320Y-84216240D02*
X117010180Y-84216240D01*
X117010180Y-84216240D02*
X117010180Y-84467700D01*
X116860320Y-84467700D02*
X117010180Y-84467700D01*
X116860320Y-84216240D02*
X116860320Y-84467700D01*
X116489480Y-84216240D02*
X116885720Y-84216240D01*
X116885720Y-84216240D02*
X116885720Y-84391500D01*
X116489480Y-84391500D02*
X116885720Y-84391500D01*
X116489480Y-84216240D02*
X116489480Y-84391500D01*
X116987320Y-82720180D02*
X117312440Y-82720180D01*
X117312440Y-82720180D02*
X117312440Y-83220560D01*
X116987320Y-83220560D02*
X117312440Y-83220560D01*
X116987320Y-82720180D02*
X116987320Y-83220560D01*
X116062760Y-82720180D02*
X116387880Y-82720180D01*
X116387880Y-82720180D02*
X116387880Y-83220560D01*
X116062760Y-83220560D02*
X116387880Y-83220560D01*
X116062760Y-82720180D02*
X116062760Y-83220560D01*
X116860320Y-82969100D02*
X117010180Y-82969100D01*
X117010180Y-82969100D02*
X117010180Y-83220560D01*
X116860320Y-83220560D02*
X117010180Y-83220560D01*
X116860320Y-82969100D02*
X116860320Y-83220560D01*
X116365020Y-82969100D02*
X116514880Y-82969100D01*
X116514880Y-82969100D02*
X116514880Y-83220560D01*
X116365020Y-83220560D02*
X116514880Y-83220560D01*
X116365020Y-82969100D02*
X116365020Y-83220560D01*
X116489480Y-83045300D02*
X116885720Y-83045300D01*
X116885720Y-83045300D02*
X116885720Y-83220560D01*
X116489480Y-83220560D02*
X116885720Y-83220560D01*
X116489480Y-83045300D02*
X116489480Y-83220560D01*
X116588540Y-83718400D02*
X116786660Y-83718400D01*
X116786660Y-83718400D02*
X116786660Y-83916520D01*
X116588540Y-83916520D02*
X116786660Y-83916520D01*
X116588540Y-83718400D02*
X116588540Y-83916520D01*
X116088160Y-84216240D02*
X116387880Y-84216240D01*
X116387880Y-84216240D02*
X116387880Y-84515960D01*
X116088160Y-84515960D02*
X116387880Y-84515960D01*
X116088160Y-84216240D02*
X116088160Y-84515960D01*
X116062760Y-84642960D02*
X116288820Y-84642960D01*
X116288820Y-84642960D02*
X116288820Y-84716620D01*
X116062760Y-84716620D02*
X116288820Y-84716620D01*
X116062760Y-84642960D02*
X116062760Y-84716620D01*
X117261640Y-84241640D02*
X117261640Y-83195160D01*
X116113560Y-83220560D02*
X116113560Y-84642960D01*
X116309862Y-84566760D02*
G75*
G03X116309862Y-84566760I-71842J0D01*
G01*
X116339620Y-84716620D02*
G75*
G02X117035580Y-84716620I347980J0D01*
G01*
X117035580Y-82720180D02*
G75*
G02X116339620Y-82720180I-347980J0D01*
G01*
X132146040Y-85679280D02*
X127746760Y-85679280D01*
X132146040Y-83281520D02*
X127845820Y-83281520D01*
X148971000Y-106476800D02*
X148971000Y-83616800D01*
X148971000Y-83616800D02*
X151511000Y-83616800D01*
X151511000Y-83616800D02*
X151511000Y-106476800D01*
X148691000Y-109296800D02*
X148691000Y-107746800D01*
X148971000Y-106476800D02*
X151511000Y-106476800D01*
X151791000Y-107746800D02*
X151791000Y-109296800D01*
X151791000Y-109296800D02*
X148691000Y-109296800D01*
X110998000Y-122936000D02*
X133858000Y-122936000D01*
X133858000Y-122936000D02*
X133858000Y-125476000D01*
X133858000Y-125476000D02*
X110998000Y-125476000D01*
X108178000Y-122656000D02*
X109728000Y-122656000D01*
X110998000Y-122936000D02*
X110998000Y-125476000D01*
X109728000Y-125756000D02*
X108178000Y-125756000D01*
X108178000Y-125756000D02*
X108178000Y-122656000D01*
X117856000Y-76962000D02*
X110236000Y-76962000D01*
X117856000Y-79502000D02*
X110236000Y-79502000D01*
X120676000Y-79782000D02*
X119126000Y-79782000D01*
X110236000Y-76962000D02*
X110236000Y-79502000D01*
X117856000Y-79502000D02*
X117856000Y-76962000D01*
X119126000Y-76682000D02*
X120676000Y-76682000D01*
X120676000Y-76682000D02*
X120676000Y-79782000D01*
X142230600Y-79590900D02*
X139690600Y-79590900D01*
X145050600Y-79870900D02*
X143500600Y-79870900D01*
X142230600Y-79590900D02*
X142230600Y-77050900D01*
X143500600Y-76770900D02*
X145050600Y-76770900D01*
X145050600Y-76770900D02*
X145050600Y-79870900D01*
X142230600Y-77050900D02*
X139690600Y-77050900D01*
X139690600Y-77050900D02*
X139690600Y-79590900D01*
X137414000Y-125476000D02*
X145034000Y-125476000D01*
X137414000Y-122936000D02*
X145034000Y-122936000D01*
X134594000Y-122656000D02*
X136144000Y-122656000D01*
X145034000Y-125476000D02*
X145034000Y-122936000D01*
X137414000Y-122936000D02*
X137414000Y-125476000D01*
X136144000Y-125756000D02*
X134594000Y-125756000D01*
X134594000Y-125756000D02*
X134594000Y-122656000D01*
X105514900Y-106311700D02*
X105514900Y-108851700D01*
X105794900Y-103491700D02*
X105794900Y-105041700D01*
X105514900Y-106311700D02*
X102974900Y-106311700D01*
X102694900Y-105041700D02*
X102694900Y-103491700D01*
X102694900Y-103491700D02*
X105794900Y-103491700D01*
X102974900Y-106311700D02*
X102974900Y-108851700D01*
X102974900Y-108851700D02*
X105514900Y-108851700D01*
X105464100Y-89814400D02*
X105464100Y-102514400D01*
X105464100Y-102514400D02*
X102924100Y-102514400D01*
X102924100Y-102514400D02*
X102924100Y-89814400D01*
X105744100Y-86994400D02*
X105744100Y-88544400D01*
X105464100Y-89814400D02*
X102924100Y-89814400D01*
X102644100Y-88544400D02*
X102644100Y-86994400D01*
X102644100Y-86994400D02*
X105744100Y-86994400D01*
X102873300Y-114300000D02*
X102873300Y-119380000D01*
X102873300Y-119380000D02*
X105413300Y-119380000D01*
X105413300Y-119380000D02*
X105413300Y-114300000D01*
X105693300Y-111480000D02*
X105693300Y-113030000D01*
X105413300Y-114300000D02*
X102873300Y-114300000D01*
X102593300Y-113030000D02*
X102593300Y-111480000D01*
X102593300Y-111480000D02*
X105693300Y-111480000D01*
X135483600Y-79705200D02*
X132943600Y-79705200D01*
X138303600Y-79985200D02*
X136753600Y-79985200D01*
X135483600Y-79705200D02*
X135483600Y-77165200D01*
X136753600Y-76885200D02*
X138303600Y-76885200D01*
X138303600Y-76885200D02*
X138303600Y-79985200D01*
X135483600Y-77165200D02*
X132943600Y-77165200D01*
X132943600Y-77165200D02*
X132943600Y-79705200D01*
X119079476Y-105410000D02*
X119450707Y-105781231D01*
X124206000Y-100283476D02*
X124577231Y-100654707D01*
X129332524Y-105410000D02*
X128961293Y-105038769D01*
X124206000Y-110536524D02*
X123834769Y-110165293D01*
X119079476Y-105410000D02*
X119450707Y-105038769D01*
X124206000Y-110536524D02*
X124577231Y-110165293D01*
X129332524Y-105410000D02*
X128961293Y-105781231D01*
X124206000Y-100283476D02*
X123834769Y-100654707D01*
X119450707Y-105781231D02*
X118478435Y-106753503D01*
X126089360Y-85760560D02*
X126041100Y-85760560D01*
X123290380Y-86461600D02*
X123290380Y-85760560D01*
X123290380Y-85760560D02*
X123539300Y-85760560D01*
X126089360Y-85760560D02*
X126290020Y-85760560D01*
X126290020Y-85760560D02*
X126290020Y-86461600D01*
X114723000Y-86097200D02*
X115248000Y-86097200D01*
X119973000Y-91347200D02*
X119448000Y-91347200D01*
X119973000Y-86097200D02*
X119448000Y-86097200D01*
X114723000Y-91347200D02*
X114723000Y-90822200D01*
X119973000Y-91347200D02*
X119973000Y-90822200D01*
X119973000Y-86097200D02*
X119973000Y-86622200D01*
X114723000Y-86097200D02*
X114723000Y-86622200D01*
X120514739Y-116483251D02*
X120372851Y-116908915D01*
X120372851Y-116908915D02*
X120020825Y-117404625D01*
X120020825Y-117404625D02*
X119595161Y-117686605D01*
X119595161Y-117686605D02*
X118819267Y-117898539D01*
X118819267Y-117898539D02*
X118109826Y-117756651D01*
X118109826Y-117756651D02*
X117544070Y-117474671D01*
X117544070Y-117474671D02*
X112877929Y-112808530D01*
X112877929Y-112808530D02*
X112524107Y-112170932D01*
X112524107Y-112170932D02*
X112454061Y-111677018D01*
X112454061Y-111677018D02*
X112524107Y-111039419D01*
X112524107Y-111039419D02*
X112806087Y-110473663D01*
X112806087Y-110473663D02*
X113159909Y-110119841D01*
X113159909Y-110119841D02*
X113655619Y-109907907D01*
X113655619Y-109907907D02*
X114433310Y-109837861D01*
X114433310Y-109837861D02*
X114999066Y-109979749D01*
X114999066Y-109979749D02*
X115424730Y-110261729D01*
X115494776Y-110331775D02*
X120162713Y-114999712D01*
X120162713Y-114999712D02*
X120372851Y-115353534D01*
X120372851Y-115353534D02*
X120514739Y-115919290D01*
X120514739Y-115919290D02*
X120514739Y-116626935D01*
X115875539Y-109965381D02*
X115516328Y-109674420D01*
X115516328Y-109674420D02*
X115155322Y-109471467D01*
X115155322Y-109471467D02*
X114695533Y-109320598D01*
X114695533Y-109320598D02*
X114327342Y-109279289D01*
X114327342Y-109279289D02*
X113846001Y-109293658D01*
X113846001Y-109293658D02*
X113260488Y-109469671D01*
X113260488Y-109469671D02*
X112745021Y-109801940D01*
X112745021Y-109801940D02*
X112384015Y-110162946D01*
X112384015Y-110162946D02*
X112008640Y-110778992D01*
X112008640Y-110778992D02*
X111873937Y-111477656D01*
X111873937Y-111477656D02*
X111936798Y-112064965D01*
X111936798Y-112064965D02*
X112087667Y-112510385D01*
X112087667Y-112510385D02*
X112292416Y-112941438D01*
X112292416Y-112941438D02*
X112581581Y-113273707D01*
X117926629Y-118309835D02*
X118350497Y-118421190D01*
X118350497Y-118421190D02*
X118774365Y-118449927D01*
X118774365Y-118449927D02*
X119185661Y-118394249D01*
X119185661Y-118394249D02*
X119787338Y-118216440D01*
X119787338Y-118216440D02*
X120196838Y-117961401D01*
X120196838Y-117961401D02*
X120536292Y-117650684D01*
X120536292Y-117650684D02*
X120798515Y-117262737D01*
X120798515Y-117262737D02*
X120981712Y-116810132D01*
X120981712Y-116810132D02*
X121058942Y-116222823D01*
X121058942Y-116222823D02*
X121037390Y-115748666D01*
X121037390Y-115748666D02*
X120926035Y-115310429D01*
X120926035Y-115310429D02*
X120721285Y-114908114D01*
X120721285Y-114908114D02*
X120457265Y-114547107D01*
X112574396Y-113252154D02*
X117136367Y-117814125D01*
X117136367Y-117814125D02*
X117459656Y-118083532D01*
X117459656Y-118083532D02*
X117926629Y-118309835D01*
X115868354Y-109958196D02*
X120430325Y-114520167D01*
D14*
X138730000Y-113682000D02*
X138730000Y-110282000D01*
X138730000Y-110282000D02*
X142630000Y-110282000D01*
X142630000Y-110282000D02*
X142630000Y-119682000D01*
X142630000Y-119682000D02*
X138730000Y-119682000D01*
X138730000Y-119682000D02*
X138730000Y-116182000D01*
D15*
X138430000Y-109982000D02*
X142930000Y-109982000D01*
X142930000Y-109982000D02*
X142930000Y-119982000D01*
X142930000Y-119982000D02*
X138430000Y-119982000D01*
X138430000Y-119982000D02*
X138430000Y-109982000D01*
D14*
X151592000Y-116188000D02*
X151592000Y-119588000D01*
X151592000Y-119588000D02*
X147692000Y-119588000D01*
X147692000Y-119588000D02*
X147692000Y-110188000D01*
X147692000Y-110188000D02*
X151592000Y-110188000D01*
X151592000Y-110188000D02*
X151592000Y-113688000D01*
D15*
X151892000Y-119888000D02*
X147392000Y-119888000D01*
X147392000Y-119888000D02*
X147392000Y-109888000D01*
X147392000Y-109888000D02*
X151892000Y-109888000D01*
X151892000Y-109888000D02*
X151892000Y-119888000D01*
X135581477Y-95110300D02*
G75*
G03X135581477Y-95110300I-2418677J0D01*
G01*
X129762800Y-99510300D02*
X136562800Y-99510300D01*
X136562800Y-99510300D02*
X136562800Y-90910300D01*
X136562800Y-90910300D02*
X129762800Y-90910300D01*
X129762800Y-90910300D02*
X129762800Y-99610300D01*
D16*
X137411858Y-89308214D02*
X137411858Y-88546214D01*
X137593286Y-88546214D01*
X137702143Y-88582500D01*
X137774715Y-88655071D01*
X137811000Y-88727643D01*
X137847286Y-88872786D01*
X137847286Y-88981643D01*
X137811000Y-89126786D01*
X137774715Y-89199357D01*
X137702143Y-89271929D01*
X137593286Y-89308214D01*
X137411858Y-89308214D01*
X138101286Y-88546214D02*
X138573000Y-88546214D01*
X138319000Y-88836500D01*
X138427858Y-88836500D01*
X138500429Y-88872786D01*
X138536715Y-88909071D01*
X138573000Y-88981643D01*
X138573000Y-89163071D01*
X138536715Y-89235643D01*
X138500429Y-89271929D01*
X138427858Y-89308214D01*
X138210143Y-89308214D01*
X138137572Y-89271929D01*
X138101286Y-89235643D01*
X139044714Y-88546214D02*
X139117286Y-88546214D01*
X139189857Y-88582500D01*
X139226143Y-88618786D01*
X139262429Y-88691357D01*
X139298714Y-88836500D01*
X139298714Y-89017929D01*
X139262429Y-89163071D01*
X139226143Y-89235643D01*
X139189857Y-89271929D01*
X139117286Y-89308214D01*
X139044714Y-89308214D01*
X138972143Y-89271929D01*
X138935857Y-89235643D01*
X138899572Y-89163071D01*
X138863286Y-89017929D01*
X138863286Y-88836500D01*
X138899572Y-88691357D01*
X138935857Y-88618786D01*
X138972143Y-88582500D01*
X139044714Y-88546214D01*
X140024428Y-89308214D02*
X139589000Y-89308214D01*
X139806714Y-89308214D02*
X139806714Y-88546214D01*
X139734143Y-88655071D01*
X139661571Y-88727643D01*
X139589000Y-88763929D01*
X140837229Y-88050914D02*
X140837229Y-87288914D01*
X141272657Y-88050914D02*
X140946086Y-87615486D01*
X141272657Y-87288914D02*
X140837229Y-87724343D01*
X140893472Y-81902300D02*
X141256329Y-81902300D01*
X140820900Y-82120014D02*
X141074900Y-81358014D01*
X141328900Y-82120014D01*
X133043058Y-89333614D02*
X133043058Y-88571614D01*
X133224486Y-88571614D01*
X133333343Y-88607900D01*
X133405915Y-88680471D01*
X133442200Y-88753043D01*
X133478486Y-88898186D01*
X133478486Y-89007043D01*
X133442200Y-89152186D01*
X133405915Y-89224757D01*
X133333343Y-89297329D01*
X133224486Y-89333614D01*
X133043058Y-89333614D01*
X133732486Y-88571614D02*
X134204200Y-88571614D01*
X133950200Y-88861900D01*
X134059058Y-88861900D01*
X134131629Y-88898186D01*
X134167915Y-88934471D01*
X134204200Y-89007043D01*
X134204200Y-89188471D01*
X134167915Y-89261043D01*
X134131629Y-89297329D01*
X134059058Y-89333614D01*
X133841343Y-89333614D01*
X133768772Y-89297329D01*
X133732486Y-89261043D01*
X134675914Y-88571614D02*
X134748486Y-88571614D01*
X134821057Y-88607900D01*
X134857343Y-88644186D01*
X134893629Y-88716757D01*
X134929914Y-88861900D01*
X134929914Y-89043329D01*
X134893629Y-89188471D01*
X134857343Y-89261043D01*
X134821057Y-89297329D01*
X134748486Y-89333614D01*
X134675914Y-89333614D01*
X134603343Y-89297329D01*
X134567057Y-89261043D01*
X134530772Y-89188471D01*
X134494486Y-89043329D01*
X134494486Y-88861900D01*
X134530772Y-88716757D01*
X134567057Y-88644186D01*
X134603343Y-88607900D01*
X134675914Y-88571614D01*
X135220200Y-88644186D02*
X135256486Y-88607900D01*
X135329057Y-88571614D01*
X135510486Y-88571614D01*
X135583057Y-88607900D01*
X135619343Y-88644186D01*
X135655628Y-88716757D01*
X135655628Y-88789329D01*
X135619343Y-88898186D01*
X135183914Y-89333614D01*
X135655628Y-89333614D01*
X131705929Y-88101714D02*
X131705929Y-87339714D01*
X132141357Y-88101714D02*
X131814786Y-87666286D01*
X132141357Y-87339714D02*
X131705929Y-87775143D01*
X131812972Y-81940400D02*
X132175829Y-81940400D01*
X131740400Y-82158114D02*
X131994400Y-81396114D01*
X132248400Y-82158114D01*
X113276414Y-84943042D02*
X112514414Y-84943042D01*
X112514414Y-84761614D01*
X112550700Y-84652757D01*
X112623271Y-84580185D01*
X112695843Y-84543900D01*
X112840986Y-84507614D01*
X112949843Y-84507614D01*
X113094986Y-84543900D01*
X113167557Y-84580185D01*
X113240129Y-84652757D01*
X113276414Y-84761614D01*
X113276414Y-84943042D01*
X112514414Y-84253614D02*
X112514414Y-83781900D01*
X112804700Y-84035900D01*
X112804700Y-83927042D01*
X112840986Y-83854471D01*
X112877271Y-83818185D01*
X112949843Y-83781900D01*
X113131271Y-83781900D01*
X113203843Y-83818185D01*
X113240129Y-83854471D01*
X113276414Y-83927042D01*
X113276414Y-84144757D01*
X113240129Y-84217328D01*
X113203843Y-84253614D01*
X112514414Y-83310186D02*
X112514414Y-83237614D01*
X112550700Y-83165043D01*
X112586986Y-83128757D01*
X112659557Y-83092471D01*
X112804700Y-83056186D01*
X112986129Y-83056186D01*
X113131271Y-83092471D01*
X113203843Y-83128757D01*
X113240129Y-83165043D01*
X113276414Y-83237614D01*
X113276414Y-83310186D01*
X113240129Y-83382757D01*
X113203843Y-83419043D01*
X113131271Y-83455328D01*
X112986129Y-83491614D01*
X112804700Y-83491614D01*
X112659557Y-83455328D01*
X112586986Y-83419043D01*
X112550700Y-83382757D01*
X112514414Y-83310186D01*
X112514414Y-82802186D02*
X112514414Y-82330472D01*
X112804700Y-82584472D01*
X112804700Y-82475614D01*
X112840986Y-82403043D01*
X112877271Y-82366757D01*
X112949843Y-82330472D01*
X113131271Y-82330472D01*
X113203843Y-82366757D01*
X113240129Y-82403043D01*
X113276414Y-82475614D01*
X113276414Y-82693329D01*
X113240129Y-82765900D01*
X113203843Y-82802186D01*
X118559614Y-84968442D02*
X117797614Y-84968442D01*
X117797614Y-84787014D01*
X117833900Y-84678157D01*
X117906471Y-84605585D01*
X117979043Y-84569300D01*
X118124186Y-84533014D01*
X118233043Y-84533014D01*
X118378186Y-84569300D01*
X118450757Y-84605585D01*
X118523329Y-84678157D01*
X118559614Y-84787014D01*
X118559614Y-84968442D01*
X117797614Y-84279014D02*
X117797614Y-83807300D01*
X118087900Y-84061300D01*
X118087900Y-83952442D01*
X118124186Y-83879871D01*
X118160471Y-83843585D01*
X118233043Y-83807300D01*
X118414471Y-83807300D01*
X118487043Y-83843585D01*
X118523329Y-83879871D01*
X118559614Y-83952442D01*
X118559614Y-84170157D01*
X118523329Y-84242728D01*
X118487043Y-84279014D01*
X117797614Y-83335586D02*
X117797614Y-83263014D01*
X117833900Y-83190443D01*
X117870186Y-83154157D01*
X117942757Y-83117871D01*
X118087900Y-83081586D01*
X118269329Y-83081586D01*
X118414471Y-83117871D01*
X118487043Y-83154157D01*
X118523329Y-83190443D01*
X118559614Y-83263014D01*
X118559614Y-83335586D01*
X118523329Y-83408157D01*
X118487043Y-83444443D01*
X118414471Y-83480728D01*
X118269329Y-83517014D01*
X118087900Y-83517014D01*
X117942757Y-83480728D01*
X117870186Y-83444443D01*
X117833900Y-83408157D01*
X117797614Y-83335586D01*
X118051614Y-82428443D02*
X118559614Y-82428443D01*
X117761329Y-82609872D02*
X118305614Y-82791300D01*
X118305614Y-82319586D01*
X128398487Y-86780914D02*
X128035630Y-86780914D01*
X128035630Y-86018914D01*
X128579915Y-86018914D02*
X129051629Y-86018914D01*
X128797629Y-86309200D01*
X128906487Y-86309200D01*
X128979058Y-86345486D01*
X129015344Y-86381771D01*
X129051629Y-86454343D01*
X129051629Y-86635771D01*
X129015344Y-86708343D01*
X128979058Y-86744629D01*
X128906487Y-86780914D01*
X128688772Y-86780914D01*
X128616201Y-86744629D01*
X128579915Y-86708343D01*
X129523343Y-86018914D02*
X129595915Y-86018914D01*
X129668486Y-86055200D01*
X129704772Y-86091486D01*
X129741058Y-86164057D01*
X129777343Y-86309200D01*
X129777343Y-86490629D01*
X129741058Y-86635771D01*
X129704772Y-86708343D01*
X129668486Y-86744629D01*
X129595915Y-86780914D01*
X129523343Y-86780914D01*
X129450772Y-86744629D01*
X129414486Y-86708343D01*
X129378201Y-86635771D01*
X129341915Y-86490629D01*
X129341915Y-86309200D01*
X129378201Y-86164057D01*
X129414486Y-86091486D01*
X129450772Y-86055200D01*
X129523343Y-86018914D01*
X130503057Y-86780914D02*
X130067629Y-86780914D01*
X130285343Y-86780914D02*
X130285343Y-86018914D01*
X130212772Y-86127771D01*
X130140200Y-86200343D01*
X130067629Y-86236629D01*
X145750314Y-108412642D02*
X144988314Y-108412642D01*
X144988314Y-108122357D01*
X145024600Y-108049785D01*
X145060886Y-108013500D01*
X145133457Y-107977214D01*
X145242314Y-107977214D01*
X145314886Y-108013500D01*
X145351171Y-108049785D01*
X145387457Y-108122357D01*
X145387457Y-108412642D01*
X145750314Y-107251500D02*
X145750314Y-107686928D01*
X145750314Y-107469214D02*
X144988314Y-107469214D01*
X145097171Y-107541785D01*
X145169743Y-107614357D01*
X145206029Y-107686928D01*
X144988314Y-106779786D02*
X144988314Y-106707214D01*
X145024600Y-106634643D01*
X145060886Y-106598357D01*
X145133457Y-106562071D01*
X145278600Y-106525786D01*
X145460029Y-106525786D01*
X145605171Y-106562071D01*
X145677743Y-106598357D01*
X145714029Y-106634643D01*
X145750314Y-106707214D01*
X145750314Y-106779786D01*
X145714029Y-106852357D01*
X145677743Y-106888643D01*
X145605171Y-106924928D01*
X145460029Y-106961214D01*
X145278600Y-106961214D01*
X145133457Y-106924928D01*
X145060886Y-106888643D01*
X145024600Y-106852357D01*
X144988314Y-106779786D01*
X145750314Y-105800072D02*
X145750314Y-106235500D01*
X145750314Y-106017786D02*
X144988314Y-106017786D01*
X145097171Y-106090357D01*
X145169743Y-106162929D01*
X145206029Y-106235500D01*
X108214558Y-120626414D02*
X108214558Y-119864414D01*
X108504843Y-119864414D01*
X108577415Y-119900700D01*
X108613700Y-119936986D01*
X108649986Y-120009557D01*
X108649986Y-120118414D01*
X108613700Y-120190986D01*
X108577415Y-120227271D01*
X108504843Y-120263557D01*
X108214558Y-120263557D01*
X109375700Y-120626414D02*
X108940272Y-120626414D01*
X109157986Y-120626414D02*
X109157986Y-119864414D01*
X109085415Y-119973271D01*
X109012843Y-120045843D01*
X108940272Y-120082129D01*
X109847414Y-119864414D02*
X109919986Y-119864414D01*
X109992557Y-119900700D01*
X110028843Y-119936986D01*
X110065129Y-120009557D01*
X110101414Y-120154700D01*
X110101414Y-120336129D01*
X110065129Y-120481271D01*
X110028843Y-120553843D01*
X109992557Y-120590129D01*
X109919986Y-120626414D01*
X109847414Y-120626414D01*
X109774843Y-120590129D01*
X109738557Y-120553843D01*
X109702272Y-120481271D01*
X109665986Y-120336129D01*
X109665986Y-120154700D01*
X109702272Y-120009557D01*
X109738557Y-119936986D01*
X109774843Y-119900700D01*
X109847414Y-119864414D01*
X110391700Y-119936986D02*
X110427986Y-119900700D01*
X110500557Y-119864414D01*
X110681986Y-119864414D01*
X110754557Y-119900700D01*
X110790843Y-119936986D01*
X110827128Y-120009557D01*
X110827128Y-120082129D01*
X110790843Y-120190986D01*
X110355414Y-120626414D01*
X110827128Y-120626414D01*
X109580714Y-79507442D02*
X108818714Y-79507442D01*
X108818714Y-79217157D01*
X108855000Y-79144585D01*
X108891286Y-79108300D01*
X108963857Y-79072014D01*
X109072714Y-79072014D01*
X109145286Y-79108300D01*
X109181571Y-79144585D01*
X109217857Y-79217157D01*
X109217857Y-79507442D01*
X109580714Y-78346300D02*
X109580714Y-78781728D01*
X109580714Y-78564014D02*
X108818714Y-78564014D01*
X108927571Y-78636585D01*
X109000143Y-78709157D01*
X109036429Y-78781728D01*
X108818714Y-77874586D02*
X108818714Y-77802014D01*
X108855000Y-77729443D01*
X108891286Y-77693157D01*
X108963857Y-77656871D01*
X109109000Y-77620586D01*
X109290429Y-77620586D01*
X109435571Y-77656871D01*
X109508143Y-77693157D01*
X109544429Y-77729443D01*
X109580714Y-77802014D01*
X109580714Y-77874586D01*
X109544429Y-77947157D01*
X109508143Y-77983443D01*
X109435571Y-78019728D01*
X109290429Y-78056014D01*
X109109000Y-78056014D01*
X108963857Y-78019728D01*
X108891286Y-77983443D01*
X108855000Y-77947157D01*
X108818714Y-77874586D01*
X108818714Y-77366586D02*
X108818714Y-76894872D01*
X109109000Y-77148872D01*
X109109000Y-77040014D01*
X109145286Y-76967443D01*
X109181571Y-76931157D01*
X109254143Y-76894872D01*
X109435571Y-76894872D01*
X109508143Y-76931157D01*
X109544429Y-76967443D01*
X109580714Y-77040014D01*
X109580714Y-77257729D01*
X109544429Y-77330300D01*
X109508143Y-77366586D01*
X146169414Y-79659842D02*
X145407414Y-79659842D01*
X145407414Y-79369557D01*
X145443700Y-79296985D01*
X145479986Y-79260700D01*
X145552557Y-79224414D01*
X145661414Y-79224414D01*
X145733986Y-79260700D01*
X145770271Y-79296985D01*
X145806557Y-79369557D01*
X145806557Y-79659842D01*
X146169414Y-78498700D02*
X146169414Y-78934128D01*
X146169414Y-78716414D02*
X145407414Y-78716414D01*
X145516271Y-78788985D01*
X145588843Y-78861557D01*
X145625129Y-78934128D01*
X145407414Y-78026986D02*
X145407414Y-77954414D01*
X145443700Y-77881843D01*
X145479986Y-77845557D01*
X145552557Y-77809271D01*
X145697700Y-77772986D01*
X145879129Y-77772986D01*
X146024271Y-77809271D01*
X146096843Y-77845557D01*
X146133129Y-77881843D01*
X146169414Y-77954414D01*
X146169414Y-78026986D01*
X146133129Y-78099557D01*
X146096843Y-78135843D01*
X146024271Y-78172128D01*
X145879129Y-78208414D01*
X145697700Y-78208414D01*
X145552557Y-78172128D01*
X145479986Y-78135843D01*
X145443700Y-78099557D01*
X145407414Y-78026986D01*
X145661414Y-77119843D02*
X146169414Y-77119843D01*
X145371129Y-77301272D02*
X145915414Y-77482700D01*
X145915414Y-77010986D01*
X134757558Y-122277414D02*
X134757558Y-121515414D01*
X135047843Y-121515414D01*
X135120415Y-121551700D01*
X135156700Y-121587986D01*
X135192986Y-121660557D01*
X135192986Y-121769414D01*
X135156700Y-121841986D01*
X135120415Y-121878271D01*
X135047843Y-121914557D01*
X134757558Y-121914557D01*
X135918700Y-122277414D02*
X135483272Y-122277414D01*
X135700986Y-122277414D02*
X135700986Y-121515414D01*
X135628415Y-121624271D01*
X135555843Y-121696843D01*
X135483272Y-121733129D01*
X136390414Y-121515414D02*
X136462986Y-121515414D01*
X136535557Y-121551700D01*
X136571843Y-121587986D01*
X136608129Y-121660557D01*
X136644414Y-121805700D01*
X136644414Y-121987129D01*
X136608129Y-122132271D01*
X136571843Y-122204843D01*
X136535557Y-122241129D01*
X136462986Y-122277414D01*
X136390414Y-122277414D01*
X136317843Y-122241129D01*
X136281557Y-122204843D01*
X136245272Y-122132271D01*
X136208986Y-121987129D01*
X136208986Y-121805700D01*
X136245272Y-121660557D01*
X136281557Y-121587986D01*
X136317843Y-121551700D01*
X136390414Y-121515414D01*
X137333843Y-121515414D02*
X136970986Y-121515414D01*
X136934700Y-121878271D01*
X136970986Y-121841986D01*
X137043557Y-121805700D01*
X137224986Y-121805700D01*
X137297557Y-121841986D01*
X137333843Y-121878271D01*
X137370128Y-121950843D01*
X137370128Y-122132271D01*
X137333843Y-122204843D01*
X137297557Y-122241129D01*
X137224986Y-122277414D01*
X137043557Y-122277414D01*
X136970986Y-122241129D01*
X136934700Y-122204843D01*
X102766258Y-109996514D02*
X102766258Y-109234514D01*
X103056543Y-109234514D01*
X103129115Y-109270800D01*
X103165400Y-109307086D01*
X103201686Y-109379657D01*
X103201686Y-109488514D01*
X103165400Y-109561086D01*
X103129115Y-109597371D01*
X103056543Y-109633657D01*
X102766258Y-109633657D01*
X103927400Y-109996514D02*
X103491972Y-109996514D01*
X103709686Y-109996514D02*
X103709686Y-109234514D01*
X103637115Y-109343371D01*
X103564543Y-109415943D01*
X103491972Y-109452229D01*
X104399114Y-109234514D02*
X104471686Y-109234514D01*
X104544257Y-109270800D01*
X104580543Y-109307086D01*
X104616829Y-109379657D01*
X104653114Y-109524800D01*
X104653114Y-109706229D01*
X104616829Y-109851371D01*
X104580543Y-109923943D01*
X104544257Y-109960229D01*
X104471686Y-109996514D01*
X104399114Y-109996514D01*
X104326543Y-109960229D01*
X104290257Y-109923943D01*
X104253972Y-109851371D01*
X104217686Y-109706229D01*
X104217686Y-109524800D01*
X104253972Y-109379657D01*
X104290257Y-109307086D01*
X104326543Y-109270800D01*
X104399114Y-109234514D01*
X105306257Y-109234514D02*
X105161114Y-109234514D01*
X105088543Y-109270800D01*
X105052257Y-109307086D01*
X104979686Y-109415943D01*
X104943400Y-109561086D01*
X104943400Y-109851371D01*
X104979686Y-109923943D01*
X105015971Y-109960229D01*
X105088543Y-109996514D01*
X105233686Y-109996514D01*
X105306257Y-109960229D01*
X105342543Y-109923943D01*
X105378828Y-109851371D01*
X105378828Y-109669943D01*
X105342543Y-109597371D01*
X105306257Y-109561086D01*
X105233686Y-109524800D01*
X105088543Y-109524800D01*
X105015971Y-109561086D01*
X104979686Y-109597371D01*
X104943400Y-109669943D01*
X103159958Y-86603114D02*
X103159958Y-85841114D01*
X103450243Y-85841114D01*
X103522815Y-85877400D01*
X103559100Y-85913686D01*
X103595386Y-85986257D01*
X103595386Y-86095114D01*
X103559100Y-86167686D01*
X103522815Y-86203971D01*
X103450243Y-86240257D01*
X103159958Y-86240257D01*
X103885672Y-85913686D02*
X103921958Y-85877400D01*
X103994529Y-85841114D01*
X104175958Y-85841114D01*
X104248529Y-85877400D01*
X104284815Y-85913686D01*
X104321100Y-85986257D01*
X104321100Y-86058829D01*
X104284815Y-86167686D01*
X103849386Y-86603114D01*
X104321100Y-86603114D01*
X104792814Y-85841114D02*
X104865386Y-85841114D01*
X104937957Y-85877400D01*
X104974243Y-85913686D01*
X105010529Y-85986257D01*
X105046814Y-86131400D01*
X105046814Y-86312829D01*
X105010529Y-86457971D01*
X104974243Y-86530543D01*
X104937957Y-86566829D01*
X104865386Y-86603114D01*
X104792814Y-86603114D01*
X104720243Y-86566829D01*
X104683957Y-86530543D01*
X104647672Y-86457971D01*
X104611386Y-86312829D01*
X104611386Y-86131400D01*
X104647672Y-85986257D01*
X104683957Y-85913686D01*
X104720243Y-85877400D01*
X104792814Y-85841114D01*
X105772528Y-86603114D02*
X105337100Y-86603114D01*
X105554814Y-86603114D02*
X105554814Y-85841114D01*
X105482243Y-85949971D01*
X105409671Y-86022543D01*
X105337100Y-86058829D01*
X102728158Y-111126814D02*
X102728158Y-110364814D01*
X103018443Y-110364814D01*
X103091015Y-110401100D01*
X103127300Y-110437386D01*
X103163586Y-110509957D01*
X103163586Y-110618814D01*
X103127300Y-110691386D01*
X103091015Y-110727671D01*
X103018443Y-110763957D01*
X102728158Y-110763957D01*
X103453872Y-110437386D02*
X103490158Y-110401100D01*
X103562729Y-110364814D01*
X103744158Y-110364814D01*
X103816729Y-110401100D01*
X103853015Y-110437386D01*
X103889300Y-110509957D01*
X103889300Y-110582529D01*
X103853015Y-110691386D01*
X103417586Y-111126814D01*
X103889300Y-111126814D01*
X104361014Y-110364814D02*
X104433586Y-110364814D01*
X104506157Y-110401100D01*
X104542443Y-110437386D01*
X104578729Y-110509957D01*
X104615014Y-110655100D01*
X104615014Y-110836529D01*
X104578729Y-110981671D01*
X104542443Y-111054243D01*
X104506157Y-111090529D01*
X104433586Y-111126814D01*
X104361014Y-111126814D01*
X104288443Y-111090529D01*
X104252157Y-111054243D01*
X104215872Y-110981671D01*
X104179586Y-110836529D01*
X104179586Y-110655100D01*
X104215872Y-110509957D01*
X104252157Y-110437386D01*
X104288443Y-110401100D01*
X104361014Y-110364814D01*
X105268157Y-110618814D02*
X105268157Y-111126814D01*
X105086728Y-110328529D02*
X104905300Y-110872814D01*
X105377014Y-110872814D01*
X132631214Y-79723342D02*
X131869214Y-79723342D01*
X131869214Y-79433057D01*
X131905500Y-79360485D01*
X131941786Y-79324200D01*
X132014357Y-79287914D01*
X132123214Y-79287914D01*
X132195786Y-79324200D01*
X132232071Y-79360485D01*
X132268357Y-79433057D01*
X132268357Y-79723342D01*
X131869214Y-79033914D02*
X131869214Y-78562200D01*
X132159500Y-78816200D01*
X132159500Y-78707342D01*
X132195786Y-78634771D01*
X132232071Y-78598485D01*
X132304643Y-78562200D01*
X132486071Y-78562200D01*
X132558643Y-78598485D01*
X132594929Y-78634771D01*
X132631214Y-78707342D01*
X132631214Y-78925057D01*
X132594929Y-78997628D01*
X132558643Y-79033914D01*
X131869214Y-78090486D02*
X131869214Y-78017914D01*
X131905500Y-77945343D01*
X131941786Y-77909057D01*
X132014357Y-77872771D01*
X132159500Y-77836486D01*
X132340929Y-77836486D01*
X132486071Y-77872771D01*
X132558643Y-77909057D01*
X132594929Y-77945343D01*
X132631214Y-78017914D01*
X132631214Y-78090486D01*
X132594929Y-78163057D01*
X132558643Y-78199343D01*
X132486071Y-78235628D01*
X132340929Y-78271914D01*
X132159500Y-78271914D01*
X132014357Y-78235628D01*
X131941786Y-78199343D01*
X131905500Y-78163057D01*
X131869214Y-78090486D01*
X131941786Y-77546200D02*
X131905500Y-77509914D01*
X131869214Y-77437343D01*
X131869214Y-77255914D01*
X131905500Y-77183343D01*
X131941786Y-77147057D01*
X132014357Y-77110772D01*
X132086929Y-77110772D01*
X132195786Y-77147057D01*
X132631214Y-77582486D01*
X132631214Y-77110772D01*
X118744610Y-101795976D02*
X119180794Y-102232160D01*
X119257768Y-102257819D01*
X119309084Y-102257819D01*
X119386057Y-102232161D01*
X119488688Y-102129529D01*
X119514347Y-102052556D01*
X119514346Y-102001240D01*
X119488688Y-101924266D01*
X119052504Y-101488082D01*
X120130135Y-101488082D02*
X119822241Y-101795976D01*
X119976188Y-101642029D02*
X119437373Y-101103214D01*
X119463031Y-101231503D01*
X119463031Y-101334135D01*
X119437373Y-101411109D01*
X119924872Y-100615715D02*
X119976188Y-100564398D01*
X120053162Y-100538741D01*
X120104478Y-100538741D01*
X120181451Y-100564398D01*
X120309740Y-100641373D01*
X120438030Y-100769662D01*
X120515003Y-100897951D01*
X120540661Y-100974925D01*
X120540661Y-101026241D01*
X120515003Y-101103214D01*
X120463687Y-101154530D01*
X120386714Y-101180188D01*
X120335398Y-101180188D01*
X120258425Y-101154529D01*
X120130136Y-101077556D01*
X120001846Y-100949267D01*
X119924873Y-100820977D01*
X119899215Y-100744004D01*
X119899215Y-100692688D01*
X119924872Y-100615715D01*
X121156450Y-100461768D02*
X120848556Y-100769662D01*
X121002503Y-100615715D02*
X120463687Y-100076899D01*
X120489345Y-100205188D01*
X120489345Y-100307821D01*
X120463688Y-100384794D01*
X123652315Y-88343014D02*
X123652315Y-88959871D01*
X123688600Y-89032443D01*
X123724886Y-89068729D01*
X123797457Y-89105014D01*
X123942600Y-89105014D01*
X124015172Y-89068729D01*
X124051457Y-89032443D01*
X124087743Y-88959871D01*
X124087743Y-88343014D01*
X124378029Y-88343014D02*
X124849743Y-88343014D01*
X124595743Y-88633300D01*
X124704601Y-88633300D01*
X124777172Y-88669586D01*
X124813458Y-88705871D01*
X124849743Y-88778443D01*
X124849743Y-88959871D01*
X124813458Y-89032443D01*
X124777172Y-89068729D01*
X124704601Y-89105014D01*
X124486886Y-89105014D01*
X124414315Y-89068729D01*
X124378029Y-89032443D01*
X125321457Y-88343014D02*
X125394029Y-88343014D01*
X125466600Y-88379300D01*
X125502886Y-88415586D01*
X125539172Y-88488157D01*
X125575457Y-88633300D01*
X125575457Y-88814729D01*
X125539172Y-88959871D01*
X125502886Y-89032443D01*
X125466600Y-89068729D01*
X125394029Y-89105014D01*
X125321457Y-89105014D01*
X125248886Y-89068729D01*
X125212600Y-89032443D01*
X125176315Y-88959871D01*
X125140029Y-88814729D01*
X125140029Y-88633300D01*
X125176315Y-88488157D01*
X125212600Y-88415586D01*
X125248886Y-88379300D01*
X125321457Y-88343014D01*
X126301171Y-89105014D02*
X125865743Y-89105014D01*
X126083457Y-89105014D02*
X126083457Y-88343014D01*
X126010886Y-88451871D01*
X125938314Y-88524443D01*
X125865743Y-88560729D01*
X117797615Y-92457814D02*
X117797615Y-93074671D01*
X117833900Y-93147243D01*
X117870186Y-93183529D01*
X117942757Y-93219814D01*
X118087900Y-93219814D01*
X118160472Y-93183529D01*
X118196757Y-93147243D01*
X118233043Y-93074671D01*
X118233043Y-92457814D01*
X118523329Y-92457814D02*
X118995043Y-92457814D01*
X118741043Y-92748100D01*
X118849901Y-92748100D01*
X118922472Y-92784386D01*
X118958758Y-92820671D01*
X118995043Y-92893243D01*
X118995043Y-93074671D01*
X118958758Y-93147243D01*
X118922472Y-93183529D01*
X118849901Y-93219814D01*
X118632186Y-93219814D01*
X118559615Y-93183529D01*
X118523329Y-93147243D01*
X119466757Y-92457814D02*
X119539329Y-92457814D01*
X119611900Y-92494100D01*
X119648186Y-92530386D01*
X119684472Y-92602957D01*
X119720757Y-92748100D01*
X119720757Y-92929529D01*
X119684472Y-93074671D01*
X119648186Y-93147243D01*
X119611900Y-93183529D01*
X119539329Y-93219814D01*
X119466757Y-93219814D01*
X119394186Y-93183529D01*
X119357900Y-93147243D01*
X119321615Y-93074671D01*
X119285329Y-92929529D01*
X119285329Y-92748100D01*
X119321615Y-92602957D01*
X119357900Y-92530386D01*
X119394186Y-92494100D01*
X119466757Y-92457814D01*
X120011043Y-92530386D02*
X120047329Y-92494100D01*
X120119900Y-92457814D01*
X120301329Y-92457814D01*
X120373900Y-92494100D01*
X120410186Y-92530386D01*
X120446471Y-92602957D01*
X120446471Y-92675529D01*
X120410186Y-92784386D01*
X119974757Y-93219814D01*
X120446471Y-93219814D01*
X118421570Y-110391558D02*
X118164991Y-110648137D01*
X118524202Y-109929716D02*
X118421570Y-110391558D01*
X118883412Y-110288926D01*
X118806438Y-111289584D02*
X118498544Y-110981690D01*
X118652491Y-111135637D02*
X119191307Y-110596821D01*
X119063018Y-110622479D01*
X118960385Y-110622479D01*
X118883412Y-110596822D01*
X119678806Y-111084320D02*
X119730122Y-111135637D01*
X119755779Y-111212610D01*
X119755779Y-111263926D01*
X119730122Y-111340900D01*
X119653148Y-111469189D01*
X119524858Y-111597478D01*
X119396570Y-111674452D01*
X119319596Y-111700110D01*
X119268280Y-111700110D01*
X119191307Y-111674452D01*
X119139991Y-111623136D01*
X119114333Y-111546163D01*
X119114333Y-111494847D01*
X119139991Y-111417873D01*
X119216964Y-111289584D01*
X119345254Y-111161295D01*
X119473543Y-111084321D01*
X119550516Y-111058663D01*
X119601832Y-111058663D01*
X119678806Y-111084320D01*
X119832753Y-112315898D02*
X119524859Y-112008004D01*
X119678806Y-112161951D02*
X120217621Y-111623136D01*
X120089332Y-111648794D01*
X119986700Y-111648794D01*
X119909727Y-111623137D01*
X121486058Y-83999614D02*
X121486058Y-83237614D01*
X121776343Y-83237614D01*
X121848915Y-83273900D01*
X121885200Y-83310186D01*
X121921486Y-83382757D01*
X121921486Y-83491614D01*
X121885200Y-83564186D01*
X121848915Y-83600471D01*
X121776343Y-83636757D01*
X121486058Y-83636757D01*
X122175486Y-83237614D02*
X122647200Y-83237614D01*
X122393200Y-83527900D01*
X122502058Y-83527900D01*
X122574629Y-83564186D01*
X122610915Y-83600471D01*
X122647200Y-83673043D01*
X122647200Y-83854471D01*
X122610915Y-83927043D01*
X122574629Y-83963329D01*
X122502058Y-83999614D01*
X122284343Y-83999614D01*
X122211772Y-83963329D01*
X122175486Y-83927043D01*
X123118914Y-83237614D02*
X123191486Y-83237614D01*
X123264057Y-83273900D01*
X123300343Y-83310186D01*
X123336629Y-83382757D01*
X123372914Y-83527900D01*
X123372914Y-83709329D01*
X123336629Y-83854471D01*
X123300343Y-83927043D01*
X123264057Y-83963329D01*
X123191486Y-83999614D01*
X123118914Y-83999614D01*
X123046343Y-83963329D01*
X123010057Y-83927043D01*
X122973772Y-83854471D01*
X122937486Y-83709329D01*
X122937486Y-83527900D01*
X122973772Y-83382757D01*
X123010057Y-83310186D01*
X123046343Y-83273900D01*
X123118914Y-83237614D01*
X124098628Y-83999614D02*
X123663200Y-83999614D01*
X123880914Y-83999614D02*
X123880914Y-83237614D01*
X123808343Y-83346471D01*
X123735771Y-83419043D01*
X123663200Y-83455329D01*
X137749314Y-112717942D02*
X136987314Y-112717942D01*
X136987314Y-112427657D01*
X137023600Y-112355085D01*
X137059886Y-112318800D01*
X137132457Y-112282514D01*
X137241314Y-112282514D01*
X137313886Y-112318800D01*
X137350171Y-112355085D01*
X137386457Y-112427657D01*
X137386457Y-112717942D01*
X137059886Y-111992228D02*
X137023600Y-111955942D01*
X136987314Y-111883371D01*
X136987314Y-111701942D01*
X137023600Y-111629371D01*
X137059886Y-111593085D01*
X137132457Y-111556800D01*
X137205029Y-111556800D01*
X137313886Y-111593085D01*
X137749314Y-112028514D01*
X137749314Y-111556800D01*
X136987314Y-111085086D02*
X136987314Y-111012514D01*
X137023600Y-110939943D01*
X137059886Y-110903657D01*
X137132457Y-110867371D01*
X137277600Y-110831086D01*
X137459029Y-110831086D01*
X137604171Y-110867371D01*
X137676743Y-110903657D01*
X137713029Y-110939943D01*
X137749314Y-111012514D01*
X137749314Y-111085086D01*
X137713029Y-111157657D01*
X137676743Y-111193943D01*
X137604171Y-111230228D01*
X137459029Y-111266514D01*
X137277600Y-111266514D01*
X137132457Y-111230228D01*
X137059886Y-111193943D01*
X137023600Y-111157657D01*
X136987314Y-111085086D01*
X137059886Y-110540800D02*
X137023600Y-110504514D01*
X136987314Y-110431943D01*
X136987314Y-110250514D01*
X137023600Y-110177943D01*
X137059886Y-110141657D01*
X137132457Y-110105372D01*
X137205029Y-110105372D01*
X137313886Y-110141657D01*
X137749314Y-110577086D01*
X137749314Y-110105372D01*
X146867914Y-112603642D02*
X146105914Y-112603642D01*
X146105914Y-112313357D01*
X146142200Y-112240785D01*
X146178486Y-112204500D01*
X146251057Y-112168214D01*
X146359914Y-112168214D01*
X146432486Y-112204500D01*
X146468771Y-112240785D01*
X146505057Y-112313357D01*
X146505057Y-112603642D01*
X146178486Y-111877928D02*
X146142200Y-111841642D01*
X146105914Y-111769071D01*
X146105914Y-111587642D01*
X146142200Y-111515071D01*
X146178486Y-111478785D01*
X146251057Y-111442500D01*
X146323629Y-111442500D01*
X146432486Y-111478785D01*
X146867914Y-111914214D01*
X146867914Y-111442500D01*
X146105914Y-110970786D02*
X146105914Y-110898214D01*
X146142200Y-110825643D01*
X146178486Y-110789357D01*
X146251057Y-110753071D01*
X146396200Y-110716786D01*
X146577629Y-110716786D01*
X146722771Y-110753071D01*
X146795343Y-110789357D01*
X146831629Y-110825643D01*
X146867914Y-110898214D01*
X146867914Y-110970786D01*
X146831629Y-111043357D01*
X146795343Y-111079643D01*
X146722771Y-111115928D01*
X146577629Y-111152214D01*
X146396200Y-111152214D01*
X146251057Y-111115928D01*
X146178486Y-111079643D01*
X146142200Y-111043357D01*
X146105914Y-110970786D01*
X146105914Y-110462786D02*
X146105914Y-109991072D01*
X146396200Y-110245072D01*
X146396200Y-110136214D01*
X146432486Y-110063643D01*
X146468771Y-110027357D01*
X146541343Y-109991072D01*
X146722771Y-109991072D01*
X146795343Y-110027357D01*
X146831629Y-110063643D01*
X146867914Y-110136214D01*
X146867914Y-110353929D01*
X146831629Y-110426500D01*
X146795343Y-110462786D01*
X136920187Y-94580529D02*
X137029044Y-94616814D01*
X137210473Y-94616814D01*
X137283044Y-94580529D01*
X137319330Y-94544243D01*
X137355615Y-94471671D01*
X137355615Y-94399100D01*
X137319330Y-94326529D01*
X137283044Y-94290243D01*
X137210473Y-94253957D01*
X137065330Y-94217671D01*
X136992758Y-94181386D01*
X136956473Y-94145100D01*
X136920187Y-94072529D01*
X136920187Y-93999957D01*
X136956473Y-93927386D01*
X136992758Y-93891100D01*
X137065330Y-93854814D01*
X137246758Y-93854814D01*
X137355615Y-93891100D01*
X137609615Y-93854814D02*
X137791044Y-94616814D01*
X137936187Y-94072529D01*
X138081329Y-94616814D01*
X138262758Y-93854814D01*
X138516758Y-93927386D02*
X138553044Y-93891100D01*
X138625615Y-93854814D01*
X138807044Y-93854814D01*
X138879615Y-93891100D01*
X138915901Y-93927386D01*
X138952186Y-93999957D01*
X138952186Y-94072529D01*
X138915901Y-94181386D01*
X138480472Y-94616814D01*
X138952186Y-94616814D01*
X139423900Y-93854814D02*
X139496472Y-93854814D01*
X139569043Y-93891100D01*
X139605329Y-93927386D01*
X139641615Y-93999957D01*
X139677900Y-94145100D01*
X139677900Y-94326529D01*
X139641615Y-94471671D01*
X139605329Y-94544243D01*
X139569043Y-94580529D01*
X139496472Y-94616814D01*
X139423900Y-94616814D01*
X139351329Y-94580529D01*
X139315043Y-94544243D01*
X139278758Y-94471671D01*
X139242472Y-94326529D01*
X139242472Y-94145100D01*
X139278758Y-93999957D01*
X139315043Y-93927386D01*
X139351329Y-93891100D01*
X139423900Y-93854814D01*
X140403614Y-94616814D02*
X139968186Y-94616814D01*
X140185900Y-94616814D02*
X140185900Y-93854814D01*
X140113329Y-93963671D01*
X140040757Y-94036243D01*
X139968186Y-94072529D01*
%LPC*%
D17*
X138531600Y-86784180D03*
X138531600Y-82786220D03*
X134467600Y-86784180D03*
X134467600Y-82786220D03*
D18*
X114985800Y-82643980D03*
X114985800Y-84742020D03*
X116687600Y-82669380D03*
X116687600Y-84767420D03*
D19*
X131572000Y-84480400D03*
X128320800Y-84480400D03*
D20*
X150241000Y-107746800D03*
D21*
X150241000Y-105206800D03*
X150241000Y-102666800D03*
X150241000Y-100126800D03*
X150241000Y-97586800D03*
X150241000Y-95046800D03*
X150241000Y-92506800D03*
X150241000Y-89966800D03*
X150241000Y-87426800D03*
X150241000Y-84886800D03*
D22*
X109728000Y-124206000D03*
D23*
X112268000Y-124206000D03*
X114808000Y-124206000D03*
X117348000Y-124206000D03*
X119888000Y-124206000D03*
X122428000Y-124206000D03*
X124968000Y-124206000D03*
X127508000Y-124206000D03*
X130048000Y-124206000D03*
X132588000Y-124206000D03*
D22*
X119126000Y-78232000D03*
D23*
X116586000Y-78232000D03*
X114046000Y-78232000D03*
X111506000Y-78232000D03*
D24*
X143500600Y-78320900D03*
D25*
X140960600Y-78320900D03*
D22*
X136144000Y-124206000D03*
D23*
X138684000Y-124206000D03*
X141224000Y-124206000D03*
X143764000Y-124206000D03*
D24*
X104244900Y-105041700D03*
D25*
X104244900Y-107581700D03*
D20*
X104194100Y-88544400D03*
D21*
X104194100Y-91084400D03*
X104194100Y-93624400D03*
X104194100Y-96164400D03*
X104194100Y-98704400D03*
X104194100Y-101244400D03*
D20*
X104143300Y-113030000D03*
D21*
X104143300Y-115570000D03*
X104143300Y-118110000D03*
D24*
X136753600Y-78435200D03*
D25*
X134213600Y-78435200D03*
D10*
G36*
X118814311Y-107089379D02*
X118637534Y-106912602D01*
X119556773Y-105993363D01*
X119733550Y-106170140D01*
X118814311Y-107089379D01*
X118814311Y-107089379D01*
G37*
G36*
X119167864Y-107442932D02*
X118991087Y-107266155D01*
X119910326Y-106346916D01*
X120087103Y-106523693D01*
X119167864Y-107442932D01*
X119167864Y-107442932D01*
G37*
G36*
X119521418Y-107796486D02*
X119344641Y-107619709D01*
X120263880Y-106700470D01*
X120440657Y-106877247D01*
X119521418Y-107796486D01*
X119521418Y-107796486D01*
G37*
G36*
X119874971Y-108150039D02*
X119698194Y-107973262D01*
X120617433Y-107054023D01*
X120794210Y-107230800D01*
X119874971Y-108150039D01*
X119874971Y-108150039D01*
G37*
G36*
X120228524Y-108503592D02*
X120051747Y-108326815D01*
X120970986Y-107407576D01*
X121147763Y-107584353D01*
X120228524Y-108503592D01*
X120228524Y-108503592D01*
G37*
G36*
X120582078Y-108857146D02*
X120405301Y-108680369D01*
X121324540Y-107761130D01*
X121501317Y-107937907D01*
X120582078Y-108857146D01*
X120582078Y-108857146D01*
G37*
G36*
X120935631Y-109210699D02*
X120758854Y-109033922D01*
X121678093Y-108114683D01*
X121854870Y-108291460D01*
X120935631Y-109210699D01*
X120935631Y-109210699D01*
G37*
G36*
X121289185Y-109564253D02*
X121112408Y-109387476D01*
X122031647Y-108468237D01*
X122208424Y-108645014D01*
X121289185Y-109564253D01*
X121289185Y-109564253D01*
G37*
G36*
X121642738Y-109917806D02*
X121465961Y-109741029D01*
X122385200Y-108821790D01*
X122561977Y-108998567D01*
X121642738Y-109917806D01*
X121642738Y-109917806D01*
G37*
G36*
X121996291Y-110271359D02*
X121819514Y-110094582D01*
X122738753Y-109175343D01*
X122915530Y-109352120D01*
X121996291Y-110271359D01*
X121996291Y-110271359D01*
G37*
G36*
X122349845Y-110624913D02*
X122173068Y-110448136D01*
X123092307Y-109528897D01*
X123269084Y-109705674D01*
X122349845Y-110624913D01*
X122349845Y-110624913D01*
G37*
G36*
X122703398Y-110978466D02*
X122526621Y-110801689D01*
X123445860Y-109882450D01*
X123622637Y-110059227D01*
X122703398Y-110978466D01*
X122703398Y-110978466D01*
G37*
G36*
X125885379Y-110801689D02*
X125708602Y-110978466D01*
X124789363Y-110059227D01*
X124966140Y-109882450D01*
X125885379Y-110801689D01*
X125885379Y-110801689D01*
G37*
G36*
X126238932Y-110448136D02*
X126062155Y-110624913D01*
X125142916Y-109705674D01*
X125319693Y-109528897D01*
X126238932Y-110448136D01*
X126238932Y-110448136D01*
G37*
G36*
X126592486Y-110094582D02*
X126415709Y-110271359D01*
X125496470Y-109352120D01*
X125673247Y-109175343D01*
X126592486Y-110094582D01*
X126592486Y-110094582D01*
G37*
G36*
X126946039Y-109741029D02*
X126769262Y-109917806D01*
X125850023Y-108998567D01*
X126026800Y-108821790D01*
X126946039Y-109741029D01*
X126946039Y-109741029D01*
G37*
G36*
X127299592Y-109387476D02*
X127122815Y-109564253D01*
X126203576Y-108645014D01*
X126380353Y-108468237D01*
X127299592Y-109387476D01*
X127299592Y-109387476D01*
G37*
G36*
X127653146Y-109033922D02*
X127476369Y-109210699D01*
X126557130Y-108291460D01*
X126733907Y-108114683D01*
X127653146Y-109033922D01*
X127653146Y-109033922D01*
G37*
G36*
X128006699Y-108680369D02*
X127829922Y-108857146D01*
X126910683Y-107937907D01*
X127087460Y-107761130D01*
X128006699Y-108680369D01*
X128006699Y-108680369D01*
G37*
G36*
X128360253Y-108326815D02*
X128183476Y-108503592D01*
X127264237Y-107584353D01*
X127441014Y-107407576D01*
X128360253Y-108326815D01*
X128360253Y-108326815D01*
G37*
G36*
X128713806Y-107973262D02*
X128537029Y-108150039D01*
X127617790Y-107230800D01*
X127794567Y-107054023D01*
X128713806Y-107973262D01*
X128713806Y-107973262D01*
G37*
G36*
X129067359Y-107619709D02*
X128890582Y-107796486D01*
X127971343Y-106877247D01*
X128148120Y-106700470D01*
X129067359Y-107619709D01*
X129067359Y-107619709D01*
G37*
G36*
X129420913Y-107266155D02*
X129244136Y-107442932D01*
X128324897Y-106523693D01*
X128501674Y-106346916D01*
X129420913Y-107266155D01*
X129420913Y-107266155D01*
G37*
G36*
X129774466Y-106912602D02*
X129597689Y-107089379D01*
X128678450Y-106170140D01*
X128855227Y-105993363D01*
X129774466Y-106912602D01*
X129774466Y-106912602D01*
G37*
G36*
X128855227Y-104826637D02*
X128678450Y-104649860D01*
X129597689Y-103730621D01*
X129774466Y-103907398D01*
X128855227Y-104826637D01*
X128855227Y-104826637D01*
G37*
G36*
X128501674Y-104473084D02*
X128324897Y-104296307D01*
X129244136Y-103377068D01*
X129420913Y-103553845D01*
X128501674Y-104473084D01*
X128501674Y-104473084D01*
G37*
G36*
X128148120Y-104119530D02*
X127971343Y-103942753D01*
X128890582Y-103023514D01*
X129067359Y-103200291D01*
X128148120Y-104119530D01*
X128148120Y-104119530D01*
G37*
G36*
X127794567Y-103765977D02*
X127617790Y-103589200D01*
X128537029Y-102669961D01*
X128713806Y-102846738D01*
X127794567Y-103765977D01*
X127794567Y-103765977D01*
G37*
G36*
X127441014Y-103412424D02*
X127264237Y-103235647D01*
X128183476Y-102316408D01*
X128360253Y-102493185D01*
X127441014Y-103412424D01*
X127441014Y-103412424D01*
G37*
G36*
X127087460Y-103058870D02*
X126910683Y-102882093D01*
X127829922Y-101962854D01*
X128006699Y-102139631D01*
X127087460Y-103058870D01*
X127087460Y-103058870D01*
G37*
G36*
X126733907Y-102705317D02*
X126557130Y-102528540D01*
X127476369Y-101609301D01*
X127653146Y-101786078D01*
X126733907Y-102705317D01*
X126733907Y-102705317D01*
G37*
G36*
X126380353Y-102351763D02*
X126203576Y-102174986D01*
X127122815Y-101255747D01*
X127299592Y-101432524D01*
X126380353Y-102351763D01*
X126380353Y-102351763D01*
G37*
G36*
X126026800Y-101998210D02*
X125850023Y-101821433D01*
X126769262Y-100902194D01*
X126946039Y-101078971D01*
X126026800Y-101998210D01*
X126026800Y-101998210D01*
G37*
G36*
X125673247Y-101644657D02*
X125496470Y-101467880D01*
X126415709Y-100548641D01*
X126592486Y-100725418D01*
X125673247Y-101644657D01*
X125673247Y-101644657D01*
G37*
G36*
X125319693Y-101291103D02*
X125142916Y-101114326D01*
X126062155Y-100195087D01*
X126238932Y-100371864D01*
X125319693Y-101291103D01*
X125319693Y-101291103D01*
G37*
G36*
X124966140Y-100937550D02*
X124789363Y-100760773D01*
X125708602Y-99841534D01*
X125885379Y-100018311D01*
X124966140Y-100937550D01*
X124966140Y-100937550D01*
G37*
G36*
X123622637Y-100760773D02*
X123445860Y-100937550D01*
X122526621Y-100018311D01*
X122703398Y-99841534D01*
X123622637Y-100760773D01*
X123622637Y-100760773D01*
G37*
G36*
X123269084Y-101114326D02*
X123092307Y-101291103D01*
X122173068Y-100371864D01*
X122349845Y-100195087D01*
X123269084Y-101114326D01*
X123269084Y-101114326D01*
G37*
G36*
X122915530Y-101467880D02*
X122738753Y-101644657D01*
X121819514Y-100725418D01*
X121996291Y-100548641D01*
X122915530Y-101467880D01*
X122915530Y-101467880D01*
G37*
G36*
X122561977Y-101821433D02*
X122385200Y-101998210D01*
X121465961Y-101078971D01*
X121642738Y-100902194D01*
X122561977Y-101821433D01*
X122561977Y-101821433D01*
G37*
G36*
X122208424Y-102174986D02*
X122031647Y-102351763D01*
X121112408Y-101432524D01*
X121289185Y-101255747D01*
X122208424Y-102174986D01*
X122208424Y-102174986D01*
G37*
G36*
X121854870Y-102528540D02*
X121678093Y-102705317D01*
X120758854Y-101786078D01*
X120935631Y-101609301D01*
X121854870Y-102528540D01*
X121854870Y-102528540D01*
G37*
G36*
X121501317Y-102882093D02*
X121324540Y-103058870D01*
X120405301Y-102139631D01*
X120582078Y-101962854D01*
X121501317Y-102882093D01*
X121501317Y-102882093D01*
G37*
G36*
X121147763Y-103235647D02*
X120970986Y-103412424D01*
X120051747Y-102493185D01*
X120228524Y-102316408D01*
X121147763Y-103235647D01*
X121147763Y-103235647D01*
G37*
G36*
X120794210Y-103589200D02*
X120617433Y-103765977D01*
X119698194Y-102846738D01*
X119874971Y-102669961D01*
X120794210Y-103589200D01*
X120794210Y-103589200D01*
G37*
G36*
X120440657Y-103942753D02*
X120263880Y-104119530D01*
X119344641Y-103200291D01*
X119521418Y-103023514D01*
X120440657Y-103942753D01*
X120440657Y-103942753D01*
G37*
G36*
X120087103Y-104296307D02*
X119910326Y-104473084D01*
X118991087Y-103553845D01*
X119167864Y-103377068D01*
X120087103Y-104296307D01*
X120087103Y-104296307D01*
G37*
G36*
X119733550Y-104649860D02*
X119556773Y-104826637D01*
X118637534Y-103907398D01*
X118814311Y-103730621D01*
X119733550Y-104649860D01*
X119733550Y-104649860D01*
G37*
D26*
X123840200Y-87411560D03*
X125740200Y-87411560D03*
X124790200Y-85412580D03*
D27*
X115598000Y-91122200D03*
X116098000Y-91122200D03*
X116598000Y-91122200D03*
X117098000Y-91122200D03*
X117598000Y-91122200D03*
X118098000Y-91122200D03*
X118598000Y-91122200D03*
X119098000Y-91122200D03*
D28*
X119748000Y-90472200D03*
X119748000Y-89972200D03*
X119748000Y-89472200D03*
X119748000Y-88972200D03*
X119748000Y-88472200D03*
X119748000Y-87972200D03*
X119748000Y-87472200D03*
X119748000Y-86972200D03*
D27*
X119098000Y-86322200D03*
X118598000Y-86322200D03*
X118098000Y-86322200D03*
X117598000Y-86322200D03*
X117098000Y-86322200D03*
X116598000Y-86322200D03*
X116098000Y-86322200D03*
X115598000Y-86322200D03*
D28*
X114948000Y-86972200D03*
X114948000Y-87472200D03*
X114948000Y-87972200D03*
X114948000Y-88472200D03*
X114948000Y-88972200D03*
X114948000Y-89472200D03*
X114948000Y-89972200D03*
X114948000Y-90472200D03*
D29*
X118210500Y-87859700D03*
X116485500Y-87859700D03*
X118210500Y-89584700D03*
X116485500Y-89584700D03*
D30*
X114758395Y-112142195D03*
X118210405Y-115594205D03*
D31*
X126796800Y-80551400D03*
X126146800Y-80551400D03*
X125496800Y-80551400D03*
X127446800Y-80551400D03*
X128096800Y-80551400D03*
D32*
X129996800Y-80326400D03*
X123596800Y-80326400D03*
D33*
X127996800Y-77876400D03*
X125596800Y-77876400D03*
D34*
X130096800Y-77876400D03*
X123496800Y-77876400D03*
D35*
X141230000Y-111932000D03*
X141230000Y-113932000D03*
X141230000Y-115932000D03*
X141230000Y-117932000D03*
X149092000Y-117938000D03*
X149092000Y-115938000D03*
X149092000Y-113938000D03*
X149092000Y-111938000D03*
D36*
X128612800Y-92510300D03*
X137712800Y-92510300D03*
X128612800Y-97710300D03*
X137712800Y-97710300D03*
M02*
